<svg viewBox="0 0 16 16" fill="none" xmlns="http://www.w3.org/2000/svg">
<path d="M14 15H2V16H14V15Z" fill="#F7FEFF"/>
<path d="M15 14H14V15H15V14Z" fill="#F7FEFF"/>
<path d="M14 14H2V15H14V14Z" fill="#231E2B"/>
<path d="M2 14H1V15H2V14Z" fill="#F7FEFF"/>
<path d="M14 13H13V14H14V13Z" fill="#CF8934"/>
<path d="M3 13H2V14H3V13Z" fill="#CF8934"/>
<path d="M2 11H1V14H2V11Z" fill="#231E2B"/>
<path d="M15 11H14V14H15V11Z" fill="#231E2B"/>
<path d="M9 12H8V13H9V12Z" fill="#3B2130"/>
<path d="M8 12H7V13H8V12Z" fill="#784028"/>
<path d="M1 11H0V14H1V11Z" fill="#F7FEFF"/>
<path d="M16 11H15V14H16V11Z" fill="#F7FEFF"/>
<path d="M14 11H13V12H14V11Z" fill="#F5F38E"/>
<path d="M13 10H12V8H11V6H10V9H9V10H7V9H6V6H5V8H4V10H3V12H2V13H3V14H13V13H14V12H13V10ZM7 13V11H9V13H7Z" fill="#E2B436"/>
<path d="M9 11H8V12H9V11Z" fill="#522B29"/>
<path d="M8 11H7V12H8V11Z" fill="#3B2130"/>
<path d="M3 11H2V12H3V11Z" fill="#F5F38E"/>
<path d="M15 9H14V11H15V9Z" fill="#F7FEFF"/>
<path d="M3 9H2V11H3V9Z" fill="#231E2B"/>
<path d="M2 9H1V11H2V9Z" fill="#F7FEFF"/>
<path d="M14 9H13V11H14V9Z" fill="#231E2B"/>
<path d="M13 9H12V10H13V9Z" fill="#F5F38E"/>
<path d="M8 9H7V10H8V9Z" fill="#784028"/>
<path d="M4 9H3V10H4V9Z" fill="#F5F38E"/>
<path d="M14 7H13V9H14V7Z" fill="#F7FEFF"/>
<path d="M10 8H9V9H10V8Z" fill="#CF8934"/>
<path d="M7 8H6V9H7V8Z" fill="#784028"/>
<path d="M4 7H3V9H4V7Z" fill="#231E2B"/>
<path d="M3 7H2V9H3V7Z" fill="#F7FEFF"/>
<path d="M13 7H12V9H13V7Z" fill="#231E2B"/>
<path d="M12 7H11V8H12V7Z" fill="#F5F38E"/>
<path d="M10 7H9V8H10V7Z" fill="#784028"/>
<path d="M9 6H6V8H7V9H8V10H9V6Z" fill="#3B2130"/>
<path d="M5 7H4V8H5V7Z" fill="#F5F38E"/>
<path d="M13 5H12V7H13V5Z" fill="#F7FEFF"/>
<path d="M10 6H9V7H10V6Z" fill="#522B29"/>
<path d="M5 5H4V7H5V5Z" fill="#231E2B"/>
<path d="M4 5H3V7H4V5Z" fill="#F7FEFF"/>
<path d="M12 5H11V7H12V5Z" fill="#231E2B"/>
<path d="M11 5H10V6H11V5Z" fill="#F5F38E"/>
<path d="M9 5H7V6H9V5Z" fill="#522B29"/>
<path d="M7 6V5H9V6H10V4H9V3H7V4H6V6H7Z" fill="#E2B436"/>
<path d="M6 5H5V6H6V5Z" fill="#F5F38E"/>
<path d="M12 3H11V5H12V3Z" fill="#F7FEFF"/>
<path d="M6 3H5V5H6V3Z" fill="#231E2B"/>
<path d="M5 3H4V5H5V3Z" fill="#F7FEFF"/>
<path d="M11 3H10V5H11V3Z" fill="#231E2B"/>
<path d="M10 3H9V4H10V3Z" fill="#F5F38E"/>
<path d="M7 3H6V4H7V3Z" fill="#F5F38E"/>
<path d="M11 2H10V3H11V2Z" fill="#F7FEFF"/>
<path d="M10 2H9V3H10V2Z" fill="#231E2B"/>
<path d="M9 2H7V3H9V2Z" fill="#F5F38E"/>
<path d="M7 2H6V3H7V2Z" fill="#231E2B"/>
<path d="M6 2H5V3H6V2Z" fill="#F7FEFF"/>
<path d="M10 1H9V2H10V1Z" fill="#F7FEFF"/>
<path d="M9 1H7V2H9V1Z" fill="#231E2B"/>
<path d="M7 1H6V2H7V1Z" fill="#F7FEFF"/>
<path d="M9 0H7V1H9V0Z" fill="#F7FEFF"/>
</svg>
