<svg viewBox="0 0 16 16" fill="none" xmlns="http://www.w3.org/2000/svg">
<path d="M12 15H4V16H12V15Z" fill="#F7FEFF"/>
<path d="M13 14H12V15H13V14Z" fill="#F7FEFF"/>
<path d="M12 14H4V15H12V14Z" fill="#231E2B"/>
<path d="M4 14H3V15H4V14Z" fill="#F7FEFF"/>
<path d="M14 13H13V14H14V13Z" fill="#F7FEFF"/>
<path d="M13 13H12V14H13V13Z" fill="#231E2B"/>
<path d="M12 13H10V14H12V13Z" fill="#356E69"/>
<path d="M6 13H4V14H6V13Z" fill="#356E69"/>
<path d="M4 13H3V14H4V13Z" fill="#231E2B"/>
<path d="M3 13H2V14H3V13Z" fill="#F7FEFF"/>
<path d="M15 12H14V13H15V12Z" fill="#F7FEFF"/>
<path d="M14 12H13V13H14V12Z" fill="#231E2B"/>
<path d="M13 12H12V13H13V12Z" fill="#356E69"/>
<path d="M4 12H3V13H4V12Z" fill="#356E69"/>
<path d="M3 12H2V13H3V12Z" fill="#231E2B"/>
<path d="M2 12H1V13H2V12Z" fill="#F7FEFF"/>
<path d="M14 11H13V12H14V11Z" fill="#356E69"/>
<path d="M3 11H2V12H3V11Z" fill="#356E69"/>
<path d="M2 7H1V12H2V7Z" fill="#231E2B"/>
<path d="M15 7H14V12H15V7Z" fill="#231E2B"/>
<path d="M1 7H0V12H1V7Z" fill="#F7FEFF"/>
<path d="M4 7H3V10H4V7Z" fill="#ACC756"/>
<path d="M16 7H15V12H16V7Z" fill="#F7FEFF"/>
<path d="M13 10H12V7H11V6H12V5H9V7H8V8H7V7H6V5H4V6H5V7H4V10H3V7H2V11H3V12H4V13H6V14H10V13H12V12H13V11H14V7H13V10Z" fill="#4FAB59"/>
<path d="M13 7H12V10H13V7Z" fill="#ACC756"/>
<path d="M8 7H7V8H8V7Z" fill="#ACC756"/>
<path d="M15 6H14V7H15V6Z" fill="#F7FEFF"/>
<path d="M14 6H13V7H14V6Z" fill="#231E2B"/>
<path d="M13 6H12V7H13V6Z" fill="#4FAB59"/>
<path d="M12 6H11V7H12V6Z" fill="#ACC756"/>
<path d="M9 6H8V7H9V6Z" fill="#ACC756"/>
<path d="M8 6H7V7H8V6Z" fill="#356E69"/>
<path d="M7 6H6V7H7V6Z" fill="#ACC756"/>
<path d="M5 6H4V7H5V6Z" fill="#ACC756"/>
<path d="M4 6H3V7H4V6Z" fill="#4FAB59"/>
<path d="M3 6H2V7H3V6Z" fill="#231E2B"/>
<path d="M2 6H1V7H2V6Z" fill="#F7FEFF"/>
<path d="M14 5H13V6H14V5Z" fill="#F7FEFF"/>
<path d="M13 5H12V6H13V5Z" fill="#231E2B"/>
<path d="M9 5H8V6H9V5Z" fill="#356E69"/>
<path d="M8 3H7V6H8V3Z" fill="#784028"/>
<path d="M7 5H6V6H7V5Z" fill="#356E69"/>
<path d="M4 5H3V6H4V5Z" fill="#231E2B"/>
<path d="M3 5H2V6H3V5Z" fill="#F7FEFF"/>
<path d="M13 4H12V5H13V4Z" fill="#F7FEFF"/>
<path d="M7 5V3H6V4H4V5H7Z" fill="#231E2B"/>
<path d="M4 4H3V5H4V4Z" fill="#F7FEFF"/>
<path d="M12 3H9V4H12V3Z" fill="#F7FEFF"/>
<path d="M8 5H12V4H9V3H8V5Z" fill="#231E2B"/>
<path d="M6 4V3H5V1H4V4H6Z" fill="#F7FEFF"/>
<path d="M9 2H8V3H9V2Z" fill="#F7FEFF"/>
<path d="M8 2H7V3H8V2Z" fill="#231E2B"/>
<path d="M7 2H6V3H7V2Z" fill="#784028"/>
<path d="M5 3H6V2H7V1H5V3Z" fill="#231E2B"/>
<path d="M8 1H7V2H8V1Z" fill="#F7FEFF"/>
<path d="M7 0H5V1H7V0Z" fill="#F7FEFF"/>
</svg>
