<svg viewBox="0 0 16 16" fill="none" xmlns="http://www.w3.org/2000/svg">
<path d="M9 15H7V16H9V15Z" fill="#F7FEFF"/>
<path d="M10 14H9V15H10V14Z" fill="#F7FEFF"/>
<path d="M9 14H7V15H9V14Z" fill="#231E2B"/>
<path d="M7 14H6V15H7V14Z" fill="#F7FEFF"/>
<path d="M11 13H10V14H11V13Z" fill="#F7FEFF"/>
<path d="M10 13H9V14H10V13Z" fill="#231E2B"/>
<path d="M9 13H7V14H9V13Z" fill="#4A7DD3"/>
<path d="M7 13H6V14H7V13Z" fill="#231E2B"/>
<path d="M6 13H5V14H6V13Z" fill="#F7FEFF"/>
<path d="M12 12H11V13H12V12Z" fill="#F7FEFF"/>
<path d="M11 12H10V13H11V12Z" fill="#231E2B"/>
<path d="M10 12H9V13H10V12Z" fill="#4A7DD3"/>
<path d="M7 12H6V13H7V12Z" fill="#4A7DD3"/>
<path d="M6 12H5V13H6V12Z" fill="#231E2B"/>
<path d="M5 12H4V13H5V12Z" fill="#F7FEFF"/>
<path d="M13 11H12V12H13V11Z" fill="#F7FEFF"/>
<path d="M12 11H11V12H12V11Z" fill="#231E2B"/>
<path d="M11 11H10V12H11V11Z" fill="#4A7DD3"/>
<path d="M6 11H5V12H6V11Z" fill="#4A7DD3"/>
<path d="M5 11H4V12H5V11Z" fill="#231E2B"/>
<path d="M4 11H3V12H4V11Z" fill="#F7FEFF"/>
<path d="M14 10H13V11H14V10Z" fill="#F7FEFF"/>
<path d="M13 10H12V11H13V10Z" fill="#231E2B"/>
<path d="M12 10H11V11H12V10Z" fill="#4A7DD3"/>
<path d="M5 10H4V11H5V10Z" fill="#4A7DD3"/>
<path d="M4 10H3V11H4V10Z" fill="#231E2B"/>
<path d="M3 10H2V11H3V10Z" fill="#F7FEFF"/>
<path d="M15 9H14V10H15V9Z" fill="#F7FEFF"/>
<path d="M14 9H13V10H14V9Z" fill="#231E2B"/>
<path d="M13 9H12V10H13V9Z" fill="#4A7DD3"/>
<path d="M4 9H3V10H4V9Z" fill="#4A7DD3"/>
<path d="M3 9H2V10H3V9Z" fill="#231E2B"/>
<path d="M2 9H1V10H2V9Z" fill="#F7FEFF"/>
<path d="M14 8H13V9H14V8Z" fill="#4A7DD3"/>
<path d="M4 9V10H5V11H6V12H7V13H9V12H10V11H11V10H12V9H13V8H12V3H4V8H3V9H4Z" fill="#64A9DD"/>
<path d="M3 8H2V9H3V8Z" fill="#4A7DD3"/>
<path d="M16 7H15V9H16V7Z" fill="#F7FEFF"/>
<path d="M15 7H13V1H3V7H1V9H2V8H4V2H12V8H14V9H15V7Z" fill="#231E2B"/>
<path d="M1 7H0V9H1V7Z" fill="#F7FEFF"/>
<path d="M3 7V1H2V6H1V7H3Z" fill="#F7FEFF"/>
<path d="M13 7H15V6H14V1H13V7Z" fill="#F7FEFF"/>
<path d="M12 2H4V3H12V2Z" fill="#8CCBF2"/>
<path d="M13 0H3V1H13V0Z" fill="#F7FEFF"/>
</svg>
