<svg viewBox="0 0 16 12" fill="none" xmlns="http://www.w3.org/2000/svg">
<path d="M7 11H5V12H7V11Z" fill="#F7FEFF"/>
<path d="M5 10H4V11H5V10Z" fill="#F7FEFF"/>
<path d="M7 9V11H8V10H15V9H7Z" fill="#F7FEFF"/>
<path d="M6 9H5V10H6V9Z" fill="#484085"/>
<path d="M5 9H4V10H5V9Z" fill="#231E2B"/>
<path d="M4 9H3V10H4V9Z" fill="#F7FEFF"/>
<path d="M5 8H4V9H5V8Z" fill="#484085"/>
<path d="M4 8H3V9H4V8Z" fill="#231E2B"/>
<path d="M3 8H2V9H3V8Z" fill="#F7FEFF"/>
<path d="M15 3H7V1H5V2H6V4H14V8H6V10H5V11H7V9H15V3Z" fill="#231E2B"/>
<path d="M14 7H6V8H14V7Z" fill="#484085"/>
<path d="M4 7H3V8H4V7Z" fill="#484085"/>
<path d="M3 7H2V8H3V7Z" fill="#231E2B"/>
<path d="M2 7H1V8H2V7Z" fill="#F7FEFF"/>
<path d="M3 6H2V7H3V6Z" fill="#484085"/>
<path d="M2 5H1V7H2V5Z" fill="#231E2B"/>
<path d="M3 5H2V6H3V5Z" fill="#927BB3"/>
<path d="M1 5H0V7H1V5Z" fill="#F7FEFF"/>
<path d="M14 4H6V5H14V4Z" fill="#927BB3"/>
<path d="M4 4H3V5H4V4Z" fill="#927BB3"/>
<path d="M3 4H2V5H3V4Z" fill="#231E2B"/>
<path d="M2 4H1V5H2V4Z" fill="#F7FEFF"/>
<path d="M16 3H15V9H16V3Z" fill="#F7FEFF"/>
<path d="M5 4H4V5H3V7H4V8H5V9H6V7H14V5H6V3H5V4Z" fill="#6F59AB"/>
<path d="M5 3H4V4H5V3Z" fill="#927BB3"/>
<path d="M4 3H3V4H4V3Z" fill="#231E2B"/>
<path d="M3 3H2V4H3V3Z" fill="#F7FEFF"/>
<path d="M7 3H15V2H8V1H7V3Z" fill="#F7FEFF"/>
<path d="M6 2H5V3H6V2Z" fill="#927BB3"/>
<path d="M5 2H4V3H5V2Z" fill="#231E2B"/>
<path d="M4 2H3V3H4V2Z" fill="#F7FEFF"/>
<path d="M5 1H4V2H5V1Z" fill="#F7FEFF"/>
<path d="M7 0H5V1H7V0Z" fill="#F7FEFF"/>
</svg>
