<svg viewBox="0 0 16 16" fill="none" xmlns="http://www.w3.org/2000/svg">
<path d="M13 15H3V16H13V15Z" fill="#F7FEFF"/>
<path d="M3 9H1V10H2V15H3V9Z" fill="#F7FEFF"/>
<path d="M13 9V15H14V10H15V9H13Z" fill="#F7FEFF"/>
<path d="M12 8H11V9H12V8Z" fill="#CF8934"/>
<path d="M5 8H4V9H5V8Z" fill="#CF8934"/>
<path d="M16 7H15V9H16V7Z" fill="#F7FEFF"/>
<path d="M15 7H14V8H12V14H4V8H2V7H1V9H3V15H13V9H15V7Z" fill="#231E2B"/>
<path d="M14 7H13V8H14V7Z" fill="#F5F38E"/>
<path d="M12 7V6H11V5H10V4H9V3H7V4H6V5H5V6H4V7H3V8H5V9H4V14H12V9H11V8H13V7H12Z" fill="#E2B436"/>
<path d="M3 7H2V8H3V7Z" fill="#F5F38E"/>
<path d="M1 7H0V9H1V7Z" fill="#F7FEFF"/>
<path d="M15 6H14V7H15V6Z" fill="#F7FEFF"/>
<path d="M14 6H13V7H14V6Z" fill="#231E2B"/>
<path d="M13 6H12V7H13V6Z" fill="#F5F38E"/>
<path d="M4 6H3V7H4V6Z" fill="#F5F38E"/>
<path d="M3 6H2V7H3V6Z" fill="#231E2B"/>
<path d="M2 6H1V7H2V6Z" fill="#F7FEFF"/>
<path d="M14 5H13V6H14V5Z" fill="#F7FEFF"/>
<path d="M13 5H12V6H13V5Z" fill="#231E2B"/>
<path d="M12 5H11V6H12V5Z" fill="#F5F38E"/>
<path d="M5 5H4V6H5V5Z" fill="#F5F38E"/>
<path d="M4 5H3V6H4V5Z" fill="#231E2B"/>
<path d="M3 5H2V6H3V5Z" fill="#F7FEFF"/>
<path d="M13 4H12V5H13V4Z" fill="#F7FEFF"/>
<path d="M12 4H11V5H12V4Z" fill="#231E2B"/>
<path d="M11 4H10V5H11V4Z" fill="#F5F38E"/>
<path d="M6 4H5V5H6V4Z" fill="#F5F38E"/>
<path d="M5 4H4V5H5V4Z" fill="#231E2B"/>
<path d="M4 4H3V5H4V4Z" fill="#F7FEFF"/>
<path d="M12 3H11V4H12V3Z" fill="#F7FEFF"/>
<path d="M11 3H10V4H11V3Z" fill="#231E2B"/>
<path d="M10 3H9V4H10V3Z" fill="#F5F38E"/>
<path d="M7 3H6V4H7V3Z" fill="#F5F38E"/>
<path d="M6 3H5V4H6V3Z" fill="#231E2B"/>
<path d="M5 3H4V4H5V3Z" fill="#F7FEFF"/>
<path d="M11 2H10V3H11V2Z" fill="#F7FEFF"/>
<path d="M10 2H9V3H10V2Z" fill="#231E2B"/>
<path d="M9 2H7V3H9V2Z" fill="#F5F38E"/>
<path d="M7 2H6V3H7V2Z" fill="#231E2B"/>
<path d="M6 2H5V3H6V2Z" fill="#F7FEFF"/>
<path d="M10 1H9V2H10V1Z" fill="#F7FEFF"/>
<path d="M9 1H7V2H9V1Z" fill="#231E2B"/>
<path d="M7 1H6V2H7V1Z" fill="#F7FEFF"/>
<path d="M9 0H7V1H9V0Z" fill="#F7FEFF"/>
</svg>
