<svg viewBox="0 0 16 14" fill="none" xmlns="http://www.w3.org/2000/svg">
<path d="M10 13H8V14H10V13Z" fill="#F7FEFF"/>
<path d="M11 12H10V13H11V12Z" fill="#F7FEFF"/>
<path d="M9 12V10H2V4H9V2H10V1H8V3H1V11H8V13H10V12H9Z" fill="#231E2B"/>
<path d="M12 11H11V12H12V11Z" fill="#F7FEFF"/>
<path d="M11 11H10V12H11V11Z" fill="#231E2B"/>
<path d="M10 11H9V12H10V11Z" fill="#356E69"/>
<path d="M8 11H1V12H7V13H8V11Z" fill="#F7FEFF"/>
<path d="M13 10H12V11H13V10Z" fill="#F7FEFF"/>
<path d="M12 10H11V11H12V10Z" fill="#231E2B"/>
<path d="M11 10H10V11H11V10Z" fill="#356E69"/>
<path d="M14 9H13V10H14V9Z" fill="#F7FEFF"/>
<path d="M13 9H12V10H13V9Z" fill="#231E2B"/>
<path d="M12 9H11V10H12V9Z" fill="#356E69"/>
<path d="M9 9H2V10H9V9Z" fill="#356E69"/>
<path d="M1 3H0V11H1V3Z" fill="#F7FEFF"/>
<path d="M15 8H14V9H15V8Z" fill="#F7FEFF"/>
<path d="M14 8H13V9H14V8Z" fill="#231E2B"/>
<path d="M13 8H12V9H13V8Z" fill="#356E69"/>
<path d="M14 7H13V8H14V7Z" fill="#356E69"/>
<path d="M16 6H15V8H16V6Z" fill="#F7FEFF"/>
<path d="M15 6H14V8H15V6Z" fill="#231E2B"/>
<path d="M14 6H13V7H14V6Z" fill="#ACC756"/>
<path d="M13 6H12V5H11V4H10V3H9V5H2V9H9V11H10V10H11V9H12V8H13V6Z" fill="#4FAB59"/>
<path d="M15 5H14V6H15V5Z" fill="#F7FEFF"/>
<path d="M14 5H13V6H14V5Z" fill="#231E2B"/>
<path d="M13 5H12V6H13V5Z" fill="#ACC756"/>
<path d="M14 4H13V5H14V4Z" fill="#F7FEFF"/>
<path d="M13 4H12V5H13V4Z" fill="#231E2B"/>
<path d="M12 4H11V5H12V4Z" fill="#ACC756"/>
<path d="M9 4H2V5H9V4Z" fill="#ACC756"/>
<path d="M13 3H12V4H13V3Z" fill="#F7FEFF"/>
<path d="M12 3H11V4H12V3Z" fill="#231E2B"/>
<path d="M11 3H10V4H11V3Z" fill="#ACC756"/>
<path d="M12 2H11V3H12V2Z" fill="#F7FEFF"/>
<path d="M11 2H10V3H11V2Z" fill="#231E2B"/>
<path d="M10 2H9V3H10V2Z" fill="#ACC756"/>
<path d="M8 3V1H7V2H1V3H8Z" fill="#F7FEFF"/>
<path d="M11 1H10V2H11V1Z" fill="#F7FEFF"/>
<path d="M10 0H8V1H10V0Z" fill="#F7FEFF"/>
</svg>
