<svg viewBox="0 0 10 16" fill="none" xmlns="http://www.w3.org/2000/svg">
<path d="M6 15H5V16H6V15Z" fill="#F7FEFF"/>
<path d="M6 14H5V15H6V14Z" fill="#231E2B"/>
<path d="M5 14H4V15H5V14Z" fill="#F7FEFF"/>
<path d="M5 13V14H6V15H7V13H5Z" fill="#F7FEFF"/>
<path d="M4 13H3V14H4V13Z" fill="#F7FEFF"/>
<path d="M8 11H7V13H8V11Z" fill="#F7FEFF"/>
<path d="M6 12H4V11H3V13H4V14H5V13H7V11H6V12Z" fill="#231E2B"/>
<path d="M6 11H5V12H6V11Z" fill="#B0392E"/>
<path d="M5 11H4V12H5V11Z" fill="#892727"/>
<path d="M3 11H2V13H3V11Z" fill="#F7FEFF"/>
<path d="M7 10H6V11H7V10Z" fill="#F7FEFF"/>
<path d="M6 10H4V11H6V10Z" fill="#231E2B"/>
<path d="M4 10H3V11H4V10Z" fill="#F7FEFF"/>
<path d="M8 9H7V10H8V9Z" fill="#F7FEFF"/>
<path d="M7 9H6V10H7V9Z" fill="#231E2B"/>
<path d="M6 9H4V10H6V9Z" fill="#892727"/>
<path d="M4 9H3V10H4V9Z" fill="#231E2B"/>
<path d="M3 9H2V10H3V9Z" fill="#F7FEFF"/>
<path d="M9 8H8V9H9V8Z" fill="#F7FEFF"/>
<path d="M8 8H7V9H8V8Z" fill="#231E2B"/>
<path d="M7 8H6V9H7V8Z" fill="#892727"/>
<path d="M4 8H3V9H4V8Z" fill="#892727"/>
<path d="M3 8H2V9H3V8Z" fill="#231E2B"/>
<path d="M2 8H1V9H2V8Z" fill="#F7FEFF"/>
<path d="M8 7H7V8H8V7Z" fill="#892727"/>
<path d="M3 7H2V8H3V7Z" fill="#892727"/>
<path d="M2 3H1V8H2V3Z" fill="#231E2B"/>
<path d="M1 3H0V8H1V3Z" fill="#F7FEFF"/>
<path d="M7 4H6V6H7V4Z" fill="#CF6B55"/>
<path d="M10 3H9V8H10V3Z" fill="#F7FEFF"/>
<path d="M9 3H8V8H9V3Z" fill="#231E2B"/>
<path d="M6 3H5V4H6V3Z" fill="#CF6B55"/>
<path d="M2 3V7H3V8H4V9H6V8H7V7H8V3H7V2H3V3H2ZM6 3V4H7V6H6V4H5V3H6Z" fill="#B0392E"/>
<path d="M9 2H8V3H9V2Z" fill="#F7FEFF"/>
<path d="M8 2H7V3H8V2Z" fill="#231E2B"/>
<path d="M3 2H2V3H3V2Z" fill="#231E2B"/>
<path d="M2 2H1V3H2V2Z" fill="#F7FEFF"/>
<path d="M8 1H7V2H8V1Z" fill="#F7FEFF"/>
<path d="M7 1H3V2H7V1Z" fill="#231E2B"/>
<path d="M3 1H2V2H3V1Z" fill="#F7FEFF"/>
<path d="M7 0H3V1H7V0Z" fill="#F7FEFF"/>
</svg>
