<svg viewBox="0 0 16 14" fill="none" xmlns="http://www.w3.org/2000/svg">
<path d="M10 13H5V14H10V13Z" fill="#F7FEFF"/>
<path d="M12 12H10V13H12V12Z" fill="#F7FEFF"/>
<path d="M10 12H5V13H10V12Z" fill="#231E2B"/>
<path d="M5 12H3V13H5V12Z" fill="#F7FEFF"/>
<path d="M13 11H12V12H13V11Z" fill="#F7FEFF"/>
<path d="M12 11H10V12H12V11Z" fill="#231E2B"/>
<path d="M10 11H5V12H10V11Z" fill="#CF8934"/>
<path d="M5 11H3V12H5V11Z" fill="#231E2B"/>
<path d="M3 11H2V12H3V11Z" fill="#F7FEFF"/>
<path d="M14 10H13V11H14V10Z" fill="#F7FEFF"/>
<path d="M13 10H12V11H13V10Z" fill="#231E2B"/>
<path d="M12 10H10V11H12V10Z" fill="#CF8934"/>
<path d="M5 10H3V11H5V10Z" fill="#CF8934"/>
<path d="M3 10H2V11H3V10Z" fill="#231E2B"/>
<path d="M2 10H1V11H2V10Z" fill="#F7FEFF"/>
<path d="M15 9H14V10H15V9Z" fill="#F7FEFF"/>
<path d="M14 9H13V10H14V9Z" fill="#231E2B"/>
<path d="M13 9H12V10H13V9Z" fill="#CF8934"/>
<path d="M2 8H5V7H4V4H5V3H3V7H1V10H2V8Z" fill="#231E2B"/>
<path d="M14 8H13V9H14V8Z" fill="#CF8934"/>
<path d="M9 9V8H6V7H5V8H2V10H3V9H9Z" fill="#CF8934"/>
<path d="M1 7H0V10H1V7Z" fill="#F7FEFF"/>
<path d="M15 1H12V4H13V2H14V9H15V1Z" fill="#231E2B"/>
<path d="M11 7H9V8H11V7Z" fill="#CF8934"/>
<path d="M13 7H11V8H9V9H3V10H5V11H10V10H12V9H13V8H14V6H13V7Z" fill="#E2B436"/>
<path d="M13 6H11V7H13V6Z" fill="#CF8934"/>
<path d="M5 6H4V7H5V6Z" fill="#CF8934"/>
<path d="M3 7V3H2V6H1V7H3Z" fill="#F7FEFF"/>
<path d="M14 3H13V6H14V3Z" fill="#CF8934"/>
<path d="M10 5V6H7V5H5V4H4V6H5V7H6V8H9V7H11V6H13V4H12V5H10Z" fill="#E2B436"/>
<path d="M10 5H7V6H10V5Z" fill="#231E2B"/>
<path d="M12 4H10V5H12V4Z" fill="#231E2B"/>
<path d="M10 4H7V5H10V4Z" fill="#F7FEFF"/>
<path d="M7 4H5V5H7V4Z" fill="#231E2B"/>
<path d="M12 4V1H11V3H10V4H12Z" fill="#F7FEFF"/>
<path d="M7 3H5V4H7V3Z" fill="#F7FEFF"/>
<path d="M14 2H13V3H14V2Z" fill="#E2B436"/>
<path d="M5 2H3V3H5V2Z" fill="#F7FEFF"/>
<path d="M16 1H15V9H16V1Z" fill="#F7FEFF"/>
<path d="M15 0H12V1H15V0Z" fill="#F7FEFF"/>
</svg>
