<svg viewBox="0 0 14 16" fill="none" xmlns="http://www.w3.org/2000/svg">
<path d="M9 15H7V16H9V15Z" fill="#F7FEFF"/>
<path d="M10 14H9V15H10V14Z" fill="#F7FEFF"/>
<path d="M9 14H7V15H9V14Z" fill="#231E2B"/>
<path d="M7 14H6V15H7V14Z" fill="#F7FEFF"/>
<path d="M13 13H10V14H13V13Z" fill="#F7FEFF"/>
<path d="M10 13H9V14H10V13Z" fill="#231E2B"/>
<path d="M9 13H7V14H9V13Z" fill="#CF8934"/>
<path d="M7 13H6V14H7V13Z" fill="#231E2B"/>
<path d="M6 13H1V14H6V13Z" fill="#F7FEFF"/>
<path d="M14 11H13V13H14V11Z" fill="#F7FEFF"/>
<path d="M10 12H9V13H10V12Z" fill="#CF8934"/>
<path d="M9 12H6V13H9V12Z" fill="#C2751D"/>
<path d="M6 13V12H2V11H1V13H6Z" fill="#231E2B"/>
<path d="M12 12H10V13H13V11H12V12Z" fill="#231E2B"/>
<path d="M12 11H11V12H12V11Z" fill="#F5F38E"/>
<path d="M11 11H3V12H11V11Z" fill="#E2B436"/>
<path d="M3 11H2V12H3V11Z" fill="#F5F38E"/>
<path d="M1 11H0V13H1V11Z" fill="#F7FEFF"/>
<path d="M11 10H3V11H11V10Z" fill="#CF8934"/>
<path d="M2 5H1V11H2V5Z" fill="#F7FEFF"/>
<path d="M4 5H3V10H4V5Z" fill="#F5F38E"/>
<path d="M13 5H12V11H13V5Z" fill="#F7FEFF"/>
<path d="M11 5H10V10H11V5Z" fill="#F5F38E"/>
<path d="M3 5H2V11H3V5Z" fill="#231E2B"/>
<path d="M12 5H11V11H12V5Z" fill="#231E2B"/>
<path d="M10 5H4V10H10V5Z" fill="#E2B436"/>
<path d="M12 4H11V5H12V4Z" fill="#F7FEFF"/>
<path d="M11 4H10V5H11V4Z" fill="#231E2B"/>
<path d="M10 4H4V5H10V4Z" fill="#F5F38E"/>
<path d="M4 4H3V5H4V4Z" fill="#231E2B"/>
<path d="M3 4H2V5H3V4Z" fill="#F7FEFF"/>
<path d="M11 3H10V4H11V3Z" fill="#F7FEFF"/>
<path d="M8 3H6V4H8V3Z" fill="#E2B436"/>
<path d="M6 4V2H5V3H4V4H6Z" fill="#231E2B"/>
<path d="M4 3H3V4H4V3Z" fill="#F7FEFF"/>
<path d="M10 2H9V3H10V2Z" fill="#F7FEFF"/>
<path d="M8 4H10V3H9V2H8V4Z" fill="#231E2B"/>
<path d="M8 2H6V3H8V2Z" fill="#F5F38E"/>
<path d="M5 2H4V3H5V2Z" fill="#F7FEFF"/>
<path d="M9 1H8V2H9V1Z" fill="#F7FEFF"/>
<path d="M8 1H6V2H8V1Z" fill="#231E2B"/>
<path d="M6 1H5V2H6V1Z" fill="#F7FEFF"/>
<path d="M8 0H6V1H8V0Z" fill="#F7FEFF"/>
</svg>
