<svg width="107" height="107" viewBox="0 0 107 107" fill="none" xmlns="http://www.w3.org/2000/svg">
<g clip-path="url(#clip0_17_433)">
<path d="M107 46.5216H100.023V39.5432H6.97841V46.5216H0V100.023H6.97841V107H100.023V100.023H107V46.5216Z" fill="#663A00"/>
<path d="M100.023 46.5216V39.5432H6.97841V46.5216H0V67.4568H6.97841H13.9568V74.4352H34.892V67.4568H41.8693V74.4352H65.1307V67.4568H72.1091V74.4352H93.0443V67.4568H100.023H107V46.5216H100.023Z" fill="white"/>
<path d="M107 83.7398H0V90.7182H107V83.7398Z" fill="#FF3501"/>
<path d="M27.9136 13.9568H20.9352V46.5216H27.9136V13.9568Z" fill="#FF3501"/>
<path d="M46.5216 13.9568H39.5432V46.5216H46.5216V13.9568Z" fill="#FF3501"/>
<path d="M86.0659 13.9568H79.0875V46.5216H86.0659V13.9568Z" fill="#FF3501"/>
<path d="M67.4568 13.9568H60.4784V46.5216H67.4568V13.9568Z" fill="#FF3501"/>
<path d="M27.9136 0H20.9352V6.97841H27.9136V0Z" fill="#FFA733"/>
<path d="M46.5215 0H39.5431V6.97841H46.5215V0Z" fill="#FFA733"/>
<path d="M67.4568 0H60.4784V6.97841H67.4568V0Z" fill="#FFA733"/>
<path d="M86.0658 0H79.0874V6.97841H86.0658V0Z" fill="#FFA733"/>
<path d="M13.9568 67.4568V60.4784H6.97841V46.5216H0V100.023H6.97841V67.4568H13.9568Z" fill="black"/>
<path d="M41.8705 60.4784H34.8921V67.4568H41.8705V60.4784Z" fill="black"/>
<path d="M72.109 60.4784H65.1306V67.4568H72.109V60.4784Z" fill="black"/>
<path d="M34.892 67.4568H13.9568V74.4352H34.892V67.4568Z" fill="black"/>
<path d="M65.1306 67.4568H41.8693V74.4352H65.1306V67.4568Z" fill="black"/>
<path d="M93.0443 67.4568H72.1091V74.4352H93.0443V67.4568Z" fill="black"/>
<path d="M100.023 46.5216V60.4784H93.0443V67.4568H100.023V100.023H107V46.5216H100.023Z" fill="black"/>
<path d="M100.023 100.023H6.97839V107.001H100.023V100.023Z" fill="black"/>
<path d="M100.023 39.5432H6.97839V46.5216H100.023V39.5432Z" fill="black"/>
</g>
<defs>
<clipPath id="clip0_17_433">
<rect width="107" height="107" fill="white"/>
</clipPath>
</defs>
</svg>
