<svg viewBox="0 0 16 16" fill="none" xmlns="http://www.w3.org/2000/svg">
<path d="M13 15H3V16H13V15Z" fill="#F7FEFF"/>
<path d="M14 14H13V15H14V14Z" fill="#F7FEFF"/>
<path d="M13 14H3V15H13V14Z" fill="#231E2B"/>
<path d="M3 14H2V15H3V14Z" fill="#F7FEFF"/>
<path d="M15 13H14V14H15V13Z" fill="#F7FEFF"/>
<path d="M14 13H13V14H14V13Z" fill="#231E2B"/>
<path d="M3 13H2V14H3V13Z" fill="#231E2B"/>
<path d="M2 13H1V14H2V13Z" fill="#F7FEFF"/>
<path d="M2 6H1V13H2V6Z" fill="#231E2B"/>
<path d="M15 5H14V13H15V5Z" fill="#231E2B"/>
<path d="M1 6H0V13H1V6Z" fill="#F7FEFF"/>
<path d="M2 9V13H3V14H13V13H14V9H2Z" fill="#F7FEFF"/>
<path d="M14 8H2V9H14V8Z" fill="#B0392E"/>
<path d="M14 7H2V8H14V7Z" fill="#F7FEFF"/>
<path d="M14 6H13V7H14V6Z" fill="#356E69"/>
<path d="M13 6H12V7H13V6Z" fill="#4FAB59"/>
<path d="M11 6V5H10V7H12V6H11Z" fill="#356E69"/>
<path d="M5 6H4V7H5V6Z" fill="#4FAB59"/>
<path d="M4 6H3V7H4V6Z" fill="#356E69"/>
<path d="M3 6H2V7H3V6Z" fill="#ACC756"/>
<path d="M16 5H15V13H16V5Z" fill="#F7FEFF"/>
<path d="M14 5H13V6H14V5Z" fill="#ACC756"/>
<path d="M13 5H12V6H13V5Z" fill="#356E69"/>
<path d="M12 5H11V6H12V5Z" fill="#892727"/>
<path d="M10 5H9V7H10V5Z" fill="#4FAB59"/>
<path d="M9 5H8V7H9V5Z" fill="#356E69"/>
<path d="M8 5H7V7H8V5Z" fill="#4FAB59"/>
<path d="M7 5H6V6H5V7H7V5Z" fill="#356E69"/>
<path d="M6 5H5V6H6V5Z" fill="#892727"/>
<path d="M5 5H4V6H5V5Z" fill="#356E69"/>
<path d="M4 5H3V6H4V5Z" fill="#4FAB59"/>
<path d="M3 5H2V6H3V5Z" fill="#231E2B"/>
<path d="M2 5H1V6H2V5Z" fill="#F7FEFF"/>
<path d="M15 3H14V5H15V3Z" fill="#F7FEFF"/>
<path d="M12 4H11V5H12V4Z" fill="#CF6B55"/>
<path d="M11 4H10V5H11V4Z" fill="#B0392E"/>
<path d="M10 4H9V5H10V4Z" fill="#356E69"/>
<path d="M9 4H8V5H9V4Z" fill="#ACC756"/>
<path d="M8 3H7V5H8V3Z" fill="#356E69"/>
<path d="M7 4H6V5H7V4Z" fill="#4FAB59"/>
<path d="M6 4H5V5H6V4Z" fill="#CF6B55"/>
<path d="M5 4H4V5H5V4Z" fill="#B0392E"/>
<path d="M3 4H2V5H3V4Z" fill="#ACC756"/>
<path d="M2 4H1V5H2V4Z" fill="#231E2B"/>
<path d="M1 4H0V5H1V4Z" fill="#F7FEFF"/>
<path d="M13 4H12V5H14V3H13V4Z" fill="#231E2B"/>
<path d="M13 3H12V4H13V3Z" fill="#ACC756"/>
<path d="M12 3H10V4H12V3Z" fill="#231E2B"/>
<path d="M10 3H9V4H10V3Z" fill="#ACC756"/>
<path d="M9 3H8V4H9V3Z" fill="#B0392E"/>
<path d="M6 3H5V4H6V3Z" fill="#ACC756"/>
<path d="M5 3H4V4H5V3Z" fill="#4FAB59"/>
<path d="M3 4V5H4V3H2V4H3Z" fill="#231E2B"/>
<path d="M2 3H1V4H2V3Z" fill="#F7FEFF"/>
<path d="M14 2H13V3H14V2Z" fill="#F7FEFF"/>
<path d="M13 2H12V3H13V2Z" fill="#231E2B"/>
<path d="M12 2H10V3H12V2Z" fill="#F7FEFF"/>
<path d="M10 2H9V3H10V2Z" fill="#231E2B"/>
<path d="M9 2H8V3H9V2Z" fill="#CF6B55"/>
<path d="M8 2H7V3H8V2Z" fill="#ACC756"/>
<path d="M6 3V4H7V2H4V3H6Z" fill="#231E2B"/>
<path d="M4 2H2V3H4V2Z" fill="#F7FEFF"/>
<path d="M13 1H12V2H13V1Z" fill="#F7FEFF"/>
<path d="M10 1H9V2H10V1Z" fill="#F7FEFF"/>
<path d="M9 1H7V2H9V1Z" fill="#231E2B"/>
<path d="M7 1H4V2H7V1Z" fill="#F7FEFF"/>
<path d="M9 0H7V1H9V0Z" fill="#F7FEFF"/>
</svg>
