<svg width="107" height="100" viewBox="0 0 107 100" fill="none" xmlns="http://www.w3.org/2000/svg">
<g clip-path="url(#clip0_17_130)">
<path d="M100.023 13.9538V6.9769H93.0443V0H60.4784V6.9769H53.5V13.9538H46.5216V20.9307H34.892V27.9076H27.9136V34.8834H20.9352V46.5116H13.9568V53.4885H6.97841V60.4654H0V86.0473H6.97841V93.0242H13.9568V100H93.0443V93.0242H100.023V86.0473H107V60.4654H100.023V53.4885H93.0443V46.5116H100.023V39.5346H107V32.5577V27.9076V20.9307V13.9538H100.023Z" fill="#EE8700"/>
<path d="M107 60.4654H100.023V53.4885H93.0443V46.5116H69.783V53.4885H62.8045V46.5116H39.5432V53.4885H32.5648V46.5116H13.9568V53.4885H6.97841V60.4654H0V86.0473H6.97841V93.0242H13.9568V100H93.0443V93.0242H100.023V86.0473H107V60.4654Z" fill="#FFA733"/>
<path d="M107.001 13.9538H100.023V39.5358H107.001V13.9538Z" fill="black"/>
<path d="M58.1523 20.9307H53.5001V13.9538H46.5216V20.9307H34.8921V27.9076H58.1523V20.9307Z" fill="black"/>
<path d="M34.892 27.9076H27.9136V34.8845H34.892V27.9076Z" fill="black"/>
<path d="M65.1306 27.9076H58.1522V34.8845H65.1306V27.9076Z" fill="black"/>
<path d="M60.4784 6.9769H53.5V13.9538H60.4784V6.9769Z" fill="black"/>
<path d="M93.0432 0H60.4784V6.9769H93.0432V0Z" fill="black"/>
<path d="M100.023 39.5346H93.0443V46.5116H100.023V39.5346Z" fill="black"/>
<path d="M93.0443 46.5116H69.783V53.4885H93.0443V46.5116Z" fill="black"/>
<path d="M100.023 6.9769H93.0443V13.9538H100.023V6.9769Z" fill="black"/>
<path d="M13.9568 53.4885H6.97839V60.4654H13.9568V53.4885Z" fill="black"/>
<path d="M6.97841 60.4654H0V86.0473H6.97841V60.4654Z" fill="black"/>
<path d="M69.783 53.4885H62.8046V60.4654H69.783V53.4885Z" fill="black"/>
<path d="M62.8046 60.4654H55.8262V74.4192H62.8046V60.4654Z" fill="black"/>
<path d="M13.9568 86.0473H6.97839V93.0242H13.9568V86.0473Z" fill="black"/>
<path d="M39.5432 53.4885H32.5648V60.4654H39.5432V53.4885Z" fill="black"/>
<path d="M32.5659 60.4654H25.5875V74.4192H32.5659V60.4654Z" fill="black"/>
<path d="M62.8046 46.5116H39.5432V53.4885H62.8046V46.5116Z" fill="black"/>
<path d="M32.5647 46.5116H27.9136V34.8834H20.9352V46.5116H13.9568V53.4885H32.5647V46.5116Z" fill="black"/>
<path d="M100.023 86.0473H93.0443V93.0242H100.023V86.0473Z" fill="black"/>
<path d="M100.023 53.4885H93.0443V60.4654H100.023V53.4885Z" fill="black"/>
<path d="M107.001 60.4654H100.023V86.0473H107.001V60.4654Z" fill="black"/>
<path d="M93.0443 93.0242H13.9568V100.001H93.0443V93.0242Z" fill="black"/>
<path d="M81.4136 6.9769H60.4784V13.9538H81.4136V6.9769Z" fill="white"/>
<path d="M51.1749 27.9076H34.892V34.8845H51.1749V27.9076Z" fill="white"/>
<path d="M13.9568 60.4654H6.97839V67.4423H13.9568V60.4654Z" fill="white"/>
<path d="M20.9352 53.4885H13.9568V60.4654H20.9352V53.4885Z" fill="white"/>
<path d="M46.5216 53.4885H39.5432V60.4654H46.5216V53.4885Z" fill="white"/>
<path d="M39.5431 60.4654H32.5647V67.4423H39.5431V60.4654Z" fill="white"/>
<path d="M76.7614 53.4885H69.783V60.4654H76.7614V53.4885Z" fill="white"/>
<path d="M69.783 60.4654H62.8046V67.4423H69.783V60.4654Z" fill="white"/>
</g>
<defs>
<clipPath id="clip0_17_130">
<rect width="107" height="100" fill="white"/>
</clipPath>
</defs>
</svg>
