<svg viewBox="0 0 16 16" fill="none" xmlns="http://www.w3.org/2000/svg">
<path d="M15 15H1V16H15V15Z" fill="#F7FEFF"/>
<path d="M15 5H14V14H2V5H1V15H15V5Z" fill="#231E2B"/>
<path d="M14 13H2V14H14V13Z" fill="#784028"/>
<path d="M1 5H0V15H1V5Z" fill="#F7FEFF"/>
<path d="M14 12H2V13H14V12Z" fill="#522B29"/>
<path d="M14 10H2V12H14V10Z" fill="#C7936B"/>
<path d="M14 9H2V10H14V9Z" fill="#E8BE9B"/>
<path d="M14 6H2V9H14V6Z" fill="#A6644B"/>
<path d="M16 5H15V15H16V5Z" fill="#F7FEFF"/>
<path d="M15 4H14V5H15V4Z" fill="#F7FEFF"/>
<path d="M14 4H13V5H14V4Z" fill="#231E2B"/>
<path d="M13 4H12V3H11V2H8V3H6V4H4V5H2V6H14V5H13V4Z" fill="#784028"/>
<path d="M4 4H2V5H4V4Z" fill="#231E2B"/>
<path d="M2 4H1V5H2V4Z" fill="#F7FEFF"/>
<path d="M14 3H13V4H14V3Z" fill="#F7FEFF"/>
<path d="M13 3H12V4H13V3Z" fill="#231E2B"/>
<path d="M6 3H4V4H6V3Z" fill="#231E2B"/>
<path d="M4 3H2V4H4V3Z" fill="#F7FEFF"/>
<path d="M13 2H12V3H13V2Z" fill="#F7FEFF"/>
<path d="M12 2H11V3H12V2Z" fill="#231E2B"/>
<path d="M8 2H6V3H8V2Z" fill="#231E2B"/>
<path d="M6 2H4V3H6V2Z" fill="#F7FEFF"/>
<path d="M12 1H11V2H12V1Z" fill="#F7FEFF"/>
<path d="M11 1H8V2H11V1Z" fill="#231E2B"/>
<path d="M8 1H6V2H8V1Z" fill="#F7FEFF"/>
<path d="M11 0H8V1H11V0Z" fill="#F7FEFF"/>
</svg>
