<svg viewBox="0 0 10 16" fill="none" xmlns="http://www.w3.org/2000/svg">
<path d="M8 15H2V16H8V15Z" fill="#F7FEFF"/>
<path d="M9 14H8V15H9V14Z" fill="#F7FEFF"/>
<path d="M8 14H2V15H8V14Z" fill="#231E2B"/>
<path d="M2 14H1V15H2V14Z" fill="#F7FEFF"/>
<path d="M8 13H2V14H8V13Z" fill="#B6B7B8"/>
<path d="M2 2H1V14H2V2Z" fill="#231E2B"/>
<path d="M1 2H0V14H1V2Z" fill="#F7FEFF"/>
<path d="M10 2H9V14H10V2Z" fill="#F7FEFF"/>
<path d="M8 2H2V13H8V2Z" fill="#47414D"/>
<path d="M9 2H8V14H9V2Z" fill="#231E2B"/>
<path d="M9 1H8V2H9V1Z" fill="#F7FEFF"/>
<path d="M8 1H2V2H8V1Z" fill="#231E2B"/>
<path d="M2 1H1V2H2V1Z" fill="#F7FEFF"/>
<path d="M8 0H2V1H8V0Z" fill="#F7FEFF"/>
</svg>
