<svg viewBox="0 0 16 12" fill="none" xmlns="http://www.w3.org/2000/svg">
<path d="M13 10.5H11V11.5H13V10.5Z" fill="#F7FEFF"/>
<path d="M5 10.5H3V11.5H5V10.5Z" fill="#F7FEFF"/>
<path d="M15 9.5H13V10.5H15V9.5Z" fill="#F7FEFF"/>
<path d="M13 9.5H11V10.5H13V9.5Z" fill="#231E2B"/>
<path d="M11 9.5H5V10.5H11V9.5Z" fill="#F7FEFF"/>
<path d="M5 9.5H3V10.5H5V9.5Z" fill="#231E2B"/>
<path d="M3 9.5H1V10.5H3V9.5Z" fill="#F7FEFF"/>
<path d="M13 8.5H11V9.5H13V8.5Z" fill="#696168"/>
<path d="M11 8.5H5V9.5H11V8.5Z" fill="#231E2B"/>
<path d="M5 8.5H3V9.5H5V8.5Z" fill="#696168"/>
<path d="M3 9.5V8.5H2V5.5H1V9.5H3Z" fill="#231E2B"/>
<path d="M15 5.5H14V8.5H13V9.5H15V5.5Z" fill="#231E2B"/>
<path d="M14 7.5H13V8.5H14V7.5Z" fill="#CF6B55"/>
<path d="M13 7.5H11V8.5H13V7.5Z" fill="#231E2B"/>
<path d="M11 7.5H10V8.5H11V7.5Z" fill="#CF6B55"/>
<path d="M10 7.5H6V8.5H10V7.5Z" fill="#892727"/>
<path d="M6 7.5H5V8.5H6V7.5Z" fill="#CF6B55"/>
<path d="M5 7.5H3V8.5H5V7.5Z" fill="#231E2B"/>
<path d="M3 7.5H2V8.5H3V7.5Z" fill="#CF6B55"/>
<path d="M1 5.5H0V9.5H1V5.5Z" fill="#F7FEFF"/>
<path d="M13 6.5H11V7.5H13V6.5Z" fill="#CF6B55"/>
<path d="M5 6.5H3V7.5H5V6.5Z" fill="#CF6B55"/>
<path d="M16 5.5H15V9.5H16V5.5Z" fill="#F7FEFF"/>
<path d="M2 5.5V7.5H3V6.5H5V7.5H11V6.5H13V7.5H14V5.5H2Z" fill="#B0392E"/>
<path d="M15 4.5H14V5.5H15V4.5Z" fill="#F7FEFF"/>
<path d="M14 4.5H11V5.5H14V4.5Z" fill="#231E2B"/>
<path d="M11 4.5H10V5.5H11V4.5Z" fill="#CF6B55"/>
<path d="M10 4.5H8V5.5H10V4.5Z" fill="#36313B"/>
<path d="M7 4.5H5V5.5H7V4.5Z" fill="#36313B"/>
<path d="M5 4.5H4V5.5H5V4.5Z" fill="#CF6B55"/>
<path d="M4 4.5H2V5.5H4V4.5Z" fill="#231E2B"/>
<path d="M2 4.5H1V5.5H2V4.5Z" fill="#F7FEFF"/>
<path d="M14 3.5H11V4.5H14V3.5Z" fill="#F7FEFF"/>
<path d="M11 3.5H10V4.5H11V3.5Z" fill="#231E2B"/>
<path d="M10 3.5H9V4.5H10V3.5Z" fill="#CF6B55"/>
<path d="M9 3.5H8V4.5H9V3.5Z" fill="#47414D"/>
<path d="M7 5.5H8V3.5H9V2.5H6V3.5H7V5.5Z" fill="#CF6B55"/>
<path d="M7 3.5H6V4.5H7V3.5Z" fill="#47414D"/>
<path d="M6 3.5H5V4.5H6V3.5Z" fill="#CF6B55"/>
<path d="M5 3.5H4V4.5H5V3.5Z" fill="#231E2B"/>
<path d="M4 3.5H2V4.5H4V3.5Z" fill="#F7FEFF"/>
<path d="M11 2.5H10V3.5H11V2.5Z" fill="#F7FEFF"/>
<path d="M10 2.5H9V3.5H10V2.5Z" fill="#231E2B"/>
<path d="M6 2.5H5V3.5H6V2.5Z" fill="#231E2B"/>
<path d="M5 2.5H4V3.5H5V2.5Z" fill="#F7FEFF"/>
<path d="M10 1.5H9V2.5H10V1.5Z" fill="#F7FEFF"/>
<path d="M9 1.5H6V2.5H9V1.5Z" fill="#231E2B"/>
<path d="M6 1.5H5V2.5H6V1.5Z" fill="#F7FEFF"/>
<path d="M9 0.5H6V1.5H9V0.5Z" fill="#F7FEFF"/>
</svg>
