<svg  viewBox="0 0 16 14" fill="none" xmlns="http://www.w3.org/2000/svg">
<path d="M8 12.5H6V13.5H8V12.5Z" fill="#F7FEFF"/>
<path d="M9 11.5H8V12.5H9V11.5Z" fill="#F7FEFF"/>
<path d="M8 11.5H6V12.5H8V11.5Z" fill="#231E2B"/>
<path d="M6 11.5H5V12.5H6V11.5Z" fill="#F7FEFF"/>
<path d="M10 10.5H9V11.5H10V10.5Z" fill="#F7FEFF"/>
<path d="M9 10.5H8V11.5H9V10.5Z" fill="#231E2B"/>
<path d="M8 10.5H6V11.5H8V10.5Z" fill="#356E69"/>
<path d="M6 10.5H5V11.5H6V10.5Z" fill="#231E2B"/>
<path d="M5 10.5H4V11.5H5V10.5Z" fill="#F7FEFF"/>
<path d="M11 9.5H10V10.5H11V9.5Z" fill="#F7FEFF"/>
<path d="M10 9.5H9V10.5H10V9.5Z" fill="#231E2B"/>
<path d="M9 9.5H8V10.5H9V9.5Z" fill="#356E69"/>
<path d="M6 9.5H5V10.5H6V9.5Z" fill="#356E69"/>
<path d="M5 9.5H4V10.5H5V9.5Z" fill="#231E2B"/>
<path d="M4 9.5H3V10.5H4V9.5Z" fill="#F7FEFF"/>
<path d="M12 8.5H11V9.5H12V8.5Z" fill="#F7FEFF"/>
<path d="M11 8.5H10V9.5H11V8.5Z" fill="#231E2B"/>
<path d="M10 8.5H9V9.5H10V8.5Z" fill="#356E69"/>
<path d="M5 8.5H4V9.5H5V8.5Z" fill="#356E69"/>
<path d="M4 8.5H3V9.5H4V8.5Z" fill="#231E2B"/>
<path d="M3 8.5H2V9.5H3V8.5Z" fill="#F7FEFF"/>
<path d="M13 7.5H12V8.5H13V7.5Z" fill="#F7FEFF"/>
<path d="M12 7.5H11V8.5H12V7.5Z" fill="#231E2B"/>
<path d="M11 7.5H10V8.5H11V7.5Z" fill="#356E69"/>
<path d="M4 7.5H3V8.5H4V7.5Z" fill="#356E69"/>
<path d="M3 7.5H2V8.5H3V7.5Z" fill="#231E2B"/>
<path d="M2 7.5H1V8.5H2V7.5Z" fill="#F7FEFF"/>
<path d="M14 6.5H13V7.5H14V6.5Z" fill="#F7FEFF"/>
<path d="M13 6.5H12V7.5H13V6.5Z" fill="#231E2B"/>
<path d="M12 6.5H11V7.5H12V6.5Z" fill="#356E69"/>
<path d="M8 6.5H6V7.5H8V6.5Z" fill="#ACC756"/>
<path d="M3 6.5H2V7.5H3V6.5Z" fill="#356E69"/>
<path d="M2 5.5H1V7.5H2V5.5Z" fill="#231E2B"/>
<path d="M15 5.5H14V6.5H15V5.5Z" fill="#F7FEFF"/>
<path d="M14 5.5H13V6.5H14V5.5Z" fill="#231E2B"/>
<path d="M13 5.5H12V6.5H13V5.5Z" fill="#356E69"/>
<path d="M9 5.5H8V6.5H9V5.5Z" fill="#ACC756"/>
<path d="M8 5.5H6V6.5H8V5.5Z" fill="#231E2B"/>
<path d="M6 5.5H5V6.5H6V5.5Z" fill="#ACC756"/>
<path d="M1 5.5H0V7.5H1V5.5Z" fill="#F7FEFF"/>
<path d="M14 4.5H13V5.5H14V4.5Z" fill="#356E69"/>
<path d="M10 4.5H9V5.5H10V4.5Z" fill="#ACC756"/>
<path d="M9 4.5H8V5.5H9V4.5Z" fill="#231E2B"/>
<path d="M8 4.5H6V5.5H8V4.5Z" fill="#F7FEFF"/>
<path d="M6 4.5H5V5.5H6V4.5Z" fill="#231E2B"/>
<path d="M5 4.5H3V5.5H5V4.5Z" fill="#ACC756"/>
<path d="M3 4.5H2V5.5H3V4.5Z" fill="#231E2B"/>
<path d="M2 4.5H1V5.5H2V4.5Z" fill="#F7FEFF"/>
<path d="M16 3.5H15V5.5H16V3.5Z" fill="#F7FEFF"/>
<path d="M15 3.5H14V5.5H15V3.5Z" fill="#231E2B"/>
<path d="M14 3.5H13V4.5H14V3.5Z" fill="#ACC756"/>
<path d="M13 3.5H11V4.5H10V5.5H9V6.5H8V7.5H6V6.5H5V5.5H2V6.5H3V7.5H4V8.5H5V9.5H6V10.5H8V9.5H9V8.5H10V7.5H11V6.5H12V5.5H13V3.5Z" fill="#4FAB59"/>
<path d="M11 3.5H10V4.5H11V3.5Z" fill="#ACC756"/>
<path d="M10 3.5H9V4.5H10V3.5Z" fill="#231E2B"/>
<path d="M9 3.5H8V4.5H9V3.5Z" fill="#F7FEFF"/>
<path d="M6 3.5H5V4.5H6V3.5Z" fill="#F7FEFF"/>
<path d="M5 3.5H3V4.5H5V3.5Z" fill="#231E2B"/>
<path d="M3 3.5H2V4.5H3V3.5Z" fill="#F7FEFF"/>
<path d="M15 2.5H14V3.5H15V2.5Z" fill="#F7FEFF"/>
<path d="M14 2.5H13V3.5H14V2.5Z" fill="#231E2B"/>
<path d="M13 2.5H11V3.5H13V2.5Z" fill="#ACC756"/>
<path d="M11 2.5H10V3.5H11V2.5Z" fill="#231E2B"/>
<path d="M10 2.5H9V3.5H10V2.5Z" fill="#F7FEFF"/>
<path d="M5 2.5H3V3.5H5V2.5Z" fill="#F7FEFF"/>
<path d="M14 1.5H13V2.5H14V1.5Z" fill="#F7FEFF"/>
<path d="M13 1.5H11V2.5H13V1.5Z" fill="#231E2B"/>
<path d="M11 1.5H10V2.5H11V1.5Z" fill="#F7FEFF"/>
<path d="M13 0.5H11V1.5H13V0.5Z" fill="#F7FEFF"/>
</svg>
