<svg width="107" height="106" viewBox="0 0 107 106" fill="none" xmlns="http://www.w3.org/2000/svg">
<g clip-path="url(#clip0_17_74)">
<path d="M100.023 34.5659V20.7396H93.0443V13.8264H86.0659V6.91319H79.0875V0H55.8261V6.91319H44.1955V13.8264H34.892V20.7396H25.5875V27.6528H16.283V34.5659H6.97841V41.478H0V106H107V46.0868V41.478V34.5659H100.023Z" fill="#FFEB00"/>
<path d="M69.783 36.8692V27.6528H62.8046V20.7396H53.5V27.6528H46.5216V36.8692H53.5V43.7824H62.8046V36.8692H69.783Z" fill="#FF7300"/>
<path d="M93.0443 71.4352H86.0659V64.522H72.1091V71.4352H65.1307V85.2615H72.1091V92.1747H86.0659V85.2615H93.0443V71.4352Z" fill="#FF7300"/>
<path d="M32.5648 62.2176H23.2614V69.1308H16.283V78.3484H23.2614V85.2615H32.5648V78.3484H39.5432V69.1308H32.5648V62.2176Z" fill="#FF7300"/>
<path d="M79.0875 0H55.8261V6.91319H79.0875V0Z" fill="black"/>
<path d="M93.0443 13.8264H86.0659V20.7396H93.0443V13.8264Z" fill="black"/>
<path d="M100.023 20.7396H93.0443V34.5659H100.023V20.7396Z" fill="black"/>
<path d="M100.023 34.5659V48.3912H79.0875V55.3044H100.023V99.0879H6.97841V55.3044H51.1739V48.3912H6.97841V41.478H0V106H107V34.5659H100.023Z" fill="black"/>
<path d="M72.1091 48.3912H65.1307V55.3044H72.1091V48.3912Z" fill="black"/>
<path d="M16.2829 34.5659H6.97839V41.4791H16.2829V34.5659Z" fill="black"/>
<path d="M25.5875 27.6528H16.283V34.5659H25.5875V27.6528Z" fill="black"/>
<path d="M34.8921 20.7396H25.5875V27.6528H34.8921V20.7396Z" fill="black"/>
<path d="M44.1966 13.8264H34.892V20.7396H44.1966V13.8264Z" fill="black"/>
<path d="M55.8261 6.91319H44.1954V13.8264H55.8261V6.91319Z" fill="black"/>
<path d="M62.8045 20.7396H53.5V27.6528H62.8045V20.7396Z" fill="black"/>
<path d="M53.5 27.6528H46.5216V36.8703H53.5V27.6528Z" fill="black"/>
<path d="M62.8045 36.8692H53.5V43.7824H62.8045V36.8692Z" fill="black"/>
<path d="M69.783 27.6528H62.8046V36.8703H69.783V27.6528Z" fill="black"/>
<path d="M32.5659 62.2176H23.2614V69.1308H32.5659V62.2176Z" fill="black"/>
<path d="M39.5432 69.1308H32.5648V78.3484H39.5432V69.1308Z" fill="black"/>
<path d="M32.5659 78.3484H23.2614V85.2615H32.5659V78.3484Z" fill="black"/>
<path d="M23.2614 69.1308H16.283V78.3484H23.2614V69.1308Z" fill="black"/>
<path d="M72.1091 71.4352H65.1307V85.2615H72.1091V71.4352Z" fill="black"/>
<path d="M86.0659 64.522H72.1091V71.4352H86.0659V64.522Z" fill="black"/>
<path d="M93.0443 71.4352H86.0659V85.2615H93.0443V71.4352Z" fill="black"/>
<path d="M86.0659 85.2615H72.1091V92.1747H86.0659V85.2615Z" fill="black"/>
<path d="M86.0659 6.91319H79.0875V13.8264H86.0659V6.91319Z" fill="black"/>
</g>
<defs>
<clipPath id="clip0_17_74">
<rect width="107" height="106" fill="white"/>
</clipPath>
</defs>
</svg>
