<svg  viewBox="0 0 16 16" fill="none" xmlns="http://www.w3.org/2000/svg">
<path d="M14 15H2V16H14V15Z" fill="#F7FEFF"/>
<path d="M15 14H14V15H15V14Z" fill="#F7FEFF"/>
<path d="M14 14H2V15H14V14Z" fill="#231E2B"/>
<path d="M2 14H1V15H2V14Z" fill="#F7FEFF"/>
<path d="M11 13H10V14H11V13Z" fill="#CF8934"/>
<path d="M4 13H3V14H4V13Z" fill="#CF8934"/>
<path d="M2 5H1V14H2V5Z" fill="#231E2B"/>
<path d="M15 5H14V14H15V5Z" fill="#231E2B"/>
<path d="M14 12H13V14H14V12Z" fill="#CF8934"/>
<path d="M1 5H0V14H1V5Z" fill="#F7FEFF"/>
<path d="M8 11H6V13H8V11Z" fill="#CF8934"/>
<path d="M5 10H4V11H5V10Z" fill="#CF8934"/>
<path d="M12 8H10V10H12V8Z" fill="#CF8934"/>
<path d="M5 7H3V9H5V7Z" fill="#CF8934"/>
<path d="M9 7H8V8H9V7Z" fill="#CF8934"/>
<path d="M8 6V5H7V6H2V14H3V13H4V14H10V13H11V14H13V12H14V6H8ZM12 10H10V8H12V10ZM5 11H4V10H5V11ZM9 7V8H8V7H9ZM3 7H5V9H3V7ZM6 13V11H8V13H6Z" fill="#E2B436"/>
<path d="M16 5H15V14H16V5Z" fill="#F7FEFF"/>
<path d="M15 4H14V5H15V4Z" fill="#F7FEFF"/>
<path d="M14 4H13V5H14V4Z" fill="#231E2B"/>
<path d="M13 4H12V3H11V2H8V3H6V4H5V5H2V6H7V5H8V6H14V5H13V4ZM10 3V4H9V3H10Z" fill="#F5F38E"/>
<path d="M5 4H4V5H5V4Z" fill="#E2B436"/>
<path d="M4 4H2V5H4V4Z" fill="#231E2B"/>
<path d="M2 4H1V5H2V4Z" fill="#F7FEFF"/>
<path d="M14 3H13V4H14V3Z" fill="#F7FEFF"/>
<path d="M13 3H12V4H13V3Z" fill="#231E2B"/>
<path d="M10 3H9V4H10V3Z" fill="#E2B436"/>
<path d="M6 3H4V4H6V3Z" fill="#231E2B"/>
<path d="M4 3H2V4H4V3Z" fill="#F7FEFF"/>
<path d="M13 2H12V3H13V2Z" fill="#F7FEFF"/>
<path d="M12 2H11V3H12V2Z" fill="#231E2B"/>
<path d="M8 2H6V3H8V2Z" fill="#231E2B"/>
<path d="M6 2H4V3H6V2Z" fill="#F7FEFF"/>
<path d="M12 1H11V2H12V1Z" fill="#F7FEFF"/>
<path d="M11 1H8V2H11V1Z" fill="#231E2B"/>
<path d="M8 1H6V2H8V1Z" fill="#F7FEFF"/>
<path d="M11 0H8V1H11V0Z" fill="#F7FEFF"/>
</svg>
