<svg width="96" height="96" viewBox="0 0 96 96" fill="none" xmlns="http://www.w3.org/2000/svg">
<g clip-path="url(#clip0_20_562)">
<path d="M95.08 35.138H88.88V28.937H82.679V22.737H72.344V12.402H66.143V6.201H59.942V0H35.138V6.201H28.937V12.402H22.737V22.737H12.402V28.937H6.201V35.138H0V51.674H6.201V57.875H12.402V64.076H18.603V95.08H76.478V64.076H82.679V57.875H88.88V51.674H95.08V35.138Z" fill="white"/>
<path d="M76.478 70.277H18.603V95.081H76.478V70.277Z" fill="#E1E3FA"/>
<path d="M59.942 0H35.138V6.201H59.942V0Z" fill="black"/>
<path d="M66.143 6.20099H59.942V12.402H66.143V6.20099Z" fill="black"/>
<path d="M66.143 28.937H59.942V35.138H66.143V28.937Z" fill="black"/>
<path d="M35.138 28.937H28.937V35.138H35.138V28.937Z" fill="black"/>
<path d="M39.272 57.875H33.071V70.277H39.272V57.875Z" fill="black"/>
<path d="M62.009 57.875H55.808V70.277H62.009V57.875Z" fill="black"/>
<path d="M66.143 28.937H72.344H82.679V22.737H72.344V12.402H66.143V22.737V28.937Z" fill="black"/>
<path d="M88.88 28.937H82.679V35.138H88.88V28.937Z" fill="black"/>
<path d="M95.081 35.138H88.88V51.674H95.081V35.138Z" fill="black"/>
<path d="M88.88 51.674H82.679V57.875H88.88V51.674Z" fill="black"/>
<path d="M70.277 57.875V64.076V76.478H24.804V64.076V57.875H18.603H12.402V64.076H18.603V76.478V82.679V88.88V95.081H24.804H70.277H76.478V88.88V82.679V76.478V64.076H82.679V57.875H76.478H70.277ZM70.277 88.88H24.804V82.679H70.277V88.88Z" fill="black"/>
<path d="M12.402 51.674H6.201V57.875H12.402V51.674Z" fill="black"/>
<path d="M6.201 35.138H0V51.674H6.201V35.138Z" fill="black"/>
<path d="M12.402 28.937H6.201V35.138H12.402V28.937Z" fill="black"/>
<path d="M28.937 28.937V22.737V12.402H22.737V22.737H12.402V28.937H22.737H28.937Z" fill="black"/>
<path d="M35.138 6.20099H28.937V12.402H35.138V6.20099Z" fill="black"/>
</g>
<defs>
<clipPath id="clip0_20_562">
<rect width="95.08" height="95.08" fill="white"/>
</clipPath>
</defs>
</svg>
