<svg xmlns="http://www.w3.org/2000/svg" viewBox="0 0 128 192"><defs><style>.cls-1{fill:#ffdc98;}.cls-2{fill:#fdaf3d;}.cls-3{fill:#dcaa82;}.cls-4{fill:#ff9d3e;}.cls-5{fill:#ad704b;}.cls-6{fill:#e56319;}.cls-7{fill:#fff;}</style></defs><title>Asset 5</title><g id="Layer_2" data-name="Layer 2"><g id="chest"><rect x="24" width="8" height="8"/><rect x="32" width="8" height="8"/><rect x="40" width="8" height="8"/><rect x="48" width="8" height="8"/><rect x="56" width="8" height="8"/><rect x="64" width="8" height="8"/><rect x="72" width="8" height="8"/><rect x="80" width="8" height="8"/><rect x="88" width="8" height="8"/><rect x="96" width="8" height="8"/><rect x="104" y="8" width="8" height="8"/><rect x="112" y="16" width="8" height="8"/><rect x="112" y="24" width="8" height="8"/><rect x="120" y="32" width="8" height="8"/><rect x="120" y="40" width="8" height="8"/><rect x="120" y="48" width="8" height="8"/><rect x="120" y="56" width="8" height="8"/><rect x="112" y="56" width="8" height="8"/><rect x="104" y="56" width="8" height="8"/><rect x="96" y="56" width="8" height="8"/><rect x="88" y="56" width="8" height="8"/><rect x="80" y="56" width="8" height="8"/><rect x="72" y="56" width="8" height="8"/><rect x="64" y="56" width="8" height="8"/><rect x="64" y="48" width="8" height="8"/><rect x="64" y="40" width="8" height="8"/><rect x="64" y="32" width="8" height="8"/><rect x="72" y="24" width="8" height="8"/><rect x="72" y="16" width="8" height="8"/><rect x="80" y="8" width="8" height="8"/><rect x="16" y="8" width="8" height="8"/><rect x="8" y="16" width="8" height="8"/><rect x="8" y="24" width="8" height="8"/><rect y="32" width="8" height="8"/><rect y="40" width="8" height="8"/><rect y="48" width="8" height="8"/><rect y="56" width="8" height="8"/><rect x="8" y="56" width="8" height="8"/><rect x="16" y="56" width="8" height="8"/><rect x="24" y="56" width="8" height="8"/><rect x="24" y="48" width="8" height="8"/><rect x="32" y="48" width="8" height="8"/><rect x="40" y="48" width="8" height="8"/><rect x="40" y="56" width="8" height="8"/><rect x="48" y="56" width="8" height="8"/><rect x="56" y="56" width="8" height="8"/><rect x="40" y="64" width="8" height="8"/><rect x="40" y="72" width="8" height="8"/><rect x="32" y="72" width="8" height="8"/><rect x="24" y="72" width="8" height="8"/><rect x="24" y="64" width="8" height="8"/><rect y="64" width="8" height="8"/><rect y="72" width="8" height="8"/><rect y="80" width="8" height="8"/><rect y="88" width="8" height="8"/><rect y="96" width="8" height="8"/><rect y="104" width="8" height="8"/><rect y="112" width="8" height="8"/><rect y="120" width="8" height="8"/><rect x="8" y="120" width="8" height="8"/><rect x="16" y="120" width="8" height="8"/><rect x="24" y="120" width="8" height="8"/><rect x="32" y="120" width="8" height="8"/><rect x="40" y="120" width="8" height="8"/><rect x="48" y="120" width="8" height="8"/><rect x="56" y="120" width="8" height="8"/><rect x="64" y="120" width="8" height="8"/><rect x="64" y="112" width="8" height="8"/><rect x="64" y="104" width="8" height="8"/><rect x="64" y="96" width="8" height="8"/><rect x="64" y="88" width="8" height="8"/><rect x="64" y="80" width="8" height="8"/><rect x="64" y="72" width="8" height="8"/><rect x="64" y="64" width="8" height="8"/><rect x="120" y="64" width="8" height="8"/><rect x="120" y="72" width="8" height="8"/><rect x="120" y="80" width="8" height="8"/><rect x="120" y="88" width="8" height="8"/><rect x="120" y="96" width="8" height="8"/><rect x="120" y="104" width="8" height="8"/><rect x="120" y="112" width="8" height="8"/><rect x="120" y="120" width="8" height="8"/><rect x="112" y="120" width="8" height="8"/><rect x="104" y="120" width="8" height="8"/><rect x="96" y="120" width="8" height="8"/><rect x="88" y="120" width="8" height="8"/><rect x="80" y="120" width="8" height="8"/><rect x="72" y="120" width="8" height="8"/><rect x="24" y="128" width="8" height="8"/><rect x="16" y="128" width="8" height="8"/><rect x="8" y="136" width="8" height="8"/><rect y="144" width="8" height="8"/><rect y="152" width="8" height="8"/><rect x="8" y="152" width="8" height="8"/><rect x="8" y="160" width="8" height="8"/><rect x="8" y="168" width="8" height="8"/><rect x="8" y="176" width="8" height="8"/><rect x="8" y="184" width="8" height="8"/><rect x="16" y="184" width="8" height="8"/><rect x="24" y="184" width="8" height="8"/><rect x="40" y="184" width="8" height="8"/><rect x="40" y="176" width="8" height="8"/><rect x="56" y="184" width="8" height="8"/><rect x="64" y="184" width="8" height="8"/><rect x="64" y="176" width="8" height="8"/><rect x="72" y="176" width="8" height="8"/><rect x="72" y="168" width="8" height="8"/><rect x="72" y="160" width="8" height="8"/><rect x="72" y="152" width="8" height="8"/><rect x="72" y="144" width="8" height="8"/><rect x="72" y="136" width="8" height="8"/><rect x="64" y="128" width="8" height="8"/><rect x="72" y="128" width="8" height="8"/><rect x="80" y="128" width="8" height="8"/><rect x="88" y="128" width="8" height="8"/><rect x="96" y="128" width="8" height="8"/><rect x="104" y="128" width="8" height="8"/><rect x="112" y="128" width="8" height="8"/><rect x="112" y="136" width="8" height="8"/><rect x="120" y="136" width="8" height="8"/><rect x="120" y="144" width="8" height="8"/><rect x="120" y="152" width="8" height="8"/><rect x="120" y="160" width="8" height="8"/><rect x="112" y="160" width="8" height="8"/><rect x="112" y="168" width="8" height="8"/><rect x="104" y="168" width="8" height="8"/><rect x="96" y="168" width="8" height="8"/><rect x="96" y="176" width="8" height="8"/><rect x="96" y="184" width="8" height="8"/><rect x="88" y="184" width="8" height="8"/><rect x="80" y="184" width="8" height="8"/><rect x="96" y="152" width="8" height="8"/><rect x="96" y="144" width="8" height="8"/><rect x="32" y="176" width="8" height="8"/><rect x="32" y="168" width="8" height="8"/><rect x="32" y="160" width="8" height="8"/><rect x="32" y="152" width="8" height="8"/><rect x="32" y="144" width="8" height="8"/><rect x="32" y="136" width="8" height="8"/><rect x="40" y="128" width="8" height="8"/><rect x="48" y="128" width="8" height="8"/><rect x="56" y="136" width="8" height="8"/><rect x="56" y="144" width="8" height="8"/><rect x="56" y="152" width="8" height="8"/><rect x="56" y="160" width="8" height="8"/><rect x="48" y="184" width="8" height="8"/><rect class="cls-1" x="24" y="8" width="8" height="8"/><rect class="cls-1" x="32" y="8" width="8" height="8"/><rect class="cls-1" x="40" y="8" width="8" height="8"/><rect class="cls-1" x="48" y="8" width="8" height="8"/><rect class="cls-1" x="56" y="8" width="8" height="8"/><rect class="cls-1" x="64" y="8" width="8" height="8"/><rect class="cls-1" x="16" y="16" width="8" height="8"/><rect class="cls-1" x="8" y="40" width="8" height="8"/><rect class="cls-1" x="8" y="32" width="8" height="8"/><rect class="cls-2" x="16" y="40" width="8" height="8"/><rect class="cls-2" x="16" y="32" width="8" height="8"/><rect class="cls-2" x="16" y="24" width="8" height="8"/><rect class="cls-2" x="24" y="16" width="8" height="8"/><rect class="cls-2" x="24" y="24" width="8" height="8"/><rect class="cls-2" x="24" y="32" width="8" height="8"/><rect class="cls-2" x="24" y="40" width="8" height="8"/><rect class="cls-2" x="32" y="40" width="8" height="8"/><rect class="cls-2" x="32" y="32" width="8" height="8"/><rect class="cls-2" x="32" y="24" width="8" height="8"/><rect class="cls-2" x="32" y="16" width="8" height="8"/><rect class="cls-2" x="40" y="16" width="8" height="8"/><rect class="cls-2" x="40" y="24" width="8" height="8"/><rect class="cls-2" x="40" y="32" width="8" height="8"/><rect class="cls-2" x="40" y="40" width="8" height="8"/><rect class="cls-2" x="48" y="40" width="8" height="8"/><rect class="cls-2" x="48" y="32" width="8" height="8"/><rect class="cls-2" x="48" y="24" width="8" height="8"/><rect class="cls-2" x="48" y="16" width="8" height="8"/><rect class="cls-2" x="56" y="16" width="8" height="8"/><rect class="cls-2" x="56" y="24" width="8" height="8"/><rect class="cls-2" x="16" y="72" width="8" height="8"/><rect class="cls-2" x="16" y="80" width="8" height="8"/><rect class="cls-2" x="16" y="88" width="8" height="8"/><rect class="cls-2" x="16" y="96" width="8" height="8"/><rect class="cls-2" x="16" y="104" width="8" height="8"/><rect class="cls-2" x="16" y="112" width="8" height="8"/><rect class="cls-2" x="24" y="112" width="8" height="8"/><rect class="cls-2" x="24" y="104" width="8" height="8"/><rect class="cls-2" x="24" y="96" width="8" height="8"/><rect class="cls-2" x="24" y="88" width="8" height="8"/><rect class="cls-2" x="24" y="80" width="8" height="8"/><rect class="cls-2" x="32" y="80" width="8" height="8"/><rect class="cls-2" x="32" y="88" width="8" height="8"/><rect class="cls-2" x="32" y="96" width="8" height="8"/><rect class="cls-2" x="32" y="104" width="8" height="8"/><rect class="cls-2" x="32" y="112" width="8" height="8"/><rect class="cls-2" x="40" y="112" width="8" height="8"/><rect class="cls-2" x="40" y="104" width="8" height="8"/><rect class="cls-2" x="40" y="96" width="8" height="8"/><rect class="cls-2" x="40" y="88" width="8" height="8"/><rect class="cls-2" x="40" y="80" width="8" height="8"/><rect class="cls-2" x="48" y="72" width="8" height="8"/><rect class="cls-2" x="48" y="80" width="8" height="8"/><rect class="cls-2" x="48" y="88" width="8" height="8"/><rect class="cls-2" x="48" y="96" width="8" height="8"/><rect class="cls-2" x="48" y="104" width="8" height="8"/><rect class="cls-2" x="48" y="112" width="8" height="8"/><rect class="cls-3" x="8" y="112" width="8" height="8"/><rect class="cls-3" x="8" y="104" width="8" height="8"/><rect class="cls-3" x="8" y="96" width="8" height="8"/><rect class="cls-3" x="8" y="88" width="8" height="8"/><rect class="cls-3" x="8" y="80" width="8" height="8"/><rect class="cls-3" x="8" y="72" width="8" height="8"/><rect class="cls-3" x="8" y="64" width="8" height="8"/><rect class="cls-3" x="16" y="64" width="8" height="8"/><rect class="cls-3" x="16" y="48" width="8" height="8"/><rect class="cls-3" x="8" y="48" width="8" height="8"/><rect class="cls-3" x="48" y="48" width="8" height="8"/><rect class="cls-3" x="56" y="48" width="8" height="8"/><rect class="cls-3" x="56" y="40" width="8" height="8"/><rect class="cls-3" x="56" y="32" width="8" height="8"/><rect class="cls-3" x="64" y="24" width="8" height="8"/><rect class="cls-3" x="64" y="16" width="8" height="8"/><rect class="cls-3" x="72" y="8" width="8" height="8"/><rect class="cls-3" x="48" y="64" width="8" height="8"/><rect class="cls-3" x="56" y="64" width="8" height="8"/><rect class="cls-3" x="56" y="72" width="8" height="8"/><rect class="cls-3" x="56" y="80" width="8" height="8"/><rect class="cls-3" x="56" y="88" width="8" height="8"/><rect class="cls-3" x="56" y="96" width="8" height="8"/><rect class="cls-3" x="56" y="104" width="8" height="8"/><rect class="cls-3" x="56" y="112" width="8" height="8"/><rect class="cls-4" x="72" y="112" width="8" height="8"/><rect class="cls-4" x="72" y="104" width="8" height="8"/><rect class="cls-4" x="72" y="96" width="8" height="8"/><rect class="cls-4" x="72" y="88" width="8" height="8"/><rect class="cls-4" x="72" y="80" width="8" height="8"/><rect class="cls-4" x="72" y="72" width="8" height="8"/><rect class="cls-4" x="72" y="64" width="8" height="8"/><rect class="cls-4" x="80" y="64" width="8" height="8"/><rect class="cls-4" x="88" y="64" width="8" height="8"/><rect class="cls-4" x="96" y="64" width="8" height="8"/><rect class="cls-4" x="104" y="64" width="8" height="8"/><rect class="cls-4" x="112" y="64" width="8" height="8"/><rect class="cls-4" x="72" y="40" width="8" height="8"/><rect class="cls-4" x="72" y="32" width="8" height="8"/><rect class="cls-4" x="80" y="24" width="8" height="8"/><rect class="cls-4" x="80" y="16" width="8" height="8"/><rect class="cls-4" x="88" y="8" width="8" height="8"/><rect class="cls-4" x="96" y="8" width="8" height="8"/><rect class="cls-5" x="72" y="48" width="8" height="8"/><rect class="cls-6" x="88" y="16" width="8" height="8"/><rect class="cls-6" x="96" y="16" width="8" height="8"/><rect class="cls-6" x="104" y="16" width="8" height="8"/><rect class="cls-6" x="104" y="24" width="8" height="8"/><rect class="cls-6" x="96" y="24" width="8" height="8"/><rect class="cls-6" x="88" y="24" width="8" height="8"/><rect class="cls-6" x="80" y="32" width="8" height="8"/><rect class="cls-6" x="88" y="32" width="8" height="8"/><rect class="cls-6" x="96" y="32" width="8" height="8"/><rect class="cls-6" x="104" y="32" width="8" height="8"/><rect class="cls-6" x="112" y="32" width="8" height="8"/><rect class="cls-6" x="112" y="40" width="8" height="8"/><rect class="cls-6" x="104" y="40" width="8" height="8"/><rect class="cls-6" x="96" y="40" width="8" height="8"/><rect class="cls-6" x="88" y="40" width="8" height="8"/><rect class="cls-6" x="80" y="40" width="8" height="8"/><rect class="cls-6" x="80" y="48" width="8" height="8"/><rect class="cls-6" x="88" y="48" width="8" height="8"/><rect class="cls-6" x="96" y="48" width="8" height="8"/><rect class="cls-6" x="104" y="48" width="8" height="8"/><rect class="cls-6" x="112" y="48" width="8" height="8"/><rect class="cls-6" x="112" y="72" width="8" height="8"/><rect class="cls-6" x="104" y="72" width="8" height="8"/><rect class="cls-6" x="96" y="72" width="8" height="8"/><rect class="cls-6" x="88" y="72" width="8" height="8"/><rect class="cls-6" x="80" y="72" width="8" height="8"/><rect class="cls-6" x="80" y="80" width="8" height="8"/><rect class="cls-6" x="88" y="80" width="8" height="8"/><rect class="cls-6" x="96" y="80" width="8" height="8"/><rect class="cls-6" x="104" y="80" width="8" height="8"/><rect class="cls-6" x="112" y="80" width="8" height="8"/><rect class="cls-6" x="112" y="88" width="8" height="8"/><rect class="cls-6" x="104" y="88" width="8" height="8"/><rect class="cls-6" x="96" y="88" width="8" height="8"/><rect class="cls-6" x="88" y="88" width="8" height="8"/><rect class="cls-6" x="80" y="88" width="8" height="8"/><rect class="cls-6" x="80" y="96" width="8" height="8"/><rect class="cls-6" x="88" y="96" width="8" height="8"/><rect class="cls-6" x="96" y="96" width="8" height="8"/><rect class="cls-6" x="104" y="96" width="8" height="8"/><rect class="cls-6" x="112" y="96" width="8" height="8"/><rect class="cls-6" x="112" y="104" width="8" height="8"/><rect class="cls-6" x="104" y="104" width="8" height="8"/><rect class="cls-6" x="96" y="104" width="8" height="8"/><rect class="cls-6" x="88" y="104" width="8" height="8"/><rect class="cls-6" x="80" y="104" width="8" height="8"/><rect class="cls-6" x="80" y="112" width="8" height="8"/><rect class="cls-6" x="88" y="112" width="8" height="8"/><rect class="cls-6" x="96" y="112" width="8" height="8"/><rect class="cls-6" x="104" y="112" width="8" height="8"/><rect class="cls-6" x="112" y="112" width="8" height="8"/><rect class="cls-7" x="16" y="136" width="8" height="8"/><rect class="cls-7" x="24" y="136" width="8" height="8"/><rect class="cls-7" x="24" y="144" width="8" height="8"/><rect class="cls-7" x="16" y="144" width="8" height="8"/><rect class="cls-7" x="8" y="144" width="8" height="8"/><rect class="cls-7" x="16" y="152" width="8" height="8"/><rect class="cls-7" x="24" y="152" width="8" height="8"/><rect class="cls-7" x="24" y="160" width="8" height="8"/><rect class="cls-7" x="16" y="160" width="8" height="8"/><rect class="cls-7" x="16" y="168" width="8" height="8"/><rect class="cls-7" x="24" y="168" width="8" height="8"/><rect class="cls-7" x="24" y="176" width="8" height="8"/><rect class="cls-7" x="16" y="176" width="8" height="8"/><rect class="cls-7" x="40" y="168" width="8" height="8"/><rect class="cls-7" x="40" y="160" width="8" height="8"/><rect class="cls-7" x="40" y="152" width="8" height="8"/><rect class="cls-7" x="40" y="144" width="8" height="8"/><rect class="cls-7" x="40" y="136" width="8" height="8"/><rect class="cls-7" x="48" y="136" width="8" height="8"/><rect class="cls-7" x="48" y="144" width="8" height="8"/><rect class="cls-7" x="48" y="152" width="8" height="8"/><rect class="cls-7" x="48" y="160" width="8" height="8"/><rect class="cls-7" x="48" y="168" width="8" height="8"/><rect class="cls-7" x="48" y="176" width="8" height="8"/><rect class="cls-7" x="56" y="176" width="8" height="8"/><rect class="cls-7" x="56" y="168" width="8" height="8"/><rect class="cls-7" x="64" y="168" width="8" height="8"/><rect class="cls-7" x="64" y="160" width="8" height="8"/><rect class="cls-7" x="64" y="152" width="8" height="8"/><rect class="cls-7" x="64" y="144" width="8" height="8"/><rect class="cls-7" x="64" y="136" width="8" height="8"/><rect class="cls-7" x="80" y="176" width="8" height="8"/><rect class="cls-7" x="80" y="168" width="8" height="8"/><rect class="cls-7" x="80" y="160" width="8" height="8"/><rect class="cls-7" x="80" y="152" width="8" height="8"/><rect class="cls-7" x="80" y="144" width="8" height="8"/><rect class="cls-7" x="80" y="136" width="8" height="8"/><rect class="cls-7" x="88" y="136" width="8" height="8"/><rect class="cls-7" x="96" y="136" width="8" height="8"/><rect class="cls-7" x="104" y="136" width="8" height="8"/><rect class="cls-7" x="104" y="144" width="8" height="8"/><rect class="cls-7" x="112" y="144" width="8" height="8"/><rect class="cls-7" x="112" y="152" width="8" height="8"/><rect class="cls-7" x="104" y="152" width="8" height="8"/><rect class="cls-7" x="104" y="160" width="8" height="8"/><rect class="cls-7" x="96" y="160" width="8" height="8"/><rect class="cls-7" x="88" y="160" width="8" height="8"/><rect class="cls-7" x="88" y="152" width="8" height="8"/><rect class="cls-7" x="88" y="144" width="8" height="8"/><rect class="cls-7" x="88" y="168" width="8" height="8"/><rect class="cls-7" x="88" y="176" width="8" height="8"/><rect class="cls-7" x="32" y="56" width="8" height="8"/><rect class="cls-7" x="32" y="64" width="8" height="8"/></g></g></svg>