<svg  viewBox="0 0 16 16" fill="none" xmlns="http://www.w3.org/2000/svg">
<path d="M5 15H3V16H5V15Z" fill="#F7FEFF"/>
<path d="M3 14H2V15H3V14Z" fill="#F7FEFF"/>
<path d="M5 12H4V14H3V15H5V12Z" fill="#231E2B"/>
<path d="M4 13H3V14H4V13Z" fill="#C7936B"/>
<path d="M3 13H2V14H3V13Z" fill="#231E2B"/>
<path d="M2 13H1V14H2V13Z" fill="#F7FEFF"/>
<path d="M6 12H5V15H6V12Z" fill="#F7FEFF"/>
<path d="M4 12H3V13H4V12Z" fill="#E8BE9B"/>
<path d="M3 12H2V13H3V12Z" fill="#C7936B"/>
<path d="M2 12H4V11H1V13H2V12Z" fill="#231E2B"/>
<path d="M7 11H6V12H7V11Z" fill="#F7FEFF"/>
<path d="M6 11H5V12H6V11Z" fill="#231E2B"/>
<path d="M5 11H4V12H5V11Z" fill="#E8BE9B"/>
<path d="M1 11H0V13H1V11Z" fill="#F7FEFF"/>
<path d="M11 10H7V11H11V10Z" fill="#F7FEFF"/>
<path d="M7 10H6V11H7V10Z" fill="#231E2B"/>
<path d="M6 10H5V11H6V10Z" fill="#E8BE9B"/>
<path d="M5 10H4V11H5V10Z" fill="#231E2B"/>
<path d="M4 10H1V11H4V10Z" fill="#F7FEFF"/>
<path d="M13 9H11V10H13V9Z" fill="#F7FEFF"/>
<path d="M11 9H7V10H11V9Z" fill="#231E2B"/>
<path d="M7 9H6V10H7V9Z" fill="#C7936B"/>
<path d="M6 9H5V10H6V9Z" fill="#231E2B"/>
<path d="M5 9H4V10H5V9Z" fill="#F7FEFF"/>
<path d="M14 8H13V9H14V8Z" fill="#F7FEFF"/>
<path d="M13 8H11V9H13V8Z" fill="#231E2B"/>
<path d="M8 8V7H7V9H11V8H8Z" fill="#522B29"/>
<path d="M6 5H5V9H6V5Z" fill="#F7FEFF"/>
<path d="M15 7H14V8H15V7Z" fill="#F7FEFF"/>
<path d="M14 7H13V8H14V7Z" fill="#231E2B"/>
<path d="M7 5H6V9H7V5Z" fill="#231E2B"/>
<path d="M15 3H14V7H15V3Z" fill="#231E2B"/>
<path d="M8 3H7V5H8V3Z" fill="#231E2B"/>
<path d="M7 3H6V5H7V3Z" fill="#F7FEFF"/>
<path d="M16 3H15V7H16V3Z" fill="#F7FEFF"/>
<path d="M14 3H13V4H14V3Z" fill="#85523C"/>
<path d="M13 3H8V5H7V7H8V8H13V7H14V4H13V3Z" fill="#784028"/>
<path d="M15 2H14V3H15V2Z" fill="#F7FEFF"/>
<path d="M14 2H13V3H14V2Z" fill="#231E2B"/>
<path d="M13 2H9V3H13V2Z" fill="#85523C"/>
<path d="M9 2H8V3H9V2Z" fill="#231E2B"/>
<path d="M8 2H7V3H8V2Z" fill="#F7FEFF"/>
<path d="M14 1H13V2H14V1Z" fill="#F7FEFF"/>
<path d="M13 1H9V2H13V1Z" fill="#231E2B"/>
<path d="M9 1H8V2H9V1Z" fill="#F7FEFF"/>
<path d="M13 0H9V1H13V0Z" fill="#F7FEFF"/>
</svg>
