<svg width="104" height="106" viewBox="0 0 104 106" fill="none" xmlns="http://www.w3.org/2000/svg">
<g clip-path="url(#clip0_17_19)">
<path d="M104 34.5659H97.0665V6.91319H76.2672V0H27.7339V6.91319H6.93348V34.5659H0V71.4352H6.93348V106H97.0665V71.4352H104V34.5659Z" fill="#FFDA44"/>
<path d="M104 34.5659H69.3337V55.3044H34.6674V34.5659H0V71.4352H6.93348V106H97.0665V71.4352H104V34.5659Z" fill="#FF3501"/>
<path d="M90.1342 99.0879H13.867V71.4352H6.93349V99.0879V106H97.0665V71.4352H90.1342V99.0879Z" fill="black"/>
<path d="M97.0665 34.5659V6.91319H76.2672V0H27.7339V6.91319H6.93348V34.5659H0V71.4352H6.93348V41.4791H27.7339V55.3055H34.6674V6.91319H48.5344V55.3044H34.6663V62.2176H69.3337V55.3044H76.2672V41.478H97.0676V71.4352H104.001V34.5659H97.0665ZM27.7339 34.5659H13.867V13.8264H27.7339V34.5659ZM69.3337 55.3044H55.4667V6.91319H69.3337V55.3044ZM90.1341 34.5659H76.2672V13.8264H90.1341V34.5659Z" fill="black"/>
</g>
<defs>
<clipPath id="clip0_17_19">
<rect width="104" height="106" fill="white"/>
</clipPath>
</defs>
</svg>
