<svg width="69" height="107" viewBox="0 0 69 107" fill="none" xmlns="http://www.w3.org/2000/svg">
<g clip-path="url(#clip0_17_211)">
<path d="M69 6.97841H62.0999V0H6.90011V6.97841H0V100.023H6.90011V107H62.0999V100.023H69V6.97841Z" fill="#AA6100"/>
<path d="M69 62.8045H0V100.023H6.90011V107H62.0999V100.023H69V62.8045Z" fill="#FFDA44"/>
<path d="M69 27.9136V20.9352H48.2997V0H41.3996V20.9352H27.6004V0H20.7003V20.9352H0V27.9136H20.7003V41.8704H0V48.8489H20.7003V69.7841H27.6004V48.8477H41.4007V69.783H48.3008V48.8477H69.0011V41.8693H48.2997V27.9136H69ZM41.3996 41.8693H27.6004V27.9136H41.4007V41.8693H41.3996Z" fill="#663A00"/>
<path d="M62.0999 0H6.90012V6.97841H62.0999V0Z" fill="black"/>
<path d="M62.0999 6.97841V62.8045H6.90011V6.97841H0V100.023H6.90011V69.783H62.0999V100.023H69V6.97841H62.0999Z" fill="black"/>
<path d="M62.0999 100.023H6.90012V107.001H62.0999V100.023Z" fill="black"/>
</g>
<defs>
<clipPath id="clip0_17_211">
<rect width="69" height="107" fill="white"/>
</clipPath>
</defs>
</svg>
