<svg  viewBox="0 0 16 16" fill="none" xmlns="http://www.w3.org/2000/svg">
<path d="M13 15H3V16H13V15Z" fill="#F7FEFF"/>
<path d="M14 14H13V15H14V14Z" fill="#F7FEFF"/>
<path d="M13 14H3V15H13V14Z" fill="#231E2B"/>
<path d="M3 14H2V15H3V14Z" fill="#F7FEFF"/>
<path d="M15 13H14V14H15V13Z" fill="#F7FEFF"/>
<path d="M14 13H13V14H14V13Z" fill="#231E2B"/>
<path d="M3 13H2V14H3V13Z" fill="#231E2B"/>
<path d="M2 13H1V14H2V13Z" fill="#F7FEFF"/>
<path d="M12 12H4V13H12V12Z" fill="#231E2B"/>
<path d="M2 3H1V13H2V3Z" fill="#231E2B"/>
<path d="M15 3H14V13H15V3Z" fill="#231E2B"/>
<path d="M13 12H12V13H4V12H3V9H2V13H3V14H13V13H14V11H13V12Z" fill="#484085"/>
<path d="M12 11H11V12H12V11Z" fill="#B6B7B8"/>
<path d="M9 11H7V12H9V11Z" fill="#B6B7B8"/>
<path d="M5 11H4V12H5V11Z" fill="#B6B7B8"/>
<path d="M1 3H0V13H1V3Z" fill="#F7FEFF"/>
<path d="M9 10H7V11H9V10Z" fill="#B0392E"/>
<path d="M4 4H3V12H4V4Z" fill="#231E2B"/>
<path d="M9 9H7V10H9V9Z" fill="#892727"/>
<path d="M10 8H9V9H10V8Z" fill="#B6B7B8"/>
<path d="M9 9V8H8V7H7V9H9Z" fill="#CF8934"/>
<path d="M3 4H4V3H8V2H3V3H2V9H3V4Z" fill="#6F59AB"/>
<path d="M11 7H10V8H11V7Z" fill="#B6B7B8"/>
<path d="M9 7H8V8H9V7Z" fill="#E2B436"/>
<path d="M14 6H13V11H14V6Z" fill="#6F59AB"/>
<path d="M11 8H10V9H9V12H11V11H12V5H11V8Z" fill="#F7FEFF"/>
<path d="M13 4H12V12H13V4Z" fill="#231E2B"/>
<path d="M9 5V6H8V7H9V8H10V7H11V5H9Z" fill="#231E2B"/>
<path d="M4 5V11H5V12H7V7H8V6H9V5H11V4H5V5H4Z" fill="#F7FEFF"/>
<path d="M12 4H11V5H12V4Z" fill="#B6B7B8"/>
<path d="M5 4H4V5H5V4Z" fill="#B6B7B8"/>
<path d="M16 3H15V13H16V3Z" fill="#F7FEFF"/>
<path d="M12 3H4V4H12V3Z" fill="#231E2B"/>
<path d="M15 2H14V3H15V2Z" fill="#F7FEFF"/>
<path d="M14 2H13V3H14V2Z" fill="#231E2B"/>
<path d="M13 2H8V3H12V4H13V6H14V3H13V2Z" fill="#927BB3"/>
<path d="M3 2H2V3H3V2Z" fill="#231E2B"/>
<path d="M2 2H1V3H2V2Z" fill="#F7FEFF"/>
<path d="M14 1H13V2H14V1Z" fill="#F7FEFF"/>
<path d="M13 1H3V2H13V1Z" fill="#231E2B"/>
<path d="M3 1H2V2H3V1Z" fill="#F7FEFF"/>
<path d="M13 0H3V1H13V0Z" fill="#F7FEFF"/>
</svg>
