<svg  viewBox="0 0 16 12" fill="none" xmlns="http://www.w3.org/2000/svg">
<path d="M13 10.5H3V11.5H13V10.5Z" fill="#F7FEFF"/>
<path d="M14 9.5H13V10.5H14V9.5Z" fill="#F7FEFF"/>
<path d="M13 9.5H3V10.5H13V9.5Z" fill="#231E2B"/>
<path d="M3 9.5H2V10.5H3V9.5Z" fill="#F7FEFF"/>
<path d="M15 8.5H14V9.5H15V8.5Z" fill="#F7FEFF"/>
<path d="M14 8.5H13V9.5H14V8.5Z" fill="#231E2B"/>
<path d="M4 8.5H3V9.5H4V8.5Z" fill="#B6B7B8"/>
<path d="M3 8.5H2V9.5H3V8.5Z" fill="#231E2B"/>
<path d="M2 8.5H1V9.5H2V8.5Z" fill="#F7FEFF"/>
<path d="M3 7.5H2V8.5H3V7.5Z" fill="#B6B7B8"/>
<path d="M2 5.5H1V8.5H2V5.5Z" fill="#231E2B"/>
<path d="M15 5.5H14V8.5H15V5.5Z" fill="#231E2B"/>
<path d="M11 6.5H10V7.5H11V6.5Z" fill="#B6B7B8"/>
<path d="M1 5.5H0V8.5H1V5.5Z" fill="#F7FEFF"/>
<path d="M16 5.5H15V8.5H16V5.5Z" fill="#F7FEFF"/>
<path d="M12 5.5V6.5H11V7.5H10V6.5H11V5.5H12V4.5H11V3.5H10V2.5H6V3.5H5V4.5H6V5.5H7V6.5H6V5.5H5V4.5H3V5.5H2V7.5H3V8.5H4V9.5H13V8.5H14V5.5H12Z" fill="#F7FEFF"/>
<path d="M12 5.5H11V6.5H12V5.5Z" fill="#B6B7B8"/>
<path d="M7 5.5H6V6.5H7V5.5Z" fill="#B6B7B8"/>
<path d="M15 4.5H14V5.5H15V4.5Z" fill="#F7FEFF"/>
<path d="M14 4.5H12V5.5H14V4.5Z" fill="#231E2B"/>
<path d="M6 4.5H5V5.5H6V4.5Z" fill="#B6B7B8"/>
<path d="M3 4.5H2V5.5H3V4.5Z" fill="#231E2B"/>
<path d="M2 4.5H1V5.5H2V4.5Z" fill="#F7FEFF"/>
<path d="M14 3.5H12V4.5H14V3.5Z" fill="#F7FEFF"/>
<path d="M12 3.5H11V4.5H12V3.5Z" fill="#231E2B"/>
<path d="M5 3.5H3V4.5H5V3.5Z" fill="#231E2B"/>
<path d="M3 3.5H2V4.5H3V3.5Z" fill="#F7FEFF"/>
<path d="M12 2.5H11V3.5H12V2.5Z" fill="#F7FEFF"/>
<path d="M11 2.5H10V3.5H11V2.5Z" fill="#231E2B"/>
<path d="M6 2.5H5V3.5H6V2.5Z" fill="#231E2B"/>
<path d="M5 2.5H3V3.5H5V2.5Z" fill="#F7FEFF"/>
<path d="M11 1.5H10V2.5H11V1.5Z" fill="#F7FEFF"/>
<path d="M10 1.5H6V2.5H10V1.5Z" fill="#231E2B"/>
<path d="M6 1.5H5V2.5H6V1.5Z" fill="#F7FEFF"/>
<path d="M10 0.5H6V1.5H10V0.5Z" fill="#F7FEFF"/>
</svg>
