<svg width="90" height="106" viewBox="0 0 90 106" fill="none" xmlns="http://www.w3.org/2000/svg">
<g clip-path="url(#clip0_17_530)">
<path d="M90 0H0V13.8264H6.92325V20.7396H13.8465V27.6528H20.7697V34.5659H27.693V41.478H34.6151V48.3912H41.5384V99.0879H27.693V106H41.5384H48.4616H62.3081V99.0879H48.4616V48.3912H55.3849V41.478H62.3081V34.5659H69.2314V27.6528H76.1546V20.7396H83.0779V13.8264H90V0Z" fill="#D1E7F8"/>
<path d="M83.0779 13.8264H76.1546H13.8465H6.92322V20.7395H13.8465V27.6527H20.7697V34.5659H27.693V41.478H34.6151V48.3912H55.3848V41.478H62.3081V34.5659H69.2313V27.6527H76.1546V20.7395H83.0779V13.8264Z" fill="#9CDD05"/>
<path d="M13.8465 13.8264H6.92322V20.7395H13.8465V13.8264Z" fill="black"/>
<path d="M20.7697 20.7396H13.8465V27.6528H20.7697V20.7396Z" fill="black"/>
<path d="M27.693 27.6528H20.7698V34.566H27.693V27.6528Z" fill="black"/>
<path d="M34.6162 34.5659H27.693V41.4791H34.6162V34.5659Z" fill="black"/>
<path d="M34.6151 48.3912H41.5384V99.0879H27.693V106H41.5384H48.4616H62.3081V99.0879H48.4616V48.3912H55.3849V41.478H34.6151V48.3912Z" fill="black"/>
<path d="M62.3081 34.5659H55.3849V41.4791H62.3081V34.5659Z" fill="black"/>
<path d="M69.2314 27.6528H62.3081V34.566H69.2314V27.6528Z" fill="black"/>
<path d="M76.1546 20.7396H69.2314V27.6528H76.1546V20.7396Z" fill="black"/>
<path d="M83.0779 13.8264H76.1546V20.7395H83.0779V13.8264Z" fill="black"/>
<path d="M83.0779 0H6.92325H0V6.91319V13.8264H6.92325V6.91319H83.0779V13.8264H90V6.91319V0H83.0779Z" fill="black"/>
<path d="M41.5384 34.5659H34.6152V41.4791H41.5384V34.5659Z" fill="white"/>
<path d="M34.6162 27.6528H27.693V34.566H34.6162V27.6528Z" fill="white"/>
<path d="M27.693 20.7396H20.7698V27.6528H27.693V20.7396Z" fill="white"/>
</g>
<defs>
<clipPath id="clip0_17_530">
<rect width="90" height="106" fill="white"/>
</clipPath>
</defs>
</svg>
