<svg width="107" height="104" viewBox="0 0 107 104" fill="none" xmlns="http://www.w3.org/2000/svg">
<g clip-path="url(#clip0_17_481)">
<path d="M86.0659 55.4668H100.023V48.5333H86.0659V41.5998H0V83.2007H6.97841V90.1342H13.9568V97.0665H20.9352V104H65.1307V97.0665H72.1091V90.1342H79.0875V83.2007H86.0659H100.023V76.2672H86.0659V55.4668Z" fill="#C4C8F5"/>
<path d="M107.001 55.4667H100.023V76.2672H107.001V55.4667Z" fill="#C4C8F5"/>
<path d="M86.0659 55.4668H100.023V48.5333H86.0659V41.5998H79.0875H6.97841H0V48.5333V83.2007H6.97841V48.5333H79.0875V55.4668V76.2672V83.2007H86.0659H100.023V76.2672H86.0659V55.4668Z" fill="black"/>
<path d="M107.001 55.4667H100.023V76.2672H107.001V55.4667Z" fill="black"/>
<path d="M79.0875 83.2007H72.1091V90.1342H79.0875V83.2007Z" fill="black"/>
<path d="M72.1091 90.1342H65.1307V97.0676H72.1091V90.1342Z" fill="black"/>
<path d="M13.9568 83.2007H6.97841V90.1342H13.9568V83.2007Z" fill="black"/>
<path d="M20.9352 90.1342H13.9568V97.0676H20.9352V90.1342Z" fill="black"/>
<path d="M65.1307 97.0665H20.9352V104H65.1307V97.0665Z" fill="black"/>
<path d="M69.7829 13.8669H62.8045V20.8004H69.7829V13.8669Z" fill="black"/>
<path d="M69.7829 27.7339H62.8045V34.6674H69.7829V27.7339Z" fill="black"/>
<path d="M62.8045 20.8005H55.8261V27.734H62.8045V20.8005Z" fill="black"/>
<path d="M41.8704 6.93347H34.892V13.867H41.8704V6.93347Z" fill="black"/>
<path d="M48.8477 13.8669H41.8693V20.8004H48.8477V13.8669Z" fill="black"/>
<path d="M48.8477 0H41.8693V6.93348H48.8477V0Z" fill="black"/>
<path d="M48.8477 27.7339H41.8693V34.6674H48.8477V27.7339Z" fill="black"/>
<path d="M41.8704 20.8005H34.892V27.734H41.8704V20.8005Z" fill="black"/>
<path d="M27.9136 13.8669H20.9352V20.8004H27.9136V13.8669Z" fill="black"/>
<path d="M27.9136 27.7339H20.9352V34.6674H27.9136V27.7339Z" fill="black"/>
<path d="M20.9352 20.8005H13.9568V27.734H20.9352V20.8005Z" fill="black"/>
<path d="M20.9352 76.2672H13.9568V83.2007H20.9352V76.2672Z" fill="white"/>
<path d="M20.9352 55.4667H13.9568V69.3337H20.9352V55.4667Z" fill="white"/>
</g>
<defs>
<clipPath id="clip0_17_481">
<rect width="107" height="104" fill="white"/>
</clipPath>
</defs>
</svg>
