<svg  viewBox="0 0 16 16" fill="none" xmlns="http://www.w3.org/2000/svg">
<path d="M10 15H6V16H10V15Z" fill="#F7FEFF"/>
<path d="M12 14H10V15H12V14Z" fill="#F7FEFF"/>
<path d="M10 14H6V15H10V14Z" fill="#231E2B"/>
<path d="M6 14H4V15H6V14Z" fill="#F7FEFF"/>
<path d="M13 13H12V14H13V13Z" fill="#F7FEFF"/>
<path d="M12 13H10V14H12V13Z" fill="#231E2B"/>
<path d="M6 13H4V14H6V13Z" fill="#231E2B"/>
<path d="M4 13H3V14H4V13Z" fill="#F7FEFF"/>
<path d="M14 12H13V13H14V12Z" fill="#F7FEFF"/>
<path d="M13 12H12V13H13V12Z" fill="#231E2B"/>
<path d="M8 12H6V13H8V12Z" fill="#F5F38E"/>
<path d="M5 12V11H4V6H5V5H6V4H10V3H8V2H6V3H4V4H3V6H2V10H3V12H4V13H6V12H5Z" fill="#E2B436"/>
<path d="M4 12H3V13H4V12Z" fill="#231E2B"/>
<path d="M3 12H2V13H3V12Z" fill="#F7FEFF"/>
<path d="M6 11H5V12H6V11Z" fill="#F5F38E"/>
<path d="M3 10H2V12H3V10Z" fill="#231E2B"/>
<path d="M15 10H14V12H15V10Z" fill="#F7FEFF"/>
<path d="M14 10H13V12H14V10Z" fill="#231E2B"/>
<path d="M8 10H7V11H8V10Z" fill="#C2751D"/>
<path d="M5 10H4V11H5V10Z" fill="#F5F38E"/>
<path d="M2 10H1V12H2V10Z" fill="#F7FEFF"/>
<path d="M7 9H6V10H7V9Z" fill="#C2751D"/>
<path d="M2 6H1V10H2V6Z" fill="#231E2B"/>
<path d="M15 6H14V10H15V6Z" fill="#231E2B"/>
<path d="M1 6H0V10H1V6Z" fill="#F7FEFF"/>
<path d="M10 7H9V8H10V7Z" fill="#F5F38E"/>
<path d="M16 6H15V10H16V6Z" fill="#F7FEFF"/>
<path d="M12 6H11V7H12V6Z" fill="#C2751D"/>
<path d="M9 6H8V7H9V6Z" fill="#F5F38E"/>
<path d="M8 6H7V7H6V9H7V10H9V9H10V8H9V7H8V6Z" fill="#E2B436"/>
<path d="M15 4H14V6H15V4Z" fill="#F7FEFF"/>
<path d="M13 5H12V4H10V5H11V6H12V10H11V11H10V12H8V13H6V14H10V13H12V12H13V10H14V6H13V5Z" fill="#E2B436"/>
<path d="M11 5H10V6H11V5Z" fill="#C2751D"/>
<path d="M8 5V4H6V5H5V6H4V10H5V11H6V12H10V11H11V10H12V7H11V6H10V5H8ZM10 7V9H9V10H8V11H7V10H6V7H7V6H9V7H10Z" fill="#CF8934"/>
<path d="M3 4H2V6H3V4Z" fill="#231E2B"/>
<path d="M2 4H1V6H2V4Z" fill="#F7FEFF"/>
<path d="M14 4H13V6H14V4Z" fill="#231E2B"/>
<path d="M13 4H12V5H13V4Z" fill="#F5F38E"/>
<path d="M10 4H8V5H10V4Z" fill="#C2751D"/>
<path d="M14 3H13V4H14V3Z" fill="#F7FEFF"/>
<path d="M13 3H12V4H13V3Z" fill="#231E2B"/>
<path d="M12 3H10V4H12V3Z" fill="#F5F38E"/>
<path d="M4 3H3V4H4V3Z" fill="#231E2B"/>
<path d="M3 3H2V4H3V3Z" fill="#F7FEFF"/>
<path d="M13 2H12V3H13V2Z" fill="#F7FEFF"/>
<path d="M12 2H10V3H12V2Z" fill="#231E2B"/>
<path d="M10 2H8V3H10V2Z" fill="#F5F38E"/>
<path d="M6 2H4V3H6V2Z" fill="#231E2B"/>
<path d="M4 2H3V3H4V2Z" fill="#F7FEFF"/>
<path d="M12 1H10V2H12V1Z" fill="#F7FEFF"/>
<path d="M10 1H6V2H10V1Z" fill="#231E2B"/>
<path d="M6 1H4V2H6V1Z" fill="#F7FEFF"/>
<path d="M10 0H6V1H10V0Z" fill="#F7FEFF"/>
</svg>
