<svg  viewBox="0 0 16 16" fill="none" xmlns="http://www.w3.org/2000/svg">
<path d="M12 15H4V16H12V15Z" fill="#F7FEFF"/>
<path d="M13 14H12V15H13V14Z" fill="#F7FEFF"/>
<path d="M12 14H4V15H12V14Z" fill="#231E2B"/>
<path d="M4 14H3V15H4V14Z" fill="#F7FEFF"/>
<path d="M14 13H13V14H14V13Z" fill="#F7FEFF"/>
<path d="M13 13H12V14H13V13Z" fill="#231E2B"/>
<path d="M12 13H4V14H12V13Z" fill="#B0392E"/>
<path d="M4 13H3V14H4V13Z" fill="#231E2B"/>
<path d="M3 13H2V14H3V13Z" fill="#F7FEFF"/>
<path d="M13 12H12V13H13V12Z" fill="#B0392E"/>
<path d="M4 12H3V13H4V12Z" fill="#B0392E"/>
<path d="M3 9H2V13H3V9Z" fill="#231E2B"/>
<path d="M2 9H1V13H2V9Z" fill="#F7FEFF"/>
<path d="M15 9H14V13H15V9Z" fill="#F7FEFF"/>
<path d="M13 9H12V11H13V9Z" fill="#B0392E"/>
<path d="M4 9H3V11H4V9Z" fill="#B0392E"/>
<path d="M14 9H13V13H14V9Z" fill="#231E2B"/>
<path d="M4 9V11H3V12H4V13H12V12H13V11H12V9H4Z" fill="#CF6B55"/>
<path d="M14 8H13V9H14V8Z" fill="#F7FEFF"/>
<path d="M13 8H12V9H13V8Z" fill="#231E2B"/>
<path d="M12 8H4V9H12V8Z" fill="#D68271"/>
<path d="M4 8H3V9H4V8Z" fill="#231E2B"/>
<path d="M3 8H2V9H3V8Z" fill="#F7FEFF"/>
<path d="M11 7H5V8H11V7Z" fill="#522B29"/>
<path d="M4 6H2V7H3V8H4V6Z" fill="#F7FEFF"/>
<path d="M12 6V8H13V7H14V6H12Z" fill="#F7FEFF"/>
<path d="M11 6H10V7H11V6Z" fill="#B6B7B8"/>
<path d="M9 6H7V7H9V6Z" fill="#B6B7B8"/>
<path d="M6 6H5V7H6V6Z" fill="#B6B7B8"/>
<path d="M15 5H14V6H15V5Z" fill="#F7FEFF"/>
<path d="M11 5V8H12V6H14V5H11Z" fill="#231E2B"/>
<path d="M11 5H10V6H11V5Z" fill="#F7FEFF"/>
<path d="M10 5H9V7H10V5Z" fill="#231E2B"/>
<path d="M7 5H6V7H7V5Z" fill="#231E2B"/>
<path d="M6 5H5V6H6V5Z" fill="#F7FEFF"/>
<path d="M4 6V8H5V5H2V6H4Z" fill="#231E2B"/>
<path d="M2 5H1V6H2V5Z" fill="#F7FEFF"/>
<path d="M11 4H10V5H11V4Z" fill="#B6B7B8"/>
<path d="M6 5H7V6H9V5H10V3H6V5Z" fill="#F7FEFF"/>
<path d="M6 4H5V5H6V4Z" fill="#B6B7B8"/>
<path d="M3 4V3H2V5H5V4H3Z" fill="#A6644B"/>
<path d="M2 2H3V1H1V5H2V2Z" fill="#231E2B"/>
<path d="M15 1H13V2H14V5H15V1Z" fill="#231E2B"/>
<path d="M13 4H11V5H14V3H13V4Z" fill="#A6644B"/>
<path d="M13 3H11V4H13V3Z" fill="#C7936B"/>
<path d="M11 3H10V4H11V3Z" fill="#696168"/>
<path d="M6 3H5V4H6V3Z" fill="#696168"/>
<path d="M5 3H3V4H5V3Z" fill="#C7936B"/>
<path d="M1 1H0V5H1V1Z" fill="#F7FEFF"/>
<path d="M14 2H13V3H14V2Z" fill="#C7936B"/>
<path d="M13 2H3V3H13V2Z" fill="#231E2B"/>
<path d="M3 2H2V3H3V2Z" fill="#C7936B"/>
<path d="M16 1H15V5H16V1Z" fill="#F7FEFF"/>
<path d="M13 1H3V2H13V1Z" fill="#F7FEFF"/>
<path d="M15 0H13V1H15V0Z" fill="#F7FEFF"/>
<path d="M3 0H1V1H3V0Z" fill="#F7FEFF"/>
</svg>
