<svg  viewBox="0 0 16 16" fill="none" xmlns="http://www.w3.org/2000/svg">
<path d="M12 15H11V16H12V15Z" fill="#F7FEFF"/>
<path d="M5 15H4V16H5V15Z" fill="#F7FEFF"/>
<path d="M13 14H12V15H13V14Z" fill="#F7FEFF"/>
<path d="M12 14H11V15H12V14Z" fill="#231E2B"/>
<path d="M11 14H10V15H11V14Z" fill="#F7FEFF"/>
<path d="M6 14H5V15H6V14Z" fill="#F7FEFF"/>
<path d="M5 14H4V15H5V14Z" fill="#231E2B"/>
<path d="M4 14H3V15H4V14Z" fill="#F7FEFF"/>
<path d="M12 13H11V14H12V13Z" fill="#B0392E"/>
<path d="M11 13H10V14H11V13Z" fill="#231E2B"/>
<path d="M10 13H6V14H10V13Z" fill="#F7FEFF"/>
<path d="M6 13H5V14H6V13Z" fill="#231E2B"/>
<path d="M5 13H4V14H5V13Z" fill="#B0392E"/>
<path d="M4 13H5V12H6V11H4V12H3V14H4V13Z" fill="#231E2B"/>
<path d="M14 12H13V14H14V12Z" fill="#F7FEFF"/>
<path d="M13 12H12V11H10V12H11V13H12V14H13V12Z" fill="#231E2B"/>
<path d="M11 12H10V13H11V12Z" fill="#B0392E"/>
<path d="M10 12H6V13H10V12Z" fill="#231E2B"/>
<path d="M6 12H5V13H6V12Z" fill="#B0392E"/>
<path d="M3 12H2V14H3V12Z" fill="#F7FEFF"/>
<path d="M15 11H14V12H15V11Z" fill="#F7FEFF"/>
<path d="M14 11H13V12H14V11Z" fill="#231E2B"/>
<path d="M13 11H12V12H13V11Z" fill="#B0392E"/>
<path d="M10 11H6V12H10V11Z" fill="#892727"/>
<path d="M4 11H3V12H4V11Z" fill="#B0392E"/>
<path d="M3 11H2V12H3V11Z" fill="#231E2B"/>
<path d="M2 11H1V12H2V11Z" fill="#F7FEFF"/>
<path d="M14 10H13V11H14V10Z" fill="#F7FEFF"/>
<path d="M13 10H12V11H13V10Z" fill="#231E2B"/>
<path d="M12 10H11V11H12V10Z" fill="#B0392E"/>
<path d="M11 10H10V11H11V10Z" fill="#892727"/>
<path d="M10 10H6V11H10V10Z" fill="#B0392E"/>
<path d="M6 10H5V11H6V10Z" fill="#892727"/>
<path d="M5 10H4V11H5V10Z" fill="#B0392E"/>
<path d="M4 10H3V11H4V10Z" fill="#231E2B"/>
<path d="M3 10H2V11H3V10Z" fill="#F7FEFF"/>
<path d="M13 9H12V10H13V9Z" fill="#F7FEFF"/>
<path d="M12 9H10V10H12V9Z" fill="#231E2B"/>
<path d="M10 9H6V10H10V9Z" fill="#892727"/>
<path d="M6 9H4V10H6V9Z" fill="#231E2B"/>
<path d="M4 9H3V10H4V9Z" fill="#F7FEFF"/>
<path d="M14 8H13V9H14V8Z" fill="#F7FEFF"/>
<path d="M13 8H12V9H13V8Z" fill="#231E2B"/>
<path d="M12 8H4V9H12V8Z" fill="#B0392E"/>
<path d="M4 8H3V9H4V8Z" fill="#231E2B"/>
<path d="M3 8H2V9H3V8Z" fill="#F7FEFF"/>
<path d="M10 7H9V8H10V7Z" fill="#CF6B55"/>
<path d="M9 7H7V8H9V7Z" fill="#231E2B"/>
<path d="M7 7H6V8H7V7Z" fill="#CF6B55"/>
<path d="M6 8V7H5V6H4V8H6Z" fill="#231E2B"/>
<path d="M3 6H2V8H3V6Z" fill="#231E2B"/>
<path d="M15 6H14V8H15V6Z" fill="#F7FEFF"/>
<path d="M14 6H13V8H14V6Z" fill="#231E2B"/>
<path d="M13 6H12V8H13V6Z" fill="#B0392E"/>
<path d="M12 6H11V7H10V8H12V6Z" fill="#231E2B"/>
<path d="M11 6H10V7H11V6Z" fill="#F7FEFF"/>
<path d="M10 6H9V7H10V6Z" fill="#231E2B"/>
<path d="M9 6H7V7H9V6Z" fill="#F7FEFF"/>
<path d="M7 6H6V7H7V6Z" fill="#231E2B"/>
<path d="M6 6H5V7H6V6Z" fill="#F7FEFF"/>
<path d="M4 6H3V8H4V6Z" fill="#B0392E"/>
<path d="M2 6H1V8H2V6Z" fill="#F7FEFF"/>
<path d="M13 5H12V6H13V5Z" fill="#892727"/>
<path d="M12 4H11V6H12V4Z" fill="#B0392E"/>
<path d="M11 4H10V6H11V4Z" fill="#231E2B"/>
<path d="M10 4H9V6H10V4Z" fill="#F7FEFF"/>
<path d="M7 4H6V6H7V4Z" fill="#F7FEFF"/>
<path d="M5 4H4V6H5V4Z" fill="#B0392E"/>
<path d="M4 5H3V6H4V5Z" fill="#892727"/>
<path d="M2 3H1V6H2V3Z" fill="#231E2B"/>
<path d="M15 3H14V6H15V3Z" fill="#231E2B"/>
<path d="M6 4H5V6H6V4Z" fill="#231E2B"/>
<path d="M3 3H2V6H3V3Z" fill="#B0392E"/>
<path d="M1 3H0V6H1V3Z" fill="#F7FEFF"/>
<path d="M16 3H15V6H16V3Z" fill="#F7FEFF"/>
<path d="M14 3H13V6H14V3Z" fill="#B0392E"/>
<path d="M11 4H12V5H13V3H12V2H11V4Z" fill="#231E2B"/>
<path d="M11 2H10V4H11V2Z" fill="#F7FEFF"/>
<path d="M6 2H5V4H6V2Z" fill="#F7FEFF"/>
<path d="M15 2H14V3H15V2Z" fill="#F7FEFF"/>
<path d="M14 2H13V3H14V2Z" fill="#231E2B"/>
<path d="M13 2H12V3H13V2Z" fill="#B0392E"/>
<path d="M4 3H3V5H4V4H5V2H4V3Z" fill="#231E2B"/>
<path d="M4 2H3V3H4V2Z" fill="#B0392E"/>
<path d="M3 2H2V3H3V2Z" fill="#231E2B"/>
<path d="M2 2H1V3H2V2Z" fill="#F7FEFF"/>
<path d="M14 1H13V2H14V1Z" fill="#F7FEFF"/>
<path d="M13 1H12V2H13V1Z" fill="#231E2B"/>
<path d="M12 1H11V2H12V1Z" fill="#F7FEFF"/>
<path d="M5 1H4V2H5V1Z" fill="#F7FEFF"/>
<path d="M4 1H3V2H4V1Z" fill="#231E2B"/>
<path d="M3 1H2V2H3V1Z" fill="#F7FEFF"/>
<path d="M13 0H12V1H13V0Z" fill="#F7FEFF"/>
<path d="M4 0H3V1H4V0Z" fill="#F7FEFF"/>
</svg>
