<svg  viewBox="0 0 16 14" fill="none" xmlns="http://www.w3.org/2000/svg">
<path d="M15 13H1V14H15V13Z" fill="#F7FEFF"/>
<path d="M15 2H13V3H14V12H2V3H3V2H1V13H15V2Z" fill="#231E2B"/>
<path d="M14 11H2V12H14V11Z" fill="#E2B436"/>
<path d="M1 2H0V13H1V2Z" fill="#F7FEFF"/>
<path d="M14 10H2V11H14V10Z" fill="#F5F38E"/>
<path d="M14 9H2V10H14V9Z" fill="#CF8934"/>
<path d="M11 6H10V7H11V6Z" fill="#F5F38E"/>
<path d="M10 6H9V7H10V6Z" fill="#CF8934"/>
<path d="M7 6H6V7H7V6Z" fill="#CF8934"/>
<path d="M6 6H5V7H6V6Z" fill="#F5F38E"/>
<path d="M12 5H11V6H12V5Z" fill="#F5F38E"/>
<path d="M10 6H11V5H12V4H10V6Z" fill="#231E2B"/>
<path d="M10 4H9V6H10V4Z" fill="#F5F38E"/>
<path d="M7 4H6V6H7V4Z" fill="#F5F38E"/>
<path d="M5 5H4V6H5V5Z" fill="#F5F38E"/>
<path d="M13 5H12V6H11V7H9V3H8V4H7V7H5V6H4V5H3V4H2V9H14V4H13V5Z" fill="#E2B436"/>
<path d="M13 4H12V5H13V4Z" fill="#F5F38E"/>
<path d="M5 5V6H6V4H4V5H5Z" fill="#231E2B"/>
<path d="M4 4H3V5H4V4Z" fill="#F5F38E"/>
<path d="M14 3H13V4H14V3Z" fill="#F5F38E"/>
<path d="M13 3H12V4H13V3Z" fill="#231E2B"/>
<path d="M10 4H12V3H11V2H10V4Z" fill="#F7FEFF"/>
<path d="M8 3H9V2H7V4H8V3Z" fill="#F5F38E"/>
<path d="M7 2H6V4H7V2Z" fill="#231E2B"/>
<path d="M6 4V2H5V3H4V4H6Z" fill="#F7FEFF"/>
<path d="M4 3H3V4H4V3Z" fill="#231E2B"/>
<path d="M3 3H2V4H3V3Z" fill="#F5F38E"/>
<path d="M16 2H15V13H16V2Z" fill="#F7FEFF"/>
<path d="M13 2H12V3H13V2Z" fill="#F7FEFF"/>
<path d="M10 2H9V4H10V2Z" fill="#231E2B"/>
<path d="M4 2H3V3H4V2Z" fill="#F7FEFF"/>
<path d="M15 1H13V2H15V1Z" fill="#F7FEFF"/>
<path d="M10 1H9V2H10V1Z" fill="#F7FEFF"/>
<path d="M9 1H7V2H9V1Z" fill="#231E2B"/>
<path d="M7 1H6V2H7V1Z" fill="#F7FEFF"/>
<path d="M3 1H1V2H3V1Z" fill="#F7FEFF"/>
<path d="M9 0H7V1H9V0Z" fill="#F7FEFF"/>
</svg>
