<svg  viewBox="0 0 16 16" fill="none" xmlns="http://www.w3.org/2000/svg">
<path d="M13 15H3V16H13V15Z" fill="#F7FEFF"/>
<path d="M13 11H12V14H4V11H3V15H13V11Z" fill="#231E2B"/>
<path d="M8 13H7V14H8V13Z" fill="#47414D"/>
<path d="M3 11H2V15H3V11Z" fill="#F7FEFF"/>
<path d="M11 13H10V12H6V13H5V12H4V14H7V13H8V14H12V12H11V13Z" fill="#F7FEFF"/>
<path d="M11 12H10V13H11V12Z" fill="#47414D"/>
<path d="M6 12H5V13H6V12Z" fill="#47414D"/>
<path d="M14 11H13V15H14V11Z" fill="#F7FEFF"/>
<path d="M12 11H9V12H12V11Z" fill="#CF8934"/>
<path d="M7 11H4V12H7V11Z" fill="#CF8934"/>
<path d="M6 11V10H5V8H4V9H3V11H6Z" fill="#892727"/>
<path d="M3 9H2V11H3V9Z" fill="#231E2B"/>
<path d="M15 9H14V11H15V9Z" fill="#F7FEFF"/>
<path d="M14 9H13V11H14V9Z" fill="#231E2B"/>
<path d="M2 9H1V11H2V9Z" fill="#F7FEFF"/>
<path d="M14 8H13V9H14V8Z" fill="#892727"/>
<path d="M12 8H11V10H10V11H13V9H12V8Z" fill="#892727"/>
<path d="M11 8H10V9H11V8Z" fill="#F5F38E"/>
<path d="M10 8H8V7H6V8H5V10H6V11H7V12H9V11H10V10H11V9H10V8Z" fill="#E2B436"/>
<path d="M4 8H5V7H6V6H7V5H6V4H5V5H3V6H2V8H3V9H4V8Z" fill="#B0392E"/>
<path d="M3 8H2V9H3V8Z" fill="#892727"/>
<path d="M2 5H1V9H2V5Z" fill="#231E2B"/>
<path d="M15 5H14V9H15V5Z" fill="#231E2B"/>
<path d="M11 7H10V8H11V7Z" fill="#892727"/>
<path d="M10 7H8V8H10V7Z" fill="#F5F38E"/>
<path d="M6 7H5V8H6V7Z" fill="#892727"/>
<path d="M1 5H0V9H1V5Z" fill="#F7FEFF"/>
<path d="M10 6H9V7H10V6Z" fill="#892727"/>
<path d="M7 6H6V7H7V6Z" fill="#892727"/>
<path d="M16 5H15V9H16V5Z" fill="#F7FEFF"/>
<path d="M14 5H13V6H14V5Z" fill="#CF6B55"/>
<path d="M13 5H11V4H10V5H9V6H10V7H11V8H12V9H13V8H14V6H13V5Z" fill="#B0392E"/>
<path d="M3 5H2V6H3V5Z" fill="#CF6B55"/>
<path d="M15 4H14V5H15V4Z" fill="#F7FEFF"/>
<path d="M14 4H13V5H14V4Z" fill="#231E2B"/>
<path d="M13 4H11V5H13V4Z" fill="#CF6B55"/>
<path d="M10 4H9V5H10V4Z" fill="#892727"/>
<path d="M9 4H7V7H9V4Z" fill="#CF8934"/>
<path d="M7 4H6V5H7V4Z" fill="#892727"/>
<path d="M5 4H3V5H5V4Z" fill="#CF6B55"/>
<path d="M3 4H2V5H3V4Z" fill="#231E2B"/>
<path d="M2 4H1V5H2V4Z" fill="#F7FEFF"/>
<path d="M14 3H13V4H14V3Z" fill="#F7FEFF"/>
<path d="M13 3H10V4H13V3Z" fill="#231E2B"/>
<path d="M10 3H9V4H10V3Z" fill="#F5F38E"/>
<path d="M9 4V3H8V2H7V3H6V4H9Z" fill="#E2B436"/>
<path d="M6 3H3V4H6V3Z" fill="#231E2B"/>
<path d="M3 3H2V4H3V3Z" fill="#F7FEFF"/>
<path d="M13 2H10V3H13V2Z" fill="#F7FEFF"/>
<path d="M10 2H9V3H10V2Z" fill="#231E2B"/>
<path d="M9 2H8V3H9V2Z" fill="#F5F38E"/>
<path d="M7 2H6V3H7V2Z" fill="#231E2B"/>
<path d="M6 2H3V3H6V2Z" fill="#F7FEFF"/>
<path d="M10 1H9V2H10V1Z" fill="#F7FEFF"/>
<path d="M9 1H7V2H9V1Z" fill="#231E2B"/>
<path d="M7 1H6V2H7V1Z" fill="#F7FEFF"/>
<path d="M9 0H7V1H9V0Z" fill="#F7FEFF"/>
</svg>
