<svg  viewBox="0 0 16 10" fill="none" xmlns="http://www.w3.org/2000/svg">
<path d="M11 9H3V10H11V9Z" fill="#F7FEFF"/>
<path d="M12 8H11V9H12V8Z" fill="#F7FEFF"/>
<path d="M11 8H3V9H11V8Z" fill="#231E2B"/>
<path d="M3 8H2V9H3V8Z" fill="#F7FEFF"/>
<path d="M13 7H12V8H13V7Z" fill="#F7FEFF"/>
<path d="M12 7H11V8H12V7Z" fill="#231E2B"/>
<path d="M11 7H3V8H11V7Z" fill="#B6B7B8"/>
<path d="M3 7H2V8H3V7Z" fill="#231E2B"/>
<path d="M2 7H1V8H2V7Z" fill="#F7FEFF"/>
<path d="M14 6H13V7H14V6Z" fill="#F7FEFF"/>
<path d="M13 6H12V7H13V6Z" fill="#231E2B"/>
<path d="M12 6H11V7H12V6Z" fill="#B6B7B8"/>
<path d="M3 6H2V7H3V6Z" fill="#B6B7B8"/>
<path d="M2 2H14V1H1V7H2V2Z" fill="#231E2B"/>
<path d="M15 5H14V6H15V5Z" fill="#F7FEFF"/>
<path d="M14 5H13V6H14V5Z" fill="#231E2B"/>
<path d="M13 5H12V6H13V5Z" fill="#B6B7B8"/>
<path d="M1 1H0V7H1V1Z" fill="#F7FEFF"/>
<path d="M12 2H2V6H3V7H11V6H12V2Z" fill="#F7FEFF"/>
<path d="M15 2H14V5H15V2Z" fill="#231E2B"/>
<path d="M13 3H12V5H13V3Z" fill="#231E2B"/>
<path d="M16 2H15V5H16V2Z" fill="#F7FEFF"/>
<path d="M14 2H13V5H14V2Z" fill="#F7FEFF"/>
<path d="M13 2H12V3H13V2Z" fill="#B6B7B8"/>
<path d="M15 1H14V2H15V1Z" fill="#F7FEFF"/>
<path d="M14 0H1V1H14V0Z" fill="#F7FEFF"/>
</svg>
