<svg width="106" height="107" viewBox="0 0 106 107" fill="none" xmlns="http://www.w3.org/2000/svg">
<g clip-path="url(#clip0_17_394)">
<path d="M99.0879 41.8693V27.9136H92.1747V20.9352H85.2615V13.9568H71.4352V6.97841H64.522V0H41.478V6.97841H34.5659V13.9568H20.7396V20.9352H13.8264V27.9136H6.91319V41.8693H0V65.1307H6.91319V72.1091H11.522V83.7398H18.4352V100.023H25.3484V107H80.6528V100.023H87.5659V83.7398H94.4791V72.1091H99.0879V65.1307H106V41.8693H99.0879Z" fill="#FFA733"/>
<path d="M99.0879 65.1307H6.91318V72.1091H11.522V83.7398H18.4352V100.023H25.3483V107H80.6527V100.023H87.5659V83.7398H94.4791V72.1091H99.0879V65.1307Z" fill="#FFF5CC"/>
<path d="M64.522 6.97841V0H41.478V6.97841H34.5659V30.2398H41.478V37.217H64.522V30.2398H71.4352V6.97841H64.522Z" fill="#966EC5"/>
<path d="M80.6528 107V100.023H87.5659V83.7398H80.6528V100.023H25.3484V107H80.6528Z" fill="black"/>
<path d="M25.3484 83.7398H18.4352V100.023H25.3484V83.7398Z" fill="black"/>
<path d="M71.4352 30.2398V20.9352H85.2615V27.9136H92.1747V20.9352H85.2615V13.9568H71.4352V6.97839H64.522V30.2398H71.4352Z" fill="black"/>
<path d="M34.5659 30.2398H41.478V6.97839H34.5659V13.9568H20.7396V20.9352H34.5659V30.2398Z" fill="black"/>
<path d="M64.522 30.2398H41.478V37.2182H64.522V30.2398Z" fill="black"/>
<path d="M64.522 0H41.478V6.97841H64.522V0Z" fill="black"/>
<path d="M20.7396 20.9352H13.8264V27.9136H20.7396V20.9352Z" fill="black"/>
<path d="M99.0879 41.8693V27.9136H92.1747V41.8693H99.0879V65.1307H106V41.8693H99.0879Z" fill="black"/>
<path d="M6.91319 41.8693H13.8264V27.9136H6.91319V41.8693H0V65.1307H6.91319V72.1091H11.522V83.7398H18.4352V72.1091H87.5659V83.7398H94.4791V72.1091H99.0879V65.1307H6.91319V41.8693Z" fill="black"/>
<path d="M43.7824 76.7614H36.8692V93.0443H43.7824V76.7614Z" fill="black"/>
<path d="M69.1308 76.7614H62.2176V93.0443H69.1308V76.7614Z" fill="black"/>
</g>
<defs>
<clipPath id="clip0_17_394">
<rect width="106" height="107" fill="white"/>
</clipPath>
</defs>
</svg>
