<svg  viewBox="0 0 16 16" fill="none" xmlns="http://www.w3.org/2000/svg">
<path d="M13 15H3V16H13V15Z" fill="#F7FEFF"/>
<path d="M13 12H12V14H4V12H3V15H13V12Z" fill="#231E2B"/>
<path d="M12 13H11V14H12V13Z" fill="#522B29"/>
<path d="M11 13H10V14H11V13Z" fill="#784028"/>
<path d="M10 13H9V14H10V13Z" fill="#522B29"/>
<path d="M9 13H8V14H9V13Z" fill="#784028"/>
<path d="M8 13H7V14H8V13Z" fill="#522B29"/>
<path d="M7 13H6V14H7V13Z" fill="#784028"/>
<path d="M6 13H5V14H6V13Z" fill="#522B29"/>
<path d="M5 13H4V14H5V13Z" fill="#784028"/>
<path d="M3 12H2V15H3V12Z" fill="#F7FEFF"/>
<path d="M14 12H13V15H14V12Z" fill="#F7FEFF"/>
<path d="M12 12H11V13H12V12Z" fill="#784028"/>
<path d="M10 12H9V13H10V12Z" fill="#784028"/>
<path d="M8 12H7V13H8V12Z" fill="#784028"/>
<path d="M6 12H5V13H6V12Z" fill="#784028"/>
<path d="M13 11H12V12H13V11Z" fill="#784028"/>
<path d="M4 11H3V12H4V11Z" fill="#784028"/>
<path d="M3 9H2V12H3V9Z" fill="#231E2B"/>
<path d="M14 9H13V12H14V9Z" fill="#231E2B"/>
<path d="M2 9H1V12H2V9Z" fill="#F7FEFF"/>
<path d="M15 9H14V12H15V9Z" fill="#F7FEFF"/>
<path d="M12 10H4V9H3V11H4V13H5V12H6V13H7V12H8V13H9V12H10V13H11V12H12V11H13V9H12V10Z" fill="#522B29"/>
<path d="M2 5H1V9H2V5Z" fill="#231E2B"/>
<path d="M15 5H14V9H15V5Z" fill="#231E2B"/>
<path d="M13 8H11V9H9V8H8V9H5V8H3V7H2V9H4V10H12V9H14V7H13V8Z" fill="#CF8934"/>
<path d="M1 5H0V9H1V5Z" fill="#F7FEFF"/>
<path d="M11 6H10V7H11V6Z" fill="#CF8934"/>
<path d="M7 6H6V7H7V6Z" fill="#CF8934"/>
<path d="M4 6H3V7H4V6Z" fill="#CF8934"/>
<path d="M3 6H2V7H3V6Z" fill="#E2B436"/>
<path d="M16 5H15V9H16V5Z" fill="#F7FEFF"/>
<path d="M13 6H12V5H11V4H10V5H9V6H7V7H6V6H7V5H6V4H5V5H4V4H3V6H4V7H3V8H5V9H8V8H9V9H11V8H13V7H14V5H13V6ZM10 7V6H11V7H10Z" fill="#E2B436"/>
<path d="M13 5H12V6H13V5Z" fill="#CF8934"/>
<path d="M9 5H7V6H9V5Z" fill="#CF8934"/>
<path d="M3 5H2V6H3V5Z" fill="#CF8934"/>
<path d="M15 4H14V5H15V4Z" fill="#F7FEFF"/>
<path d="M14 4H13V5H14V4Z" fill="#231E2B"/>
<path d="M13 4H12V5H13V4Z" fill="#E2B436"/>
<path d="M12 4H11V5H12V4Z" fill="#CF8934"/>
<path d="M10 4H9V5H10V4Z" fill="#CF8934"/>
<path d="M7 4H6V5H7V4Z" fill="#CF8934"/>
<path d="M5 4H4V5H5V4Z" fill="#CF8934"/>
<path d="M3 4H2V5H3V4Z" fill="#231E2B"/>
<path d="M2 4H1V5H2V4Z" fill="#F7FEFF"/>
<path d="M14 3H13V4H14V3Z" fill="#F7FEFF"/>
<path d="M13 3H12V4H13V3Z" fill="#231E2B"/>
<path d="M12 3H11V4H12V3Z" fill="#E2B436"/>
<path d="M11 3H10V4H11V3Z" fill="#CF8934"/>
<path d="M7 4V5H9V4H10V3H8V2H7V3H6V4H7Z" fill="#B0392E"/>
<path d="M6 3H5V4H6V3Z" fill="#CF8934"/>
<path d="M5 3H4V4H5V3Z" fill="#E2B436"/>
<path d="M4 3H3V4H4V3Z" fill="#231E2B"/>
<path d="M3 3H2V4H3V3Z" fill="#F7FEFF"/>
<path d="M13 2H12V3H13V2Z" fill="#F7FEFF"/>
<path d="M12 2H9V3H12V2Z" fill="#231E2B"/>
<path d="M9 2H8V3H9V2Z" fill="#CF6B55"/>
<path d="M7 2H4V3H7V2Z" fill="#231E2B"/>
<path d="M4 2H3V3H4V2Z" fill="#F7FEFF"/>
<path d="M12 1H9V2H12V1Z" fill="#F7FEFF"/>
<path d="M9 1H7V2H9V1Z" fill="#231E2B"/>
<path d="M7 1H4V2H7V1Z" fill="#F7FEFF"/>
<path d="M9 0H7V1H9V0Z" fill="#F7FEFF"/>
</svg>
