<svg  viewBox="0 0 16 12" fill="none" xmlns="http://www.w3.org/2000/svg">
<path d="M14 11H2V12H14V11Z" fill="#F7FEFF"/>
<path d="M15 10H14V11H15V10Z" fill="#F7FEFF"/>
<path d="M14 10H2V11H14V10Z" fill="#231E2B"/>
<path d="M2 10H1V11H2V10Z" fill="#F7FEFF"/>
<path d="M16 9H15V10H16V9Z" fill="#F7FEFF"/>
<path d="M15 9H14V10H15V9Z" fill="#231E2B"/>
<path d="M14 9H2V10H14V9Z" fill="#B6B7B8"/>
<path d="M2 9H1V10H2V9Z" fill="#231E2B"/>
<path d="M1 9H0V10H1V9Z" fill="#F7FEFF"/>
<path d="M13 8H3V9H13V8Z" fill="#998B8C"/>
<path d="M2 5H1V9H2V5Z" fill="#F7FEFF"/>
<path d="M13 8V5H12V4H4V5H3V8H13ZM11 5V6H12V7H11V6H10V5H11Z" fill="#B6B7B8"/>
<path d="M15 5H14V9H15V5Z" fill="#F7FEFF"/>
<path d="M12 6H11V7H12V6Z" fill="#F7FEFF"/>
<path d="M3 5H2V9H3V5Z" fill="#231E2B"/>
<path d="M14 5H13V9H14V5Z" fill="#231E2B"/>
<path d="M11 5H10V6H11V5Z" fill="#F7FEFF"/>
<path d="M14 4H13V5H14V4Z" fill="#F7FEFF"/>
<path d="M13 4H12V5H13V4Z" fill="#231E2B"/>
<path d="M4 4H3V5H4V4Z" fill="#231E2B"/>
<path d="M3 4H2V5H3V4Z" fill="#F7FEFF"/>
<path d="M13 3H12V4H13V3Z" fill="#F7FEFF"/>
<path d="M12 4V3H10V2H9V3H7V2H6V3H4V4H12Z" fill="#231E2B"/>
<path d="M4 3H3V4H4V3Z" fill="#F7FEFF"/>
<path d="M12 2H10V3H12V2Z" fill="#F7FEFF"/>
<path d="M9 2H7V3H9V2Z" fill="#F7FEFF"/>
<path d="M6 2H4V3H6V2Z" fill="#F7FEFF"/>
<path d="M10 1H9V2H10V1Z" fill="#F7FEFF"/>
<path d="M9 1H7V2H9V1Z" fill="#231E2B"/>
<path d="M7 1H6V2H7V1Z" fill="#F7FEFF"/>
<path d="M9 0H7V1H9V0Z" fill="#F7FEFF"/>
</svg>
