<svg width="106" height="107" viewBox="0 0 106 107" fill="none" xmlns="http://www.w3.org/2000/svg">
<g clip-path="url(#clip0_17_179)">
<path d="M99.0879 34.892V20.9352H92.1747V13.9568H85.2615V6.97841H71.4352V0H34.5659V6.97841H20.7396V13.9568H13.8264V20.9352H6.91319V34.892H0V72.1091H6.91319V86.0659H13.8264V93.0443H20.7396V100.023H34.5659V107.001H71.4352V100.023H85.2615V93.0443H92.1747V86.0659H99.0879V72.1091H106.001V34.892H99.0879ZM64.522 65.1307H41.478V41.8693H64.522V65.1307Z" fill="#663A00"/>
<path d="M34.566 27.9136H27.6528V34.892H34.566V27.9136Z" fill="#FFA5B5"/>
<path d="M85.2616 34.892H78.3484V41.8704H85.2616V34.892Z" fill="#999FED"/>
<path d="M39.1736 79.0875H32.2604V86.0659H39.1736V79.0875Z" fill="#999FED"/>
<path d="M20.7396 51.1739H13.8264V58.1523H20.7396V51.1739Z" fill="#FFEF2A"/>
<path d="M59.9132 16.283H53V23.2614H59.9132V16.283Z" fill="#FFEF2A"/>
<path d="M69.1308 79.0875H62.2176V86.0659H69.1308V79.0875Z" fill="#FFEF2A"/>
<path d="M85.2615 65.1307H78.3484V72.1091H85.2615V65.1307Z" fill="#FFA5B5"/>
<path d="M64.522 34.892H41.478V41.8704H64.522V34.892Z" fill="black"/>
<path d="M71.4352 41.8693H64.522V65.1307H71.4352V41.8693Z" fill="black"/>
<path d="M64.522 65.1307H41.478V72.1091H64.522V65.1307Z" fill="black"/>
<path d="M41.4791 41.8693H34.5659V65.1307H41.4791V41.8693Z" fill="black"/>
<path d="M71.4352 0H34.5659V6.97841H71.4352V0Z" fill="black"/>
<path d="M85.2615 6.97841H71.4352V13.9568H85.2615V6.97841Z" fill="black"/>
<path d="M92.1747 13.9568H85.2615V20.9352H92.1747V13.9568Z" fill="black"/>
<path d="M99.0879 20.9352H92.1747V34.892H99.0879V20.9352Z" fill="black"/>
<path d="M106.001 34.892H99.0879V72.1091H106.001V34.892Z" fill="black"/>
<path d="M34.5659 6.97841H20.7396V13.9568H34.5659V6.97841Z" fill="black"/>
<path d="M20.7396 13.9568H13.8264V20.9352H20.7396V13.9568Z" fill="black"/>
<path d="M13.8264 20.9352H6.91318V34.892H13.8264V20.9352Z" fill="black"/>
<path d="M6.91319 34.892H0V72.1091H6.91319V34.892Z" fill="black"/>
<path d="M13.8264 72.1091H6.91318V86.0659H13.8264V72.1091Z" fill="black"/>
<path d="M20.7396 86.0659H13.8264V93.0443H20.7396V86.0659Z" fill="black"/>
<path d="M34.5659 93.0443H20.7396V100.023H34.5659V93.0443Z" fill="black"/>
<path d="M71.4352 100.023H34.5659V107.001H71.4352V100.023Z" fill="black"/>
<path d="M85.2615 93.0443H71.4352V100.023H85.2615V93.0443Z" fill="black"/>
<path d="M92.1747 86.0659H85.2615V93.0443H92.1747V86.0659Z" fill="black"/>
<path d="M99.0879 72.1091H92.1747V86.0659H99.0879V72.1091Z" fill="black"/>
</g>
<defs>
<clipPath id="clip0_17_179">
<rect width="106" height="107" fill="white"/>
</clipPath>
</defs>
</svg>
