<svg width="106" height="106" viewBox="0 0 106 106" fill="none" xmlns="http://www.w3.org/2000/svg">
<g clip-path="url(#clip0_17_104)">
<path d="M106 13.8264H99.0879V6.91319H92.1747V0H50.6956V6.91319H43.7824V13.8264H36.8692V20.7396H29.9572V32.2604H23.044V69.1308H16.1308V76.044H13.8264H0V92.1747H6.91319V99.0879H13.8264V106H29.9572V92.1747V89.8703H36.8692V82.9572H73.7396V76.044H85.2615V69.1308H92.1747V62.2176H99.0879V55.3044H106V13.8264Z" fill="#FFF5CC"/>
<path d="M99.0879 13.8264V6.91319H92.1747V0H50.6956V6.91319H43.7824V13.8264H36.8692V20.7396H29.9571V32.2604H23.0439V69.1308H29.9571V76.044H36.8692V82.9572H73.7395V76.044H85.2615V69.1308H92.1747V62.2176H99.0879V55.3044H106V13.8264H99.0879Z" fill="#AA6100"/>
<path d="M92.1736 0H50.6956V6.91319H92.1736V0Z" fill="black"/>
<path d="M99.0879 6.91319H92.1747V13.8264H99.0879V6.91319Z" fill="black"/>
<path d="M106.001 13.8264H99.0879V55.3044H106.001V13.8264Z" fill="black"/>
<path d="M99.0879 55.3044H92.1747V62.2176H99.0879V55.3044Z" fill="black"/>
<path d="M92.1748 62.2176H85.2616V69.1308H92.1748V62.2176Z" fill="black"/>
<path d="M85.2615 69.1308H73.7395V76.044H85.2615V69.1308Z" fill="black"/>
<path d="M43.7824 13.8264H36.8692V20.7396H43.7824V13.8264Z" fill="black"/>
<path d="M36.8703 20.7396H29.9572V32.2615H36.8703V20.7396Z" fill="black"/>
<path d="M29.9571 32.2604H23.0439V69.1297H29.9571V32.2604Z" fill="black"/>
<path d="M36.8703 69.1308H29.9572V76.044H36.8703V69.1308Z" fill="black"/>
<path d="M73.7384 76.044H36.8692V82.9572H73.7384V76.044Z" fill="black"/>
<path d="M36.8703 82.9572H29.9572V89.8703H36.8703V82.9572Z" fill="black"/>
<path d="M23.044 69.1308H16.1308V76.044H23.044V69.1308Z" fill="black"/>
<path d="M16.1308 82.9572V76.044H6.91319H0V82.9572V92.1747H6.91319V82.9572H16.1308Z" fill="black"/>
<path d="M13.8264 92.1747H6.91321V99.0879H13.8264V92.1747Z" fill="black"/>
<path d="M23.0439 99.0879H13.8264V106H23.0439H29.9571V99.0879V89.8703H23.0439V99.0879Z" fill="black"/>
<path d="M50.6957 6.91319H43.7825V13.8264H50.6957V6.91319Z" fill="black"/>
<path d="M57.6089 20.7396H50.6957V27.6528H57.6089V20.7396Z" fill="white"/>
<path d="M71.4353 13.8264H57.6089V20.7396H71.4353V13.8264Z" fill="white"/>
<path d="M50.6957 27.6528H43.7825V39.1747H50.6957V27.6528Z" fill="white"/>
<path d="M85.2616 13.8264H78.3484V20.7396H85.2616V13.8264Z" fill="white"/>
</g>
<defs>
<clipPath id="clip0_17_104">
<rect width="106" height="106" fill="white"/>
</clipPath>
</defs>
</svg>
