<svg  viewBox="0 0 16 8" fill="none" xmlns="http://www.w3.org/2000/svg">
<path d="M11 6.5H7V7.5H11V6.5Z" fill="#F7FEFF"/>
<path d="M6 6.5H2V7.5H6V6.5Z" fill="#F7FEFF"/>
<path d="M14 5.5H13V6.5H14V5.5Z" fill="#F7FEFF"/>
<path d="M12 5.5H11V6.5H12V5.5Z" fill="#F7FEFF"/>
<path d="M11 5.5H7V6.5H11V5.5Z" fill="#231E2B"/>
<path d="M7 5.5H6V6.5H7V5.5Z" fill="#F7FEFF"/>
<path d="M6 5.5H2V6.5H6V5.5Z" fill="#231E2B"/>
<path d="M2 5.5H1V6.5H2V5.5Z" fill="#F7FEFF"/>
<path d="M15 4.5H14V5.5H15V4.5Z" fill="#F7FEFF"/>
<path d="M14 4.5H13V5.5H14V4.5Z" fill="#231E2B"/>
<path d="M13 4.5H12V5.5H13V4.5Z" fill="#F7FEFF"/>
<path d="M11 4.5H10V5.5H11V4.5Z" fill="#36313B"/>
<path d="M9 4.5V3.5H8V2.5H7V4.5H8V5.5H10V4.5H9Z" fill="#998B8C"/>
<path d="M8 4.5H7V5.5H8V4.5Z" fill="#36313B"/>
<path d="M6 4.5H5V5.5H6V4.5Z" fill="#36313B"/>
<path d="M4 4.5V3.5H3V2.5H2V4.5H3V5.5H5V4.5H4Z" fill="#998B8C"/>
<path d="M3 4.5H2V5.5H3V4.5Z" fill="#36313B"/>
<path d="M2 2.5H14V1.5H1V5.5H2V2.5Z" fill="#231E2B"/>
<path d="M13 4.5V3.5H11V5.5H12V4.5H13Z" fill="#231E2B"/>
<path d="M11 3.5H10V4.5H11V3.5Z" fill="#998B8C"/>
<path d="M10 3.5H9V4.5H10V3.5Z" fill="#36313B"/>
<path d="M7 3.5H6V5.5H7V3.5Z" fill="#231E2B"/>
<path d="M6 3.5H5V4.5H6V3.5Z" fill="#998B8C"/>
<path d="M5 3.5H4V4.5H5V3.5Z" fill="#36313B"/>
<path d="M1 1.5H0V5.5H1V1.5Z" fill="#F7FEFF"/>
<path d="M16 2.5H15V4.5H16V2.5Z" fill="#F7FEFF"/>
<path d="M15 2.5H14V4.5H15V2.5Z" fill="#231E2B"/>
<path d="M11 2.5V3.5H13V4.5H14V2.5H11Z" fill="#47414D"/>
<path d="M11 2.5H10V3.5H11V2.5Z" fill="#36313B"/>
<path d="M10 2.5H9V3.5H10V2.5Z" fill="#998B8C"/>
<path d="M9 2.5H8V3.5H9V2.5Z" fill="#36313B"/>
<path d="M7 2.5H5V3.5H7V2.5Z" fill="#36313B"/>
<path d="M5 2.5H4V3.5H5V2.5Z" fill="#998B8C"/>
<path d="M4 2.5H3V3.5H4V2.5Z" fill="#36313B"/>
<path d="M15 1.5H14V2.5H15V1.5Z" fill="#F7FEFF"/>
<path d="M14 0.5H1V1.5H14V0.5Z" fill="#F7FEFF"/>
</svg>
