<svg  viewBox="0 0 16 14" fill="none" xmlns="http://www.w3.org/2000/svg">
<path d="M14 13H2V14H14V13Z" fill="#F7FEFF"/>
<path d="M15 12H14V13H15V12Z" fill="#F7FEFF"/>
<path d="M14 12H2V13H14V12Z" fill="#231E2B"/>
<path d="M2 12H1V13H2V12Z" fill="#F7FEFF"/>
<path d="M16 11H15V12H16V11Z" fill="#F7FEFF"/>
<path d="M15 11H14V12H15V11Z" fill="#231E2B"/>
<path d="M14 11H2V12H14V11Z" fill="#B0392E"/>
<path d="M2 11H1V12H2V11Z" fill="#231E2B"/>
<path d="M1 11H0V12H1V11Z" fill="#F7FEFF"/>
<path d="M15 10H14V11H15V10Z" fill="#F7FEFF"/>
<path d="M12 11V10H10V9H9V10H7V9H6V10H4V11H12Z" fill="#892727"/>
<path d="M4 11V4H3V10H2V11H4Z" fill="#231E2B"/>
<path d="M2 10H1V11H2V10Z" fill="#F7FEFF"/>
<path d="M9 9H7V10H9V9Z" fill="#CF8934"/>
<path d="M6 5H4V10H6V5Z" fill="#B0392E"/>
<path d="M3 4H2V10H3V4Z" fill="#F7FEFF"/>
<path d="M10 8H9V9H10V8Z" fill="#CF8934"/>
<path d="M7 8H6V9H7V8Z" fill="#CF8934"/>
<path d="M10 8V6H6V8H7V9H9V8H10Z" fill="#E2B436"/>
<path d="M14 4H13V10H14V4Z" fill="#F7FEFF"/>
<path d="M12 5H10V10H12V5Z" fill="#B0392E"/>
<path d="M7 3H6V6H7V3Z" fill="#892727"/>
<path d="M12 11H14V10H13V4H12V11Z" fill="#231E2B"/>
<path d="M12 4H10V5H12V4Z" fill="#CF6B55"/>
<path d="M10 3H9V6H10V3Z" fill="#892727"/>
<path d="M9 3H7V6H9V3Z" fill="#B0392E"/>
<path d="M6 4H4V5H6V4Z" fill="#CF6B55"/>
<path d="M13 3H12V4H13V3Z" fill="#F7FEFF"/>
<path d="M12 3H10V4H12V3Z" fill="#231E2B"/>
<path d="M6 3H4V4H6V3Z" fill="#231E2B"/>
<path d="M4 3H3V4H4V3Z" fill="#F7FEFF"/>
<path d="M12 2H10V3H12V2Z" fill="#F7FEFF"/>
<path d="M10 2H9V3H10V2Z" fill="#231E2B"/>
<path d="M9 2H7V3H9V2Z" fill="#CF6B55"/>
<path d="M7 2H6V3H7V2Z" fill="#231E2B"/>
<path d="M6 2H4V3H6V2Z" fill="#F7FEFF"/>
<path d="M10 1H9V2H10V1Z" fill="#F7FEFF"/>
<path d="M9 1H7V2H9V1Z" fill="#231E2B"/>
<path d="M7 1H6V2H7V1Z" fill="#F7FEFF"/>
<path d="M9 0H7V1H9V0Z" fill="#F7FEFF"/>
</svg>
