<svg width="107" height="84" viewBox="0 0 107 84" fill="none" xmlns="http://www.w3.org/2000/svg">
<g clip-path="url(#clip0_17_219)">
<path d="M107 37.3327V23.3336H100.023V16.3336H83.7398V23.3336H76.7614V14.0002H69.783V7.00009H60.4784V0H23.2614V7.00009H13.9568V14.0002H6.97841V23.3336H0V60.6664H6.97841V69.9998H13.9568V76.9999H23.2614V84H60.4784V76.9999H69.783V69.9998H76.7614V60.6664H83.7398V67.6665H100.023V60.6664H107V46.6662H100.023V37.3327H107Z" fill="#57A4FF"/>
<path d="M60.4784 0H23.2614V7.00009H60.4784V0Z" fill="black"/>
<path d="M23.2614 7.00009H13.9568V14.0002H23.2614V7.00009Z" fill="black"/>
<path d="M13.9568 14.0002H6.97841V23.3336H13.9568V14.0002Z" fill="black"/>
<path d="M30.2398 37.3327H20.9352V46.6662H30.2398V37.3327Z" fill="black"/>
<path d="M13.9568 60.6664H6.97841V69.9998H13.9568V60.6664Z" fill="black"/>
<path d="M23.2614 69.9998H13.9568V76.9999H23.2614V69.9998Z" fill="black"/>
<path d="M60.4784 76.9999H23.2614V84H60.4784V76.9999Z" fill="black"/>
<path d="M69.7829 69.9998H60.4784V76.9999H69.7829V69.9998Z" fill="black"/>
<path d="M76.7614 60.6664H69.783V69.9998H76.7614V60.6664Z" fill="black"/>
<path d="M83.7398 46.6662H76.7614V60.6664H83.7398V46.6662Z" fill="black"/>
<path d="M83.7398 23.3336H76.7614V37.3338H83.7398V23.3336Z" fill="black"/>
<path d="M76.7614 14.0002H69.783V23.3336H76.7614V14.0002Z" fill="black"/>
<path d="M69.7829 7.00009H60.4784V14.0002H69.7829V7.00009Z" fill="black"/>
<path d="M100.023 16.3336H83.7398V23.3337H100.023V16.3336Z" fill="black"/>
<path d="M107.001 23.3336H100.023V37.3338H107.001V23.3336Z" fill="black"/>
<path d="M100.023 37.3327H93.0443V46.6662H100.023V37.3327Z" fill="black"/>
<path d="M107.001 46.6662H100.023V60.6664H107.001V46.6662Z" fill="black"/>
<path d="M100.023 60.6664H83.7398V67.6664H100.023V60.6664Z" fill="black"/>
<path d="M6.97841 23.3336H0V60.6664H6.97841V23.3336Z" fill="black"/>
</g>
<defs>
<clipPath id="clip0_17_219">
<rect width="107" height="84" fill="white"/>
</clipPath>
</defs>
</svg>
