<svg  viewBox="0 0 16 16" fill="none" xmlns="http://www.w3.org/2000/svg">
<path d="M15 15H2V16H15V15Z" fill="#F7FEFF"/>
<path d="M15 2H14V10H2V15H15V2ZM3 14V11H14V14H3Z" fill="#231E2B"/>
<path d="M2 10H1V15H2V10Z" fill="#F7FEFF"/>
<path d="M14 12H12V13H11V12H3V14H14V12Z" fill="#4FAB59"/>
<path d="M12 12H11V13H12V12Z" fill="#356E69"/>
<path d="M14 11H3V12H14V11Z" fill="#ACC756"/>
<path d="M14 9H2V10H14V9Z" fill="#C7936B"/>
<path d="M2 7H1V10H2V7Z" fill="#231E2B"/>
<path d="M1 7H0V10H1V7Z" fill="#F7FEFF"/>
<path d="M2 2H1V7H2V2Z" fill="#F7FEFF"/>
<path d="M12 5H11V6H12V5Z" fill="#C7936B"/>
<path d="M9 5H8V6H9V5Z" fill="#C7936B"/>
<path d="M6 5H5V6H6V5Z" fill="#C7936B"/>
<path d="M4 7H3V8H4V7Z" fill="#C7936B"/>
<path d="M12 2H11V5H12V2Z" fill="#231E2B"/>
<path d="M9 2H8V5H9V2Z" fill="#231E2B"/>
<path d="M6 2H5V5H6V2Z" fill="#231E2B"/>
<path d="M3 2H2V7H3V2Z" fill="#231E2B"/>
<path d="M16 2H15V15H16V2Z" fill="#F7FEFF"/>
<path d="M12 2V6H11V2H9V6H8V2H6V6H5V2H3V7H2V9H14V2H12Z" fill="#E8BE9B"/>
<path d="M15 1H14V2H15V1Z" fill="#F7FEFF"/>
<path d="M14 1H12V2H14V1Z" fill="#231E2B"/>
<path d="M12 1H11V2H12V1Z" fill="#F7FEFF"/>
<path d="M11 1H9V2H11V1Z" fill="#231E2B"/>
<path d="M9 1H8V2H9V1Z" fill="#F7FEFF"/>
<path d="M8 1H6V2H8V1Z" fill="#231E2B"/>
<path d="M6 1H5V2H6V1Z" fill="#F7FEFF"/>
<path d="M5 1H3V2H5V1Z" fill="#231E2B"/>
<path d="M3 1H2V2H3V1Z" fill="#F7FEFF"/>
<path d="M14 0H12V1H14V0Z" fill="#F7FEFF"/>
<path d="M11 0H9V1H11V0Z" fill="#F7FEFF"/>
<path d="M8 0H6V1H8V0Z" fill="#F7FEFF"/>
<path d="M5 0H3V1H5V0Z" fill="#F7FEFF"/>
</svg>
