<svg  viewBox="0 0 14 16" fill="none" xmlns="http://www.w3.org/2000/svg">
<path d="M4 15H1V16H4V15Z" fill="#F7FEFF"/>
<path d="M4 9H3V14H2V3H4V2H1V15H4V9Z" fill="#231E2B"/>
<path d="M1 2H0V15H1V2Z" fill="#F7FEFF"/>
<path d="M9 11H7V12H9V11Z" fill="#F7FEFF"/>
<path d="M10 10H9V11H10V10Z" fill="#F7FEFF"/>
<path d="M9 10H7V11H9V10Z" fill="#231E2B"/>
<path d="M7 10H6V11H7V10Z" fill="#F7FEFF"/>
<path d="M3 10H2V14H3V10Z" fill="#E2B436"/>
<path d="M13 9H10V10H13V9Z" fill="#F7FEFF"/>
<path d="M10 9H9V10H10V9Z" fill="#231E2B"/>
<path d="M9 9H7V10H9V9Z" fill="#892727"/>
<path d="M7 9H6V10H7V9Z" fill="#231E2B"/>
<path d="M4 9V15H5V10H6V9H4Z" fill="#F7FEFF"/>
<path d="M3 9H2V10H3V9Z" fill="#CF8934"/>
<path d="M10 8H9V9H10V8Z" fill="#892727"/>
<path d="M7 8H6V9H7V8Z" fill="#892727"/>
<path d="M6 8H4V9H6V8Z" fill="#231E2B"/>
<path d="M4 8H3V9H4V8Z" fill="#892727"/>
<path d="M14 6H13V9H14V6Z" fill="#F7FEFF"/>
<path d="M10 7V4H9V5H7V4H6V7H4V4H3V8H7V9H9V8H12V7H10Z" fill="#9A2D2D"/>
<path d="M3 3H2V9H3V3Z" fill="#CF6B55"/>
<path d="M12 8H10V9H13V6H12V8Z" fill="#231E2B"/>
<path d="M13 4H12V6H13V4Z" fill="#F7FEFF"/>
<path d="M12 4H11V6H12V4Z" fill="#231E2B"/>
<path d="M9 4H7V5H9V4Z" fill="#B0392E"/>
<path d="M10 4V7H12V6H11V4H12V3H9V4H10Z" fill="#B0392E"/>
<path d="M9 3H7V4H9V3Z" fill="#231E2B"/>
<path d="M3 3V4H4V7H6V4H7V3H3Z" fill="#B0392E"/>
<path d="M14 1H13V4H14V1Z" fill="#F7FEFF"/>
<path d="M12 2H10V3H12V2Z" fill="#CF6B55"/>
<path d="M10 2H9V3H10V2Z" fill="#231E2B"/>
<path d="M9 2H7V3H9V2Z" fill="#F7FEFF"/>
<path d="M7 2H6V3H7V2Z" fill="#231E2B"/>
<path d="M6 2H4V3H6V2Z" fill="#CF6B55"/>
<path d="M12 2V4H13V1H10V2H12Z" fill="#231E2B"/>
<path d="M10 1H9V2H10V1Z" fill="#F7FEFF"/>
<path d="M7 1H6V2H7V1Z" fill="#F7FEFF"/>
<path d="M6 1H4V2H6V1Z" fill="#231E2B"/>
<path d="M4 1H1V2H4V1Z" fill="#F7FEFF"/>
<path d="M13 0H10V1H13V0Z" fill="#F7FEFF"/>
<path d="M6 0H4V1H6V0Z" fill="#F7FEFF"/>
</svg>
