<svg  viewBox="0 0 16 16" fill="none" xmlns="http://www.w3.org/2000/svg">
<path d="M11 15H5V16H11V15Z" fill="#F7FEFF"/>
<path d="M13 14H11V15H13V14Z" fill="#F7FEFF"/>
<path d="M11 14H5V15H11V14Z" fill="#231E2B"/>
<path d="M5 14H3V15H5V14Z" fill="#F7FEFF"/>
<path d="M14 13H13V14H14V13Z" fill="#F7FEFF"/>
<path d="M13 13H11V14H13V13Z" fill="#231E2B"/>
<path d="M5 13H3V14H5V13Z" fill="#231E2B"/>
<path d="M3 13H2V14H3V13Z" fill="#F7FEFF"/>
<path d="M15 12H14V13H15V12Z" fill="#F7FEFF"/>
<path d="M14 12H13V13H14V12Z" fill="#231E2B"/>
<path d="M10 12V13H9V11H8V10H7V12H6V11H5V12H4V13H5V14H11V12H10Z" fill="#F5F38E"/>
<path d="M4 12H3V13H4V12Z" fill="#E2B436"/>
<path d="M3 12H2V13H3V12Z" fill="#231E2B"/>
<path d="M2 12H1V13H2V12Z" fill="#F7FEFF"/>
<path d="M14 11H13V12H14V11Z" fill="#C2751D"/>
<path d="M13 11H12V12H13V11Z" fill="#CF8934"/>
<path d="M12 10H11V11H10V10H9V9H8V7H7V10H8V11H9V13H10V12H11V13H13V12H12V10Z" fill="#E2B436"/>
<path d="M4 11H3V12H4V11Z" fill="#CF8934"/>
<path d="M3 11H2V12H3V11Z" fill="#C2751D"/>
<path d="M2 8H1V12H2V8Z" fill="#231E2B"/>
<path d="M15 8H14V12H15V8Z" fill="#231E2B"/>
<path d="M14 10H13V11H14V10Z" fill="#B0392E"/>
<path d="M11 10H10V11H11V10Z" fill="#CF8934"/>
<path d="M4 10V9H3V11H4V12H5V11H6V12H7V10H4Z" fill="#E2B436"/>
<path d="M3 9H2V11H3V9Z" fill="#B0392E"/>
<path d="M1 8H0V12H1V8Z" fill="#F7FEFF"/>
<path d="M13 9H12V11H13V9Z" fill="#C2751D"/>
<path d="M12 9H11V10H12V9Z" fill="#CF8934"/>
<path d="M11 9H10V10H11V9Z" fill="#C2751D"/>
<path d="M10 9H9V10H10V9Z" fill="#CF8934"/>
<path d="M7 9H6V10H7V9Z" fill="#F5F38E"/>
<path d="M6 9H5V10H6V9Z" fill="#CF8934"/>
<path d="M5 9H4V10H5V9Z" fill="#C2751D"/>
<path d="M16 8H15V12H16V8Z" fill="#F7FEFF"/>
<path d="M14 8H13V10H14V8Z" fill="#892727"/>
<path d="M12 8H11V9H12V8Z" fill="#E2B436"/>
<path d="M11 7H10V9H11V7Z" fill="#B0392E"/>
<path d="M10 6H9V7H8V8H9V9H10V6Z" fill="#C2751D"/>
<path d="M9 8H8V9H9V8Z" fill="#F5F38E"/>
<path d="M7 8H6V9H7V8Z" fill="#CF8934"/>
<path d="M6 8H5V9H6V8Z" fill="#C2751D"/>
<path d="M5 8H4V9H5V8Z" fill="#B0392E"/>
<path d="M4 8H3V9H4V8Z" fill="#C2751D"/>
<path d="M3 8H2V9H3V8Z" fill="#892727"/>
<path d="M13 7H12V9H13V7Z" fill="#B0392E"/>
<path d="M12 7H11V8H12V7Z" fill="#892727"/>
<path d="M7 7H6V8H7V7Z" fill="#C2751D"/>
<path d="M6 7H5V8H6V7Z" fill="#B0392E"/>
<path d="M4 7H3V8H4V7Z" fill="#B0392E"/>
<path d="M3 6H2V8H3V6Z" fill="#231E2B"/>
<path d="M2 6H1V8H2V6Z" fill="#F7FEFF"/>
<path d="M15 5H14V8H15V5Z" fill="#F7FEFF"/>
<path d="M13 5H12V7H13V5Z" fill="#892727"/>
<path d="M12 5H11V7H12V5Z" fill="#231E2B"/>
<path d="M11 5H10V7H11V5Z" fill="#892727"/>
<path d="M9 6H8V7H9V6Z" fill="#CF8934"/>
<path d="M7 6H6V7H7V6Z" fill="#B0392E"/>
<path d="M4 6H3V7H4V6Z" fill="#892727"/>
<path d="M14 5H13V8H14V5Z" fill="#231E2B"/>
<path d="M10 5H9V6H10V5Z" fill="#B0392E"/>
<path d="M9 5H8V6H9V5Z" fill="#E2B436"/>
<path d="M8 5H7V7H8V5Z" fill="#C2751D"/>
<path d="M7 4H6V6H7V4Z" fill="#892727"/>
<path d="M5 6H4V8H5V7H6V4H5V6Z" fill="#231E2B"/>
<path d="M4 6H5V4H3V5H4V6Z" fill="#F7FEFF"/>
<path d="M4 5H3V6H4V5Z" fill="#231E2B"/>
<path d="M3 5H2V6H3V5Z" fill="#F7FEFF"/>
<path d="M14 4H13V5H14V4Z" fill="#F7FEFF"/>
<path d="M13 4H12V5H13V4Z" fill="#231E2B"/>
<path d="M12 4H11V5H12V4Z" fill="#F7FEFF"/>
<path d="M11 4H10V5H11V4Z" fill="#231E2B"/>
<path d="M10 4H9V5H10V4Z" fill="#892727"/>
<path d="M9 4H8V5H9V4Z" fill="#C2751D"/>
<path d="M8 3H7V5H8V3Z" fill="#B0392E"/>
<path d="M13 3H12V4H13V3Z" fill="#F7FEFF"/>
<path d="M11 3H10V4H11V3Z" fill="#F7FEFF"/>
<path d="M10 3H9V4H10V3Z" fill="#231E2B"/>
<path d="M9 3H8V4H9V3Z" fill="#892727"/>
<path d="M7 2H6V4H7V2Z" fill="#231E2B"/>
<path d="M6 2H5V4H6V2Z" fill="#F7FEFF"/>
<path d="M10 2H9V3H10V2Z" fill="#F7FEFF"/>
<path d="M9 2H8V3H9V2Z" fill="#231E2B"/>
<path d="M8 2H7V3H8V2Z" fill="#892727"/>
<path d="M9 1H8V2H9V1Z" fill="#F7FEFF"/>
<path d="M8 1H7V2H8V1Z" fill="#231E2B"/>
<path d="M7 1H6V2H7V1Z" fill="#F7FEFF"/>
<path d="M8 0H7V1H8V0Z" fill="#F7FEFF"/>
</svg>
