<svg width="76" height="106" viewBox="0 0 76 106" fill="none" xmlns="http://www.w3.org/2000/svg">
<g clip-path="url(#clip0_17_548)">
<path d="M20.7276 0H13.8184V34.5659H6.90918V41.478H13.8184V106H20.7276V41.478H27.6368V34.5659H20.7276V0Z" fill="#787580"/>
<path d="M6.90919 0H0V34.5659H6.90919V0Z" fill="#787580"/>
<path d="M34.546 0H27.6368V34.5659H34.546V0Z" fill="#787580"/>
<path d="M69.0909 6.91319V0H48.3633V6.91319H41.4541V34.5659H48.3633V41.478H55.2725V106H62.1817V41.478H69.0909V34.5659H76.0001V6.91319H69.0909Z" fill="#787580"/>
<path d="M20.7276 0H13.8184V34.5659H6.90918V41.478H13.8184V106H20.7276V41.478H27.6368V34.5659H20.7276V0Z" fill="black"/>
<path d="M6.90919 0H0V34.5659H6.90919V0Z" fill="black"/>
<path d="M34.546 0H27.6368V34.5659H34.546V0Z" fill="black"/>
<path d="M48.3633 6.91321H41.4541V34.566H48.3633V6.91321Z" fill="black"/>
<path d="M76 6.91321H69.0908V34.566H76V6.91321Z" fill="black"/>
<path d="M48.3633 41.478H55.2725V106H62.1817V41.478H69.0909V34.5659H48.3633V41.478Z" fill="black"/>
<path d="M69.0909 0H48.3633V6.91319H69.0909V0Z" fill="black"/>
</g>
<defs>
<clipPath id="clip0_17_548">
<rect width="76" height="106" fill="white"/>
</clipPath>
</defs>
</svg>
