<svg  viewBox="0 0 16 16" fill="none" xmlns="http://www.w3.org/2000/svg">
<path d="M13 15H3V16H13V15Z" fill="#F7FEFF"/>
<path d="M14 14H13V15H14V14Z" fill="#F7FEFF"/>
<path d="M13 14H3V15H13V14Z" fill="#231E2B"/>
<path d="M3 14H2V15H3V14Z" fill="#F7FEFF"/>
<path d="M3 4H2V14H3V4Z" fill="#231E2B"/>
<path d="M14 6H13V14H14V6Z" fill="#231E2B"/>
<path d="M2 4H1V14H2V4Z" fill="#F7FEFF"/>
<path d="M5 10H4V13H5V10Z" fill="#F7FEFF"/>
<path d="M12 9H4V8H3V14H13V8H12V9ZM4 13V10H5V13H4Z" fill="#B0392E"/>
<path d="M12 8H4V9H12V8Z" fill="#892727"/>
<path d="M13 7H12V8H13V7Z" fill="#892727"/>
<path d="M11 6H10V8H11V6Z" fill="#E2B436"/>
<path d="M10 6H9V8H10V6Z" fill="#CF8934"/>
<path d="M8 5H7V8H8V5Z" fill="#CF8934"/>
<path d="M6 6H5V8H6V6Z" fill="#CF8934"/>
<path d="M5 6H4V8H5V6Z" fill="#E2B436"/>
<path d="M4 7H3V8H4V7Z" fill="#892727"/>
<path d="M15 6H14V14H15V6Z" fill="#F7FEFF"/>
<path d="M13 6H12V7H13V6Z" fill="#E2B436"/>
<path d="M12 6H11V8H12V6Z" fill="#CF8934"/>
<path d="M4 6H3V7H4V6Z" fill="#CF8934"/>
<path d="M11 3H10V6H11V3Z" fill="#CF8934"/>
<path d="M5 4H4V6H5V4Z" fill="#CF8934"/>
<path d="M4 4H3V6H4V4Z" fill="#E2B436"/>
<path d="M15 3H14V6H15V3Z" fill="#231E2B"/>
<path d="M13 4H12V6H13V4Z" fill="#CF8934"/>
<path d="M9 3H8V5H9V3Z" fill="#CF8934"/>
<path d="M8 3H7V5H8V3Z" fill="#E2B436"/>
<path d="M16 3H15V6H16V3Z" fill="#F7FEFF"/>
<path d="M14 3H13V6H14V3Z" fill="#E2B436"/>
<path d="M12 2H11V6H12V2Z" fill="#E2B436"/>
<path d="M9 5H8V8H9V6H10V2H9V5Z" fill="#E2B436"/>
<path d="M7 3H6V5H7V3Z" fill="#CF8934"/>
<path d="M4 3V4H5V6H6V8H7V5H6V2H5V3H4Z" fill="#E2B436"/>
<path d="M4 3H3V4H4V3Z" fill="#CF8934"/>
<path d="M3 3H2V4H3V3Z" fill="#E2B436"/>
<path d="M2 2H1V4H2V2Z" fill="#231E2B"/>
<path d="M15 2H14V3H15V2Z" fill="#F7FEFF"/>
<path d="M12 2V4H13V3H14V2H12Z" fill="#231E2B"/>
<path d="M11 2H10V3H11V2Z" fill="#231E2B"/>
<path d="M9 2H6V3H9V2Z" fill="#231E2B"/>
<path d="M5 2H4V3H5V2Z" fill="#231E2B"/>
<path d="M4 2H3V3H4V2Z" fill="#E2B436"/>
<path d="M3 2H2V3H3V2Z" fill="#CF8934"/>
<path d="M1 2H0V4H1V2Z" fill="#F7FEFF"/>
<path d="M14 1H12V2H14V1Z" fill="#F7FEFF"/>
<path d="M12 1H11V2H12V1Z" fill="#231E2B"/>
<path d="M11 1H10V2H11V1Z" fill="#F7FEFF"/>
<path d="M10 1H9V2H10V1Z" fill="#231E2B"/>
<path d="M9 1H6V2H9V1Z" fill="#F7FEFF"/>
<path d="M6 1H5V2H6V1Z" fill="#231E2B"/>
<path d="M5 1H4V2H5V1Z" fill="#F7FEFF"/>
<path d="M4 1H2V2H4V1Z" fill="#231E2B"/>
<path d="M2 1H1V2H2V1Z" fill="#F7FEFF"/>
<path d="M12 0H11V1H12V0Z" fill="#F7FEFF"/>
<path d="M10 0H9V1H10V0Z" fill="#F7FEFF"/>
<path d="M6 0H5V1H6V0Z" fill="#F7FEFF"/>
<path d="M4 0H2V1H4V0Z" fill="#F7FEFF"/>
</svg>
