<svg  viewBox="0 0 16 16" fill="none" xmlns="http://www.w3.org/2000/svg">
<path d="M14 15H2V16H14V15Z" fill="#F7FEFF"/>
<path d="M15 14H14V15H15V14Z" fill="#F7FEFF"/>
<path d="M14 14H2V15H14V14Z" fill="#231E2B"/>
<path d="M2 14H1V15H2V14Z" fill="#F7FEFF"/>
<path d="M14 13H2V14H14V13Z" fill="#356E69"/>
<path d="M2 12H1V14H2V12Z" fill="#231E2B"/>
<path d="M16 12H15V14H16V12Z" fill="#F7FEFF"/>
<path d="M15 12H14V14H15V12Z" fill="#231E2B"/>
<path d="M14 12H13V13H14V12Z" fill="#ACC756"/>
<path d="M8 12H7V13H8V12Z" fill="#ACC756"/>
<path d="M7 13V12H8V13H13V12H12V11H11V10H10V9H6V10H5V11H6V12H5V11H4V12H3V13H7ZM10 12H9V11H10V12Z" fill="#4FAB59"/>
<path d="M3 12H2V13H3V12Z" fill="#ACC756"/>
<path d="M1 12H0V14H1V12Z" fill="#F7FEFF"/>
<path d="M15 11H14V12H15V11Z" fill="#F7FEFF"/>
<path d="M14 11H13V12H14V11Z" fill="#231E2B"/>
<path d="M13 11H12V12H13V11Z" fill="#ACC756"/>
<path d="M10 11H9V12H10V11Z" fill="#ACC756"/>
<path d="M6 11H5V12H6V11Z" fill="#ACC756"/>
<path d="M4 11H3V12H4V11Z" fill="#ACC756"/>
<path d="M3 11H2V12H3V11Z" fill="#231E2B"/>
<path d="M2 11H1V12H2V11Z" fill="#F7FEFF"/>
<path d="M14 10H13V11H14V10Z" fill="#F7FEFF"/>
<path d="M13 10H12V11H13V10Z" fill="#231E2B"/>
<path d="M12 10H11V11H12V10Z" fill="#ACC756"/>
<path d="M5 10H4V11H5V10Z" fill="#ACC756"/>
<path d="M4 10H3V11H4V10Z" fill="#231E2B"/>
<path d="M3 10H2V11H3V10Z" fill="#F7FEFF"/>
<path d="M13 9H12V10H13V9Z" fill="#F7FEFF"/>
<path d="M12 9H11V10H12V9Z" fill="#231E2B"/>
<path d="M11 9H10V10H11V9Z" fill="#ACC756"/>
<path d="M6 9H5V10H6V9Z" fill="#ACC756"/>
<path d="M5 9H4V10H5V9Z" fill="#231E2B"/>
<path d="M4 9H3V10H4V9Z" fill="#F7FEFF"/>
<path d="M12 8H11V9H12V8Z" fill="#F7FEFF"/>
<path d="M11 8H10V9H11V8Z" fill="#231E2B"/>
<path d="M10 9V8H9V5H7V8H6V9H10Z" fill="#F7FEFF"/>
<path d="M6 8H5V9H6V8Z" fill="#231E2B"/>
<path d="M5 8H4V9H5V8Z" fill="#F7FEFF"/>
<path d="M7 3H6V8H7V3Z" fill="#231E2B"/>
<path d="M6 3H5V8H6V3Z" fill="#F7FEFF"/>
<path d="M9 4H7V5H9V4Z" fill="#B6B7B8"/>
<path d="M11 3H10V8H11V3Z" fill="#F7FEFF"/>
<path d="M10 3H9V8H10V3Z" fill="#231E2B"/>
<path d="M9 3H7V4H9V3Z" fill="#47414D"/>
<path d="M12 1H11V3H12V1Z" fill="#F7FEFF"/>
<path d="M10 2H6V3H10V2Z" fill="#F7FEFF"/>
<path d="M6 2H10V3H11V1H5V3H6V2Z" fill="#231E2B"/>
<path d="M5 1H4V3H5V1Z" fill="#F7FEFF"/>
<path d="M11 0H5V1H11V0Z" fill="#F7FEFF"/>
</svg>
