<svg width="107" height="97" viewBox="0 0 107 97" fill="none" xmlns="http://www.w3.org/2000/svg">
<g clip-path="url(#clip0_17_302)">
<path d="M90.7181 6.92873H83.7397V13.8575H90.7181V6.92873Z" fill="#966EC5"/>
<path d="M107.001 0H90.7181V6.92873H107.001V0Z" fill="#966EC5"/>
<path d="M76.7614 13.8575V6.92873H69.783V0H48.8477V6.92873H41.8693H20.9352V13.8575H13.9568V34.6437V41.5724H6.97841V62.3586V69.2873H0V90.0735H6.97841V97.0022H27.9136V90.0735H34.892H55.8273V83.1448H62.8057H83.7409V76.2149H90.7193V55.4287V48.5H97.6977V27.7149H90.7193V20.7862H83.7409V13.8575H76.7614Z" fill="#966EC5"/>
<path d="M69.783 0H48.8478V6.92873H69.783V0Z" fill="black"/>
<path d="M76.7614 13.8575V6.92873H69.783V27.7149H90.7182V20.7862H83.7398V13.8575H76.7614Z" fill="black"/>
<path d="M90.7181 6.92873H83.7397V13.8575H90.7181V6.92873Z" fill="black"/>
<path d="M107.001 0H90.7181V6.92873H107.001V0Z" fill="black"/>
<path d="M97.6965 27.7149H90.7181V48.5011H97.6965V27.7149Z" fill="black"/>
<path d="M62.8045 55.4287H41.8693V34.6425H20.9352V13.8575H13.9568V41.5713H34.892V62.3575H55.8261V83.1437H83.7397V76.2149H62.8045V55.4287Z" fill="black"/>
<path d="M69.7829 48.5V27.7149H48.8477V6.92873H20.9352V13.8575H41.8693V34.6425H62.8045V55.4287H83.7397V76.2149H90.7181V48.5H69.7829Z" fill="black"/>
<path d="M34.892 62.3575H13.9568V41.5713H6.97839V69.2862H27.9136V90.0724H55.8261V83.1437H34.892V62.3575Z" fill="black"/>
<path d="M6.97841 69.2862H0V90.0724H6.97841V69.2862Z" fill="black"/>
<path d="M27.9136 90.0724H6.97839V97.0011H27.9136V90.0724Z" fill="black"/>
</g>
<defs>
<clipPath id="clip0_17_302">
<rect width="107" height="97" fill="white"/>
</clipPath>
</defs>
</svg>
