<svg  viewBox="0 0 16 16" fill="none" xmlns="http://www.w3.org/2000/svg">
<path d="M11 15H5V16H11V15Z" fill="#F7FEFF"/>
<path d="M12 14H11V15H12V14Z" fill="#F7FEFF"/>
<path d="M11 14H5V15H11V14Z" fill="#231E2B"/>
<path d="M5 14H4V15H5V14Z" fill="#F7FEFF"/>
<path d="M13 13H12V14H13V13Z" fill="#F7FEFF"/>
<path d="M12 13H11V14H12V13Z" fill="#231E2B"/>
<path d="M7 13H5V14H7V13Z" fill="#ACC756"/>
<path d="M5 13H4V14H5V13Z" fill="#231E2B"/>
<path d="M4 13H3V14H4V13Z" fill="#F7FEFF"/>
<path d="M14 12H13V13H14V12Z" fill="#F7FEFF"/>
<path d="M13 12H12V13H13V12Z" fill="#231E2B"/>
<path d="M5 12H4V13H5V12Z" fill="#ACC756"/>
<path d="M4 12H3V13H4V12Z" fill="#231E2B"/>
<path d="M3 12H2V13H3V12Z" fill="#F7FEFF"/>
<path d="M15 11H14V12H15V11Z" fill="#F7FEFF"/>
<path d="M14 11H13V12H14V11Z" fill="#231E2B"/>
<path d="M10 11H6V12H10V11Z" fill="#356E69"/>
<path d="M4 11H3V12H4V11Z" fill="#ACC756"/>
<path d="M3 11H2V12H3V11Z" fill="#231E2B"/>
<path d="M2 11H1V12H2V11Z" fill="#F7FEFF"/>
<path d="M11 10H10V11H11V10Z" fill="#356E69"/>
<path d="M10 11V10H11V7H10V6H8V5H6V6H5V10H6V11H10Z" fill="#4FAB59"/>
<path d="M6 10H5V11H6V10Z" fill="#356E69"/>
<path d="M3 10H2V11H3V10Z" fill="#ACC756"/>
<path d="M2 5H1V11H2V5Z" fill="#231E2B"/>
<path d="M15 5H14V11H15V5Z" fill="#231E2B"/>
<path d="M1 5H0V11H1V5Z" fill="#F7FEFF"/>
<path d="M5 6H4V10H5V6Z" fill="#356E69"/>
<path d="M12 6H11V10H12V6Z" fill="#356E69"/>
<path d="M11 6H10V7H11V6Z" fill="#ACC756"/>
<path d="M16 5H15V11H16V5Z" fill="#F7FEFF"/>
<path d="M12 5V4H11V3H8V2H5V3H4V4H3V5H2V10H3V11H4V12H5V13H7V14H11V13H12V12H13V11H14V5H12ZM6 12V11H5V10H4V6H5V5H6V4H10V5H11V6H12V10H11V11H10V12H6Z" fill="#4FAB59"/>
<path d="M11 5H10V6H11V5Z" fill="#356E69"/>
<path d="M10 5H8V6H10V5Z" fill="#ACC756"/>
<path d="M6 5H5V6H6V5Z" fill="#356E69"/>
<path d="M15 4H14V5H15V4Z" fill="#F7FEFF"/>
<path d="M14 4H13V5H14V4Z" fill="#231E2B"/>
<path d="M13 4H12V5H13V4Z" fill="#ACC756"/>
<path d="M10 4H6V5H10V4Z" fill="#356E69"/>
<path d="M3 4H2V5H3V4Z" fill="#231E2B"/>
<path d="M2 4H1V5H2V4Z" fill="#F7FEFF"/>
<path d="M14 3H13V4H14V3Z" fill="#F7FEFF"/>
<path d="M13 3H12V4H13V3Z" fill="#231E2B"/>
<path d="M12 3H11V4H12V3Z" fill="#ACC756"/>
<path d="M4 3H3V4H4V3Z" fill="#231E2B"/>
<path d="M3 3H2V4H3V3Z" fill="#F7FEFF"/>
<path d="M13 2H12V3H13V2Z" fill="#F7FEFF"/>
<path d="M12 2H11V3H12V2Z" fill="#231E2B"/>
<path d="M11 2H8V3H11V2Z" fill="#ACC756"/>
<path d="M5 2H4V3H5V2Z" fill="#231E2B"/>
<path d="M4 2H3V3H4V2Z" fill="#F7FEFF"/>
<path d="M12 1H11V2H12V1Z" fill="#F7FEFF"/>
<path d="M11 1H5V2H11V1Z" fill="#231E2B"/>
<path d="M5 1H4V2H5V1Z" fill="#F7FEFF"/>
<path d="M11 0H5V1H11V0Z" fill="#F7FEFF"/>
</svg>
