<svg  viewBox="0 0 16 16" fill="none" xmlns="http://www.w3.org/2000/svg">
<path d="M14 15H2V16H14V15Z" fill="#F7FEFF"/>
<path d="M15 14H14V15H15V14Z" fill="#F7FEFF"/>
<path d="M14 14H2V15H14V14Z" fill="#231E2B"/>
<path d="M2 14H1V15H2V14Z" fill="#F7FEFF"/>
<path d="M16 12H15V14H16V12Z" fill="#F7FEFF"/>
<path d="M2 12H1V14H2V12Z" fill="#231E2B"/>
<path d="M15 12H14V14H15V12Z" fill="#231E2B"/>
<path d="M14 12H2V14H14V12Z" fill="#CF8934"/>
<path d="M1 12H0V14H1V12Z" fill="#F7FEFF"/>
<path d="M15 11H14V12H15V11Z" fill="#F7FEFF"/>
<path d="M14 11H13V12H14V11Z" fill="#231E2B"/>
<path d="M13 11H3V12H13V11Z" fill="#892727"/>
<path d="M3 11H2V12H3V11Z" fill="#231E2B"/>
<path d="M2 11H1V12H2V11Z" fill="#F7FEFF"/>
<path d="M11 10V9H8V10H6V9H4V10H2V11H14V10H11Z" fill="#B0392E"/>
<path d="M2 7H1V11H2V7Z" fill="#231E2B"/>
<path d="M14 9H13V10H14V9Z" fill="#892727"/>
<path d="M13 9H12V10H13V9Z" fill="#F5F38E"/>
<path d="M12 9H11V10H12V9Z" fill="#892727"/>
<path d="M8 9H7V10H8V9Z" fill="#F5F38E"/>
<path d="M4 9H3V10H4V9Z" fill="#892727"/>
<path d="M3 9H2V10H3V9Z" fill="#F5F38E"/>
<path d="M1 7H0V11H1V7Z" fill="#F7FEFF"/>
<path d="M16 7H15V11H16V7Z" fill="#F7FEFF"/>
<path d="M14 8H13V9H14V8Z" fill="#F5F38E"/>
<path d="M13 8H9V9H13V8Z" fill="#E2B436"/>
<path d="M9 8H8V9H9V8Z" fill="#892727"/>
<path d="M6 8V10H7V9H8V8H6Z" fill="#E2B436"/>
<path d="M6 8H5V9H6V8Z" fill="#F5F38E"/>
<path d="M5 8H2V9H5V8Z" fill="#E2B436"/>
<path d="M15 7H14V11H15V7Z" fill="#231E2B"/>
<path d="M14 7H13V8H14V7Z" fill="#4FAB59"/>
<path d="M13 7H12V8H13V7Z" fill="#CF8934"/>
<path d="M12 7H11V8H12V7Z" fill="#4FAB59"/>
<path d="M11 7H10V8H11V7Z" fill="#ACC756"/>
<path d="M10 7H9V8H10V7Z" fill="#CF8934"/>
<path d="M9 7H8V8H9V7Z" fill="#E2B436"/>
<path d="M7 7H6V8H7V7Z" fill="#ACC756"/>
<path d="M6 7H3V8H6V7Z" fill="#CF8934"/>
<path d="M3 7H2V8H3V7Z" fill="#ACC756"/>
<path d="M15 6H14V7H15V6Z" fill="#F7FEFF"/>
<path d="M14 6H13V7H14V6Z" fill="#231E2B"/>
<path d="M13 6H11V7H13V6Z" fill="#ACC756"/>
<path d="M7 7V8H8V7H11V6H6V7H7Z" fill="#4FAB59"/>
<path d="M6 6H5V7H6V6Z" fill="#ACC756"/>
<path d="M5 6H3V7H5V6Z" fill="#4FAB59"/>
<path d="M3 6H2V7H3V6Z" fill="#231E2B"/>
<path d="M2 6H1V7H2V6Z" fill="#F7FEFF"/>
<path d="M2 3H1V6H2V3Z" fill="#231E2B"/>
<path d="M15 3H14V6H15V3Z" fill="#231E2B"/>
<path d="M1 3H0V6H1V3Z" fill="#F7FEFF"/>
<path d="M16 3H15V6H16V3Z" fill="#F7FEFF"/>
<path d="M13 4H12V3H13V2H11V3H10V2H7V3H6V4H5V3H4V2H3V3H2V6H14V3H13V4ZM9 3V4H8V3H9Z" fill="#CF8934"/>
<path d="M13 3H12V4H13V3Z" fill="#E2B436"/>
<path d="M9 3H8V4H9V3Z" fill="#E2B436"/>
<path d="M6 3H5V4H6V3Z" fill="#E2B436"/>
<path d="M15 2H14V3H15V2Z" fill="#F7FEFF"/>
<path d="M14 2H13V3H14V2Z" fill="#231E2B"/>
<path d="M11 2H10V3H11V2Z" fill="#E2B436"/>
<path d="M7 2H6V3H7V2Z" fill="#E2B436"/>
<path d="M6 2H5V3H6V2Z" fill="#CF8934"/>
<path d="M5 2H4V3H5V2Z" fill="#E2B436"/>
<path d="M3 2H2V3H3V2Z" fill="#231E2B"/>
<path d="M2 2H1V3H2V2Z" fill="#F7FEFF"/>
<path d="M14 1H13V2H14V1Z" fill="#F7FEFF"/>
<path d="M13 1H3V2H13V1Z" fill="#231E2B"/>
<path d="M3 1H2V2H3V1Z" fill="#F7FEFF"/>
<path d="M13 0H3V1H13V0Z" fill="#F7FEFF"/>
</svg>
