<svg width="106" height="92" viewBox="0 0 106 92" fill="none" xmlns="http://www.w3.org/2000/svg">
<g clip-path="url(#clip0_16_2)">
<path d="M99.0879 20.7003H92.1747V13.8002H85.2615V6.90008H78.3484V0H27.6527V6.90008H20.7396V13.8002H13.8264V20.7003H6.91318V85.0999H13.8264V92H92.1747V85.0999H99.0879V20.7003Z" fill="#FFA733"/>
<path d="M99.0879 48.2995V41.3994H6.91319V48.2995H0V64.3997H6.91319V71.2997H99.0879V64.3997H106V48.2995H99.0879Z" fill="#AA6100"/>
<path d="M92.1747 85.0999H13.8264V92H92.1747V85.0999Z" fill="black"/>
<path d="M6.91319 48.2995H0V64.3997H6.91319V48.2995Z" fill="black"/>
<path d="M6.91318 64.3997V85.0999H13.8264V71.2997H92.1747V85.0999H99.0879V64.3997H6.91318Z" fill="black"/>
<path d="M106.001 48.2995H99.0879V64.3997H106.001V48.2995Z" fill="black"/>
<path d="M99.0879 48.2995V20.7002H92.1747V41.3994H13.8264V20.7002H6.91318V48.2995H99.0879Z" fill="black"/>
<path d="M78.3484 0H27.6528V6.90008H78.3484V0Z" fill="black"/>
<path d="M85.2615 6.90009H78.3484V13.8002H85.2615V6.90009Z" fill="black"/>
<path d="M92.1747 13.8002H85.2615V20.7003H92.1747V13.8002Z" fill="black"/>
<path d="M20.7396 13.8002H13.8264V20.7003H20.7396V13.8002Z" fill="black"/>
<path d="M27.6528 6.90009H20.7396V13.8002H27.6528V6.90009Z" fill="black"/>
<path d="M41.4791 13.8002H34.5659V20.7003H41.4791V13.8002Z" fill="black"/>
<path d="M55.3044 16.1002H48.3912V23.0003H55.3044V16.1002Z" fill="black"/>
<path d="M69.1308 13.8002H62.2176V20.7003H69.1308V13.8002Z" fill="black"/>
</g>
<defs>
<clipPath id="clip0_16_2">
<rect width="106" height="92" fill="white"/>
</clipPath>
</defs>
</svg>
