<svg  viewBox="0 0 16 14" fill="none" xmlns="http://www.w3.org/2000/svg">
<path d="M9 13H7V14H9V13Z" fill="#F7FEFF"/>
<path d="M10 12H9V13H10V12Z" fill="#F7FEFF"/>
<path d="M9 12H7V13H9V12Z" fill="#231E2B"/>
<path d="M7 12H6V13H7V12Z" fill="#F7FEFF"/>
<path d="M11 11H10V12H11V11Z" fill="#F7FEFF"/>
<path d="M10 11H9V12H10V11Z" fill="#231E2B"/>
<path d="M7 11H6V12H7V11Z" fill="#231E2B"/>
<path d="M6 11H5V12H6V11Z" fill="#F7FEFF"/>
<path d="M12 10H11V11H12V10Z" fill="#F7FEFF"/>
<path d="M11 10H10V11H11V10Z" fill="#231E2B"/>
<path d="M6 10V11H7V12H9V11H10V10H6Z" fill="#892727"/>
<path d="M6 10H5V11H6V10Z" fill="#231E2B"/>
<path d="M5 10H4V11H5V10Z" fill="#F7FEFF"/>
<path d="M13 9H12V10H13V9Z" fill="#F7FEFF"/>
<path d="M12 9H11V10H12V9Z" fill="#231E2B"/>
<path d="M11 9H10V10H11V9Z" fill="#892727"/>
<path d="M6 9H5V10H6V9Z" fill="#892727"/>
<path d="M5 9H4V10H5V9Z" fill="#231E2B"/>
<path d="M4 9H3V10H4V9Z" fill="#F7FEFF"/>
<path d="M14 8H13V9H14V8Z" fill="#F7FEFF"/>
<path d="M13 8H12V9H13V8Z" fill="#231E2B"/>
<path d="M12 8H11V9H12V8Z" fill="#892727"/>
<path d="M5 8H4V9H5V8Z" fill="#892727"/>
<path d="M4 8H3V9H4V8Z" fill="#231E2B"/>
<path d="M3 8H2V9H3V8Z" fill="#F7FEFF"/>
<path d="M15 7H14V8H15V7Z" fill="#F7FEFF"/>
<path d="M14 7H13V8H14V7Z" fill="#231E2B"/>
<path d="M13 7H12V8H13V7Z" fill="#892727"/>
<path d="M4 7H3V8H4V7Z" fill="#892727"/>
<path d="M3 7H2V8H3V7Z" fill="#231E2B"/>
<path d="M2 7H1V8H2V7Z" fill="#F7FEFF"/>
<path d="M14 6H13V7H14V6Z" fill="#892727"/>
<path d="M3 6H2V7H3V6Z" fill="#892727"/>
<path d="M2 3H1V7H2V3Z" fill="#231E2B"/>
<path d="M15 3H14V7H15V3Z" fill="#231E2B"/>
<path d="M1 3H0V7H1V3Z" fill="#F7FEFF"/>
<path d="M9 4H7V5H9V4Z" fill="#CF6B55"/>
<path d="M16 3H15V7H16V3Z" fill="#F7FEFF"/>
<path d="M14 3H13V4H14V3Z" fill="#CF6B55"/>
<path d="M13 3H10V4H9V5H7V4H6V3H3V4H2V6H3V7H4V8H5V9H6V10H10V9H11V8H12V7H13V6H14V4H13V3Z" fill="#B0392E"/>
<path d="M10 3H9V4H10V3Z" fill="#CF6B55"/>
<path d="M9 3H7V4H9V3Z" fill="#231E2B"/>
<path d="M7 3H6V4H7V3Z" fill="#CF6B55"/>
<path d="M3 3H2V4H3V3Z" fill="#CF6B55"/>
<path d="M15 2H14V3H15V2Z" fill="#F7FEFF"/>
<path d="M14 2H13V3H14V2Z" fill="#231E2B"/>
<path d="M13 2H10V3H13V2Z" fill="#CF6B55"/>
<path d="M10 2H9V3H10V2Z" fill="#231E2B"/>
<path d="M9 2H7V3H9V2Z" fill="#F7FEFF"/>
<path d="M7 2H6V3H7V2Z" fill="#231E2B"/>
<path d="M6 2H3V3H6V2Z" fill="#CF6B55"/>
<path d="M3 2H2V3H3V2Z" fill="#231E2B"/>
<path d="M2 2H1V3H2V2Z" fill="#F7FEFF"/>
<path d="M14 1H13V2H14V1Z" fill="#F7FEFF"/>
<path d="M13 1H10V2H13V1Z" fill="#231E2B"/>
<path d="M10 1H9V2H10V1Z" fill="#F7FEFF"/>
<path d="M7 1H6V2H7V1Z" fill="#F7FEFF"/>
<path d="M6 1H3V2H6V1Z" fill="#231E2B"/>
<path d="M3 1H2V2H3V1Z" fill="#F7FEFF"/>
<path d="M13 0H10V1H13V0Z" fill="#F7FEFF"/>
<path d="M6 0H3V1H6V0Z" fill="#F7FEFF"/>
</svg>
