<svg  viewBox="0 0 16 16" fill="none" xmlns="http://www.w3.org/2000/svg">
<path d="M15 15H2V16H15V15Z" fill="#F7FEFF"/>
<path d="M15 6H14V10H3V5H2V15H15V6ZM3 14V11H14V14H3Z" fill="#231E2B"/>
<path d="M2 5H1V15H2V5Z" fill="#F7FEFF"/>
<path d="M14 12H12V13H11V12H3V14H14V12Z" fill="#4FAB59"/>
<path d="M12 12H11V13H12V12Z" fill="#356E69"/>
<path d="M14 11H3V12H14V11Z" fill="#ACC756"/>
<path d="M14 9H3V10H14V9Z" fill="#C7936B"/>
<path d="M16 6H15V15H16V6Z" fill="#F7FEFF"/>
<path d="M15 5H14V6H15V5Z" fill="#F7FEFF"/>
<path d="M14 5H13V6H14V5Z" fill="#231E2B"/>
<path d="M13 5H9V6H8V4H9V2H7V5H6V6H5V5H4V2H2V4H3V9H14V6H13V5Z" fill="#E8BE9B"/>
<path d="M6 5H5V6H6V5Z" fill="#C7936B"/>
<path d="M14 4H13V5H14V4Z" fill="#F7FEFF"/>
<path d="M9 4H8V6H9V4Z" fill="#C7936B"/>
<path d="M7 4H6V5H7V4Z" fill="#C7936B"/>
<path d="M6 4H5V5H6V4Z" fill="#231E2B"/>
<path d="M5 4H4V5H5V4Z" fill="#C7936B"/>
<path d="M3 4H2V5H3V4Z" fill="#C7936B"/>
<path d="M2 2H1V5H2V2Z" fill="#231E2B"/>
<path d="M10 4H13V3H11V2H10V4Z" fill="#F7FEFF"/>
<path d="M7 2H6V4H7V2Z" fill="#231E2B"/>
<path d="M6 2H5V4H6V2Z" fill="#F7FEFF"/>
<path d="M1 2H0V5H1V2Z" fill="#F7FEFF"/>
<path d="M9 5H13V4H10V2H9V5Z" fill="#231E2B"/>
<path d="M5 2H4V4H5V2Z" fill="#231E2B"/>
<path d="M10 1H9V2H10V1Z" fill="#F7FEFF"/>
<path d="M9 1H7V2H9V1Z" fill="#231E2B"/>
<path d="M7 1H6V2H7V1Z" fill="#F7FEFF"/>
<path d="M5 1H4V2H5V1Z" fill="#F7FEFF"/>
<path d="M4 1H2V2H4V1Z" fill="#231E2B"/>
<path d="M2 1H1V2H2V1Z" fill="#F7FEFF"/>
<path d="M9 0H7V1H9V0Z" fill="#F7FEFF"/>
<path d="M4 0H2V1H4V0Z" fill="#F7FEFF"/>
</svg>
