<svg width="84" height="106" viewBox="0 0 84 106" fill="none" xmlns="http://www.w3.org/2000/svg">
<g clip-path="url(#clip0_17_25)">
<path d="M84 20.7396H76.9999V13.8264H69.9998V6.91319H55.9996V0H28.0004V6.91319H14.0002V13.8264H7.00009V20.7396H0V85.2615H7.00009V92.1747H14.0002V99.0879H28.0004V106H55.9996V99.0879H69.9998V92.1747H76.9999V85.2615H84V20.7396Z" fill="#FFA733"/>
<path d="M62.9997 6.91319H55.9996V0H28.0004V6.91319H21.0003V99.0879H28.0004V106H55.9996V99.0879H62.9997V6.91319Z" fill="#FF5023"/>
<path d="M48.9995 18.4352H41.9994V25.3484H48.9995V18.4352Z" fill="#FFEF2A"/>
<path d="M42.0006 25.3484H35.0005V32.2615H42.0006V25.3484Z" fill="#FFEF2A"/>
<path d="M48.9995 32.2604H41.9994V39.1736H48.9995V32.2604Z" fill="#FFEF2A"/>
<path d="M42.0006 39.1736H35.0005V46.0868H42.0006V39.1736Z" fill="#FFEF2A"/>
<path d="M48.9995 46.0868H41.9994V53H48.9995V46.0868Z" fill="#FFEF2A"/>
<path d="M42.0006 53H35.0005V59.9132H42.0006V53Z" fill="#FFEF2A"/>
<path d="M48.9995 59.9132H41.9994V66.8264H48.9995V59.9132Z" fill="#FFEF2A"/>
<path d="M42.0006 66.8264H35.0005V73.7396H42.0006V66.8264Z" fill="#FFEF2A"/>
<path d="M48.9995 73.7396H41.9994V80.6528H48.9995V73.7396Z" fill="#FFEF2A"/>
<path d="M42.0006 80.6528H35.0005V87.5659H42.0006V80.6528Z" fill="#FFEF2A"/>
<path d="M56.0008 0H28.0004V6.91319H56.0008V0Z" fill="black"/>
<path d="M76.9999 13.8264H69.9998V20.7396H76.9999V13.8264Z" fill="black"/>
<path d="M14.0002 13.8264H7.00009V20.7396H14.0002V13.8264Z" fill="black"/>
<path d="M7.00009 20.7396H0V85.2615H7.00009V20.7396Z" fill="black"/>
<path d="M14.0002 85.2615H7.00009V92.1747H14.0002V85.2615Z" fill="black"/>
<path d="M28.0004 6.91319H14.0002V13.8264H21.0003V92.1747H14.0002V99.0879H28.0004V6.91319Z" fill="black"/>
<path d="M62.9997 13.8264H69.9998V6.91319H55.9996V99.0879H69.9998V92.1747H62.9997V13.8264Z" fill="black"/>
<path d="M76.9999 85.2615H69.9998V92.1747H76.9999V85.2615Z" fill="black"/>
<path d="M84 20.7396H76.9999V85.2615H84V20.7396Z" fill="black"/>
<path d="M56.0008 99.0879H28.0004V106.001H56.0008V99.0879Z" fill="black"/>
</g>
<defs>
<clipPath id="clip0_17_25">
<rect width="84" height="106" fill="white"/>
</clipPath>
</defs>
</svg>
