<svg  viewBox="0 0 14 16" fill="none" xmlns="http://www.w3.org/2000/svg">
<path d="M13 15H1V16H13V15Z" fill="#F7FEFF"/>
<path d="M14 13H13V15H14V13Z" fill="#F7FEFF"/>
<path d="M12 14H2V13H1V15H13V13H12V14Z" fill="#231E2B"/>
<path d="M12 13H2V14H12V13Z" fill="#A6644B"/>
<path d="M1 13H0V15H1V13Z" fill="#F7FEFF"/>
<path d="M13 11H12V13H13V11Z" fill="#F7FEFF"/>
<path d="M2 11H1V13H2V11Z" fill="#F7FEFF"/>
<path d="M11 12H3V11H2V13H12V11H11V12Z" fill="#231E2B"/>
<path d="M11 11H10V12H11V11Z" fill="#F7FEFF"/>
<path d="M10 11H9V12H10V11Z" fill="#E8BE9B"/>
<path d="M9 11H5V12H9V11Z" fill="#C7936B"/>
<path d="M5 11H4V12H5V11Z" fill="#E8BE9B"/>
<path d="M4 11H3V12H4V11Z" fill="#F7FEFF"/>
<path d="M12 10H11V11H12V10Z" fill="#F7FEFF"/>
<path d="M11 10H10V11H11V10Z" fill="#231E2B"/>
<path d="M4 10V11H6V9H5V10H4Z" fill="#F7FEFF"/>
<path d="M4 10H3V11H4V10Z" fill="#231E2B"/>
<path d="M3 10H2V11H3V10Z" fill="#F7FEFF"/>
<path d="M11 9H10V10H11V9Z" fill="#F7FEFF"/>
<path d="M10 9H9V10H10V9Z" fill="#231E2B"/>
<path d="M5 9H4V10H5V9Z" fill="#231E2B"/>
<path d="M4 9H3V10H4V9Z" fill="#F7FEFF"/>
<path d="M8 8H7V11H10V10H9V9H8V8Z" fill="#F7FEFF"/>
<path d="M6 7H5V9H6V7Z" fill="#231E2B"/>
<path d="M5 7H4V9H5V7Z" fill="#F7FEFF"/>
<path d="M10 7H9V9H10V7Z" fill="#F7FEFF"/>
<path d="M9 7H8V9H9V7Z" fill="#231E2B"/>
<path d="M8 7H7V8H8V7Z" fill="#C7936B"/>
<path d="M11 6H10V7H11V6Z" fill="#F7FEFF"/>
<path d="M10 6H9V7H10V6Z" fill="#231E2B"/>
<path d="M9 6H8V7H9V6Z" fill="#C7936B"/>
<path d="M6 11H7V7H8V6H9V5H5V6H6V11Z" fill="#E8BE9B"/>
<path d="M6 6H5V7H6V6Z" fill="#C7936B"/>
<path d="M5 6H4V7H5V6Z" fill="#231E2B"/>
<path d="M4 6H3V7H4V6Z" fill="#F7FEFF"/>
<path d="M12 5H11V6H12V5Z" fill="#F7FEFF"/>
<path d="M11 5H10V6H11V5Z" fill="#231E2B"/>
<path d="M10 5H9V6H10V5Z" fill="#C7936B"/>
<path d="M5 5H4V6H5V5Z" fill="#C7936B"/>
<path d="M4 5H3V6H4V5Z" fill="#231E2B"/>
<path d="M3 5H2V6H3V5Z" fill="#F7FEFF"/>
<path d="M11 4H3V5H11V4Z" fill="#F7FEFF"/>
<path d="M3 4H11V5H12V3H2V5H3V4Z" fill="#231E2B"/>
<path d="M13 3H12V5H13V3Z" fill="#F7FEFF"/>
<path d="M2 3H1V5H2V3Z" fill="#F7FEFF"/>
<path d="M14 1H13V3H14V1Z" fill="#F7FEFF"/>
<path d="M12 2H2V3H12V2Z" fill="#A6644B"/>
<path d="M2 2H12V3H13V1H1V3H2V2Z" fill="#231E2B"/>
<path d="M1 1H0V3H1V1Z" fill="#F7FEFF"/>
<path d="M13 0H1V1H13V0Z" fill="#F7FEFF"/>
</svg>
