<svg width="65" height="107" viewBox="0 0 65 107" fill="none" xmlns="http://www.w3.org/2000/svg">
<g clip-path="url(#clip0_17_379)">
<path d="M58.0356 13.9568V6.97841H51.0712V0H13.9288V6.97841H6.96441V13.9568H0V41.8693H6.96441V67.4568H13.9288V86.0659H20.8932V100.023H27.8576V107H37.1424V100.023H44.1068V86.0659H51.0712V67.4568H58.0356V41.8693H65V13.9568H58.0356Z" fill="#FFA733"/>
<path d="M65 13.9568H58.0356V6.97841H51.0712V0H13.9288V6.97841H6.96441V13.9568H0V41.8693H6.96441V48.8477H58.0356V41.8693H65V13.9568Z" fill="#663A00"/>
<path d="M27.8576 100.023V107H37.1424V100.023H27.8576V86.0659H20.8932V100.023H27.8576Z" fill="black"/>
<path d="M44.1068 86.0659H51.0712V67.4568H44.1068V86.0659H37.1424V100.023H44.1068V86.0659Z" fill="black"/>
<path d="M20.8932 67.4568H13.9288V86.0659H20.8932V67.4568Z" fill="black"/>
<path d="M51.0712 0H13.9288V6.97841H51.0712V0Z" fill="black"/>
<path d="M58.0356 6.97839H51.0712V13.9568H58.0356V6.97839Z" fill="black"/>
<path d="M65 13.9568H58.0356V41.8704H65V13.9568Z" fill="black"/>
<path d="M6.96441 13.9568H13.9288V6.97839H6.96441V13.9568H0V41.8693H6.96441V13.9568Z" fill="black"/>
<path d="M6.9644 46.5216V67.4568H13.9288V48.8477H51.0712V67.4568H58.0356V48.8477V41.8693H6.9644V46.5216Z" fill="black"/>
<path d="M20.8932 6.97839H13.9288V13.9568H20.8932V6.97839Z" fill="white"/>
<path d="M13.9288 20.9352H6.9644V34.892H13.9288V20.9352Z" fill="white"/>
</g>
<defs>
<clipPath id="clip0_17_379">
<rect width="65" height="107" fill="white"/>
</clipPath>
</defs>
</svg>
