<svg width="74" height="107" viewBox="0 0 74 107" fill="none" xmlns="http://www.w3.org/2000/svg">
<g clip-path="url(#clip0_17_421)">
<path d="M74 20.9352H36.9994V13.9568H30.063V6.97839H6.93761V13.9568H0V37.217H6.93761V44.1954H16.1877V100.023H23.1254V107H67.0624V100.023H74V20.9352Z" fill="#FF9811"/>
<path d="M55.4997 20.9352H48.5621V88.392H55.4997V20.9352Z" fill="#AA6100"/>
<path d="M74 20.9352H16.1877V44.1966H74V20.9352Z" fill="#D1E7F8"/>
<path d="M37.0006 65.1307H30.063V72.1091H37.0006V65.1307Z" fill="white"/>
<path d="M37.0006 79.0875H30.063V93.0443H37.0006V79.0875Z" fill="white"/>
<path d="M67.0624 20.9352H60.1248V0H53.1872V20.9352H50.8747H36.9995V13.9568H30.063V20.9352H23.1254H16.1878V27.9136V37.217H6.93762V44.1955H16.1878V100.023H23.1254V44.1955V37.217V27.9136H30.063H36.9995H50.8747V44.1955H57.8123V27.9136H60.1248H67.0624V100.023H74V27.9136V20.9352H67.0624Z" fill="black"/>
<path d="M67.0624 100.023H23.1254V107.001H67.0624V100.023Z" fill="black"/>
<path d="M30.063 6.97839H6.93762V13.9568H30.063V6.97839Z" fill="black"/>
<path d="M6.93761 13.9568H0V37.2182H6.93761V13.9568Z" fill="black"/>
</g>
<defs>
<clipPath id="clip0_17_421">
<rect width="74" height="107" fill="white"/>
</clipPath>
</defs>
</svg>
