<svg  viewBox="0 0 10 16" fill="none" xmlns="http://www.w3.org/2000/svg">
<path d="M6 15H4V16H6V15Z" fill="#F7FEFF"/>
<path d="M7 14H6V15H7V14Z" fill="#F7FEFF"/>
<path d="M6 14H4V15H6V14Z" fill="#231E2B"/>
<path d="M4 14H3V15H4V14Z" fill="#F7FEFF"/>
<path d="M6 13H5V14H6V13Z" fill="#E2B436"/>
<path d="M4 8H3V14H4V8Z" fill="#231E2B"/>
<path d="M7 8H6V14H7V8Z" fill="#231E2B"/>
<path d="M6 12H5V13H6V12Z" fill="#CF8934"/>
<path d="M5 12H4V14H5V12Z" fill="#F5F38E"/>
<path d="M3 8H2V14H3V8Z" fill="#F7FEFF"/>
<path d="M5 11H4V12H5V11Z" fill="#CF8934"/>
<path d="M6 10H5V12H6V10Z" fill="#E2B436"/>
<path d="M5 10H4V11H5V10Z" fill="#F5F38E"/>
<path d="M6 9H5V10H6V9Z" fill="#CF8934"/>
<path d="M5 9H4V10H5V9Z" fill="#E2B436"/>
<path d="M8 8H7V14H8V8Z" fill="#F7FEFF"/>
<path d="M6 8H4V9H6V8Z" fill="#C2751D"/>
<path d="M9 7H8V8H9V7Z" fill="#F7FEFF"/>
<path d="M8 7H7V8H8V7Z" fill="#231E2B"/>
<path d="M7 7H3V8H7V7Z" fill="#CF8934"/>
<path d="M3 7H2V8H3V7Z" fill="#231E2B"/>
<path d="M2 7H1V8H2V7Z" fill="#F7FEFF"/>
<path d="M8 6H7V7H8V6Z" fill="#CF8934"/>
<path d="M3 6H2V7H3V6Z" fill="#CF8934"/>
<path d="M2 3H1V7H2V3Z" fill="#231E2B"/>
<path d="M5 5H3V6H5V5Z" fill="#CF8934"/>
<path d="M3 3H2V6H3V3Z" fill="#E2B436"/>
<path d="M1 3H0V7H1V3Z" fill="#F7FEFF"/>
<path d="M10 3H9V7H10V3Z" fill="#F7FEFF"/>
<path d="M5 3H3V5H5V3Z" fill="#231E2B"/>
<path d="M9 3H8V7H9V3Z" fill="#231E2B"/>
<path d="M8 3H7V4H8V3Z" fill="#F5F38E"/>
<path d="M5 3V6H3V7H7V6H8V4H7V3H5Z" fill="#E2B436"/>
<path d="M9 2H8V3H9V2Z" fill="#F7FEFF"/>
<path d="M8 2H7V3H8V2Z" fill="#231E2B"/>
<path d="M7 2H5V3H7V2Z" fill="#F5F38E"/>
<path d="M5 2H3V3H5V2Z" fill="#E2B436"/>
<path d="M3 2H2V3H3V2Z" fill="#231E2B"/>
<path d="M2 2H1V3H2V2Z" fill="#F7FEFF"/>
<path d="M8 1H7V2H8V1Z" fill="#F7FEFF"/>
<path d="M7 1H3V2H7V1Z" fill="#231E2B"/>
<path d="M3 1H2V2H3V1Z" fill="#F7FEFF"/>
<path d="M7 0H3V1H7V0Z" fill="#F7FEFF"/>
</svg>
