<svg  viewBox="0 0 14 16" fill="none" xmlns="http://www.w3.org/2000/svg">
<path d="M8 15H6V16H8V15Z" fill="#F7FEFF"/>
<path d="M10 14H8V15H10V14Z" fill="#F7FEFF"/>
<path d="M8 14H6V15H8V14Z" fill="#231E2B"/>
<path d="M6 14H5V15H6V14Z" fill="#F7FEFF"/>
<path d="M11 13H10V14H11V13Z" fill="#F7FEFF"/>
<path d="M10 13H8V14H10V13Z" fill="#231E2B"/>
<path d="M8 13H7V14H8V13Z" fill="#CF8934"/>
<path d="M6 7H3V8H5V14H6V7Z" fill="#231E2B"/>
<path d="M12 12H11V13H12V12Z" fill="#F7FEFF"/>
<path d="M11 12H10V13H11V12Z" fill="#231E2B"/>
<path d="M10 12H9V13H10V12Z" fill="#F5F38E"/>
<path d="M5 8H3V9H4V14H5V8Z" fill="#F7FEFF"/>
<path d="M11 11H10V12H11V11Z" fill="#F7FEFF"/>
<path d="M10 11H9V12H10V11Z" fill="#231E2B"/>
<path d="M9 11H8V12H9V11Z" fill="#CF8934"/>
<path d="M12 10H11V11H12V10Z" fill="#F7FEFF"/>
<path d="M11 10H10V11H11V10Z" fill="#231E2B"/>
<path d="M10 10H8V11H10V10Z" fill="#F5F38E"/>
<path d="M9 8V9H10V10H11V8H9Z" fill="#F7FEFF"/>
<path d="M8 8H7V10H8V8Z" fill="#F5F38E"/>
<path d="M12 7H11V8H12V7Z" fill="#F7FEFF"/>
<path d="M8 7V10H10V9H9V8H11V7H8Z" fill="#231E2B"/>
<path d="M3 7H2V8H3V7Z" fill="#F7FEFF"/>
<path d="M13 6H12V7H13V6Z" fill="#F7FEFF"/>
<path d="M12 6H11V7H12V6Z" fill="#231E2B"/>
<path d="M11 6H8V7H11V6Z" fill="#CF8934"/>
<path d="M6 6H3V7H6V6Z" fill="#CF8934"/>
<path d="M3 6H2V7H3V6Z" fill="#231E2B"/>
<path d="M2 6H1V7H2V6Z" fill="#F7FEFF"/>
<path d="M12 5H11V6H12V5Z" fill="#CF8934"/>
<path d="M7 5H4V6H7V5Z" fill="#F5F38E"/>
<path d="M3 5H2V6H3V5Z" fill="#CF8934"/>
<path d="M2 3H1V6H2V3Z" fill="#231E2B"/>
<path d="M14 3H13V6H14V3Z" fill="#F7FEFF"/>
<path d="M10 4H4V5H10V4Z" fill="#231E2B"/>
<path d="M1 3H0V6H1V3Z" fill="#F7FEFF"/>
<path d="M13 3H12V6H13V3Z" fill="#231E2B"/>
<path d="M12 3H11V4H12V3Z" fill="#F5F38E"/>
<path d="M10 5H7V6H6V14H7V13H9V12H8V10H7V8H8V6H11V5H12V4H11V3H10V5Z" fill="#E2B436"/>
<path d="M10 3H4V4H10V3Z" fill="#CF8934"/>
<path d="M2 3V5H3V6H4V3H8V2H3V3H2Z" fill="#E2B436"/>
<path d="M13 2H12V3H13V2Z" fill="#F7FEFF"/>
<path d="M12 2H11V3H12V2Z" fill="#231E2B"/>
<path d="M11 2H8V3H11V2Z" fill="#F5F38E"/>
<path d="M3 2H2V3H3V2Z" fill="#231E2B"/>
<path d="M2 2H1V3H2V2Z" fill="#F7FEFF"/>
<path d="M12 1H11V2H12V1Z" fill="#F7FEFF"/>
<path d="M11 1H3V2H11V1Z" fill="#231E2B"/>
<path d="M3 1H2V2H3V1Z" fill="#F7FEFF"/>
<path d="M11 0H3V1H11V0Z" fill="#F7FEFF"/>
</svg>
