<svg  viewBox="0 0 12 16" fill="none" xmlns="http://www.w3.org/2000/svg">
<path d="M10 15H9V16H10V15Z" fill="#F7FEFF"/>
<path d="M4 15H3V16H4V15Z" fill="#F7FEFF"/>
<path d="M11 14H10V15H11V14Z" fill="#F7FEFF"/>
<path d="M10 14H9V15H10V14Z" fill="#231E2B"/>
<path d="M9 14H8V15H9V14Z" fill="#F7FEFF"/>
<path d="M5 14H4V15H5V14Z" fill="#F7FEFF"/>
<path d="M4 14H3V15H4V14Z" fill="#231E2B"/>
<path d="M3 14H2V15H3V14Z" fill="#F7FEFF"/>
<path d="M9 10H8V14H9V10Z" fill="#231E2B"/>
<path d="M3 8H2V14H3V8Z" fill="#231E2B"/>
<path d="M11 1H8V2H10V14H11V1Z" fill="#231E2B"/>
<path d="M8 10H7V14H8V10Z" fill="#F7FEFF"/>
<path d="M5 8H4V14H5V8Z" fill="#231E2B"/>
<path d="M2 8H1V14H2V8Z" fill="#F7FEFF"/>
<path d="M10 11H9V14H10V11Z" fill="#B0392E"/>
<path d="M10 10H9V11H10V10Z" fill="#CF6B55"/>
<path d="M8 2H7V10H8V2Z" fill="#231E2B"/>
<path d="M4 9H3V14H4V9Z" fill="#B0392E"/>
<path d="M7 2H8V1H6V6H5V7H4V8H5V14H6V10H7V2Z" fill="#F7FEFF"/>
<path d="M4 8H3V9H4V8Z" fill="#CF6B55"/>
<path d="M3 8H4V7H5V6H4V1H3V6H2V7H3V8Z" fill="#231E2B"/>
<path d="M3 7H2V8H3V7Z" fill="#F7FEFF"/>
<path d="M2 6H1V7H2V6Z" fill="#F7FEFF"/>
<path d="M2 1H1V6H2V1Z" fill="#231E2B"/>
<path d="M1 1H0V6H1V1Z" fill="#F7FEFF"/>
<path d="M9 4H8V10H10V3H9V4Z" fill="#B6B7B8"/>
<path d="M8 4H9V3H10V2H8V4Z" fill="#CCCECF"/>
<path d="M6 1H5V6H6V1Z" fill="#231E2B"/>
<path d="M5 1H4V6H5V1Z" fill="#F7FEFF"/>
<path d="M3 1H2V6H3V1Z" fill="#F7FEFF"/>
<path d="M12 1H11V14H12V1Z" fill="#F7FEFF"/>
<path d="M11 0H8V1H11V0Z" fill="#F7FEFF"/>
<path d="M6 0H5V1H6V0Z" fill="#F7FEFF"/>
<path d="M4 0H3V1H4V0Z" fill="#F7FEFF"/>
<path d="M2 0H1V1H2V0Z" fill="#F7FEFF"/>
</svg>
