<svg  viewBox="0 0 16 16" fill="none" xmlns="http://www.w3.org/2000/svg">
<path d="M13 15H3V16H13V15Z" fill="#F7FEFF"/>
<path d="M14 14H13V15H14V14Z" fill="#F7FEFF"/>
<path d="M13 14H3V15H13V14Z" fill="#231E2B"/>
<path d="M3 14H2V15H3V14Z" fill="#F7FEFF"/>
<path d="M15 13H14V14H15V13Z" fill="#F7FEFF"/>
<path d="M14 13H13V14H14V13Z" fill="#231E2B"/>
<path d="M3 13H2V14H3V13Z" fill="#231E2B"/>
<path d="M2 13H1V14H2V13Z" fill="#F7FEFF"/>
<path d="M2 9H3V3H2V8H1V13H2V9Z" fill="#231E2B"/>
<path d="M15 8H14V3H13V9H14V13H15V8Z" fill="#231E2B"/>
<path d="M12 11V12H3V11H2V13H3V14H13V13H14V11H12Z" fill="#CF8934"/>
<path d="M1 8H0V13H1V8Z" fill="#F7FEFF"/>
<path d="M2 10V11H3V12H12V11H14V10H2Z" fill="#E2B436"/>
<path d="M14 9H2V10H14V9Z" fill="#F5F38E"/>
<path d="M16 8H15V13H16V8Z" fill="#F7FEFF"/>
<path d="M13 8H12V9H13V8Z" fill="#998B8C"/>
<path d="M4 8H3V9H4V8Z" fill="#998B8C"/>
<path d="M4 3H3V8H4V3Z" fill="#B6B7B8"/>
<path d="M2 3H1V8H2V3Z" fill="#F7FEFF"/>
<path d="M11 4H5V8H11V4Z" fill="#F7FEFF"/>
<path d="M15 3H14V8H15V3Z" fill="#F7FEFF"/>
<path d="M11 8H5V4H4V9H12V4H11V8Z" fill="#231E2B"/>
<path d="M13 3H12V8H13V3Z" fill="#B6B7B8"/>
<path d="M12 3H11V4H12V3Z" fill="#998B8C"/>
<path d="M11 3H5V4H11V3Z" fill="#231E2B"/>
<path d="M5 3H4V4H5V3Z" fill="#998B8C"/>
<path d="M14 2H13V3H14V2Z" fill="#F7FEFF"/>
<path d="M13 2H12V3H13V2Z" fill="#231E2B"/>
<path d="M12 2H4V3H12V2Z" fill="#B6B7B8"/>
<path d="M4 2H3V3H4V2Z" fill="#231E2B"/>
<path d="M3 2H2V3H3V2Z" fill="#F7FEFF"/>
<path d="M13 1H12V2H13V1Z" fill="#F7FEFF"/>
<path d="M12 1H4V2H12V1Z" fill="#231E2B"/>
<path d="M4 1H3V2H4V1Z" fill="#F7FEFF"/>
<path d="M12 0H4V1H12V0Z" fill="#F7FEFF"/>
</svg>
