<svg  viewBox="0 0 16 16" fill="none" xmlns="http://www.w3.org/2000/svg">
<path d="M10 15H6V16H10V15Z" fill="#F7FEFF"/>
<path d="M12 14H10V15H12V14Z" fill="#F7FEFF"/>
<path d="M10 14H6V15H10V14Z" fill="#231E2B"/>
<path d="M6 14H4V15H6V14Z" fill="#F7FEFF"/>
<path d="M13 13H12V14H13V13Z" fill="#F7FEFF"/>
<path d="M12 13H10V14H12V13Z" fill="#231E2B"/>
<path d="M10 13H8V14H10V13Z" fill="#892727"/>
<path d="M8 13H6V14H8V13Z" fill="#3D56D1"/>
<path d="M6 13H4V14H6V13Z" fill="#231E2B"/>
<path d="M4 13H3V14H4V13Z" fill="#F7FEFF"/>
<path d="M14 12H13V13H14V12Z" fill="#F7FEFF"/>
<path d="M13 12H12V13H13V12Z" fill="#231E2B"/>
<path d="M12 12H11V13H12V12Z" fill="#892727"/>
<path d="M8 13V11H6V10H5V6H2V9H3V11H4V12H5V13H8Z" fill="#5D87DA"/>
<path d="M5 12H4V13H5V12Z" fill="#3D56D1"/>
<path d="M4 12H3V13H4V12Z" fill="#231E2B"/>
<path d="M3 12H2V13H3V12Z" fill="#F7FEFF"/>
<path d="M13 11H12V12H13V11Z" fill="#892727"/>
<path d="M4 11H3V12H4V11Z" fill="#3D56D1"/>
<path d="M3 10H2V12H3V10Z" fill="#231E2B"/>
<path d="M15 10H14V12H15V10Z" fill="#F7FEFF"/>
<path d="M14 10H13V12H14V10Z" fill="#231E2B"/>
<path d="M10 10V11H8V13H11V12H12V11H13V9H14V6H11V10H10Z" fill="#B0392E"/>
<path d="M10 10H8V11H10V10Z" fill="#CF6B55"/>
<path d="M8 10H6V11H8V10Z" fill="#5EB0DB"/>
<path d="M2 10H1V12H2V10Z" fill="#F7FEFF"/>
<path d="M14 9H13V10H14V9Z" fill="#892727"/>
<path d="M11 9H10V10H11V9Z" fill="#CF6B55"/>
<path d="M10 9H6V10H10V9Z" fill="#231E2B"/>
<path d="M6 9H5V10H6V9Z" fill="#5EB0DB"/>
<path d="M3 9H2V10H3V9Z" fill="#3D56D1"/>
<path d="M2 5H5V9H6V1H1V10H2V5ZM2 2H5V4H2V2Z" fill="#231E2B"/>
<path d="M15 1H10V9H11V5H14V10H15V1ZM11 4V2H14V4H11Z" fill="#231E2B"/>
<path d="M1 1H0V10H1V1Z" fill="#F7FEFF"/>
<path d="M14 5H11V6H14V5Z" fill="#892727"/>
<path d="M5 5H2V6H5V5Z" fill="#3D56D1"/>
<path d="M5 2H2V4H5V2Z" fill="#F7FEFF"/>
<path d="M14 2H11V4H14V2Z" fill="#F7FEFF"/>
<path d="M6 9H10V1H9V8H7V1H6V9Z" fill="#F7FEFF"/>
<path d="M16 1H15V10H16V1Z" fill="#F7FEFF"/>
<path d="M15 0H10V1H15V0Z" fill="#F7FEFF"/>
<path d="M6 0H1V1H6V0Z" fill="#F7FEFF"/>
</svg>
