<svg  viewBox="0 0 16 12" fill="none" xmlns="http://www.w3.org/2000/svg">
<path d="M15 11H1V12H15V11Z" fill="#F7FEFF"/>
<path d="M15 1H1V11H15V1ZM2 10V2H14V10H2Z" fill="#231E2B"/>
<path d="M14 9H13V10H14V9Z" fill="#B6B7B8"/>
<path d="M12 9V8H11V7H10V8H6V7H5V8H4V9H3V10H13V9H12Z" fill="#F7FEFF"/>
<path d="M3 9H2V10H3V9Z" fill="#B6B7B8"/>
<path d="M1 1H0V11H1V1Z" fill="#F7FEFF"/>
<path d="M13 8H12V9H13V8Z" fill="#B6B7B8"/>
<path d="M4 8H3V9H4V8Z" fill="#B6B7B8"/>
<path d="M3 8H4V7H5V6H4V5H3V4H2V9H3V8Z" fill="#F7FEFF"/>
<path d="M12 7H11V8H12V7Z" fill="#B6B7B8"/>
<path d="M10 7H6V8H10V7Z" fill="#B6B7B8"/>
<path d="M5 7H4V8H5V7Z" fill="#B6B7B8"/>
<path d="M11 6H10V7H11V6Z" fill="#B6B7B8"/>
<path d="M6 6H5V7H6V6Z" fill="#B6B7B8"/>
<path d="M12 5H11V6H12V5Z" fill="#B6B7B8"/>
<path d="M5 5H4V6H5V5Z" fill="#B6B7B8"/>
<path d="M13 5H12V6H11V7H12V8H13V9H14V4H13V5Z" fill="#F7FEFF"/>
<path d="M13 4H12V5H13V4Z" fill="#B6B7B8"/>
<path d="M4 4H3V5H4V4Z" fill="#B6B7B8"/>
<path d="M14 3H13V4H14V3Z" fill="#B6B7B8"/>
<path d="M3 4H4V5H5V6H6V7H10V6H11V5H12V4H13V3H14V2H2V3H3V4Z" fill="#F7FEFF"/>
<path d="M3 3H2V4H3V3Z" fill="#B6B7B8"/>
<path d="M16 1H15V11H16V1Z" fill="#F7FEFF"/>
<path d="M15 0H1V1H15V0Z" fill="#F7FEFF"/>
</svg>
