<svg  viewBox="0 0 16 14" fill="none" xmlns="http://www.w3.org/2000/svg">
<path d="M11 13H5V14H11V13Z" fill="#F7FEFF"/>
<path d="M12 12H11V13H12V12Z" fill="#F7FEFF"/>
<path d="M11 12H5V13H11V12Z" fill="#231E2B"/>
<path d="M5 12H4V13H5V12Z" fill="#F7FEFF"/>
<path d="M13 11H12V12H13V11Z" fill="#F7FEFF"/>
<path d="M12 11H11V12H12V11Z" fill="#231E2B"/>
<path d="M11 11H5V12H11V11Z" fill="#CF8934"/>
<path d="M5 11H4V12H5V11Z" fill="#231E2B"/>
<path d="M4 11H3V12H4V11Z" fill="#F7FEFF"/>
<path d="M12 10H11V11H12V10Z" fill="#CF8934"/>
<path d="M5 10H4V11H5V10Z" fill="#CF8934"/>
<path d="M4 5H3V11H4V5Z" fill="#231E2B"/>
<path d="M13 5H12V11H13V5Z" fill="#231E2B"/>
<path d="M9 9V6H7V7H6V8H7V9H6V10H10V9H9Z" fill="#C2751D"/>
<path d="M3 5H2V11H3V5Z" fill="#F7FEFF"/>
<path d="M12 6H11V7H12V6Z" fill="#CF8934"/>
<path d="M11 6H10V5H6V6H5V7H4V10H5V11H11V10H12V7H11V6ZM6 10V9H7V8H6V7H7V6H9V9H10V10H6Z" fill="#E2B436"/>
<path d="M5 6H4V7H5V6Z" fill="#CF8934"/>
<path d="M14 5H13V11H14V5Z" fill="#F7FEFF"/>
<path d="M12 5H11V6H12V5Z" fill="#892727"/>
<path d="M11 5H10V6H11V5Z" fill="#CF8934"/>
<path d="M6 5H5V6H6V5Z" fill="#CF8934"/>
<path d="M5 5H4V6H5V5Z" fill="#892727"/>
<path d="M15 4H14V5H15V4Z" fill="#F7FEFF"/>
<path d="M14 4H13V5H14V4Z" fill="#231E2B"/>
<path d="M13 4H12V5H13V4Z" fill="#892727"/>
<path d="M12 4H10V5H12V4Z" fill="#B0392E"/>
<path d="M10 4H6V5H10V4Z" fill="#F5F38E"/>
<path d="M6 4H4V5H6V4Z" fill="#B0392E"/>
<path d="M4 4H3V5H4V4Z" fill="#892727"/>
<path d="M3 4H2V5H3V4Z" fill="#231E2B"/>
<path d="M2 4H1V5H2V4Z" fill="#F7FEFF"/>
<path d="M14 3H13V4H14V3Z" fill="#892727"/>
<path d="M13 3H12V4H13V3Z" fill="#B0392E"/>
<path d="M12 3H11V4H12V3Z" fill="#CF6B55"/>
<path d="M11 3H5V4H11V3Z" fill="#231E2B"/>
<path d="M5 3H4V4H5V3Z" fill="#CF6B55"/>
<path d="M4 3H3V4H4V3Z" fill="#B0392E"/>
<path d="M3 3H2V4H3V3Z" fill="#892727"/>
<path d="M2 2H4V1H1V4H2V2Z" fill="#231E2B"/>
<path d="M15 1H12V2H14V4H15V1Z" fill="#231E2B"/>
<path d="M14 2H12V3H14V2Z" fill="#CF6B55"/>
<path d="M12 2H11V3H12V2Z" fill="#231E2B"/>
<path d="M11 2H5V3H11V2Z" fill="#F7FEFF"/>
<path d="M5 2H4V3H5V2Z" fill="#231E2B"/>
<path d="M4 2H2V3H4V2Z" fill="#CF6B55"/>
<path d="M1 1H0V4H1V1Z" fill="#F7FEFF"/>
<path d="M16 1H15V4H16V1Z" fill="#F7FEFF"/>
<path d="M12 1H11V2H12V1Z" fill="#F7FEFF"/>
<path d="M5 1H4V2H5V1Z" fill="#F7FEFF"/>
<path d="M15 0H12V1H15V0Z" fill="#F7FEFF"/>
<path d="M4 0H1V1H4V0Z" fill="#F7FEFF"/>
</svg>
