<svg width="92" height="106" viewBox="0 0 92 106" fill="none" xmlns="http://www.w3.org/2000/svg">
<g clip-path="url(#clip0_17_457)">
<path d="M85.0999 34.5659V27.6528H78.1998V20.7396H71.2997V0H20.7003V20.7396H13.8002V27.6528H6.90008V34.5659H0V106H92V34.5659H85.0999Z" fill="white"/>
<path d="M85.0999 34.5659V27.6527H78.1998V20.7395H71.2997V13.8264H64.3997V20.7395H57.4996V27.6527H50.5995V34.5659H43.6994V41.478V106H92V41.478V34.5659H85.0999Z" fill="#E1E3FA"/>
<path d="M20.7003 20.7396H13.8002V27.6528H20.7003V20.7396Z" fill="black"/>
<path d="M78.1998 20.7396H71.2997V27.6528H78.1998V20.7396Z" fill="black"/>
<path d="M57.4996 20.7396V27.6528H64.3997V20.7396H71.2998V0H20.7003V20.7396H57.4996ZM27.6003 6.91319H64.3997V13.8264H27.6003V6.91319Z" fill="black"/>
<path d="M85.0999 34.566V27.6528H78.1998V34.566H57.4996V27.6528H50.5995V34.566H13.8002V27.6528H6.90008V34.566H0V106H92V34.566H85.0999ZM43.6994 99.0879H6.90008V41.478H43.6994V99.0879ZM85.0999 99.0879H50.5995V41.478H85.0999V99.0879Z" fill="black"/>
</g>
<defs>
<clipPath id="clip0_17_457">
<rect width="92" height="106" fill="white"/>
</clipPath>
</defs>
</svg>
