<svg  viewBox="0 0 16 10" fill="none" xmlns="http://www.w3.org/2000/svg">
<path d="M15 9H1V10H15V9Z" fill="#F7FEFF"/>
<path d="M15 1H1V9H15V1ZM2 8V2H14V8H2Z" fill="#231E2B"/>
<path d="M6 7V3H7V2H4V3H3V4H2V6H3V7H4V8H7V7H6Z" fill="#4FAB59"/>
<path d="M3 7V6H2V8H4V7H3Z" fill="#ACC756"/>
<path d="M1 1H0V9H1V1Z" fill="#F7FEFF"/>
<path d="M14 6H13V7H12V8H14V6Z" fill="#ACC756"/>
<path d="M13 7V6H14V4H13V3H12V2H9V3H10V7H9V8H12V7H13Z" fill="#4FAB59"/>
<path d="M10 7V3H9V2H7V3H6V7H7V8H9V7H10Z" fill="#ACC756"/>
<path d="M3 3H4V2H2V4H3V3Z" fill="#ACC756"/>
<path d="M13 3V4H14V2H12V3H13Z" fill="#ACC756"/>
<path d="M16 1H15V9H16V1Z" fill="#F7FEFF"/>
<path d="M15 0H1V1H15V0Z" fill="#F7FEFF"/>
</svg>
