<svg  viewBox="0 0 16 16" fill="none" xmlns="http://www.w3.org/2000/svg">
<path d="M11 15H5V16H11V15Z" fill="#F7FEFF"/>
<path d="M11 13H10V14H6V13H5V15H11V13Z" fill="#231E2B"/>
<path d="M10 13H6V14H10V13Z" fill="#B6B7B8"/>
<path d="M5 13H6V12H2V13H4V15H5V13Z" fill="#F7FEFF"/>
<path d="M10 12V13H11V15H12V13H14V12H10Z" fill="#F7FEFF"/>
<path d="M9 12H7V13H9V12Z" fill="#8F8F8F"/>
<path d="M15 11H14V12H15V11Z" fill="#F7FEFF"/>
<path d="M2 11V12H6V13H7V12H9V13H10V12H14V11H2Z" fill="#231E2B"/>
<path d="M2 11H1V12H2V11Z" fill="#F7FEFF"/>
<path d="M2 2H1V11H2V2Z" fill="#231E2B"/>
<path d="M15 2H14V11H15V2Z" fill="#231E2B"/>
<path d="M14 9H2V11H14V9Z" fill="#B6B7B8"/>
<path d="M1 2H0V11H1V2Z" fill="#F7FEFF"/>
<path d="M16 2H15V11H16V2Z" fill="#F7FEFF"/>
<path d="M14 2H2V9H14V2Z" fill="#47414D"/>
<path d="M15 1H14V2H15V1Z" fill="#F7FEFF"/>
<path d="M14 1H2V2H14V1Z" fill="#231E2B"/>
<path d="M2 1H1V2H2V1Z" fill="#F7FEFF"/>
<path d="M14 0H2V1H14V0Z" fill="#F7FEFF"/>
</svg>
