<svg  viewBox="0 0 16 16" fill="none" xmlns="http://www.w3.org/2000/svg">
<path d="M15 15H1V16H15V15Z" fill="#F7FEFF"/>
<path d="M15 12H14V14H2V12H1V15H15V12Z" fill="#231E2B"/>
<path d="M1 12H0V15H1V12Z" fill="#F7FEFF"/>
<path d="M16 12H15V15H16V12Z" fill="#F7FEFF"/>
<path d="M15 11H14V12H15V11Z" fill="#F7FEFF"/>
<path d="M14 11H13V12H14V11Z" fill="#231E2B"/>
<path d="M13 11H11V12H10V11H8V12H7V11H6V12H5V11H3V12H2V14H14V12H13V11Z" fill="#B6B7B8"/>
<path d="M11 11H10V12H11V11Z" fill="#998B8C"/>
<path d="M8 11H7V12H8V11Z" fill="#998B8C"/>
<path d="M6 11H5V12H6V11Z" fill="#998B8C"/>
<path d="M3 11H2V12H3V11Z" fill="#231E2B"/>
<path d="M2 11H1V12H2V11Z" fill="#F7FEFF"/>
<path d="M14 10H13V11H14V10Z" fill="#F7FEFF"/>
<path d="M13 10H12V11H13V10Z" fill="#231E2B"/>
<path d="M12 10H11V11H12V10Z" fill="#998B8C"/>
<path d="M10 10H8V11H10V10Z" fill="#998B8C"/>
<path d="M7 10H6V11H7V10Z" fill="#998B8C"/>
<path d="M6 11V10H7V11H8V10H10V11H11V9H10V8H9V7H7V8H6V9H5V11H6Z" fill="#F7FEFF"/>
<path d="M5 10H4V11H5V10Z" fill="#998B8C"/>
<path d="M4 10H3V11H4V10Z" fill="#231E2B"/>
<path d="M3 10H2V11H3V10Z" fill="#F7FEFF"/>
<path d="M13 9H12V10H13V9Z" fill="#F7FEFF"/>
<path d="M12 9H11V10H12V9Z" fill="#231E2B"/>
<path d="M5 9H4V10H5V9Z" fill="#231E2B"/>
<path d="M4 9H3V10H4V9Z" fill="#F7FEFF"/>
<path d="M12 8H11V9H12V8Z" fill="#F7FEFF"/>
<path d="M11 8H10V9H11V8Z" fill="#231E2B"/>
<path d="M6 8H5V9H6V8Z" fill="#231E2B"/>
<path d="M5 8H4V9H5V8Z" fill="#F7FEFF"/>
<path d="M11 7H10V8H11V7Z" fill="#F7FEFF"/>
<path d="M10 7H9V8H10V7Z" fill="#231E2B"/>
<path d="M6 1H5V8H6V1Z" fill="#F7FEFF"/>
<path d="M8 6H7V7H8V6Z" fill="#CF8934"/>
<path d="M9 5V7H10V6H11V5H9Z" fill="#F7FEFF"/>
<path d="M8 4H7V6H8V4Z" fill="#E2B436"/>
<path d="M10 2H8V4H10V2Z" fill="#B0392E"/>
<path d="M8 2H7V4H8V2Z" fill="#892727"/>
<path d="M12 1H11V5H12V1Z" fill="#F7FEFF"/>
<path d="M6 8H7V2H10V4H8V7H9V5H11V1H6V8Z" fill="#231E2B"/>
<path d="M11 0H6V1H11V0Z" fill="#F7FEFF"/>
</svg>
