<svg xmlns="http://www.w3.org/2000/svg" viewBox="0 0 128 128"><defs><style>.cls-1{fill:#f4bd3e;}.cls-2{fill:#e55b1a;}.cls-3{fill:#f4e9cf;}.cls-4{fill:#deb982;}</style></defs><title>Asset 2</title><g id="Layer_2" data-name="Layer 2"><g id="mushroom"><rect class="cls-1" x="16" y="32" width="8" height="8"/><rect class="cls-1" x="16" y="40" width="8" height="8"/><rect class="cls-1" x="24" y="24" width="8" height="8"/><rect class="cls-1" x="24" y="32" width="8" height="8"/><rect class="cls-1" x="24" y="40" width="8" height="8"/><rect class="cls-1" x="24" y="48" width="8" height="8"/><rect class="cls-1" x="24" y="56" width="8" height="8"/><rect class="cls-1" x="24" y="64" width="8" height="8"/><rect class="cls-1" x="16" y="72" width="8" height="8"/><rect class="cls-1" x="24" y="72" width="8" height="8"/><rect class="cls-1" x="32" y="32" width="8" height="8"/><rect class="cls-1" x="32" y="40" width="8" height="8"/><rect class="cls-1" x="32" y="48" width="8" height="8"/><rect class="cls-1" x="32" y="56" width="8" height="8"/><rect class="cls-1" x="32" y="64" width="8" height="8"/><rect class="cls-1" x="32" y="72" width="8" height="8"/><rect class="cls-1" x="40" y="72" width="8" height="8"/><rect class="cls-1" x="88" y="32" width="8" height="8"/><rect class="cls-1" x="88" y="40" width="8" height="8"/><rect class="cls-1" x="104" y="32" width="8" height="8"/><rect class="cls-1" x="104" y="40" width="8" height="8"/><rect class="cls-1" x="80" y="32" width="8" height="8"/><rect class="cls-1" x="80" y="40" width="8" height="8"/><rect class="cls-1" x="72" y="24" width="8" height="8"/><rect class="cls-1" x="72" y="32" width="8" height="8"/><rect class="cls-1" x="64" y="24" width="8" height="8"/><rect class="cls-1" x="64" y="32" width="8" height="8"/><rect class="cls-1" x="64" y="8" width="8" height="8"/><rect class="cls-1" x="64" y="16" width="8" height="8"/><rect class="cls-1" x="56" y="8" width="8" height="8"/><rect class="cls-1" x="56" y="16" width="8" height="8"/><rect class="cls-1" x="56" y="24" width="8" height="8"/><rect class="cls-1" x="56" y="32" width="8" height="8"/><rect class="cls-1" x="48" y="24" width="8" height="8"/><rect class="cls-1" x="48" y="32" width="8" height="8"/><rect class="cls-1" x="40" y="32" width="8" height="8"/><rect class="cls-1" x="40" y="40" width="8" height="8"/><rect class="cls-1" x="88" y="48" width="8" height="8"/><rect class="cls-1" x="88" y="56" width="8" height="8"/><rect class="cls-1" x="88" y="64" width="8" height="8"/><rect class="cls-1" x="88" y="72" width="8" height="8"/><rect class="cls-1" x="80" y="72" width="8" height="8"/><rect class="cls-1" x="104" y="72" width="8" height="8"/><rect class="cls-1" x="96" y="72" width="8" height="8"/><rect class="cls-1" x="112" y="80" width="8" height="8"/><rect class="cls-1" x="104" y="80" width="8" height="8"/><rect class="cls-1" x="96" y="24" width="8" height="8"/><rect class="cls-1" x="96" y="32" width="8" height="8"/><rect class="cls-1" x="96" y="40" width="8" height="8"/><rect class="cls-1" x="96" y="48" width="8" height="8"/><rect class="cls-1" x="96" y="56" width="8" height="8"/><rect class="cls-1" x="96" y="64" width="8" height="8"/><rect class="cls-1" x="8" y="80" width="8" height="8"/><rect class="cls-1" x="16" y="80" width="8" height="8"/><rect class="cls-2" x="32" y="16" width="8" height="8"/><rect class="cls-2" x="32" y="24" width="8" height="8"/><rect class="cls-2" x="40" y="16" width="8" height="8"/><rect class="cls-2" x="40" y="24" width="8" height="8"/><rect class="cls-2" x="48" y="8" width="8" height="8"/><rect class="cls-2" x="48" y="16" width="8" height="8"/><rect class="cls-2" x="48" y="40" width="8" height="8"/><rect class="cls-2" x="56" y="40" width="8" height="8"/><rect class="cls-2" x="64" y="40" width="8" height="8"/><rect class="cls-2" x="40" y="48" width="8" height="8"/><rect class="cls-2" x="48" y="48" width="8" height="8"/><rect class="cls-2" x="56" y="48" width="8" height="8"/><rect class="cls-2" x="40" y="56" width="8" height="8"/><rect class="cls-2" x="48" y="56" width="8" height="8"/><rect class="cls-2" x="56" y="56" width="8" height="8"/><rect class="cls-2" x="40" y="64" width="8" height="8"/><rect class="cls-2" x="48" y="64" width="8" height="8"/><rect class="cls-2" x="56" y="64" width="8" height="8"/><rect class="cls-2" x="64" y="48" width="8" height="8"/><rect class="cls-2" x="72" y="48" width="8" height="8"/><rect class="cls-2" x="80" y="48" width="8" height="8"/><rect class="cls-2" x="64" y="56" width="8" height="8"/><rect class="cls-2" x="72" y="56" width="8" height="8"/><rect class="cls-2" x="80" y="56" width="8" height="8"/><rect class="cls-2" x="64" y="64" width="8" height="8"/><rect class="cls-2" x="72" y="64" width="8" height="8"/><rect class="cls-2" x="80" y="64" width="8" height="8"/><rect class="cls-2" x="72" y="40" width="8" height="8"/><rect class="cls-2" x="48" y="72" width="8" height="8"/><rect class="cls-2" x="56" y="72" width="8" height="8"/><rect class="cls-2" x="64" y="72" width="8" height="8"/><rect class="cls-2" x="72" y="72" width="8" height="8"/><rect class="cls-2" x="72" y="8" width="8" height="8"/><rect class="cls-2" x="72" y="16" width="8" height="8"/><rect class="cls-2" x="80" y="16" width="8" height="8"/><rect class="cls-2" x="80" y="24" width="8" height="8"/><rect class="cls-2" x="88" y="16" width="8" height="8"/><rect class="cls-2" x="88" y="24" width="8" height="8"/><rect class="cls-2" x="112" y="48" width="8" height="8"/><rect class="cls-2" x="112" y="56" width="8" height="8"/><rect class="cls-2" x="112" y="64" width="8" height="8"/><rect class="cls-2" x="112" y="72" width="8" height="8"/><rect class="cls-2" x="8" y="48" width="8" height="8"/><rect class="cls-2" x="8" y="56" width="8" height="8"/><rect class="cls-2" x="8" y="64" width="8" height="8"/><rect class="cls-2" x="8" y="72" width="8" height="8"/><rect class="cls-2" x="104" y="48" width="8" height="8"/><rect class="cls-2" x="104" y="56" width="8" height="8"/><rect class="cls-2" x="104" y="64" width="8" height="8"/><rect class="cls-2" x="16" y="48" width="8" height="8"/><rect class="cls-2" x="16" y="56" width="8" height="8"/><rect class="cls-2" x="16" y="64" width="8" height="8"/><rect x="40" width="8" height="8"/><rect x="40" y="8" width="8" height="8"/><rect x="32" y="8" width="8" height="8"/><rect x="24" y="8" width="8" height="8"/><rect x="24" y="16" width="8" height="8"/><rect x="16" y="16" width="8" height="8"/><rect x="16" y="24" width="8" height="8"/><rect x="8" y="24" width="8" height="8"/><rect x="8" y="32" width="8" height="8"/><rect x="8" y="40" width="8" height="8"/><rect y="40" width="8" height="8"/><rect y="48" width="8" height="8"/><rect y="56" width="8" height="8"/><rect y="64" width="8" height="8"/><rect y="72" width="8" height="8"/><rect y="80" width="8" height="8"/><rect y="88" width="8" height="8"/><rect x="8" y="88" width="8" height="8"/><rect x="16" y="88" width="8" height="8"/><rect x="8" y="96" width="8" height="8"/><rect x="16" y="96" width="8" height="8"/><rect x="16" y="104" width="8" height="8"/><rect x="16" y="112" width="8" height="8"/><rect x="24" y="112" width="8" height="8"/><rect x="24" y="120" width="8" height="8"/><rect x="24" y="88" width="8" height="8"/><rect x="24" y="80" width="8" height="8"/><rect x="32" y="80" width="8" height="8"/><rect x="40" y="80" width="8" height="8"/><rect x="48" y="80" width="8" height="8"/><rect x="48" y="88" width="8" height="8"/><rect x="48" y="96" width="8" height="8"/><rect x="56" y="80" width="8" height="8"/><rect x="64" y="80" width="8" height="8"/><rect x="72" y="80" width="8" height="8"/><rect x="72" y="88" width="8" height="8"/><rect x="72" y="96" width="8" height="8"/><rect x="80" y="80" width="8" height="8"/><rect x="88" y="80" width="8" height="8"/><rect x="32" y="120" width="8" height="8"/><rect x="40" y="120" width="8" height="8"/><rect x="48" y="120" width="8" height="8"/><rect x="56" y="120" width="8" height="8"/><rect x="64" y="120" width="8" height="8"/><rect x="72" y="120" width="8" height="8"/><rect x="80" y="120" width="8" height="8"/><rect x="88" y="120" width="8" height="8"/><rect x="96" y="80" width="8" height="8"/><rect x="96" y="88" width="8" height="8"/><rect x="104" y="88" width="8" height="8"/><rect x="112" y="88" width="8" height="8"/><rect x="104" y="96" width="8" height="8"/><rect x="104" y="104" width="8" height="8"/><rect x="104" y="112" width="8" height="8"/><rect x="96" y="112" width="8" height="8"/><rect x="96" y="120" width="8" height="8"/><rect x="112" y="96" width="8" height="8"/><rect x="120" y="88" width="8" height="8"/><rect x="120" y="80" width="8" height="8"/><rect x="120" y="72" width="8" height="8"/><rect x="120" y="64" width="8" height="8"/><rect x="120" y="56" width="8" height="8"/><rect x="120" y="48" width="8" height="8"/><rect x="120" y="40" width="8" height="8"/><rect x="112" y="40" width="8" height="8"/><rect x="112" y="32" width="8" height="8"/><rect x="112" y="24" width="8" height="8"/><rect x="104" y="24" width="8" height="8"/><rect x="104" y="16" width="8" height="8"/><rect x="96" y="16" width="8" height="8"/><rect x="96" y="8" width="8" height="8"/><rect x="88" y="8" width="8" height="8"/><rect x="80" y="8" width="8" height="8"/><rect x="80" width="8" height="8"/><rect x="72" width="8" height="8"/><rect x="64" width="8" height="8"/><rect x="48" width="8" height="8"/><rect x="56" width="8" height="8"/><rect class="cls-3" x="96" y="104" width="8" height="8"/><rect class="cls-3" x="88" y="96" width="8" height="8"/><rect class="cls-3" x="88" y="104" width="8" height="8"/><rect class="cls-3" x="88" y="112" width="8" height="8"/><rect class="cls-3" x="80" y="96" width="8" height="8"/><rect class="cls-3" x="80" y="104" width="8" height="8"/><rect class="cls-3" x="80" y="112" width="8" height="8"/><rect class="cls-3" x="64" y="96" width="8" height="8"/><rect class="cls-3" x="64" y="104" width="8" height="8"/><rect class="cls-3" x="64" y="112" width="8" height="8"/><rect class="cls-3" x="56" y="96" width="8" height="8"/><rect class="cls-3" x="56" y="104" width="8" height="8"/><rect class="cls-3" x="56" y="112" width="8" height="8"/><rect class="cls-3" x="40" y="96" width="8" height="8"/><rect class="cls-3" x="40" y="104" width="8" height="8"/><rect class="cls-3" x="40" y="112" width="8" height="8"/><rect class="cls-3" x="48" y="104" width="8" height="8"/><rect class="cls-3" x="48" y="112" width="8" height="8"/><rect class="cls-3" x="72" y="104" width="8" height="8"/><rect class="cls-3" x="72" y="112" width="8" height="8"/><rect class="cls-3" x="32" y="96" width="8" height="8"/><rect class="cls-3" x="32" y="104" width="8" height="8"/><rect class="cls-3" x="24" y="104" width="8" height="8"/><rect class="cls-3" x="32" y="112" width="8" height="8"/><rect class="cls-4" x="32" y="88" width="8" height="8"/><rect class="cls-4" x="24" y="96" width="8" height="8"/><rect class="cls-4" x="40" y="88" width="8" height="8"/><rect class="cls-4" x="56" y="88" width="8" height="8"/><rect class="cls-4" x="64" y="88" width="8" height="8"/><rect class="cls-4" x="80" y="88" width="8" height="8"/><rect class="cls-4" x="88" y="88" width="8" height="8"/><rect class="cls-4" x="96" y="96" width="8" height="8"/></g></g></svg>