<svg width="106" height="107" viewBox="0 0 106 107" fill="none" xmlns="http://www.w3.org/2000/svg">
<g clip-path="url(#clip0_17_338)">
<path d="M99.0879 34.892V20.9352H92.1747V13.9568H85.2615V6.97841H71.4352V0H34.5659V6.97841H20.7396V13.9568H13.8264V20.9352H6.91319V34.892H0V58.1523H6.91319V65.1307H32.2604V100.023H39.1736V107H66.8264V100.023H73.7396V65.1307H99.0879V58.1523H106V34.892H99.0879Z" fill="#D80027"/>
<path d="M46.0868 32.5648H39.1736V25.5875H27.6528V32.5648H20.7396V44.1955H27.6528V51.1739H39.1736V44.1955H46.0868V32.5648Z" fill="white"/>
<path d="M78.3483 6.97841H71.4351V0H53V6.97841H46.0868V25.5875H53V32.5648H71.4351V25.5875H78.3483V6.97841Z" fill="white"/>
<path d="M73.7396 58.1523H32.2604V100.023H39.1736V107H66.8264V100.023H73.7396V58.1523Z" fill="#FFF5CC"/>
<path d="M20.7396 13.9568H13.8264V20.9352H20.7396V13.9568Z" fill="black"/>
<path d="M34.5659 6.97841H71.4352V13.9568H85.2615V6.97841H71.4352V0H34.5659V6.97841H20.7396V13.9568H34.5659V6.97841Z" fill="black"/>
<path d="M73.7396 58.1523H66.8264H39.1736H32.2604H6.91319V34.892H13.8264V20.9352H6.91319V34.892H0V58.1523H6.91319V65.1307H32.2604V100.023H39.1736V65.1307H66.8264V100.023H39.1736V107H66.8264V100.023H73.7396V65.1307H99.0879V58.1523H73.7396Z" fill="black"/>
<path d="M99.0879 34.892V20.9352H92.1747V34.892H99.0879V58.1523H106V34.892H99.0879Z" fill="black"/>
<path d="M92.1747 13.9568H85.2615V20.9352H92.1747V13.9568Z" fill="black"/>
</g>
<defs>
<clipPath id="clip0_17_338">
<rect width="106" height="107" fill="white"/>
</clipPath>
</defs>
</svg>
