<svg  viewBox="0 0 16 16" fill="none" xmlns="http://www.w3.org/2000/svg">
<path d="M13 15H3V16H13V15Z" fill="#F7FEFF"/>
<path d="M14 14H13V15H14V14Z" fill="#F7FEFF"/>
<path d="M13 14H3V15H13V14Z" fill="#231E2B"/>
<path d="M3 14H2V15H3V14Z" fill="#F7FEFF"/>
<path d="M15 13H14V14H15V13Z" fill="#F7FEFF"/>
<path d="M14 13H13V14H14V13Z" fill="#231E2B"/>
<path d="M13 13H12V14H13V13Z" fill="#892727"/>
<path d="M12 13H11V14H12V13Z" fill="#B0392E"/>
<path d="M11 13H3V14H11V13Z" fill="#892727"/>
<path d="M3 13H2V14H3V13Z" fill="#231E2B"/>
<path d="M2 13H1V14H2V13Z" fill="#F7FEFF"/>
<path d="M14 12H13V13H14V12Z" fill="#892727"/>
<path d="M13 12H12V13H13V12Z" fill="#B0392E"/>
<path d="M6 12V11H5V12H4V13H12V12H6Z" fill="#231E2B"/>
<path d="M4 12H3V13H4V12Z" fill="#B0392E"/>
<path d="M3 12H2V13H3V12Z" fill="#892727"/>
<path d="M2 6H3V5H2V2H1V13H2V6Z" fill="#231E2B"/>
<path d="M15 3H14V13H15V3Z" fill="#231E2B"/>
<path d="M11 11V9H9V10H8V11H7V12H12V11H11Z" fill="#CF6B55"/>
<path d="M7 11H6V12H7V11Z" fill="#B45846"/>
<path d="M5 11H4V12H5V11Z" fill="#B0392E"/>
<path d="M4 11H3V12H4V11Z" fill="#CF6B55"/>
<path d="M3 6H2V12H3V6Z" fill="#B0392E"/>
<path d="M1 2H0V13H1V2Z" fill="#F7FEFF"/>
<path d="M12 9H11V11H12V9Z" fill="#B0392E"/>
<path d="M8 10H7V11H8V10Z" fill="#B45846"/>
<path d="M7 10H6V11H7V10Z" fill="#231E2B"/>
<path d="M6 10H5V11H6V10Z" fill="#B0392E"/>
<path d="M5 10H4V11H5V10Z" fill="#CF6B55"/>
<path d="M9 9H8V10H9V9Z" fill="#B45846"/>
<path d="M8 9H7V10H8V9Z" fill="#231E2B"/>
<path d="M7 9H6V10H7V9Z" fill="#B0392E"/>
<path d="M6 9H5V10H6V9Z" fill="#CF6B55"/>
<path d="M8 8H7V9H8V8Z" fill="#B0392E"/>
<path d="M7 8H6V9H7V8Z" fill="#CF6B55"/>
<path d="M6 8H5V9H6V8Z" fill="#231E2B"/>
<path d="M5 8H4V9H5V8Z" fill="#B6B7B8"/>
<path d="M12 6H11V8H12V6Z" fill="#F7FEFF"/>
<path d="M11 7H10V8H11V7Z" fill="#B6B7B8"/>
<path d="M9 7H8V8H9V7Z" fill="#B0392E"/>
<path d="M8 7H7V8H8V7Z" fill="#CF6B55"/>
<path d="M7 7H6V8H7V7Z" fill="#231E2B"/>
<path d="M6 7H5V8H6V7Z" fill="#B6B7B8"/>
<path d="M5 7H4V8H5V7Z" fill="#F7FEFF"/>
<path d="M3 11H4V10H5V9H4V6H3V11Z" fill="#231E2B"/>
<path d="M14 6H13V12H14V6Z" fill="#B0392E"/>
<path d="M11 6H10V7H11V6Z" fill="#231E2B"/>
<path d="M10 6H9V7H10V6Z" fill="#B0392E"/>
<path d="M9 6H8V7H9V6Z" fill="#CF6B55"/>
<path d="M8 6H7V7H8V6Z" fill="#231E2B"/>
<path d="M7 6H6V7H7V6Z" fill="#B6B7B8"/>
<path d="M6 6H5V7H6V6Z" fill="#F7FEFF"/>
<path d="M5 6H4V7H5V6Z" fill="#B6B7B8"/>
<path d="M14 5H13V6H14V5Z" fill="#CF6B55"/>
<path d="M11 5H10V6H11V5Z" fill="#B0392E"/>
<path d="M10 5H9V6H10V5Z" fill="#CF6B55"/>
<path d="M9 5H8V6H9V5Z" fill="#231E2B"/>
<path d="M8 5H7V6H8V5Z" fill="#B6B7B8"/>
<path d="M6 6H7V5H8V4H6V6Z" fill="#F7FEFF"/>
<path d="M6 4H5V6H6V4Z" fill="#B6B7B8"/>
<path d="M4 6H5V4H4V3H3V2H2V4H3V5H4V6Z" fill="#C7936B"/>
<path d="M4 5H3V6H4V5Z" fill="#A6644B"/>
<path d="M14 4H13V5H14V4Z" fill="#B0392E"/>
<path d="M12 5H11V6H12V8H10V7H9V8H8V9H12V12H13V4H12V5Z" fill="#231E2B"/>
<path d="M12 4H11V5H12V4Z" fill="#B0392E"/>
<path d="M11 4H10V5H11V4Z" fill="#CF6B55"/>
<path d="M9 4H8V5H9V4Z" fill="#B6B7B8"/>
<path d="M3 4H2V5H3V4Z" fill="#A6644B"/>
<path d="M16 3H15V13H16V3Z" fill="#F7FEFF"/>
<path d="M14 3H13V4H14V3Z" fill="#CF6B55"/>
<path d="M13 3H12V4H13V3Z" fill="#B0392E"/>
<path d="M9 4V5H10V4H11V3H4V4H9Z" fill="#231E2B"/>
<path d="M15 2H14V3H15V2Z" fill="#F7FEFF"/>
<path d="M14 2H13V3H14V2Z" fill="#231E2B"/>
<path d="M11 3V4H12V3H13V2H4V3H11Z" fill="#CF6B55"/>
<path d="M14 1H13V2H14V1Z" fill="#F7FEFF"/>
<path d="M3 2V3H4V2H13V1H2V2H3Z" fill="#231E2B"/>
<path d="M2 1H1V2H2V1Z" fill="#F7FEFF"/>
<path d="M13 0H2V1H13V0Z" fill="#F7FEFF"/>
</svg>
