<svg  viewBox="0 0 16 16" fill="none" xmlns="http://www.w3.org/2000/svg">
<path d="M10 15H3V16H10V15Z" fill="#F7FEFF"/>
<path d="M11 14H10V15H11V14Z" fill="#F7FEFF"/>
<path d="M10 14H3V15H10V14Z" fill="#231E2B"/>
<path d="M3 14H2V15H3V14Z" fill="#F7FEFF"/>
<path d="M12 13H11V14H12V13Z" fill="#F7FEFF"/>
<path d="M11 13H10V14H11V13Z" fill="#231E2B"/>
<path d="M3 13H2V14H3V13Z" fill="#231E2B"/>
<path d="M2 13H1V14H2V13Z" fill="#F7FEFF"/>
<path d="M2 8H5V4H4V7H1V13H2V8Z" fill="#231E2B"/>
<path d="M1 7H0V13H1V7Z" fill="#F7FEFF"/>
<path d="M2 10V13H3V14H10V13H11V10H2Z" fill="#F7FEFF"/>
<path d="M11 9H2V10H11V9Z" fill="#B0392E"/>
<path d="M13 7H12V13H13V7Z" fill="#F7FEFF"/>
<path d="M11 8H2V9H11V8Z" fill="#F7FEFF"/>
<path d="M8 7V6H11V5H6V6H7V8H11V13H12V7H8Z" fill="#231E2B"/>
<path d="M7 6H6V8H7V6Z" fill="#E2B436"/>
<path d="M6 6H5V8H6V6Z" fill="#F5F38E"/>
<path d="M4 7V4H3V6H1V7H4Z" fill="#F7FEFF"/>
<path d="M11 5V6H8V7H12V6H14V5H11Z" fill="#F7FEFF"/>
<path d="M15 4H14V5H15V4Z" fill="#F7FEFF"/>
<path d="M14 4H11V5H14V4Z" fill="#231E2B"/>
<path d="M11 4H8V5H11V4Z" fill="#E8BE9B"/>
<path d="M5 4V6H6V5H8V4H5Z" fill="#E2B436"/>
<path d="M16 3H15V4H16V3Z" fill="#F7FEFF"/>
<path d="M15 3H14V4H15V3Z" fill="#231E2B"/>
<path d="M14 3H11V4H14V3Z" fill="#E8BE9B"/>
<path d="M11 3H8V4H11V3Z" fill="#E2B436"/>
<path d="M8 3H5V4H8V3Z" fill="#231E2B"/>
<path d="M5 3H4V4H5V3Z" fill="#F7FEFF"/>
<path d="M15 2H14V3H15V2Z" fill="#F7FEFF"/>
<path d="M14 2H13V3H14V2Z" fill="#231E2B"/>
<path d="M13 2H11V3H13V2Z" fill="#E2B436"/>
<path d="M11 2H8V3H11V2Z" fill="#231E2B"/>
<path d="M8 2H5V3H8V2Z" fill="#F7FEFF"/>
<path d="M14 1H13V2H14V1Z" fill="#F7FEFF"/>
<path d="M13 1H11V2H13V1Z" fill="#231E2B"/>
<path d="M11 1H8V2H11V1Z" fill="#F7FEFF"/>
<path d="M13 0H11V1H13V0Z" fill="#F7FEFF"/>
</svg>
