<svg width="106" height="107" viewBox="0 0 106 107" fill="none" xmlns="http://www.w3.org/2000/svg">
<g clip-path="url(#clip0_17_241)">
<path d="M106 34.892H99.0879V20.9352H92.1747V13.9568H85.2615V6.97841H71.4352V0H34.5659V6.97841H20.7396V13.9568H13.8264V20.9352H6.91319V34.892H0V72.1091H6.91319V86.0659H13.8264V93.0443H20.7396V100.023H34.5659V107H71.4352V100.023H85.2615V93.0443H92.1747V86.0659H99.0879V72.1091H106V34.892Z" fill="white"/>
<path d="M73.7396 34.892H66.8264V27.9136H59.9132V20.9352H34.5659V27.9136H27.6528V34.892H20.7396V60.4784H27.6528V67.4568H34.5659V74.4352H59.9132V67.4568H66.8264V60.4784H73.7396V34.892Z" fill="#FFA733"/>
<path d="M41.4791 34.892H34.5659V41.8704H41.4791V34.892Z" fill="white"/>
<path d="M71.4352 0H34.5659V6.97841H71.4352V0Z" fill="black"/>
<path d="M34.5659 6.97841H20.7396V13.9568H34.5659V6.97841Z" fill="black"/>
<path d="M85.2616 6.97841H71.4352V13.9568H85.2616V6.97841Z" fill="black"/>
<path d="M92.1747 13.9568H85.2615V20.9352H92.1747V13.9568Z" fill="black"/>
<path d="M99.0879 20.9352H92.1747V34.892H99.0879V20.9352Z" fill="black"/>
<path d="M106.001 34.892H99.0879V72.1091H106.001V34.892Z" fill="black"/>
<path d="M99.0879 72.1091H92.1747V86.0659H99.0879V72.1091Z" fill="black"/>
<path d="M92.1747 86.0659H85.2615V93.0443H92.1747V86.0659Z" fill="black"/>
<path d="M85.2616 93.0443H71.4352V100.023H85.2616V93.0443Z" fill="black"/>
<path d="M13.8264 20.9352H6.91318V34.892H13.8264V20.9352Z" fill="black"/>
<path d="M6.91319 34.892H0V72.1091H6.91319V34.892Z" fill="black"/>
<path d="M13.8264 72.1091H6.91318V86.0659H13.8264V72.1091Z" fill="black"/>
<path d="M20.7396 86.0659H13.8264V93.0443H20.7396V86.0659Z" fill="black"/>
<path d="M34.5659 93.0443H20.7396V100.023H34.5659V93.0443Z" fill="black"/>
<path d="M71.4352 100.023H34.5659V107.001H71.4352V100.023Z" fill="black"/>
<path d="M59.9143 20.9352H34.5659V27.9136H59.9143V20.9352Z" fill="black"/>
<path d="M66.8264 27.9136H59.9132V34.892H66.8264V27.9136Z" fill="black"/>
<path d="M73.7395 34.892H66.8264V60.4795H73.7395V34.892Z" fill="black"/>
<path d="M66.8264 60.4784H59.9132V67.4568H66.8264V60.4784Z" fill="black"/>
<path d="M34.566 60.4784H27.6528V67.4568H34.566V60.4784Z" fill="black"/>
<path d="M59.9143 67.4568H34.5659V74.4352H59.9143V67.4568Z" fill="black"/>
<path d="M27.6528 34.892H20.7396V60.4795H27.6528V34.892Z" fill="black"/>
<path d="M20.7396 13.9568H13.8264V20.9352H20.7396V13.9568Z" fill="black"/>
<path d="M34.566 27.9136H27.6528V34.892H34.566V27.9136Z" fill="black"/>
</g>
<defs>
<clipPath id="clip0_17_241">
<rect width="106" height="107" fill="white"/>
</clipPath>
</defs>
</svg>
