<svg  viewBox="0 0 14 16" fill="none" xmlns="http://www.w3.org/2000/svg">
<path d="M10 15H4V16H10V15Z" fill="#F7FEFF"/>
<path d="M12 14H10V15H12V14Z" fill="#F7FEFF"/>
<path d="M10 14H4V15H10V14Z" fill="#361A2A"/>
<path d="M4 14H2V15H4V14Z" fill="#F7FEFF"/>
<path d="M13 13H12V14H13V13Z" fill="#F7FEFF"/>
<path d="M12 13H10V14H12V13Z" fill="#361A2A"/>
<path d="M10 13H4V14H10V13Z" fill="#784028"/>
<path d="M4 13H2V14H4V13Z" fill="#361A2A"/>
<path d="M2 13H1V14H2V13Z" fill="#F7FEFF"/>
<path d="M12 12H10V13H12V12Z" fill="#784028"/>
<path d="M4 12H2V13H4V12Z" fill="#784028"/>
<path d="M2 10H1V13H2V10Z" fill="#361A2A"/>
<path d="M14 10H13V13H14V10Z" fill="#F7FEFF"/>
<path d="M9 11V12H5V11H3V10H2V12H4V13H10V12H12V10H11V11H9Z" fill="#A86619"/>
<path d="M9 11H5V12H9V11Z" fill="#CF8934"/>
<path d="M1 10H0V13H1V10Z" fill="#F7FEFF"/>
<path d="M13 10H12V13H13V10Z" fill="#361A2A"/>
<path d="M11 10H10V11H11V10Z" fill="#892727"/>
<path d="M10 10H9V11H10V10Z" fill="#CF8934"/>
<path d="M5 10H3V11H5V10Z" fill="#CF8934"/>
<path d="M13 8H12V10H13V8Z" fill="#F7FEFF"/>
<path d="M9 9V10H11V8H10V9H9Z" fill="#B0392E"/>
<path d="M5 9V11H7V10H8V9H5Z" fill="#B0392E"/>
<path d="M5 9H4V10H5V9Z" fill="#892727"/>
<path d="M4 9H3V10H4V9Z" fill="#EBB42A"/>
<path d="M3 8H2V10H3V8Z" fill="#361A2A"/>
<path d="M2 8H1V10H2V8Z" fill="#F7FEFF"/>
<path d="M12 8H11V10H12V8Z" fill="#361A2A"/>
<path d="M10 8H9V9H10V8Z" fill="#CF8934"/>
<path d="M7 8H5V9H7V8Z" fill="#892727"/>
<path d="M5 8H3V9H5V8Z" fill="#CF8934"/>
<path d="M12 6H11V8H12V6Z" fill="#F7FEFF"/>
<path d="M7 7V6H6V4H5V7H4V8H7V9H8V10H7V11H9V8H10V7H7Z" fill="#EBB42A"/>
<path d="M4 6H3V8H4V6Z" fill="#361A2A"/>
<path d="M3 6H2V8H3V6Z" fill="#F7FEFF"/>
<path d="M11 6H10V8H11V6Z" fill="#361A2A"/>
<path d="M10 6H9V7H10V6Z" fill="#CF8934"/>
<path d="M5 6H4V7H5V6Z" fill="#CF8934"/>
<path d="M11 4H10V6H11V4Z" fill="#F7FEFF"/>
<path d="M9 5H7V7H9V5Z" fill="#B0392E"/>
<path d="M7 5H6V6H7V5Z" fill="#892727"/>
<path d="M5 4H4V6H5V4Z" fill="#361A2A"/>
<path d="M4 4H3V6H4V4Z" fill="#F7FEFF"/>
<path d="M10 4H9V6H10V4Z" fill="#361A2A"/>
<path d="M9 4H7V5H9V4Z" fill="#892727"/>
<path d="M7 4H6V5H7V4Z" fill="#CF8934"/>
<path d="M10 2H9V4H10V2Z" fill="#F7FEFF"/>
<path d="M8 3H7V4H8V3Z" fill="#CF8934"/>
<path d="M7 3H6V4H7V3Z" fill="#EBB42A"/>
<path d="M6 2H5V4H6V2Z" fill="#361A2A"/>
<path d="M5 2H4V4H5V2Z" fill="#F7FEFF"/>
<path d="M9 2H8V4H9V2Z" fill="#361A2A"/>
<path d="M8 2H7V3H8V2Z" fill="#EBB42A"/>
<path d="M7 2H6V3H7V2Z" fill="#B0392E"/>
<path d="M9 1H8V2H9V1Z" fill="#F7FEFF"/>
<path d="M8 1H6V2H8V1Z" fill="#361A2A"/>
<path d="M6 1H5V2H6V1Z" fill="#F7FEFF"/>
<path d="M8 0H6V1H8V0Z" fill="#F7FEFF"/>
</svg>
