<svg width="106" height="106" viewBox="0 0 106 106" fill="none" xmlns="http://www.w3.org/2000/svg">
<g clip-path="url(#clip0_17_50)">
<path d="M106 6.91319H99.0879V0H6.91319V6.91319H0V32.2604H6.91319V46.0868H13.8264V59.9132H20.7396V73.7396H27.6528V80.6528H34.5659V92.1747H41.478V99.0879H48.3912V106H57.6088V99.0879H64.522V92.1747H71.4352V80.6528H78.3484V73.7396H85.2615V59.9132H92.1747V46.0868H99.0879V32.2604H106V6.91319Z" fill="#FFB655"/>
<path d="M85.2616 20.7396V27.6528H78.3484V20.7396H13.8264V32.2604H20.7396V46.0868H27.6528V59.9132H34.566V73.7396H41.478V80.6528H48.3912V92.1747H57.6088V80.6528H64.522V73.7396H71.4352V59.9132H78.3484V46.0868H85.2616V32.2604H92.1747V27.6528V20.7396H85.2616Z" fill="#AB2300"/>
<path d="M48.3923 29.9572H34.5659V43.7835H48.3923V29.9572Z" fill="#FFEF2A"/>
<path d="M66.8264 41.478H57.6088V50.6956H66.8264V41.478Z" fill="#FFEF2A"/>
<path d="M57.6088 64.522H48.3912V73.7396H57.6088V64.522Z" fill="#FFEF2A"/>
<path d="M99.0879 0H6.91318V6.91319H99.0879V0Z" fill="black"/>
<path d="M106.001 6.91319H99.0879V32.2616H106.001V6.91319Z" fill="black"/>
<path d="M99.0879 32.2604H92.1747V46.0868H99.0879V32.2604Z" fill="black"/>
<path d="M92.1747 46.0868H85.2615V59.9132H92.1747V46.0868Z" fill="black"/>
<path d="M85.2616 59.9132H78.3484V73.7396H85.2616V59.9132Z" fill="black"/>
<path d="M78.3484 73.7396H71.4352V80.6528H78.3484V73.7396Z" fill="black"/>
<path d="M71.4352 80.6528H64.522V92.1747H71.4352V80.6528Z" fill="black"/>
<path d="M64.522 92.1747H57.6088V99.0879H64.522V92.1747Z" fill="black"/>
<path d="M57.6088 99.0879H48.3912V106.001H57.6088V99.0879Z" fill="black"/>
<path d="M48.3912 92.1747H41.478V99.0879H48.3912V92.1747Z" fill="black"/>
<path d="M41.4791 80.6528H34.5659V92.1747H41.4791V80.6528Z" fill="black"/>
<path d="M34.566 73.7396H27.6528V80.6528H34.566V73.7396Z" fill="black"/>
<path d="M27.6528 59.9132H20.7396V73.7396H27.6528V59.9132Z" fill="black"/>
<path d="M20.7396 46.0868H13.8264V59.9132H20.7396V46.0868Z" fill="black"/>
<path d="M13.8264 32.2604H6.91318V46.0868H13.8264V32.2604Z" fill="black"/>
<path d="M6.91319 6.91319H0V32.2616H6.91319V6.91319Z" fill="black"/>
</g>
<defs>
<clipPath id="clip0_17_50">
<rect width="106" height="106" fill="white"/>
</clipPath>
</defs>
</svg>
