<svg  viewBox="0 0 16 16" fill="none" xmlns="http://www.w3.org/2000/svg">
<path d="M12 15H4V16H12V15Z" fill="#F7FEFF"/>
<path d="M13 13H12V15H13V13Z" fill="#F7FEFF"/>
<path d="M11 14H5V13H4V15H12V13H11V14Z" fill="#231E2B"/>
<path d="M11 13H10V14H11V13Z" fill="#F7FEFF"/>
<path d="M6 13H5V14H6V13Z" fill="#F7FEFF"/>
<path d="M4 13H3V15H4V13Z" fill="#F7FEFF"/>
<path d="M11 12H10V13H11V12Z" fill="#231E2B"/>
<path d="M10 12H9V13H10V12Z" fill="#F7FEFF"/>
<path d="M7 12H6V13H7V12Z" fill="#F7FEFF"/>
<path d="M6 12H5V13H6V12Z" fill="#231E2B"/>
<path d="M5 12H6V11H1V12H4V13H5V12Z" fill="#F7FEFF"/>
<path d="M10 11V12H11V13H12V12H15V11H10Z" fill="#F7FEFF"/>
<path d="M6 11V12H7V10H2V9H1V11H6Z" fill="#231E2B"/>
<path d="M16 9H15V11H16V9Z" fill="#F7FEFF"/>
<path d="M15 9H14V10H9V12H10V11H15V9Z" fill="#231E2B"/>
<path d="M14 9H12V10H14V9Z" fill="#F7FEFF"/>
<path d="M12 9H10V10H12V9Z" fill="#B6B7B8"/>
<path d="M6 9H4V10H6V9Z" fill="#B6B7B8"/>
<path d="M4 9H2V10H4V9Z" fill="#F7FEFF"/>
<path d="M1 9H0V11H1V9Z" fill="#F7FEFF"/>
<path d="M15 8H14V9H15V8Z" fill="#F7FEFF"/>
<path d="M14 8H12V9H14V8Z" fill="#231E2B"/>
<path d="M12 8H10V9H12V8Z" fill="#F7FEFF"/>
<path d="M10 8H9V10H10V8Z" fill="#696168"/>
<path d="M9 4H8V3H7V13H6V14H10V13H9V4Z" fill="#B6B7B8"/>
<path d="M7 8H6V10H7V8Z" fill="#696168"/>
<path d="M6 8H4V9H6V8Z" fill="#F7FEFF"/>
<path d="M4 8H2V9H4V8Z" fill="#231E2B"/>
<path d="M2 8H1V9H2V8Z" fill="#F7FEFF"/>
<path d="M14 7H12V8H14V7Z" fill="#F7FEFF"/>
<path d="M12 7H10V8H12V7Z" fill="#231E2B"/>
<path d="M10 7H9V8H10V7Z" fill="#998B8C"/>
<path d="M7 7H6V8H7V7Z" fill="#998B8C"/>
<path d="M6 7H4V8H6V7Z" fill="#231E2B"/>
<path d="M4 7H2V8H4V7Z" fill="#F7FEFF"/>
<path d="M6 7V2H5V6H4V7H6Z" fill="#F7FEFF"/>
<path d="M10 7H12V6H11V2H10V7Z" fill="#F7FEFF"/>
<path d="M8 4H9V2H7V3H8V4Z" fill="#F7FEFF"/>
<path d="M7 2H6V7H7V2Z" fill="#231E2B"/>
<path d="M10 2H9V7H10V2Z" fill="#231E2B"/>
<path d="M10 1H9V2H10V1Z" fill="#F7FEFF"/>
<path d="M9 1H7V2H9V1Z" fill="#231E2B"/>
<path d="M7 1H6V2H7V1Z" fill="#F7FEFF"/>
<path d="M9 0H7V1H9V0Z" fill="#F7FEFF"/>
</svg>
