<svg  viewBox="0 0 16 16" fill="none" xmlns="http://www.w3.org/2000/svg">
<path d="M12 15H1V16H12V15Z" fill="#F7FEFF"/>
<path d="M13 14H12V15H13V14Z" fill="#F7FEFF"/>
<path d="M6 14V3H1V15H12V14H6ZM2 14V4H5V14H2Z" fill="#231E2B"/>
<path d="M14 13H13V14H14V13Z" fill="#F7FEFF"/>
<path d="M13 13H12V14H13V13Z" fill="#231E2B"/>
<path d="M12 13H6V14H12V13Z" fill="#C7936B"/>
<path d="M5 13H2V14H5V13Z" fill="#356E69"/>
<path d="M1 3H0V15H1V3Z" fill="#F7FEFF"/>
<path d="M13 12H12V13H13V12Z" fill="#F7FEFF"/>
<path d="M12 12H11V13H12V12Z" fill="#231E2B"/>
<path d="M5 13V4H4V5H2V13H5ZM3 11H4V12H3V11Z" fill="#4FAB59"/>
<path d="M14 10H13V12H14V10Z" fill="#F7FEFF"/>
<path d="M4 11H3V12H4V11Z" fill="#356E69"/>
<path d="M13 10H12V12H13V10Z" fill="#231E2B"/>
<path d="M13 9H12V10H13V9Z" fill="#F7FEFF"/>
<path d="M12 9H11V10H12V9Z" fill="#231E2B"/>
<path d="M14 7H13V9H14V7Z" fill="#F7FEFF"/>
<path d="M15 6H14V7H15V6Z" fill="#F7FEFF"/>
<path d="M11 6V7H12V9H13V7H14V6H11Z" fill="#231E2B"/>
<path d="M16 4H15V6H16V4Z" fill="#F7FEFF"/>
<path d="M15 4H14V6H15V4Z" fill="#231E2B"/>
<path d="M9 4V2H7V3H6V13H11V12H12V10H11V9H12V7H11V6H14V4H9Z" fill="#E8BE9B"/>
<path d="M4 4H2V5H4V4Z" fill="#ACC756"/>
<path d="M15 3H14V4H15V3Z" fill="#F7FEFF"/>
<path d="M14 2H10V3H14V2Z" fill="#F7FEFF"/>
<path d="M9 4H14V3H10V2H9V4Z" fill="#231E2B"/>
<path d="M7 2H6V3H7V2Z" fill="#231E2B"/>
<path d="M6 2H1V3H6V2Z" fill="#F7FEFF"/>
<path d="M10 1H9V2H10V1Z" fill="#F7FEFF"/>
<path d="M9 1H7V2H9V1Z" fill="#231E2B"/>
<path d="M7 1H6V2H7V1Z" fill="#F7FEFF"/>
<path d="M9 0H7V1H9V0Z" fill="#F7FEFF"/>
</svg>
