<svg  viewBox="0 0 16 14" fill="none" xmlns="http://www.w3.org/2000/svg">
<path d="M11 13H5V14H11V13Z" fill="#F7FEFF"/>
<path d="M12 12H11V13H12V12Z" fill="#F7FEFF"/>
<path d="M11 12H5V13H11V12Z" fill="#231E2B"/>
<path d="M5 12H4V13H5V12Z" fill="#F7FEFF"/>
<path d="M13 11H12V12H13V11Z" fill="#F7FEFF"/>
<path d="M12 11H11V12H12V11Z" fill="#231E2B"/>
<path d="M11 11H10V12H11V11Z" fill="#36313B"/>
<path d="M6 11H5V12H6V11Z" fill="#36313B"/>
<path d="M5 11H4V12H5V11Z" fill="#231E2B"/>
<path d="M4 11H3V12H4V11Z" fill="#F7FEFF"/>
<path d="M12 10H11V11H12V10Z" fill="#36313B"/>
<path d="M6 11V12H10V11H11V10H5V11H6Z" fill="#47414D"/>
<path d="M5 10H4V11H5V10Z" fill="#36313B"/>
<path d="M14 9H13V11H14V9Z" fill="#F7FEFF"/>
<path d="M13 9H3V11H4V10H12V11H13V9Z" fill="#231E2B"/>
<path d="M3 9H2V11H3V9Z" fill="#F7FEFF"/>
<path d="M9 8V7H7V8H3V9H13V8H9Z" fill="#2F3452"/>
<path d="M3 7H2V9H3V7Z" fill="#231E2B"/>
<path d="M15 7H14V9H15V7Z" fill="#F7FEFF"/>
<path d="M14 7H13V9H14V7Z" fill="#231E2B"/>
<path d="M2 7H1V9H2V7Z" fill="#F7FEFF"/>
<path d="M14 6H13V7H14V6Z" fill="#2F3452"/>
<path d="M10 6H9V7H10V6Z" fill="#2F3452"/>
<path d="M9 6H7V7H9V6Z" fill="#CF8934"/>
<path d="M7 6H6V7H7V6Z" fill="#2F3452"/>
<path d="M3 6H2V7H3V6Z" fill="#2F3452"/>
<path d="M2 3H1V7H2V3Z" fill="#231E2B"/>
<path d="M15 3H14V7H15V3Z" fill="#231E2B"/>
<path d="M10 5H9V6H10V5Z" fill="#CF8934"/>
<path d="M7 6H9V5H10V4H6V5H7V6Z" fill="#E2B436"/>
<path d="M7 5H6V6H7V5Z" fill="#CF8934"/>
<path d="M1 3H0V7H1V3Z" fill="#F7FEFF"/>
<path d="M16 3H15V7H16V3Z" fill="#F7FEFF"/>
<path d="M14 3H13V4H14V3Z" fill="#648DD3"/>
<path d="M13 3H3V4H2V6H3V8H7V7H6V4H10V7H9V8H13V6H14V4H13V3Z" fill="#354E8D"/>
<path d="M3 3H2V4H3V3Z" fill="#648DD3"/>
<path d="M15 2H14V3H15V2Z" fill="#F7FEFF"/>
<path d="M14 2H13V3H14V2Z" fill="#231E2B"/>
<path d="M13 2H3V3H13V2Z" fill="#648DD3"/>
<path d="M3 2H2V3H3V2Z" fill="#231E2B"/>
<path d="M2 2H1V3H2V2Z" fill="#F7FEFF"/>
<path d="M14 1H13V2H14V1Z" fill="#F7FEFF"/>
<path d="M13 1H3V2H13V1Z" fill="#231E2B"/>
<path d="M3 1H2V2H3V1Z" fill="#F7FEFF"/>
<path d="M13 0H3V1H13V0Z" fill="#F7FEFF"/>
</svg>
