<svg width="65" height="107" viewBox="0 0 65 107" fill="none" xmlns="http://www.w3.org/2000/svg">
<g clip-path="url(#clip0_17_289)">
<path d="M65 13.9568H58.0356V6.97841H51.0712V0H13.9288V6.97841H6.96441V13.9568H0V79.0875H6.96441V86.0659H20.8932V100.023H27.8576V107H37.1424V100.023H44.1068V86.0659H58.0356V79.0875H65V13.9568Z" fill="#FFB655"/>
<path d="M65 13.9568H58.0356V6.97841H51.0712V0H13.9288V6.97841H6.96441V13.9568H0V79.0875H6.96441V86.0659H58.0356V79.0875H65V13.9568Z" fill="#EA348B"/>
<path d="M51.0712 0H13.9288V6.97841H51.0712V0Z" fill="black"/>
<path d="M13.9288 6.97841H6.96442V13.9568H13.9288V6.97841Z" fill="black"/>
<path d="M58.0356 6.97841H51.0712V13.9568H58.0356V6.97841Z" fill="black"/>
<path d="M65 13.9568H58.0356V79.0875H65V13.9568Z" fill="black"/>
<path d="M6.96441 13.9568H0V79.0875H6.96441V13.9568Z" fill="black"/>
<path d="M37.1424 79.0875H27.8576H20.8932H6.96442V86.0659H20.8932V100.023H27.8576V86.0659H37.1424V100.023H44.1068V86.0659H58.0356V79.0875H44.1068H37.1424Z" fill="black"/>
<path d="M37.1435 100.023H27.8577V107.001H37.1435V100.023Z" fill="black"/>
<path d="M23.2147 20.9352H16.2503V72.1091H23.2147V20.9352Z" fill="black"/>
<path d="M48.7497 20.9352H41.7853V72.1091H48.7497V20.9352Z" fill="black"/>
</g>
<defs>
<clipPath id="clip0_17_289">
<rect width="65" height="107" fill="white"/>
</clipPath>
</defs>
</svg>
