<svg width="106" height="106" viewBox="0 0 106 106" fill="none" xmlns="http://www.w3.org/2000/svg">
<g clip-path="url(#clip0_17_507)">
<path d="M82.9572 34.5659H78.3484H11.522H6.91318V66.8264H13.8264V85.2615H20.7396V92.1747H69.1308V85.2615H76.044V66.8264H82.9572V55.3044H99.0879V48.3912H106V34.5659H82.9572Z" fill="#AB2300"/>
<path d="M78.3484 34.5659H11.522H6.91318V66.8264H13.8264V85.2615H20.7396V92.1747H69.1308V85.2615H76.044V66.8264H82.9571V34.5659H78.3484Z" fill="#ACABB1"/>
<path d="M106 99.0879H0V106.001H106V99.0879Z" fill="black"/>
<path d="M32.2615 0H25.3484V6.91319H32.2615V0Z" fill="black"/>
<path d="M25.3484 6.91321H18.4352V13.8264H25.3484V6.91321Z" fill="black"/>
<path d="M25.3484 20.7396H18.4352V27.6528H25.3484V20.7396Z" fill="black"/>
<path d="M32.2615 13.8264H25.3484V20.7395H32.2615V13.8264Z" fill="black"/>
<path d="M53 0H46.0868V6.91319H53V0Z" fill="black"/>
<path d="M46.0868 6.91321H39.1736V13.8264H46.0868V6.91321Z" fill="black"/>
<path d="M46.0868 20.7396H39.1736V27.6528H46.0868V20.7396Z" fill="black"/>
<path d="M53 13.8264H46.0868V20.7395H53V13.8264Z" fill="black"/>
<path d="M73.7395 0H66.8264V6.91319H73.7395V0Z" fill="black"/>
<path d="M66.8264 6.91321H59.9132V13.8264H66.8264V6.91321Z" fill="black"/>
<path d="M66.8264 20.7396H59.9132V27.6528H66.8264V20.7396Z" fill="black"/>
<path d="M73.7395 13.8264H66.8264V20.7395H73.7395V13.8264Z" fill="black"/>
<path d="M6.91318 34.5659V66.8264H13.8264V41.478H76.044V66.8264H69.1308V85.2615H76.044V66.8264H82.9572V55.3044H99.0879V48.3912H82.9572V41.478H99.0879V48.3912H106V34.5659H6.91318Z" fill="black"/>
<path d="M69.1308 85.2615H20.7396V92.1747H69.1308V85.2615Z" fill="black"/>
<path d="M20.7396 66.8264H13.8264V85.2615H20.7396V66.8264Z" fill="black"/>
<path d="M34.5659 66.8264H27.6527V78.3484H34.5659V66.8264Z" fill="white"/>
<path d="M27.6528 48.3912H20.7396V59.9132H27.6528V48.3912Z" fill="white"/>
</g>
<defs>
<clipPath id="clip0_17_507">
<rect width="106" height="106" fill="white"/>
</clipPath>
</defs>
</svg>
