<svg  viewBox="0 0 12 16" fill="none" xmlns="http://www.w3.org/2000/svg">
<path d="M9 15H7V16H9V15Z" fill="#F7FEFF"/>
<path d="M5 15H3V16H5V15Z" fill="#F7FEFF"/>
<path d="M7 14H5V15H7V14Z" fill="#F7FEFF"/>
<path d="M4 14V10H3V15H5V14H4Z" fill="#231E2B"/>
<path d="M9 10H8V14H7V15H9V10Z" fill="#231E2B"/>
<path d="M8 13H7V14H8V13Z" fill="#CF6B55"/>
<path d="M7 13H5V14H7V13Z" fill="#231E2B"/>
<path d="M5 13H4V14H5V13Z" fill="#CF6B55"/>
<path d="M3 10H2V15H3V10Z" fill="#F7FEFF"/>
<path d="M7 12H5V13H7V12Z" fill="#CF6B55"/>
<path d="M4 11V13H5V12H7V13H8V11H4Z" fill="#B0392E"/>
<path d="M10 10H9V15H10V10Z" fill="#F7FEFF"/>
<path d="M8 10H4V11H8V10Z" fill="#892727"/>
<path d="M11 9H10V10H11V9Z" fill="#F7FEFF"/>
<path d="M10 9H9V10H10V9Z" fill="#231E2B"/>
<path d="M9 9H3V10H9V9Z" fill="#CF8934"/>
<path d="M3 9H2V10H3V9Z" fill="#231E2B"/>
<path d="M2 9H1V10H2V9Z" fill="#F7FEFF"/>
<path d="M10 8H9V9H10V8Z" fill="#CF8934"/>
<path d="M3 9H9V8H10V4H9V3H3V4H2V8H3V9ZM4 7H5V6H4V5H5V4H7V7H8V8H4V7Z" fill="#E2B436"/>
<path d="M3 8H2V9H3V8Z" fill="#CF8934"/>
<path d="M1 3H0V9H1V3Z" fill="#F7FEFF"/>
<path d="M8 8V7H7V4H5V5H4V6H5V7H4V8H8Z" fill="#C2751D"/>
<path d="M12 3H11V9H12V3Z" fill="#F7FEFF"/>
<path d="M2 3H1V9H2V3Z" fill="#231E2B"/>
<path d="M11 3H10V9H11V3Z" fill="#231E2B"/>
<path d="M10 3H9V4H10V3Z" fill="#F5F38E"/>
<path d="M3 3H2V4H3V3Z" fill="#F5F38E"/>
<path d="M11 2H10V3H11V2Z" fill="#F7FEFF"/>
<path d="M10 2H9V3H10V2Z" fill="#231E2B"/>
<path d="M9 2H3V3H9V2Z" fill="#F5F38E"/>
<path d="M3 2H2V3H3V2Z" fill="#231E2B"/>
<path d="M2 2H1V3H2V2Z" fill="#F7FEFF"/>
<path d="M10 1H9V2H10V1Z" fill="#F7FEFF"/>
<path d="M9 1H3V2H9V1Z" fill="#231E2B"/>
<path d="M3 1H2V2H3V1Z" fill="#F7FEFF"/>
<path d="M9 0H3V1H9V0Z" fill="#F7FEFF"/>
</svg>
