<svg  viewBox="0 0 12 16" fill="none" xmlns="http://www.w3.org/2000/svg">
<path d="M8 15H4V16H8V15Z" fill="#F7FEFF"/>
<path d="M9 14H8V15H9V14Z" fill="#F7FEFF"/>
<path d="M8 14H4V15H8V14Z" fill="#231E2B"/>
<path d="M4 14H3V15H4V14Z" fill="#F7FEFF"/>
<path d="M10 13H9V14H10V13Z" fill="#F7FEFF"/>
<path d="M9 13H8V14H9V13Z" fill="#231E2B"/>
<path d="M5 13H4V14H5V13Z" fill="#CF6B55"/>
<path d="M4 13H3V14H4V13Z" fill="#231E2B"/>
<path d="M3 13H2V14H3V13Z" fill="#F7FEFF"/>
<path d="M11 12H10V13H11V12Z" fill="#F7FEFF"/>
<path d="M10 12H9V13H10V12Z" fill="#231E2B"/>
<path d="M4 12H3V13H4V12Z" fill="#CF6B55"/>
<path d="M3 12H2V13H3V12Z" fill="#231E2B"/>
<path d="M2 12H1V13H2V12Z" fill="#F7FEFF"/>
<path d="M8 11H4V12H8V11Z" fill="#892727"/>
<path d="M4 11H3V12H4V11Z" fill="#B0392E"/>
<path d="M3 11H2V12H3V11Z" fill="#CF6B55"/>
<path d="M2 4H1V12H2V4Z" fill="#231E2B"/>
<path d="M4 5H3V11H4V5Z" fill="#892727"/>
<path d="M1 4H0V12H1V4Z" fill="#F7FEFF"/>
<path d="M9 5H8V11H9V5Z" fill="#892727"/>
<path d="M4 11H8V6H6V5H4V11Z" fill="#B0392E"/>
<path d="M12 4H11V12H12V4Z" fill="#F7FEFF"/>
<path d="M9 11H8V12H4V13H5V14H8V13H9V12H10V5H9V11Z" fill="#B0392E"/>
<path d="M8 5H6V6H8V5Z" fill="#CF6B55"/>
<path d="M11 4H10V12H11V4Z" fill="#231E2B"/>
<path d="M10 4H9V5H10V4Z" fill="#CF6B55"/>
<path d="M9 4H8V5H9V4Z" fill="#B0392E"/>
<path d="M8 4H4V5H8V4Z" fill="#892727"/>
<path d="M11 3H10V4H11V3Z" fill="#F7FEFF"/>
<path d="M10 3H9V4H10V3Z" fill="#231E2B"/>
<path d="M9 3H8V4H9V3Z" fill="#CF6B55"/>
<path d="M3 3V4H2V11H3V5H4V4H8V3H6V2H4V3H3Z" fill="#B0392E"/>
<path d="M3 3H2V4H3V3Z" fill="#231E2B"/>
<path d="M2 3H1V4H2V3Z" fill="#F7FEFF"/>
<path d="M10 2H9V3H10V2Z" fill="#F7FEFF"/>
<path d="M9 2H8V3H9V2Z" fill="#231E2B"/>
<path d="M8 2H6V3H8V2Z" fill="#CF6B55"/>
<path d="M4 2H3V3H4V2Z" fill="#231E2B"/>
<path d="M3 2H2V3H3V2Z" fill="#F7FEFF"/>
<path d="M9 1H8V2H9V1Z" fill="#F7FEFF"/>
<path d="M8 1H4V2H8V1Z" fill="#231E2B"/>
<path d="M4 1H3V2H4V1Z" fill="#F7FEFF"/>
<path d="M8 0H4V1H8V0Z" fill="#F7FEFF"/>
</svg>
