<svg width="58" height="107" viewBox="0 0 58 107" fill="none" xmlns="http://www.w3.org/2000/svg">
<g clip-path="url(#clip0_17_410)">
<path d="M58 0H0V48.8477H6.96V55.8261H13.92V62.8045H44.0789V55.8261H51.0389V48.8477H58V0Z" fill="#A5001E"/>
<path d="M57.9989 0H0V34.892H57.9989V0Z" fill="#D1E7F8"/>
<path d="M20.88 13.9568H13.92V20.9352H20.88V13.9568Z" fill="white"/>
<path d="M20.88 27.9136H13.92V41.8705H20.88V27.9136Z" fill="white"/>
<path d="M13.92 48.8477H6.96002V55.8261H13.92V48.8477Z" fill="black"/>
<path d="M25.52 55.8261H13.92V62.8045H25.52V100.023H11.6V107H25.52H32.48H46.3989V100.023H32.48V62.8045H44.0789V55.8261H32.48H25.52Z" fill="black"/>
<path d="M51.0389 0H6.96H0V6.97841V48.8477H6.96V6.97841H51.0389V48.8477H58V6.97841V0H51.0389Z" fill="black"/>
<path d="M51.04 48.8477H44.08V55.8261H51.04V48.8477Z" fill="black"/>
</g>
<defs>
<clipPath id="clip0_17_410">
<rect width="58" height="107" fill="white"/>
</clipPath>
</defs>
</svg>
