<svg  viewBox="0 0 16 16" fill="none" xmlns="http://www.w3.org/2000/svg">
<path d="M7 15H2V16H7V15Z" fill="#F7FEFF"/>
<path d="M12 14V15H10V16H13V15H14V14H12Z" fill="#F7FEFF"/>
<path d="M9 14V13H8V11H9V10H10V9H11V8H15V7H14V3H13V7H9V5H8V6H7V7H6V11H7V15H10V14H9Z" fill="#F7FEFF"/>
<path d="M2 14H1V15H2V14Z" fill="#F7FEFF"/>
<path d="M15 13H14V14H15V13Z" fill="#F7FEFF"/>
<path d="M11 13V14H10V15H12V14H14V13H11Z" fill="#231E2B"/>
<path d="M11 13H10V14H11V13Z" fill="#356E69"/>
<path d="M10 13H9V14H10V13Z" fill="#231E2B"/>
<path d="M7 11H6V7H2V8H5V11H4V12H6V14H2V15H7V11Z" fill="#231E2B"/>
<path d="M3 13H2V14H3V13Z" fill="#356E69"/>
<path d="M2 8H1V14H2V8Z" fill="#231E2B"/>
<path d="M10 12H9V13H10V12Z" fill="#356E69"/>
<path d="M6 12H4V13H6V12Z" fill="#ACC756"/>
<path d="M1 8H0V14H1V8Z" fill="#F7FEFF"/>
<path d="M15 8H11V9H14V13H15V8Z" fill="#231E2B"/>
<path d="M13 11H12V12H13V11Z" fill="#356E69"/>
<path d="M10 11H9V12H10V11Z" fill="#ACC756"/>
<path d="M9 11H8V13H9V11Z" fill="#231E2B"/>
<path d="M4 11H3V12H4V11Z" fill="#356E69"/>
<path d="M12 10V11H13V12H12V11H10V13H14V10H12Z" fill="#4FAB59"/>
<path d="M12 10H11V11H12V10Z" fill="#231E2B"/>
<path d="M11 10H10V11H11V10Z" fill="#ACC756"/>
<path d="M10 10H9V11H10V10Z" fill="#231E2B"/>
<path d="M5 10H4V11H5V10Z" fill="#356E69"/>
<path d="M14 9H12V10H14V9Z" fill="#ACC756"/>
<path d="M12 9H11V10H12V9Z" fill="#356E69"/>
<path d="M11 9H10V10H11V9Z" fill="#231E2B"/>
<path d="M3 9V10H2V13H3V14H6V13H4V12H3V11H4V10H5V8H4V9H3Z" fill="#4FAB59"/>
<path d="M3 9H2V10H3V9Z" fill="#356E69"/>
<path d="M16 8H15V13H16V8Z" fill="#F7FEFF"/>
<path d="M4 8H2V9H4V8Z" fill="#ACC756"/>
<path d="M2 7H1V8H2V7Z" fill="#F7FEFF"/>
<path d="M7 6H6V7H7V6Z" fill="#231E2B"/>
<path d="M6 7V6H4V3H3V6H2V7H6Z" fill="#F7FEFF"/>
<path d="M8 5H7V6H8V5Z" fill="#231E2B"/>
<path d="M7 5H6V6H7V5Z" fill="#356E69"/>
<path d="M10 4H9V5H10V4Z" fill="#356E69"/>
<path d="M9 4H8V5H9V4Z" fill="#231E2B"/>
<path d="M8 4H7V5H8V4Z" fill="#356E69"/>
<path d="M7 4H10V6H12V4H11V3H5V5H7V4Z" fill="#4FAB59"/>
<path d="M4 6H6V5H5V3H4V6Z" fill="#231E2B"/>
<path d="M12 6H10V5H9V7H13V3H12V6Z" fill="#231E2B"/>
<path d="M12 3H11V4H12V3Z" fill="#ACC756"/>
<path d="M13 2H12V3H13V2Z" fill="#F7FEFF"/>
<path d="M12 2H10V3H12V2Z" fill="#231E2B"/>
<path d="M10 2H6V3H10V2Z" fill="#ACC756"/>
<path d="M6 2H5V3H6V2Z" fill="#231E2B"/>
<path d="M5 2H4V3H5V2Z" fill="#F7FEFF"/>
<path d="M12 1H10V2H12V1Z" fill="#F7FEFF"/>
<path d="M10 1H6V2H10V1Z" fill="#231E2B"/>
<path d="M6 1H5V2H6V1Z" fill="#F7FEFF"/>
<path d="M10 0H6V1H10V0Z" fill="#F7FEFF"/>
</svg>
