<svg  viewBox="0 0 16 16" fill="none" xmlns="http://www.w3.org/2000/svg">
<path d="M12 15H8V16H12V15Z" fill="#F7FEFF"/>
<path d="M13 14H12V15H13V14Z" fill="#F7FEFF"/>
<path d="M12 14H8V15H12V14Z" fill="#231E2B"/>
<path d="M8 14H7V15H8V14Z" fill="#F7FEFF"/>
<path d="M14 13H13V14H14V13Z" fill="#F7FEFF"/>
<path d="M13 13H12V14H13V13Z" fill="#231E2B"/>
<path d="M12 13H8V14H12V13Z" fill="#E2B436"/>
<path d="M8 13H7V14H8V13Z" fill="#231E2B"/>
<path d="M7 13H6V14H7V13Z" fill="#F7FEFF"/>
<path d="M15 12H14V13H15V12Z" fill="#F7FEFF"/>
<path d="M14 12H13V13H14V12Z" fill="#231E2B"/>
<path d="M13 12H12V13H13V12Z" fill="#E2B436"/>
<path d="M12 12H10V13H12V12Z" fill="#522B29"/>
<path d="M9 12H8V13H9V12Z" fill="#CF8934"/>
<path d="M7 12H6V13H7V12Z" fill="#231E2B"/>
<path d="M6 12H5V13H6V12Z" fill="#F7FEFF"/>
<path d="M13 11H12V12H13V11Z" fill="#522B29"/>
<path d="M9 11H8V12H9V11Z" fill="#B0392E"/>
<path d="M8 9H7V10H5V11H6V12H7V13H8V9Z" fill="#E2B436"/>
<path d="M6 11H5V12H6V11Z" fill="#231E2B"/>
<path d="M5 11H4V12H5V11Z" fill="#F7FEFF"/>
<path d="M15 9H14V12H15V9Z" fill="#231E2B"/>
<path d="M10 10V11H9V13H10V12H12V11H13V10H10Z" fill="#784028"/>
<path d="M10 10H9V11H10V10Z" fill="#CF8934"/>
<path d="M9 9H8V11H9V9Z" fill="#4FAB59"/>
<path d="M5 10H4V11H5V10Z" fill="#231E2B"/>
<path d="M4 10H3V11H4V10Z" fill="#F7FEFF"/>
<path d="M16 9H15V12H16V9Z" fill="#F7FEFF"/>
<path d="M14 9H13V12H14V9Z" fill="#E2B436"/>
<path d="M13 9H12V10H13V9Z" fill="#CF8934"/>
<path d="M12 9H11V10H12V9Z" fill="#B0392E"/>
<path d="M11 9H10V10H11V9Z" fill="#CF8934"/>
<path d="M10 9H9V10H10V9Z" fill="#B0392E"/>
<path d="M7 9H4V10H7V9Z" fill="#CF8934"/>
<path d="M4 9H3V10H4V9Z" fill="#231E2B"/>
<path d="M3 9H2V10H3V9Z" fill="#F7FEFF"/>
<path d="M15 8H14V9H15V8Z" fill="#F7FEFF"/>
<path d="M14 8H13V9H14V8Z" fill="#231E2B"/>
<path d="M13 8H12V9H13V8Z" fill="#E2B436"/>
<path d="M12 8H9V9H12V8Z" fill="#4FAB59"/>
<path d="M9 8H7V9H9V8Z" fill="#CF8934"/>
<path d="M7 9V8H9V7H11V6H10V5H9V4H8V3H7V2H3V3H2V7H3V8H4V9H7Z" fill="#E2B436"/>
<path d="M4 8H3V9H4V8Z" fill="#CF8934"/>
<path d="M3 8H2V9H3V8Z" fill="#231E2B"/>
<path d="M2 8H1V9H2V8Z" fill="#F7FEFF"/>
<path d="M14 7H13V8H14V7Z" fill="#F7FEFF"/>
<path d="M13 7H12V8H13V7Z" fill="#231E2B"/>
<path d="M12 7H9V8H12V7Z" fill="#CF8934"/>
<path d="M3 7H2V8H3V7Z" fill="#CF8934"/>
<path d="M2 3H1V8H2V3Z" fill="#231E2B"/>
<path d="M13 6H12V7H13V6Z" fill="#F7FEFF"/>
<path d="M12 6H11V7H12V6Z" fill="#231E2B"/>
<path d="M1 3H0V8H1V3Z" fill="#F7FEFF"/>
<path d="M12 5H11V6H12V5Z" fill="#F7FEFF"/>
<path d="M11 5H10V6H11V5Z" fill="#231E2B"/>
<path d="M11 4H10V5H11V4Z" fill="#F7FEFF"/>
<path d="M10 4H9V5H10V4Z" fill="#231E2B"/>
<path d="M10 3H9V4H10V3Z" fill="#F7FEFF"/>
<path d="M9 3H8V4H9V3Z" fill="#231E2B"/>
<path d="M9 2H8V3H9V2Z" fill="#F7FEFF"/>
<path d="M8 2H7V3H8V2Z" fill="#231E2B"/>
<path d="M3 2H2V3H3V2Z" fill="#231E2B"/>
<path d="M2 2H1V3H2V2Z" fill="#F7FEFF"/>
<path d="M8 1H7V2H8V1Z" fill="#F7FEFF"/>
<path d="M7 1H3V2H7V1Z" fill="#231E2B"/>
<path d="M3 1H2V2H3V1Z" fill="#F7FEFF"/>
<path d="M7 0H3V1H7V0Z" fill="#F7FEFF"/>
</svg>
