<svg  viewBox="0 0 14 16" fill="none" xmlns="http://www.w3.org/2000/svg">
<path d="M9 15H5V16H9V15Z" fill="#F7FEFF"/>
<path d="M10 14H9V15H10V14Z" fill="#F7FEFF"/>
<path d="M9 14H5V15H9V14Z" fill="#231E2B"/>
<path d="M5 14H4V15H5V14Z" fill="#F7FEFF"/>
<path d="M11 13H10V14H11V13Z" fill="#F7FEFF"/>
<path d="M10 13H9V14H10V13Z" fill="#231E2B"/>
<path d="M9 13H7V14H9V13Z" fill="#892727"/>
<path d="M7 13H5V14H7V13Z" fill="#CF8934"/>
<path d="M5 13H4V14H5V13Z" fill="#231E2B"/>
<path d="M4 13H3V14H4V13Z" fill="#F7FEFF"/>
<path d="M12 12H11V13H12V12Z" fill="#F7FEFF"/>
<path d="M11 12H10V13H11V12Z" fill="#231E2B"/>
<path d="M10 12H9V13H10V12Z" fill="#892727"/>
<path d="M7 13V8H2V10H3V11H4V12H5V13H7Z" fill="#E2B436"/>
<path d="M5 12H4V13H5V12Z" fill="#CF8934"/>
<path d="M4 12H3V13H4V12Z" fill="#231E2B"/>
<path d="M3 12H2V13H3V12Z" fill="#F7FEFF"/>
<path d="M13 11H12V12H13V11Z" fill="#F7FEFF"/>
<path d="M12 11H11V12H12V11Z" fill="#231E2B"/>
<path d="M11 11H10V12H11V11Z" fill="#892727"/>
<path d="M4 11H3V12H4V11Z" fill="#CF8934"/>
<path d="M3 11H2V12H3V11Z" fill="#231E2B"/>
<path d="M2 11H1V12H2V11Z" fill="#F7FEFF"/>
<path d="M12 10H11V11H12V10Z" fill="#892727"/>
<path d="M3 10H2V11H3V10Z" fill="#CF8934"/>
<path d="M2 4H4V3H1V11H2V4Z" fill="#231E2B"/>
<path d="M1 3H0V11H1V3Z" fill="#F7FEFF"/>
<path d="M7 8V13H9V12H10V11H11V10H12V8H7Z" fill="#B0392E"/>
<path d="M14 3H13V11H14V3Z" fill="#F7FEFF"/>
<path d="M12 4H10V5H12V4Z" fill="#F5F38E"/>
<path d="M4 4V5H2V8H7V3H6V4H4Z" fill="#B0392E"/>
<path d="M4 4H2V5H4V4Z" fill="#CF6B55"/>
<path d="M10 3V4H12V11H13V3H10Z" fill="#231E2B"/>
<path d="M10 3H8V4H10V3Z" fill="#F5F38E"/>
<path d="M7 8H12V5H10V4H8V3H7V8Z" fill="#E2B436"/>
<path d="M6 3H4V4H6V3Z" fill="#CF6B55"/>
<path d="M13 2H10V3H13V2Z" fill="#F7FEFF"/>
<path d="M10 2H8V3H10V2Z" fill="#231E2B"/>
<path d="M8 2H7V3H8V2Z" fill="#F5F38E"/>
<path d="M7 2H6V3H7V2Z" fill="#CF6B55"/>
<path d="M6 2H4V3H6V2Z" fill="#231E2B"/>
<path d="M4 2H1V3H4V2Z" fill="#F7FEFF"/>
<path d="M10 1H8V2H10V1Z" fill="#F7FEFF"/>
<path d="M8 1H6V2H8V1Z" fill="#231E2B"/>
<path d="M6 1H4V2H6V1Z" fill="#F7FEFF"/>
<path d="M8 0H6V1H8V0Z" fill="#F7FEFF"/>
</svg>
