<svg width="99" height="107" viewBox="0 0 99 107" fill="none" xmlns="http://www.w3.org/2000/svg">
<g clip-path="url(#clip0_17_270)">
<path d="M99 34.892H92.094V20.9352H85.1869V13.9568H78.2797V6.97841H69.0702V0H13.8143V6.97841H6.90713V13.9568H0V34.892H6.90713V41.8693H13.8143V48.8477H57.5583V55.8261H64.4655V65.1307H39.1393V81.4136H46.0464V88.392H57.5583V107H71.3726V100.023H78.2797V93.0443H85.1869V79.0875H92.094V72.1091H99V34.892Z" fill="#FFBCAB"/>
<path d="M85.1869 13.9568H78.2798V6.97841H69.0702V0H41.4417V13.9568H48.3488V34.892H41.4417V48.8477H57.5584V55.8261H71.3726V48.8477H78.2798V41.8693H85.1869V13.9568Z" fill="#FF7956"/>
<path d="M85.1868 79.0875H71.3726V65.1307H39.1393V81.4136H46.0464V88.392H57.5583V107H71.3726V100.023H78.2797V93.0443H85.1868V79.0875Z" fill="#FF5023"/>
<path d="M69.0702 0H13.8143V6.97841H69.0702V0Z" fill="black"/>
<path d="M13.8142 6.97841H6.9071V13.9568H13.8142V6.97841Z" fill="black"/>
<path d="M6.90713 13.9568H0V34.892H6.90713V13.9568Z" fill="black"/>
<path d="M13.8142 34.892H6.9071V41.8704H13.8142V34.892Z" fill="black"/>
<path d="M57.5583 41.8693H13.8143V48.8477H57.5583V41.8693Z" fill="black"/>
<path d="M71.3726 72.1091V48.8477H57.5583V55.8261H64.4654V65.1307H39.1393V81.4136H46.0464V72.1091H71.3726Z" fill="black"/>
<path d="M64.4655 81.4136H46.0464V88.392H57.5583V107H71.3726V100.023H64.4655V81.4136Z" fill="black"/>
<path d="M78.2797 93.0443H71.3726V100.023H78.2797V93.0443Z" fill="black"/>
<path d="M85.1869 79.0875H78.2797V93.0443H85.1869V79.0875Z" fill="black"/>
<path d="M92.094 72.1091H85.1868V79.0875H92.094V72.1091Z" fill="black"/>
<path d="M99.0011 34.892H92.094V72.1091H99.0011V34.892Z" fill="black"/>
<path d="M78.2797 6.97841H69.0702V13.9568H78.2797V6.97841Z" fill="black"/>
<path d="M85.1869 13.9568H78.2797V20.9352H85.1869V13.9568Z" fill="black"/>
<path d="M92.094 20.9352H85.1868V34.892H92.094V20.9352Z" fill="black"/>
</g>
<defs>
<clipPath id="clip0_17_270">
<rect width="99" height="107" fill="white"/>
</clipPath>
</defs>
</svg>
