<svg  viewBox="0 0 16 16" fill="none" xmlns="http://www.w3.org/2000/svg">
<path d="M11 15H10V16H11V15Z" fill="#F7FEFF"/>
<path d="M12 14H11V15H12V14Z" fill="#F7FEFF"/>
<path d="M11 14H10V15H11V14Z" fill="#231E2B"/>
<path d="M10 14H9V15H10V14Z" fill="#F7FEFF"/>
<path d="M5 14H4V15H5V14Z" fill="#F7FEFF"/>
<path d="M13 13H12V14H13V13Z" fill="#F7FEFF"/>
<path d="M12 13H11V14H12V13Z" fill="#231E2B"/>
<path d="M11 13H10V14H11V13Z" fill="#E2B436"/>
<path d="M10 13H9V14H10V13Z" fill="#231E2B"/>
<path d="M9 13H8V14H9V13Z" fill="#F7FEFF"/>
<path d="M6 13H5V14H6V13Z" fill="#F7FEFF"/>
<path d="M5 13H4V14H5V13Z" fill="#231E2B"/>
<path d="M4 13H3V14H4V13Z" fill="#F7FEFF"/>
<path d="M14 12H13V13H14V12Z" fill="#F7FEFF"/>
<path d="M13 12H12V13H13V12Z" fill="#231E2B"/>
<path d="M12 12H11V13H12V12Z" fill="#E2B436"/>
<path d="M11 12H10V13H11V12Z" fill="#F7FEFF"/>
<path d="M10 12H9V13H10V12Z" fill="#E2B436"/>
<path d="M9 12H8V13H9V12Z" fill="#231E2B"/>
<path d="M7 12V9H6V13H8V12H7Z" fill="#F7FEFF"/>
<path d="M4 9H3V13H4V9Z" fill="#231E2B"/>
<path d="M12 11H11V12H12V11Z" fill="#231E2B"/>
<path d="M11 11H10V12H11V11Z" fill="#E2B436"/>
<path d="M10 11H9V12H10V11Z" fill="#231E2B"/>
<path d="M9 11H8V12H9V11Z" fill="#F7FEFF"/>
<path d="M6 9H5V13H6V9Z" fill="#231E2B"/>
<path d="M5 11H4V13H5V11Z" fill="#E2B436"/>
<path d="M3 9H2V13H3V9Z" fill="#F7FEFF"/>
<path d="M11 10H10V11H11V10Z" fill="#231E2B"/>
<path d="M10 10H9V11H10V10Z" fill="#F7FEFF"/>
<path d="M14 9H13V10H14V9Z" fill="#F7FEFF"/>
<path d="M13 9H12V10H13V9Z" fill="#231E2B"/>
<path d="M12 9H11V6H10V10H11V11H12V12H13V10H12V9Z" fill="#F7FEFF"/>
<path d="M5 9H4V11H5V9Z" fill="#F5F38E"/>
<path d="M13 8H12V9H13V8Z" fill="#E2B436"/>
<path d="M8 8H7V9H8V8Z" fill="#F7FEFF"/>
<path d="M7 8H6V9H7V8Z" fill="#231E2B"/>
<path d="M6 8H5V9H6V8Z" fill="#E2B436"/>
<path d="M4 8H3V9H4V8Z" fill="#E2B436"/>
<path d="M3 8H2V9H3V8Z" fill="#231E2B"/>
<path d="M2 8H1V9H2V8Z" fill="#F7FEFF"/>
<path d="M14 6H13V9H14V6Z" fill="#231E2B"/>
<path d="M13 7H12V8H13V7Z" fill="#F5F38E"/>
<path d="M12 6H11V9H12V6Z" fill="#231E2B"/>
<path d="M9 7H8V8H9V7Z" fill="#F7FEFF"/>
<path d="M8 7H7V8H8V7Z" fill="#231E2B"/>
<path d="M7 7H6V8H7V7Z" fill="#E2B436"/>
<path d="M6 7H5V8H6V7Z" fill="#F5F38E"/>
<path d="M5 6H4V9H5V6Z" fill="#F7FEFF"/>
<path d="M4 7H3V8H4V7Z" fill="#F5F38E"/>
<path d="M3 7H2V8H3V7Z" fill="#E2B436"/>
<path d="M2 7H1V8H2V7Z" fill="#231E2B"/>
<path d="M1 7H0V8H1V7Z" fill="#F7FEFF"/>
<path d="M15 6H14V9H15V6Z" fill="#F7FEFF"/>
<path d="M8 6H7V7H8V6Z" fill="#F7FEFF"/>
<path d="M7 6H6V7H7V6Z" fill="#231E2B"/>
<path d="M6 6H5V7H6V6Z" fill="#E2B436"/>
<path d="M4 6H3V7H4V6Z" fill="#E2B436"/>
<path d="M3 6H2V7H3V6Z" fill="#231E2B"/>
<path d="M2 6H1V7H2V6Z" fill="#F7FEFF"/>
<path d="M16 5H15V6H16V5Z" fill="#F7FEFF"/>
<path d="M15 5H14V6H15V5Z" fill="#231E2B"/>
<path d="M14 5H13V6H14V5Z" fill="#E2B436"/>
<path d="M12 5H11V6H12V5Z" fill="#E2B436"/>
<path d="M11 5H10V6H11V5Z" fill="#231E2B"/>
<path d="M10 5H9V6H10V5Z" fill="#F7FEFF"/>
<path d="M5 5H4V6H5V5Z" fill="#F5F38E"/>
<path d="M3 3H2V6H3V3Z" fill="#F7FEFF"/>
<path d="M13 4H12V7H13V4Z" fill="#F7FEFF"/>
<path d="M11 2H10V5H11V2Z" fill="#F7FEFF"/>
<path d="M7 3H6V6H7V3Z" fill="#F7FEFF"/>
<path d="M5 3H4V5H5V3Z" fill="#E2B436"/>
<path d="M4 3H3V6H4V3Z" fill="#231E2B"/>
<path d="M15 2H14V5H15V2Z" fill="#F7FEFF"/>
<path d="M13 3H12V4H13V3Z" fill="#F5F38E"/>
<path d="M12 2H11V5H12V2Z" fill="#231E2B"/>
<path d="M6 3H5V6H6V3Z" fill="#231E2B"/>
<path d="M14 2H13V5H14V2Z" fill="#231E2B"/>
<path d="M13 2H12V3H13V2Z" fill="#E2B436"/>
<path d="M6 2H5V3H6V2Z" fill="#F7FEFF"/>
<path d="M5 2H4V3H5V2Z" fill="#231E2B"/>
<path d="M4 2H3V3H4V2Z" fill="#F7FEFF"/>
<path d="M14 1H13V2H14V1Z" fill="#F7FEFF"/>
<path d="M13 1H12V2H13V1Z" fill="#231E2B"/>
<path d="M12 1H11V2H12V1Z" fill="#F7FEFF"/>
<path d="M5 1H4V2H5V1Z" fill="#F7FEFF"/>
<path d="M13 0H12V1H13V0Z" fill="#F7FEFF"/>
</svg>
