<svg  viewBox="0 0 16 16" fill="none" xmlns="http://www.w3.org/2000/svg">
<path d="M13 15H12V16H13V15Z" fill="#F7FEFF"/>
<path d="M4 15H3V16H4V15Z" fill="#F7FEFF"/>
<path d="M14 14H13V15H14V14Z" fill="#F7FEFF"/>
<path d="M13 14H12V15H13V14Z" fill="#231E2B"/>
<path d="M12 14H10V15H12V14Z" fill="#F7FEFF"/>
<path d="M6 14H4V15H6V14Z" fill="#F7FEFF"/>
<path d="M4 14H3V15H4V14Z" fill="#231E2B"/>
<path d="M3 14H2V15H3V14Z" fill="#F7FEFF"/>
<path d="M15 12H14V14H15V12Z" fill="#F7FEFF"/>
<path d="M13 13H12V14H13V13Z" fill="#E2B436"/>
<path d="M12 13H10V14H12V13Z" fill="#231E2B"/>
<path d="M10 13H6V14H10V13Z" fill="#F7FEFF"/>
<path d="M6 13H4V14H6V13Z" fill="#231E2B"/>
<path d="M4 13H3V14H4V13Z" fill="#CF8934"/>
<path d="M3 12H2V14H3V12Z" fill="#231E2B"/>
<path d="M14 12H13V14H14V12Z" fill="#231E2B"/>
<path d="M13 12H12V13H13V12Z" fill="#F5F38E"/>
<path d="M12 12H11V13H12V12Z" fill="#E2B436"/>
<path d="M11 12H10V13H11V12Z" fill="#CF8934"/>
<path d="M10 12H6V13H10V12Z" fill="#231E2B"/>
<path d="M6 12H5V13H6V12Z" fill="#CF8934"/>
<path d="M5 12H4V13H5V12Z" fill="#E2B436"/>
<path d="M4 12H3V13H4V12Z" fill="#F5F38E"/>
<path d="M2 12H1V14H2V12Z" fill="#F7FEFF"/>
<path d="M9 11H6V12H9V11Z" fill="#CF8934"/>
<path d="M4 8H3V12H4V8Z" fill="#231E2B"/>
<path d="M3 8H2V12H3V8Z" fill="#F7FEFF"/>
<path d="M12 10H11V12H12V10Z" fill="#F5F38E"/>
<path d="M5 10H4V12H5V10Z" fill="#F5F38E"/>
<path d="M6 10V9H5V8H4V10H6Z" fill="#CF8934"/>
<path d="M14 8H13V12H14V8Z" fill="#F7FEFF"/>
<path d="M13 8H12V12H13V8Z" fill="#231E2B"/>
<path d="M11 9H10V10H12V8H11V9Z" fill="#CF8934"/>
<path d="M15 7H14V8H15V7Z" fill="#F7FEFF"/>
<path d="M14 7H13V8H14V7Z" fill="#231E2B"/>
<path d="M13 7H12V8H13V7Z" fill="#CF8934"/>
<path d="M4 7V8H5V9H6V10H5V12H6V11H9V12H11V10H10V9H11V8H12V7H11V6H10V5H9V4H7V5H6V6H5V7H4Z" fill="#E2B436"/>
<path d="M4 7H3V8H4V7Z" fill="#CF8934"/>
<path d="M3 7H2V8H3V7Z" fill="#231E2B"/>
<path d="M2 7H1V8H2V7Z" fill="#F7FEFF"/>
<path d="M16 6H15V7H16V6Z" fill="#F7FEFF"/>
<path d="M15 6H14V7H15V6Z" fill="#231E2B"/>
<path d="M14 6H11V7H14V6Z" fill="#F5F38E"/>
<path d="M5 6H2V7H5V6Z" fill="#F5F38E"/>
<path d="M2 6H1V7H2V6Z" fill="#231E2B"/>
<path d="M1 6H0V7H1V6Z" fill="#F7FEFF"/>
<path d="M15 5H14V6H15V5Z" fill="#F7FEFF"/>
<path d="M14 5H11V6H14V5Z" fill="#231E2B"/>
<path d="M11 5H10V6H11V5Z" fill="#F5F38E"/>
<path d="M6 5H5V6H6V5Z" fill="#CF8934"/>
<path d="M5 5H2V6H5V5Z" fill="#231E2B"/>
<path d="M2 5H1V6H2V5Z" fill="#F7FEFF"/>
<path d="M14 4H11V5H14V4Z" fill="#F7FEFF"/>
<path d="M11 4H10V5H11V4Z" fill="#231E2B"/>
<path d="M10 4H9V5H10V4Z" fill="#F5F38E"/>
<path d="M7 4H6V5H7V4Z" fill="#CF8934"/>
<path d="M6 4H5V5H6V4Z" fill="#231E2B"/>
<path d="M5 4H2V5H5V4Z" fill="#F7FEFF"/>
<path d="M11 2H10V4H11V2Z" fill="#F7FEFF"/>
<path d="M9 4V2H8V3H7V4H9Z" fill="#F5F38E"/>
<path d="M7 3H6V4H7V3Z" fill="#231E2B"/>
<path d="M6 3H5V4H6V3Z" fill="#F7FEFF"/>
<path d="M10 2H9V4H10V2Z" fill="#231E2B"/>
<path d="M8 2H7V3H8V2Z" fill="#231E2B"/>
<path d="M7 2H6V3H7V2Z" fill="#F7FEFF"/>
<path d="M10 1H9V2H10V1Z" fill="#F7FEFF"/>
<path d="M9 1H8V2H9V1Z" fill="#231E2B"/>
<path d="M8 1H7V2H8V1Z" fill="#F7FEFF"/>
<path d="M9 0H8V1H9V0Z" fill="#F7FEFF"/>
</svg>
