<svg  viewBox="0 0 16 16" fill="none" xmlns="http://www.w3.org/2000/svg">
<path d="M10 15H2V16H10V15Z" fill="#F7FEFF"/>
<path d="M11 14H10V15H11V14Z" fill="#F7FEFF"/>
<path d="M10 14H2V15H10V14Z" fill="#231E2B"/>
<path d="M2 14H1V15H2V14Z" fill="#F7FEFF"/>
<path d="M2 2H5V4H6V2H10V4H14V3H11V1H1V14H2V2Z" fill="#231E2B"/>
<path d="M1 1H0V14H1V1Z" fill="#F7FEFF"/>
<path d="M11 11V14H12V12H13V11H11Z" fill="#F7FEFF"/>
<path d="M14 10H13V11H14V10Z" fill="#F7FEFF"/>
<path d="M10 10V14H11V11H13V10H10Z" fill="#231E2B"/>
<path d="M8 10H3V11H8V10Z" fill="#892727"/>
<path d="M15 9H14V10H15V9Z" fill="#F7FEFF"/>
<path d="M14 9H13V10H14V9Z" fill="#231E2B"/>
<path d="M13 9H10V10H13V9Z" fill="#892727"/>
<path d="M14 8H13V9H14V8Z" fill="#892727"/>
<path d="M13 8H12V9H13V8Z" fill="#B0392E"/>
<path d="M10 2H6V4H7V5H8V11H3V5H4V4H5V2H2V14H10V2Z" fill="#B0392E"/>
<path d="M15 4H14V9H15V4Z" fill="#231E2B"/>
<path d="M12 6H11V8H12V6Z" fill="#F7FEFF"/>
<path d="M7 9H4V5H3V10H8V5H7V9Z" fill="#231E2B"/>
<path d="M4 6V9H7V6H6V5H5V6H4Z" fill="#E2B436"/>
<path d="M10 9H12V8H11V6H12V8H13V5H10V9Z" fill="#231E2B"/>
<path d="M7 5H6V6H7V5Z" fill="#F5F38E"/>
<path d="M5 5H4V6H5V5Z" fill="#F5F38E"/>
<path d="M16 4H15V9H16V4Z" fill="#F7FEFF"/>
<path d="M11 4V5H13V8H14V4H11Z" fill="#B0392E"/>
<path d="M11 4H10V5H11V4Z" fill="#892727"/>
<path d="M7 4H6V5H7V4Z" fill="#231E2B"/>
<path d="M6 4H5V5H6V4Z" fill="#F5F38E"/>
<path d="M5 4H4V5H5V4Z" fill="#231E2B"/>
<path d="M15 3H14V4H15V3Z" fill="#F7FEFF"/>
<path d="M11 3H14V2H12V1H11V3Z" fill="#F7FEFF"/>
<path d="M11 0H1V1H11V0Z" fill="#F7FEFF"/>
</svg>
