<svg  viewBox="0 0 12 16" fill="none" xmlns="http://www.w3.org/2000/svg">
<path d="M4 15H2V16H4V15Z" fill="#F7FEFF"/>
<path d="M5 14H4V15H5V14Z" fill="#F7FEFF"/>
<path d="M3 14V13H2V15H4V14H3Z" fill="#231E2B"/>
<path d="M6 13H5V14H6V13Z" fill="#F7FEFF"/>
<path d="M5 13H4V14H5V13Z" fill="#231E2B"/>
<path d="M4 13H3V14H4V13Z" fill="#F5F38E"/>
<path d="M2 13H1V15H2V13Z" fill="#F7FEFF"/>
<path d="M7 12H6V13H7V12Z" fill="#F7FEFF"/>
<path d="M6 12H5V13H6V12Z" fill="#231E2B"/>
<path d="M4 11H3V13H4V11Z" fill="#231E2B"/>
<path d="M3 11H2V13H3V11Z" fill="#F7FEFF"/>
<path d="M8 11H7V12H8V11Z" fill="#F7FEFF"/>
<path d="M7 11H6V12H7V11Z" fill="#231E2B"/>
<path d="M6 11H5V12H6V11Z" fill="#CF8934"/>
<path d="M5 11H4V13H5V11Z" fill="#F5F38E"/>
<path d="M9 10H8V11H9V10Z" fill="#F7FEFF"/>
<path d="M8 10H7V11H8V10Z" fill="#231E2B"/>
<path d="M7 10H6V11H7V10Z" fill="#CF8934"/>
<path d="M4 9H1V10H3V11H4V9Z" fill="#F7FEFF"/>
<path d="M10 9H9V10H10V9Z" fill="#F7FEFF"/>
<path d="M9 9H8V10H9V9Z" fill="#231E2B"/>
<path d="M8 9H7V10H8V9Z" fill="#CF8934"/>
<path d="M6 9H5V11H6V9Z" fill="#F5F38E"/>
<path d="M11 8H10V9H11V8Z" fill="#F7FEFF"/>
<path d="M10 8H9V9H10V8Z" fill="#231E2B"/>
<path d="M9 8H8V9H9V8Z" fill="#CF8934"/>
<path d="M4 9V11H5V9H6V8H2V6H1V9H4Z" fill="#231E2B"/>
<path d="M10 7H9V8H10V7Z" fill="#CF8934"/>
<path d="M1 6H0V9H1V6Z" fill="#F7FEFF"/>
<path d="M12 5H11V8H12V5Z" fill="#F7FEFF"/>
<path d="M10 6H8V7H10V6Z" fill="#F5F38E"/>
<path d="M3 6H2V8H3V6Z" fill="#F5F38E"/>
<path d="M9 5V4H8V5H7V6H10V8H11V5H9Z" fill="#231E2B"/>
<path d="M7 5H6V6H7V5Z" fill="#CF8934"/>
<path d="M4 4H3V6H4V4Z" fill="#F5F38E"/>
<path d="M3 4H2V6H3V4Z" fill="#231E2B"/>
<path d="M2 4H1V6H2V4Z" fill="#F7FEFF"/>
<path d="M8 4H7V5H8V4Z" fill="#CF8934"/>
<path d="M10 4H9V5H11V3H10V4Z" fill="#F7FEFF"/>
<path d="M10 3H9V4H10V3Z" fill="#231E2B"/>
<path d="M9 3H8V4H9V3Z" fill="#CF8934"/>
<path d="M5 4H4V6H3V8H6V10H7V9H8V8H9V7H8V6H6V5H7V4H8V3H9V2H5V4Z" fill="#E2B436"/>
<path d="M5 2H4V4H5V2Z" fill="#F5F38E"/>
<path d="M4 2H3V4H4V2Z" fill="#231E2B"/>
<path d="M3 2H2V4H3V2Z" fill="#F7FEFF"/>
<path d="M12 1H11V3H12V1Z" fill="#F7FEFF"/>
<path d="M10 2H9V3H10V2Z" fill="#CF8934"/>
<path d="M4 1V2H10V3H11V1H4Z" fill="#231E2B"/>
<path d="M4 1H3V2H4V1Z" fill="#F7FEFF"/>
<path d="M11 0H4V1H11V0Z" fill="#F7FEFF"/>
</svg>
