<svg width="107" height="106" viewBox="0 0 107 106" fill="none" xmlns="http://www.w3.org/2000/svg">
<g clip-path="url(#clip0_17_165)">
<path d="M107 20.7396H100.023V13.8264H93.0443V6.91319H79.0875V0H27.9136V6.91319H13.9568V13.8264H6.97841V20.7396H0V39.1736H6.97841V46.0868H13.9568V106H93.0443V46.0868H100.023V39.1736H107V20.7396Z" fill="#FFA733"/>
<path d="M86.0659 20.7396H79.0875V13.8264H72.1091V6.91319H58.1523V0H27.9136V6.91319H13.9568V13.8264H6.97841V20.7396H0V39.1736H6.97841V46.0868H13.9568V106H72.1091V46.0868H79.0875V39.1736H86.0659V20.7396Z" fill="#FFF5CC"/>
<path d="M79.0874 0H27.9136V6.91319H79.0874V0Z" fill="black"/>
<path d="M27.9136 6.91321H13.9568V13.8264H27.9136V6.91321Z" fill="black"/>
<path d="M13.9568 13.8264H6.97839V20.7395H13.9568V13.8264Z" fill="black"/>
<path d="M6.97841 20.7396H0V39.1747H6.97841V20.7396Z" fill="black"/>
<path d="M13.9568 39.1736H6.97839V46.0868H13.9568V39.1736Z" fill="black"/>
<path d="M86.0659 99.0879H20.9352V46.0868H13.9568V99.0879V106H20.9352H86.0659H93.0443V99.0879V46.0868H86.0659V99.0879Z" fill="black"/>
<path d="M100.023 39.1736H93.0443V46.0868H100.023V39.1736Z" fill="black"/>
<path d="M107.001 20.7396H100.023V39.1747H107.001V20.7396Z" fill="black"/>
<path d="M100.023 13.8264H93.0443V20.7395H100.023V13.8264Z" fill="black"/>
<path d="M93.0443 6.91321H79.0875V13.8264H93.0443V6.91321Z" fill="black"/>
</g>
<defs>
<clipPath id="clip0_17_165">
<rect width="107" height="106" fill="white"/>
</clipPath>
</defs>
</svg>
