<svg  viewBox="0 0 16 16" fill="none" xmlns="http://www.w3.org/2000/svg">
<path d="M13 15H3V16H13V15Z" fill="#F7FEFF"/>
<path d="M14 14H13V15H14V14Z" fill="#F7FEFF"/>
<path d="M13 14H3V15H13V14Z" fill="#231E2B"/>
<path d="M3 14H2V15H3V14Z" fill="#F7FEFF"/>
<path d="M3 5H2V14H3V5Z" fill="#231E2B"/>
<path d="M14 5H13V14H14V5Z" fill="#231E2B"/>
<path d="M2 5H1V14H2V5Z" fill="#F7FEFF"/>
<path d="M8 12V11H7V10H6V11H5V12H8Z" fill="#522B29"/>
<path d="M5 11H4V12H5V11Z" fill="#784028"/>
<path d="M11 11H10V12H9V10H7V11H8V12H5V13H11V12H12V10H11V11Z" fill="#784028"/>
<path d="M6 10H5V11H6V10Z" fill="#784028"/>
<path d="M7 9H6V10H7V9Z" fill="#784028"/>
<path d="M11 8H10V9H11V8Z" fill="#784028"/>
<path d="M5 8H4V10H5V8Z" fill="#784028"/>
<path d="M12 7H11V8H12V7Z" fill="#784028"/>
<path d="M9 7H8V8H9V7Z" fill="#784028"/>
<path d="M6 6H5V5H4V7H5V8H6V6Z" fill="#784028"/>
<path d="M11 6H10V7H11V6Z" fill="#784028"/>
<path d="M10 6H9V5H7V6H6V8H5V10H6V9H7V10H9V12H10V11H11V10H12V9H10V8H11V7H10V6ZM9 8H8V7H9V8Z" fill="#522B29"/>
<path d="M15 5H14V14H15V5Z" fill="#F7FEFF"/>
<path d="M12 5H11V6H12V5Z" fill="#784028"/>
<path d="M11 5H10V6H11V5Z" fill="#522B29"/>
<path d="M6 6H7V5H9V6H10V5H11V4H5V5H6V6Z" fill="#784028"/>
<path d="M6 5H5V6H6V5Z" fill="#522B29"/>
<path d="M2 3H1V5H2V3Z" fill="#231E2B"/>
<path d="M16 3H15V5H16V3Z" fill="#F7FEFF"/>
<path d="M15 3H14V5H15V3Z" fill="#231E2B"/>
<path d="M14 3H13V4H14V3Z" fill="#C7936B"/>
<path d="M13 3H3V4H2V5H3V14H13V5H14V4H13V3ZM12 6H11V7H12V8H11V9H12V12H11V13H5V12H4V11H5V10H4V8H5V7H4V5H5V4H11V5H12V6Z" fill="#E8BE9B"/>
<path d="M3 3H2V4H3V3Z" fill="#C7936B"/>
<path d="M1 3H0V5H1V3Z" fill="#F7FEFF"/>
<path d="M15 2H14V3H15V2Z" fill="#F7FEFF"/>
<path d="M14 2H13V3H14V2Z" fill="#231E2B"/>
<path d="M13 2H3V3H13V2Z" fill="#C7936B"/>
<path d="M3 2H2V3H3V2Z" fill="#231E2B"/>
<path d="M2 2H1V3H2V2Z" fill="#F7FEFF"/>
<path d="M14 1H13V2H14V1Z" fill="#F7FEFF"/>
<path d="M13 1H3V2H13V1Z" fill="#231E2B"/>
<path d="M3 1H2V2H3V1Z" fill="#F7FEFF"/>
<path d="M13 0H3V1H13V0Z" fill="#F7FEFF"/>
</svg>
