<svg  viewBox="0 0 16 16" fill="none" xmlns="http://www.w3.org/2000/svg">
<path d="M10 15H6V16H10V15Z" fill="#F7FEFF"/>
<path d="M12 14H10V15H12V14Z" fill="#F7FEFF"/>
<path d="M10 14H6V15H10V14Z" fill="#231E2B"/>
<path d="M6 14H4V15H6V14Z" fill="#F7FEFF"/>
<path d="M13 13H12V14H13V13Z" fill="#F7FEFF"/>
<path d="M12 13H10V14H12V13Z" fill="#231E2B"/>
<path d="M6 13H4V14H6V13Z" fill="#231E2B"/>
<path d="M4 13H3V14H4V13Z" fill="#F7FEFF"/>
<path d="M14 12H13V13H14V12Z" fill="#F7FEFF"/>
<path d="M13 12H12V13H13V12Z" fill="#231E2B"/>
<path d="M9 12V13H7V12H4V13H6V14H10V13H12V12H9Z" fill="#B6B7B8"/>
<path d="M9 12H7V13H9V12Z" fill="#231E2B"/>
<path d="M4 12H3V13H4V12Z" fill="#231E2B"/>
<path d="M3 12H2V13H3V12Z" fill="#F7FEFF"/>
<path d="M13 11H12V12H13V11Z" fill="#B6B7B8"/>
<path d="M9 11H7V12H9V11Z" fill="#B0392E"/>
<path d="M7 10H9V12H10V4H9V6H7V4H6V12H7V10ZM7 7H9V9H7V7Z" fill="#231E2B"/>
<path d="M4 11H3V12H4V11Z" fill="#B6B7B8"/>
<path d="M3 10H2V12H3V10Z" fill="#231E2B"/>
<path d="M15 10H14V12H15V10Z" fill="#F7FEFF"/>
<path d="M14 10H13V12H14V10Z" fill="#231E2B"/>
<path d="M9 10H7V11H9V10Z" fill="#892727"/>
<path d="M2 10H1V12H2V10Z" fill="#F7FEFF"/>
<path d="M14 9H13V10H14V9Z" fill="#B6B7B8"/>
<path d="M3 9H2V10H3V9Z" fill="#B6B7B8"/>
<path d="M2 6H1V10H2V6Z" fill="#231E2B"/>
<path d="M15 6H14V10H15V6Z" fill="#231E2B"/>
<path d="M9 8H7V9H9V8Z" fill="#C2751D"/>
<path d="M1 6H0V10H1V6Z" fill="#F7FEFF"/>
<path d="M9 7H7V8H9V7Z" fill="#E2B436"/>
<path d="M16 6H15V10H16V6Z" fill="#F7FEFF"/>
<path d="M14 6H13V7H14V6Z" fill="#B6B7B8"/>
<path d="M13 5H12V4H11V3H10V2H6V3H5V4H4V5H3V7H2V9H3V11H4V12H6V4H7V3H9V4H10V12H12V11H13V9H14V7H13V5Z" fill="#F7FEFF"/>
<path d="M3 6H2V7H3V6Z" fill="#B6B7B8"/>
<path d="M15 4H14V6H15V4Z" fill="#F7FEFF"/>
<path d="M7 6H9V5H8V4H7V6Z" fill="#5D87DA"/>
<path d="M3 4H2V6H3V4Z" fill="#231E2B"/>
<path d="M2 4H1V6H2V4Z" fill="#F7FEFF"/>
<path d="M14 4H13V6H14V4Z" fill="#231E2B"/>
<path d="M13 4H12V5H13V4Z" fill="#B6B7B8"/>
<path d="M9 4H8V5H9V4Z" fill="#5EB0DB"/>
<path d="M4 4H3V5H4V4Z" fill="#B6B7B8"/>
<path d="M14 3H13V4H14V3Z" fill="#F7FEFF"/>
<path d="M13 3H12V4H13V3Z" fill="#231E2B"/>
<path d="M12 3H11V4H12V3Z" fill="#B6B7B8"/>
<path d="M9 3H7V4H9V3Z" fill="#231E2B"/>
<path d="M5 3H4V4H5V3Z" fill="#B6B7B8"/>
<path d="M4 3H3V4H4V3Z" fill="#231E2B"/>
<path d="M3 3H2V4H3V3Z" fill="#F7FEFF"/>
<path d="M13 2H12V3H13V2Z" fill="#F7FEFF"/>
<path d="M12 2H10V3H12V2Z" fill="#231E2B"/>
<path d="M6 2H4V3H6V2Z" fill="#231E2B"/>
<path d="M4 2H3V3H4V2Z" fill="#F7FEFF"/>
<path d="M12 1H10V2H12V1Z" fill="#F7FEFF"/>
<path d="M10 1H6V2H10V1Z" fill="#231E2B"/>
<path d="M6 1H4V2H6V1Z" fill="#F7FEFF"/>
<path d="M10 0H6V1H10V0Z" fill="#F7FEFF"/>
</svg>
