<svg  viewBox="0 0 16 16" fill="none" xmlns="http://www.w3.org/2000/svg">
<path d="M15 15H1V16H15V15Z" fill="#F7FEFF"/>
<path d="M15 2H14V14H2V2H1V15H15V2Z" fill="#231E2B"/>
<path d="M14 13H2V14H14V13Z" fill="#CF8934"/>
<path d="M1 2H0V15H1V2Z" fill="#F7FEFF"/>
<path d="M4 10H2V13H4V10Z" fill="#E2B436"/>
<path d="M10 11H6V12H10V11Z" fill="#522B29"/>
<path d="M14 10H12V13H14V10Z" fill="#E2B436"/>
<path d="M10 10V12H6V10H4V13H12V10H10Z" fill="#784028"/>
<path d="M14 9H12V10H14V9Z" fill="#C2751D"/>
<path d="M12 9H10V10H12V9Z" fill="#522B29"/>
<path d="M9 8H7V10H9V8Z" fill="#522B29"/>
<path d="M6 9H4V10H6V9Z" fill="#522B29"/>
<path d="M4 9H2V10H4V9Z" fill="#C2751D"/>
<path d="M14 8H10V9H14V8Z" fill="#F5F38E"/>
<path d="M9 10H7V8H6V11H10V8H9V10Z" fill="#E2B436"/>
<path d="M6 8H2V9H6V8Z" fill="#F5F38E"/>
<path d="M12 7H10V8H12V7Z" fill="#522B29"/>
<path d="M10 7H6V8H10V7Z" fill="#F5F38E"/>
<path d="M6 7H4V8H6V7Z" fill="#522B29"/>
<path d="M4 2H2V8H4V2Z" fill="#E2B436"/>
<path d="M12 6H10V7H12V6Z" fill="#A6644B"/>
<path d="M10 6H6V7H10V6Z" fill="#522B29"/>
<path d="M6 6H4V7H6V6Z" fill="#A6644B"/>
<path d="M12 5H4V6H12V5Z" fill="#784028"/>
<path d="M12 4H4V5H12V4Z" fill="#A6644B"/>
<path d="M12 3H4V4H12V3Z" fill="#784028"/>
<path d="M16 2H15V15H16V2Z" fill="#F7FEFF"/>
<path d="M14 2H12V8H14V2Z" fill="#E2B436"/>
<path d="M12 2H4V3H12V2Z" fill="#A6644B"/>
<path d="M15 1H14V2H15V1Z" fill="#F7FEFF"/>
<path d="M14 1H2V2H14V1Z" fill="#231E2B"/>
<path d="M2 1H1V2H2V1Z" fill="#F7FEFF"/>
<path d="M14 0H2V1H14V0Z" fill="#F7FEFF"/>
</svg>
