<svg  viewBox="0 0 16 16" fill="none" xmlns="http://www.w3.org/2000/svg">
<path d="M15 15H1V16H15V15Z" fill="#F7FEFF"/>
<path d="M15 2H14V14H2V2H1V15H15V2Z" fill="#231E2B"/>
<path d="M14 13H2V14H14V13Z" fill="#CF8934"/>
<path d="M1 2H0V15H1V2Z" fill="#F7FEFF"/>
<path d="M4 9H2V13H4V9Z" fill="#E2B436"/>
<path d="M9 11H7V12H9V11Z" fill="#522B29"/>
<path d="M9 10V12H7V10H4V13H12V10H9Z" fill="#784028"/>
<path d="M9 10H7V11H9V10Z" fill="#E2B436"/>
<path d="M14 9H12V13H14V9Z" fill="#E2B436"/>
<path d="M12 9H4V10H12V9Z" fill="#522B29"/>
<path d="M14 8H2V9H14V8Z" fill="#F5F38E"/>
<path d="M13 7H12V8H13V7Z" fill="#356E69"/>
<path d="M12 7H10V8H12V7Z" fill="#66151B"/>
<path d="M9 7H7V8H9V7Z" fill="#484085"/>
<path d="M7 7H6V8H7V7Z" fill="#356E69"/>
<path d="M6 7H4V8H6V7Z" fill="#66151B"/>
<path d="M4 7H3V8H4V7Z" fill="#5EB0DB"/>
<path d="M3 5H4V4H2V8H3V5Z" fill="#CF8934"/>
<path d="M13 6H12V7H13V6Z" fill="#4FAB59"/>
<path d="M12 5H11V7H12V5Z" fill="#892727"/>
<path d="M11 6H10V7H11V6Z" fill="#5EB0DB"/>
<path d="M10 6H9V8H10V6Z" fill="#4891D5"/>
<path d="M7 6V7H9V6H10V5H8V6H7Z" fill="#6F59AB"/>
<path d="M7 6H6V7H7V6Z" fill="#4FAB59"/>
<path d="M6 6H5V7H6V6Z" fill="#892727"/>
<path d="M5 6H4V7H5V6Z" fill="#B0392E"/>
<path d="M4 6H3V7H4V6Z" fill="#85C7F2"/>
<path d="M13 5H12V6H13V5Z" fill="#ACC756"/>
<path d="M11 5H10V6H11V5Z" fill="#85C7F2"/>
<path d="M8 5H7V6H8V5Z" fill="#927BB3"/>
<path d="M7 5H6V6H7V5Z" fill="#ACC756"/>
<path d="M6 5H5V6H6V5Z" fill="#B0392E"/>
<path d="M5 5H3V6H5V5Z" fill="#6F59AB"/>
<path d="M14 4H13V8H14V4Z" fill="#CF8934"/>
<path d="M13 4H12V5H13V4Z" fill="#927BB3"/>
<path d="M12 4H10V5H12V4Z" fill="#6F59AB"/>
<path d="M10 4H8V5H10V4Z" fill="#4FAB59"/>
<path d="M8 4H6V5H8V4Z" fill="#5EB0DB"/>
<path d="M6 4H4V5H6V4Z" fill="#4FAB59"/>
<path d="M14 3H12V4H14V3Z" fill="#C2751D"/>
<path d="M12 3H11V4H12V3Z" fill="#927BB3"/>
<path d="M11 3H10V4H11V3Z" fill="#5EB0DB"/>
<path d="M6 3H4V4H6V3Z" fill="#ACC756"/>
<path d="M4 3H2V4H4V3Z" fill="#C2751D"/>
<path d="M16 2H15V15H16V2Z" fill="#F7FEFF"/>
<path d="M9 2V3H7V2H2V3H6V4H10V3H14V2H9Z" fill="#F5F38E"/>
<path d="M9 2H7V3H9V2Z" fill="#E2B436"/>
<path d="M15 1H14V2H15V1Z" fill="#F7FEFF"/>
<path d="M14 1H2V2H14V1Z" fill="#231E2B"/>
<path d="M2 1H1V2H2V1Z" fill="#F7FEFF"/>
<path d="M14 0H2V1H14V0Z" fill="#F7FEFF"/>
</svg>
