<svg  viewBox="0 0 16 16" fill="none" xmlns="http://www.w3.org/2000/svg">
<path d="M15 15H1V16H15V15Z" fill="#F7FEFF"/>
<path d="M15 2H14V14H2V2H1V15H15V2Z" fill="#231E2B"/>
<path d="M14 13H2V14H14V13Z" fill="#CF8934"/>
<path d="M1 2H0V15H1V2Z" fill="#F7FEFF"/>
<path d="M4 9H2V13H4V9Z" fill="#E2B436"/>
<path d="M9 11H7V12H9V11Z" fill="#522B29"/>
<path d="M9 10V12H7V10H4V13H12V10H9Z" fill="#784028"/>
<path d="M9 10H7V11H9V10Z" fill="#E2B436"/>
<path d="M14 9H12V13H14V9Z" fill="#E2B436"/>
<path d="M12 9H4V10H12V9Z" fill="#522B29"/>
<path d="M14 8H2V9H14V8Z" fill="#F5F38E"/>
<path d="M4 6H2V8H4V6Z" fill="#CF8934"/>
<path d="M14 6H12V8H14V6Z" fill="#CF8934"/>
<path d="M6 6V5H4V8H12V5H10V6H6Z" fill="#231E2B"/>
<path d="M14 5H12V6H14V5Z" fill="#C2751D"/>
<path d="M4 5H2V6H4V5Z" fill="#C2751D"/>
<path d="M14 4H10V5H14V4Z" fill="#F5F38E"/>
<path d="M9 5H7V4H6V6H10V4H9V5Z" fill="#E2B436"/>
<path d="M9 4H7V5H9V4Z" fill="#522B29"/>
<path d="M6 4H2V5H6V4Z" fill="#F5F38E"/>
<path d="M14 3H12V4H14V3Z" fill="#E2B436"/>
<path d="M12 3H10V4H12V3Z" fill="#784028"/>
<path d="M10 3H6V4H10V3Z" fill="#F5F38E"/>
<path d="M6 3H4V4H6V3Z" fill="#784028"/>
<path d="M4 3H2V4H4V3Z" fill="#E2B436"/>
<path d="M16 2H15V15H16V2Z" fill="#F7FEFF"/>
<path d="M14 2H12V3H14V2Z" fill="#F5F38E"/>
<path d="M12 2H4V3H12V2Z" fill="#A6644B"/>
<path d="M4 2H2V3H4V2Z" fill="#F5F38E"/>
<path d="M15 1H14V2H15V1Z" fill="#F7FEFF"/>
<path d="M14 1H2V2H14V1Z" fill="#231E2B"/>
<path d="M2 1H1V2H2V1Z" fill="#F7FEFF"/>
<path d="M14 0H2V1H14V0Z" fill="#F7FEFF"/>
</svg>
