<svg  viewBox="0 0 16 16" fill="none" xmlns="http://www.w3.org/2000/svg">
<path d="M10 15H6V16H10V15Z" fill="#F7FEFF"/>
<path d="M6 12H5V15H6V12Z" fill="#F7FEFF"/>
<path d="M11 12H10V15H11V12Z" fill="#F7FEFF"/>
<path d="M13 11H11V12H13V11Z" fill="#F7FEFF"/>
<path d="M9 11V14H7V11H5V12H6V15H10V12H11V11H9Z" fill="#231E2B"/>
<path d="M5 11H3V12H5V11Z" fill="#F7FEFF"/>
<path d="M14 10H13V11H14V10Z" fill="#F7FEFF"/>
<path d="M13 10H11V11H13V10Z" fill="#231E2B"/>
<path d="M8 10V11H7V14H9V10H8Z" fill="#784028"/>
<path d="M8 10H7V11H8V10Z" fill="#522B29"/>
<path d="M5 10H3V11H5V10Z" fill="#231E2B"/>
<path d="M3 10H2V11H3V10Z" fill="#F7FEFF"/>
<path d="M15 9H14V10H15V9Z" fill="#F7FEFF"/>
<path d="M14 9H13V10H14V9Z" fill="#231E2B"/>
<path d="M10 9H9V10H10V9Z" fill="#784028"/>
<path d="M9 9H8V10H9V9Z" fill="#522B29"/>
<path d="M8 10V9H6V8H3V7H2V9H3V10H5V11H7V10H8Z" fill="#356E69"/>
<path d="M3 9H2V10H3V9Z" fill="#231E2B"/>
<path d="M2 9H1V10H2V9Z" fill="#F7FEFF"/>
<path d="M14 8H13V9H14V8Z" fill="#356E69"/>
<path d="M13 8H12V9H13V8Z" fill="#4FAB59"/>
<path d="M12 7H11V8H9V7H8V6H6V7H7V8H8V9H10V10H9V11H11V10H13V9H12V7Z" fill="#356E69"/>
<path d="M8 8H6V9H8V8Z" fill="#4FAB59"/>
<path d="M2 4H1V9H2V4Z" fill="#231E2B"/>
<path d="M15 4H14V9H15V4Z" fill="#231E2B"/>
<path d="M14 7H12V8H14V7Z" fill="#ACC756"/>
<path d="M7 7H6V8H7V7Z" fill="#ACC756"/>
<path d="M6 7H4V8H6V7Z" fill="#4FAB59"/>
<path d="M4 7H3V8H4V7Z" fill="#ACC756"/>
<path d="M1 4H0V9H1V4Z" fill="#F7FEFF"/>
<path d="M14 6H12V7H14V6Z" fill="#356E69"/>
<path d="M11 6H10V7H11V6Z" fill="#356E69"/>
<path d="M10 5H8V7H9V8H11V7H10V5Z" fill="#4FAB59"/>
<path d="M6 6H4V7H6V6Z" fill="#ACC756"/>
<path d="M4 6H3V7H4V6Z" fill="#356E69"/>
<path d="M3 6H4V5H6V6H7V4H8V3H5V4H3V5H2V7H3V6Z" fill="#4FAB59"/>
<path d="M11 5H10V6H11V5Z" fill="#ACC756"/>
<path d="M8 5H7V6H8V5Z" fill="#ACC756"/>
<path d="M6 5H4V6H6V5Z" fill="#356E69"/>
<path d="M16 4H15V9H16V4Z" fill="#F7FEFF"/>
<path d="M14 4H13V5H14V4Z" fill="#ACC756"/>
<path d="M13 4H11V7H12V6H14V5H13V4Z" fill="#4FAB59"/>
<path d="M11 4H10V5H11V4Z" fill="#356E69"/>
<path d="M10 4H8V5H10V4Z" fill="#ACC756"/>
<path d="M8 4H7V5H8V4Z" fill="#356E69"/>
<path d="M3 4H2V5H3V4Z" fill="#ACC756"/>
<path d="M15 3H14V4H15V3Z" fill="#F7FEFF"/>
<path d="M14 3H13V4H14V3Z" fill="#231E2B"/>
<path d="M13 3H11V4H13V3Z" fill="#ACC756"/>
<path d="M11 3H10V4H11V3Z" fill="#4FAB59"/>
<path d="M10 3H8V4H10V3Z" fill="#356E69"/>
<path d="M5 3H3V4H5V3Z" fill="#ACC756"/>
<path d="M3 3H2V4H3V3Z" fill="#231E2B"/>
<path d="M2 3H1V4H2V3Z" fill="#F7FEFF"/>
<path d="M14 2H13V3H14V2Z" fill="#F7FEFF"/>
<path d="M13 2H11V3H13V2Z" fill="#231E2B"/>
<path d="M11 2H5V3H11V2Z" fill="#ACC756"/>
<path d="M5 2H3V3H5V2Z" fill="#231E2B"/>
<path d="M3 2H2V3H3V2Z" fill="#F7FEFF"/>
<path d="M13 1H11V2H13V1Z" fill="#F7FEFF"/>
<path d="M11 1H5V2H11V1Z" fill="#231E2B"/>
<path d="M5 1H3V2H5V1Z" fill="#F7FEFF"/>
<path d="M11 0H5V1H11V0Z" fill="#F7FEFF"/>
</svg>
