<svg  viewBox="0 0 16 16" fill="none" xmlns="http://www.w3.org/2000/svg">
<path d="M10 15H6V16H10V15Z" fill="#F7FEFF"/>
<path d="M10 11H9V14H7V11H6V15H10V11Z" fill="#231E2B"/>
<path d="M6 11H3V12H5V15H6V11Z" fill="#F7FEFF"/>
<path d="M8 12H7V14H8V12Z" fill="#ACC756"/>
<path d="M10 11V15H11V12H13V11H10Z" fill="#F7FEFF"/>
<path d="M7 11V12H8V14H9V11H7Z" fill="#4FAB59"/>
<path d="M14 10H13V11H14V10Z" fill="#F7FEFF"/>
<path d="M13 10H10V11H13V10Z" fill="#231E2B"/>
<path d="M10 10H8V11H10V10Z" fill="#356E69"/>
<path d="M8 10H7V11H8V10Z" fill="#ACC756"/>
<path d="M7 10H6V11H7V10Z" fill="#356E69"/>
<path d="M6 10H3V11H6V10Z" fill="#231E2B"/>
<path d="M3 10H2V11H3V10Z" fill="#F7FEFF"/>
<path d="M15 9H14V10H15V9Z" fill="#F7FEFF"/>
<path d="M14 9H13V10H14V9Z" fill="#231E2B"/>
<path d="M6 9H5V10H6V9Z" fill="#356E69"/>
<path d="M4 9H3V10H4V9Z" fill="#ACC756"/>
<path d="M3 8H2V10H3V8Z" fill="#231E2B"/>
<path d="M14 8H12V9H14V8Z" fill="#356E69"/>
<path d="M10 8H9V9H10V8Z" fill="#ACC756"/>
<path d="M4 8H3V9H4V8Z" fill="#356E69"/>
<path d="M2 8H1V10H2V8Z" fill="#F7FEFF"/>
<path d="M15 5H14V9H15V5Z" fill="#231E2B"/>
<path d="M12 7H11V8H12V7Z" fill="#ACC756"/>
<path d="M9 7H7V8H9V7Z" fill="#ACC756"/>
<path d="M2 6H1V8H2V6Z" fill="#231E2B"/>
<path d="M13 5H12V4H9V5H10V6H9V5H7V4H9V3H6V4H5V3H4V4H3V5H6V6H5V7H4V6H3V7H2V8H4V10H5V9H6V10H13V9H12V8H11V7H12V8H14V7H13V5ZM10 9H9V8H7V7H9V8H10V9Z" fill="#4FAB59"/>
<path d="M5 6H4V7H5V6Z" fill="#ACC756"/>
<path d="M3 6H2V7H3V6Z" fill="#ACC756"/>
<path d="M1 6H0V8H1V6Z" fill="#F7FEFF"/>
<path d="M16 5H15V9H16V5Z" fill="#F7FEFF"/>
<path d="M14 5H13V7H14V5Z" fill="#ACC756"/>
<path d="M10 5H9V6H10V5Z" fill="#ACC756"/>
<path d="M6 5H5V6H6V5Z" fill="#ACC756"/>
<path d="M5 5H3V6H5V5Z" fill="#356E69"/>
<path d="M2 3H1V6H2V3Z" fill="#F7FEFF"/>
<path d="M15 4H14V5H15V4Z" fill="#F7FEFF"/>
<path d="M14 4H13V5H14V4Z" fill="#231E2B"/>
<path d="M13 4H12V5H13V4Z" fill="#356E69"/>
<path d="M9 4H7V5H9V4Z" fill="#ACC756"/>
<path d="M3 3H2V6H3V3Z" fill="#231E2B"/>
<path d="M14 3H13V4H14V3Z" fill="#F7FEFF"/>
<path d="M13 3H12V4H13V3Z" fill="#231E2B"/>
<path d="M12 3H10V4H12V3Z" fill="#ACC756"/>
<path d="M10 3H9V4H10V3Z" fill="#356E69"/>
<path d="M6 3H5V4H6V3Z" fill="#231E2B"/>
<path d="M4 3H3V4H4V3Z" fill="#ACC756"/>
<path d="M13 2H12V3H13V2Z" fill="#F7FEFF"/>
<path d="M12 2H9V3H12V2Z" fill="#231E2B"/>
<path d="M9 2H7V3H9V2Z" fill="#ACC756"/>
<path d="M7 2H6V3H7V2Z" fill="#231E2B"/>
<path d="M6 2H5V3H6V2Z" fill="#F7FEFF"/>
<path d="M5 2H3V3H5V2Z" fill="#231E2B"/>
<path d="M3 2H2V3H3V2Z" fill="#F7FEFF"/>
<path d="M12 1H9V2H12V1Z" fill="#F7FEFF"/>
<path d="M9 1H7V2H9V1Z" fill="#231E2B"/>
<path d="M7 1H6V2H7V1Z" fill="#F7FEFF"/>
<path d="M5 1H3V2H5V1Z" fill="#F7FEFF"/>
<path d="M9 0H7V1H9V0Z" fill="#F7FEFF"/>
</svg>
