<svg xmlns="http://www.w3.org/2000/svg" viewBox="0 0 112 184"><defs><style>.cls-1{fill:#e0ebe3;}.cls-2{fill:#faa544;}.cls-3{fill:#d46a28;}.cls-4{fill:#a06a4f;}.cls-5{fill:#ffdb96;}.cls-6{fill:#ffdfbf;}</style></defs><title>Asset 6</title><g id="Layer_2" data-name="Layer 2"><g id="coin20"><rect x="32" width="8" height="8"/><rect x="40" width="8" height="8"/><rect x="48" width="8" height="8"/><rect x="56" width="8" height="8"/><rect x="64" width="8" height="8"/><rect x="72" width="8" height="8"/><rect x="72" y="8" width="8" height="8"/><rect x="80" y="8" width="8" height="8"/><rect x="88" y="8" width="8" height="8"/><rect x="88" y="16" width="8" height="8"/><rect x="96" y="16" width="8" height="8"/><rect x="96" y="24" width="8" height="8"/><rect x="96" y="32" width="8" height="8"/><rect x="104" y="32" width="8" height="8"/><rect x="104" y="40" width="8" height="8"/><rect x="104" y="48" width="8" height="8"/><rect x="104" y="56" width="8" height="8"/><rect x="104" y="64" width="8" height="8"/><rect x="104" y="72" width="8" height="8"/><rect x="104" y="80" width="8" height="8"/><rect x="104" y="88" width="8" height="8"/><rect x="96" y="88" width="8" height="8"/><rect x="96" y="96" width="8" height="8"/><rect x="96" y="104" width="8" height="8"/><rect x="88" y="104" width="8" height="8"/><rect x="88" y="112" width="8" height="8"/><rect x="80" y="112" width="8" height="8"/><rect x="72" y="112" width="8" height="8"/><rect x="72" y="120" width="8" height="8"/><rect x="64" y="120" width="8" height="8"/><rect x="56" y="120" width="8" height="8"/><rect x="48" y="120" width="8" height="8"/><rect x="40" y="120" width="8" height="8"/><rect x="32" y="120" width="8" height="8"/><rect x="32" y="112" width="8" height="8"/><rect x="24" y="112" width="8" height="8"/><rect x="16" y="112" width="8" height="8"/><rect x="16" y="104" width="8" height="8"/><rect x="8" y="104" width="8" height="8"/><rect x="8" y="96" width="8" height="8"/><rect x="8" y="88" width="8" height="8"/><rect y="88" width="8" height="8"/><rect y="80" width="8" height="8"/><rect y="72" width="8" height="8"/><rect y="64" width="8" height="8"/><rect y="56" width="8" height="8"/><rect y="48" width="8" height="8"/><rect y="40" width="8" height="8"/><rect y="32" width="8" height="8"/><rect x="8" y="32" width="8" height="8"/><rect x="8" y="24" width="8" height="8"/><rect x="8" y="16" width="8" height="8"/><rect x="16" y="16" width="8" height="8"/><rect x="16" y="8" width="8" height="8"/><rect x="24" y="8" width="8" height="8"/><rect x="32" y="8" width="8" height="8"/><rect x="64" y="24" width="8" height="8"/><rect x="64" y="32" width="8" height="8"/><rect x="64" y="40" width="8" height="8"/><rect x="64" y="48" width="8" height="8"/><rect x="64" y="56" width="8" height="8"/><rect x="64" y="64" width="8" height="8"/><rect x="64" y="72" width="8" height="8"/><rect x="64" y="80" width="8" height="8"/><rect x="64" y="88" width="8" height="8"/><rect x="64" y="96" width="8" height="8"/><rect x="56" y="96" width="8" height="8"/><rect x="48" y="96" width="8" height="8"/><rect x="40" y="96" width="8" height="8"/><rect y="144" width="8" height="8"/><rect x="8" y="144" width="8" height="8"/><rect x="8" y="136" width="8" height="8"/><rect x="16" y="136" width="8" height="8"/><rect x="24" y="136" width="8" height="8"/><rect x="32" y="136" width="8" height="8"/><rect x="32" y="144" width="8" height="8"/><rect x="40" y="144" width="8" height="8"/><rect x="40" y="152" width="8" height="8"/><rect x="32" y="152" width="8" height="8"/><rect x="32" y="160" width="8" height="8"/><rect x="24" y="160" width="8" height="8"/><rect x="16" y="160" width="8" height="8"/><rect x="8" y="160" width="8" height="8"/><rect x="8" y="168" width="8" height="8"/><rect y="168" width="8" height="8"/><rect y="176" width="8" height="8"/><rect x="8" y="176" width="8" height="8"/><rect x="16" y="176" width="8" height="8"/><rect x="24" y="176" width="8" height="8"/><rect x="32" y="176" width="8" height="8"/><rect x="40" y="176" width="8" height="8"/><rect x="64" y="168" width="8" height="8"/><rect x="64" y="160" width="8" height="8"/><rect x="64" y="152" width="8" height="8"/><rect x="64" y="144" width="8" height="8"/><rect x="72" y="144" width="8" height="8"/><rect x="72" y="136" width="8" height="8"/><rect x="80" y="136" width="8" height="8"/><rect x="88" y="136" width="8" height="8"/><rect x="96" y="136" width="8" height="8"/><rect x="96" y="144" width="8" height="8"/><rect x="104" y="144" width="8" height="8"/><rect x="104" y="152" width="8" height="8"/><rect x="104" y="160" width="8" height="8"/><rect x="104" y="168" width="8" height="8"/><rect x="96" y="168" width="8" height="8"/><rect x="96" y="160" width="8" height="8"/><rect x="96" y="152" width="8" height="8"/><rect x="96" y="176" width="8" height="8"/><rect x="88" y="176" width="8" height="8"/><rect x="80" y="176" width="8" height="8"/><rect x="72" y="176" width="8" height="8"/><rect x="72" y="168" width="8" height="8"/><rect x="72" y="160" width="8" height="8"/><rect x="72" y="152" width="8" height="8"/><rect class="cls-1" x="8" y="40" width="8" height="8"/><rect class="cls-1" x="8" y="48" width="8" height="8"/><rect class="cls-1" x="8" y="56" width="8" height="8"/><rect class="cls-1" x="8" y="64" width="8" height="8"/><rect class="cls-1" x="8" y="72" width="8" height="8"/><rect class="cls-1" x="8" y="80" width="8" height="8"/><rect class="cls-2" x="16" y="32" width="8" height="8"/><rect class="cls-2" x="16" y="40" width="8" height="8"/><rect class="cls-2" x="16" y="48" width="8" height="8"/><rect class="cls-2" x="16" y="56" width="8" height="8"/><rect class="cls-2" x="16" y="64" width="8" height="8"/><rect class="cls-2" x="16" y="72" width="8" height="8"/><rect class="cls-2" x="16" y="80" width="8" height="8"/><rect class="cls-2" x="16" y="88" width="8" height="8"/><rect class="cls-2" x="24" y="104" width="8" height="8"/><rect class="cls-2" x="24" y="96" width="8" height="8"/><rect class="cls-2" x="24" y="88" width="8" height="8"/><rect class="cls-2" x="24" y="80" width="8" height="8"/><rect class="cls-2" x="24" y="72" width="8" height="8"/><rect class="cls-2" x="24" y="64" width="8" height="8"/><rect class="cls-2" x="24" y="56" width="8" height="8"/><rect class="cls-2" x="24" y="48" width="8" height="8"/><rect class="cls-2" x="24" y="40" width="8" height="8"/><rect class="cls-2" x="24" y="32" width="8" height="8"/><rect class="cls-2" x="24" y="24" width="8" height="8"/><rect class="cls-2" x="32" y="24" width="8" height="8"/><rect class="cls-2" x="32" y="32" width="8" height="8"/><rect class="cls-2" x="32" y="40" width="8" height="8"/><rect class="cls-2" x="32" y="48" width="8" height="8"/><rect class="cls-2" x="32" y="56" width="8" height="8"/><rect class="cls-2" x="32" y="64" width="8" height="8"/><rect class="cls-2" x="32" y="72" width="8" height="8"/><rect class="cls-2" x="32" y="80" width="8" height="8"/><rect class="cls-2" x="32" y="88" width="8" height="8"/><rect class="cls-2" x="32" y="96" width="8" height="8"/><rect class="cls-2" x="32" y="104" width="8" height="8"/><rect class="cls-2" x="40" y="104" width="8" height="8"/><rect class="cls-2" x="48" y="104" width="8" height="8"/><rect class="cls-2" x="56" y="104" width="8" height="8"/><rect class="cls-2" x="64" y="104" width="8" height="8"/><rect class="cls-2" x="72" y="96" width="8" height="8"/><rect class="cls-2" x="80" y="96" width="8" height="8"/><rect class="cls-2" x="80" y="88" width="8" height="8"/><rect class="cls-2" x="72" y="88" width="8" height="8"/><rect class="cls-2" x="72" y="80" width="8" height="8"/><rect class="cls-2" x="80" y="80" width="8" height="8"/><rect class="cls-2" x="88" y="80" width="8" height="8"/><rect class="cls-2" x="88" y="72" width="8" height="8"/><rect class="cls-2" x="80" y="72" width="8" height="8"/><rect class="cls-2" x="72" y="72" width="8" height="8"/><rect class="cls-2" x="72" y="64" width="8" height="8"/><rect class="cls-2" x="80" y="64" width="8" height="8"/><rect class="cls-2" x="88" y="64" width="8" height="8"/><rect class="cls-2" x="88" y="56" width="8" height="8"/><rect class="cls-2" x="80" y="56" width="8" height="8"/><rect class="cls-2" x="72" y="56" width="8" height="8"/><rect class="cls-2" x="72" y="48" width="8" height="8"/><rect class="cls-2" x="80" y="48" width="8" height="8"/><rect class="cls-2" x="88" y="48" width="8" height="8"/><rect class="cls-2" x="88" y="40" width="8" height="8"/><rect class="cls-2" x="80" y="40" width="8" height="8"/><rect class="cls-2" x="72" y="40" width="8" height="8"/><rect class="cls-2" x="72" y="32" width="8" height="8"/><rect class="cls-2" x="72" y="24" width="8" height="8"/><rect class="cls-2" x="80" y="24" width="8" height="8"/><rect class="cls-2" x="80" y="32" width="8" height="8"/><rect class="cls-2" x="64" y="16" width="8" height="8"/><rect class="cls-2" x="56" y="16" width="8" height="8"/><rect class="cls-2" x="48" y="16" width="8" height="8"/><rect class="cls-2" x="40" y="16" width="8" height="8"/><rect class="cls-2" x="48" y="32" width="8" height="8"/><rect class="cls-2" x="48" y="40" width="8" height="8"/><rect class="cls-2" x="48" y="48" width="8" height="8"/><rect class="cls-2" x="48" y="56" width="8" height="8"/><rect class="cls-2" x="48" y="64" width="8" height="8"/><rect class="cls-2" x="48" y="72" width="8" height="8"/><rect class="cls-2" x="48" y="80" width="8" height="8"/><rect class="cls-2" x="48" y="88" width="8" height="8"/><rect class="cls-2" x="56" y="88" width="8" height="8"/><rect class="cls-2" x="56" y="80" width="8" height="8"/><rect class="cls-2" x="56" y="72" width="8" height="8"/><rect class="cls-2" x="56" y="64" width="8" height="8"/><rect class="cls-2" x="56" y="56" width="8" height="8"/><rect class="cls-2" x="56" y="48" width="8" height="8"/><rect class="cls-2" x="56" y="40" width="8" height="8"/><rect class="cls-2" x="56" y="32" width="8" height="8"/><rect class="cls-3" x="40" y="112" width="8" height="8"/><rect class="cls-3" x="48" y="112" width="8" height="8"/><rect class="cls-3" x="56" y="112" width="8" height="8"/><rect class="cls-3" x="64" y="112" width="8" height="8"/><rect class="cls-3" x="72" y="104" width="8" height="8"/><rect class="cls-3" x="80" y="104" width="8" height="8"/><rect class="cls-3" x="88" y="96" width="8" height="8"/><rect class="cls-3" x="88" y="88" width="8" height="8"/><rect class="cls-3" x="88" y="24" width="8" height="8"/><rect class="cls-3" x="88" y="32" width="8" height="8"/><rect class="cls-4" x="96" y="40" width="8" height="8"/><rect class="cls-4" x="96" y="48" width="8" height="8"/><rect class="cls-4" x="96" y="56" width="8" height="8"/><rect class="cls-4" x="96" y="64" width="8" height="8"/><rect class="cls-4" x="96" y="72" width="8" height="8"/><rect class="cls-4" x="96" y="80" width="8" height="8"/><rect class="cls-5" x="16" y="24" width="8" height="8"/><rect class="cls-5" x="24" y="16" width="8" height="8"/><rect class="cls-5" x="32" y="16" width="8" height="8"/><rect class="cls-5" x="40" y="8" width="8" height="8"/><rect class="cls-5" x="48" y="8" width="8" height="8"/><rect class="cls-5" x="56" y="8" width="8" height="8"/><rect class="cls-5" x="64" y="8" width="8" height="8"/><rect class="cls-5" x="72" y="16" width="8" height="8"/><rect class="cls-5" x="80" y="16" width="8" height="8"/><rect class="cls-5" x="40" y="24" width="8" height="8"/><rect class="cls-5" x="40" y="32" width="8" height="8"/><rect class="cls-5" x="40" y="40" width="8" height="8"/><rect class="cls-5" x="40" y="48" width="8" height="8"/><rect class="cls-5" x="40" y="56" width="8" height="8"/><rect class="cls-5" x="40" y="64" width="8" height="8"/><rect class="cls-5" x="40" y="72" width="8" height="8"/><rect class="cls-5" x="40" y="80" width="8" height="8"/><rect class="cls-5" x="40" y="88" width="8" height="8"/><rect class="cls-5" x="16" y="96" width="8" height="8"/><rect class="cls-6" x="48" y="24" width="8" height="8"/><rect class="cls-6" x="56" y="24" width="8" height="8"/></g></g></svg>