<svg  viewBox="0 0 16 16" fill="none" xmlns="http://www.w3.org/2000/svg">
<path d="M13 15H3V16H13V15Z" fill="#F7FEFF"/>
<path d="M14 13H13V15H14V13Z" fill="#F7FEFF"/>
<path d="M13 13H12V14H11V12H10V14H9V12H7V14H6V12H5V14H4V9H2V10H3V15H13V13Z" fill="#231E2B"/>
<path d="M3 10H2V15H3V10Z" fill="#F7FEFF"/>
<path d="M15 12H14V13H15V12Z" fill="#F7FEFF"/>
<path d="M14 12H13V13H14V12Z" fill="#231E2B"/>
<path d="M12 11H11V9H10V8H9V10H8V12H9V14H10V12H11V14H12V11Z" fill="#F7FEFF"/>
<path d="M8 11H7V12H8V11Z" fill="#E1D1DE"/>
<path d="M6 11V8H5V7H4V6H3V7H2V9H4V14H5V12H6V14H7V11H6Z" fill="#F7FEFF"/>
<path d="M15 9H14V12H15V9Z" fill="#231E2B"/>
<path d="M13 9H12V13H13V12H14V11H13V9Z" fill="#B44BA1"/>
<path d="M8 10H7V11H8V10Z" fill="#A545A4"/>
<path d="M7 10H6V11H7V10Z" fill="#E1D1DE"/>
<path d="M16 9H15V12H16V9Z" fill="#F7FEFF"/>
<path d="M14 9H13V11H14V9Z" fill="#D779A5"/>
<path d="M12 9H11V11H12V9Z" fill="#E1D1DE"/>
<path d="M9 9H8V10H9V9Z" fill="#E1D1DE"/>
<path d="M7 8H6V10H7V8Z" fill="#A545A4"/>
<path d="M2 9H1V10H2V9Z" fill="#F7FEFF"/>
<path d="M15 8H14V9H15V8Z" fill="#F7FEFF"/>
<path d="M14 8H13V9H14V8Z" fill="#231E2B"/>
<path d="M13 8H12V9H13V8Z" fill="#D779A5"/>
<path d="M12 8H11V9H12V8Z" fill="#B44BA1"/>
<path d="M11 8H10V9H11V8Z" fill="#E1D1DE"/>
<path d="M2 5H1V9H2V5Z" fill="#231E2B"/>
<path d="M14 7H13V8H14V7Z" fill="#F7FEFF"/>
<path d="M13 7H9V8H13V7Z" fill="#231E2B"/>
<path d="M9 7H8V8H9V7Z" fill="#D779A5"/>
<path d="M6 7V8H7V10H8V9H9V8H8V7H6Z" fill="#B44BA1"/>
<path d="M6 7H5V8H6V7Z" fill="#E1D1DE"/>
<path d="M1 5H0V9H1V5Z" fill="#F7FEFF"/>
<path d="M9 7H13V6H10V5H9V7Z" fill="#F7FEFF"/>
<path d="M8 5H7V7H8V5Z" fill="#D779A5"/>
<path d="M7 6H6V7H7V6Z" fill="#F7FEFF"/>
<path d="M6 6H5V7H6V6Z" fill="#A545A4"/>
<path d="M5 6H4V7H5V6Z" fill="#E1D1DE"/>
<path d="M3 6H2V7H3V6Z" fill="#A545A4"/>
<path d="M9 5H8V7H9V5Z" fill="#231E2B"/>
<path d="M7 5H5V6H7V5Z" fill="#B44BA1"/>
<path d="M5 5H3V6H5V5Z" fill="#A545A4"/>
<path d="M3 5H2V6H3V5Z" fill="#B44BA1"/>
<path d="M9 4H8V5H9V4Z" fill="#F7FEFF"/>
<path d="M8 4H7V5H8V4Z" fill="#231E2B"/>
<path d="M7 4H5V5H7V4Z" fill="#D779A5"/>
<path d="M5 4H4V5H5V4Z" fill="#E2B436"/>
<path d="M4 4H3V5H4V4Z" fill="#CF8934"/>
<path d="M3 4H2V5H3V4Z" fill="#231E2B"/>
<path d="M2 4H1V5H2V4Z" fill="#F7FEFF"/>
<path d="M8 3H7V4H8V3Z" fill="#F7FEFF"/>
<path d="M7 3H4V4H7V3Z" fill="#231E2B"/>
<path d="M4 3H3V4H4V3Z" fill="#E2B436"/>
<path d="M3 3H2V4H3V3Z" fill="#CF8934"/>
<path d="M2 2H3V1H1V4H2V2Z" fill="#231E2B"/>
<path d="M7 2H4V3H7V2Z" fill="#F7FEFF"/>
<path d="M4 2H3V3H4V2Z" fill="#231E2B"/>
<path d="M3 2H2V3H3V2Z" fill="#E2B436"/>
<path d="M1 1H0V4H1V1Z" fill="#F7FEFF"/>
<path d="M4 1H3V2H4V1Z" fill="#F7FEFF"/>
<path d="M3 0H1V1H3V0Z" fill="#F7FEFF"/>
</svg>
