<svg  viewBox="0 0 16 16" fill="none" xmlns="http://www.w3.org/2000/svg">
<path d="M15 15H1V16H15V15Z" fill="#F7FEFF"/>
<path d="M15 1H1V15H15V1ZM2 14V2H14V14H2Z" fill="#231E2B"/>
<path d="M13 13V11H14V10H12V8H14V7H10V5H14V4H11V2H10V4H6V2H5V4H2V5H4V7H2V8H6V10H2V11H3V13H2V14H14V13H13ZM5 7V5H9V7H5ZM7 8H11V10H7V8ZM4 13V11H8V13H4ZM9 13V11H12V13H9Z" fill="#66151B"/>
<path d="M1 1H0V15H1V1Z" fill="#F7FEFF"/>
<path d="M14 12H13V13H14V12Z" fill="#892727"/>
<path d="M10 12V11H9V13H12V12H10Z" fill="#892727"/>
<path d="M5 12V11H4V13H8V12H5Z" fill="#892727"/>
<path d="M3 12H2V13H3V12Z" fill="#892727"/>
<path d="M14 11H13V12H14V11Z" fill="#B0392E"/>
<path d="M12 11H10V12H12V11Z" fill="#B0392E"/>
<path d="M8 11H5V12H8V11Z" fill="#B0392E"/>
<path d="M3 11H2V12H3V11Z" fill="#B0392E"/>
<path d="M11 10V9H8V8H7V10H11Z" fill="#892727"/>
<path d="M6 10V9H3V8H2V10H6Z" fill="#892727"/>
<path d="M14 8H13V9H14V8Z" fill="#B0392E"/>
<path d="M13 8H12V10H14V9H13V8Z" fill="#892727"/>
<path d="M11 8H8V9H11V8Z" fill="#B0392E"/>
<path d="M6 8H3V9H6V8Z" fill="#B0392E"/>
<path d="M11 6V5H10V7H14V6H11Z" fill="#892727"/>
<path d="M9 7V6H6V5H5V7H9Z" fill="#892727"/>
<path d="M4 6H2V7H4V6Z" fill="#892727"/>
<path d="M14 5H11V6H14V5Z" fill="#B0392E"/>
<path d="M9 5H6V6H9V5Z" fill="#B0392E"/>
<path d="M4 5H2V6H4V5Z" fill="#B0392E"/>
<path d="M11 4H14V3H12V2H11V4Z" fill="#892727"/>
<path d="M6 4H10V3H7V2H6V4Z" fill="#892727"/>
<path d="M5 4V3H3V2H2V4H5Z" fill="#892727"/>
<path d="M14 2H12V3H14V2Z" fill="#B0392E"/>
<path d="M10 2H7V3H10V2Z" fill="#B0392E"/>
<path d="M5 2H3V3H5V2Z" fill="#B0392E"/>
<path d="M16 1H15V15H16V1Z" fill="#F7FEFF"/>
<path d="M15 0H1V1H15V0Z" fill="#F7FEFF"/>
</svg>
