<svg  viewBox="0 0 16 16" fill="none" xmlns="http://www.w3.org/2000/svg">
<path d="M13 15H11V16H13V15Z" fill="#F7FEFF"/>
<path d="M5 15H3V16H5V15Z" fill="#F7FEFF"/>
<path d="M14 14H13V15H14V14Z" fill="#F7FEFF"/>
<path d="M13 14H11V15H13V14Z" fill="#231E2B"/>
<path d="M11 14H10V15H11V14Z" fill="#F7FEFF"/>
<path d="M6 14H5V15H6V14Z" fill="#F7FEFF"/>
<path d="M5 14H3V15H5V14Z" fill="#231E2B"/>
<path d="M3 14H2V15H3V14Z" fill="#F7FEFF"/>
<path d="M15 13H14V14H15V13Z" fill="#F7FEFF"/>
<path d="M14 13H13V14H14V13Z" fill="#231E2B"/>
<path d="M13 13H11V14H13V13Z" fill="#892727"/>
<path d="M11 13H10V14H11V13Z" fill="#231E2B"/>
<path d="M10 13H9V14H10V13Z" fill="#F7FEFF"/>
<path d="M7 13H6V14H7V13Z" fill="#F7FEFF"/>
<path d="M6 13H5V14H6V13Z" fill="#231E2B"/>
<path d="M5 13H3V14H5V13Z" fill="#892727"/>
<path d="M3 13H2V14H3V13Z" fill="#231E2B"/>
<path d="M2 13H1V14H2V13Z" fill="#F7FEFF"/>
<path d="M16 11H15V13H16V11Z" fill="#F7FEFF"/>
<path d="M14 12H13V13H14V12Z" fill="#892727"/>
<path d="M11 12H10V13H11V12Z" fill="#892727"/>
<path d="M10 12H9V13H10V12Z" fill="#231E2B"/>
<path d="M9 12H7V13H9V12Z" fill="#F7FEFF"/>
<path d="M7 12H6V13H7V12Z" fill="#231E2B"/>
<path d="M6 12H5V13H6V12Z" fill="#892727"/>
<path d="M3 12H2V13H3V12Z" fill="#892727"/>
<path d="M2 11H1V13H2V11Z" fill="#231E2B"/>
<path d="M15 11H14V13H15V11Z" fill="#231E2B"/>
<path d="M14 11H13V12H14V11Z" fill="#CF6B55"/>
<path d="M10 11H9V12H10V11Z" fill="#892727"/>
<path d="M9 11H7V12H9V11Z" fill="#231E2B"/>
<path d="M7 11H6V12H7V11Z" fill="#892727"/>
<path d="M3 11H2V12H3V11Z" fill="#CF6B55"/>
<path d="M1 11H0V13H1V11Z" fill="#F7FEFF"/>
<path d="M15 10H14V11H15V10Z" fill="#F7FEFF"/>
<path d="M14 10H13V11H14V10Z" fill="#231E2B"/>
<path d="M13 10H12V11H13V10Z" fill="#CF6B55"/>
<path d="M9 10H7V11H9V10Z" fill="#892727"/>
<path d="M4 10H3V11H4V10Z" fill="#CF6B55"/>
<path d="M3 10H2V11H3V10Z" fill="#231E2B"/>
<path d="M2 10H1V11H2V10Z" fill="#F7FEFF"/>
<path d="M14 9H13V10H14V9Z" fill="#F7FEFF"/>
<path d="M13 9H12V10H13V9Z" fill="#231E2B"/>
<path d="M12 9H11V10H12V9Z" fill="#CF6B55"/>
<path d="M5 9H4V10H5V9Z" fill="#CF6B55"/>
<path d="M4 9H3V10H4V9Z" fill="#231E2B"/>
<path d="M3 9H2V10H3V9Z" fill="#F7FEFF"/>
<path d="M5 7H4V9H5V7Z" fill="#231E2B"/>
<path d="M4 7H3V9H4V7Z" fill="#F7FEFF"/>
<path d="M13 7H12V9H13V7Z" fill="#F7FEFF"/>
<path d="M12 7H11V9H12V7Z" fill="#231E2B"/>
<path d="M11 7H10V8H11V7Z" fill="#892727"/>
<path d="M6 7H5V8H6V7Z" fill="#892727"/>
<path d="M14 6H13V7H14V6Z" fill="#F7FEFF"/>
<path d="M13 6H12V7H13V6Z" fill="#231E2B"/>
<path d="M12 6H11V7H12V6Z" fill="#892727"/>
<path d="M5 6H4V7H5V6Z" fill="#892727"/>
<path d="M4 6H3V7H4V6Z" fill="#231E2B"/>
<path d="M3 6H2V7H3V6Z" fill="#F7FEFF"/>
<path d="M15 5H14V6H15V5Z" fill="#F7FEFF"/>
<path d="M14 5H13V6H14V5Z" fill="#231E2B"/>
<path d="M13 5H12V6H13V5Z" fill="#892727"/>
<path d="M9 5H7V6H9V5Z" fill="#CF6B55"/>
<path d="M4 5H3V6H4V5Z" fill="#892727"/>
<path d="M3 5H2V6H3V5Z" fill="#231E2B"/>
<path d="M2 5H1V6H2V5Z" fill="#F7FEFF"/>
<path d="M14 4H13V5H14V4Z" fill="#892727"/>
<path d="M10 4H9V5H10V4Z" fill="#CF6B55"/>
<path d="M9 4H7V5H9V4Z" fill="#231E2B"/>
<path d="M7 4H6V5H7V4Z" fill="#CF6B55"/>
<path d="M3 4H2V5H3V4Z" fill="#892727"/>
<path d="M2 3H1V5H2V3Z" fill="#231E2B"/>
<path d="M16 3H15V5H16V3Z" fill="#F7FEFF"/>
<path d="M15 3H14V5H15V3Z" fill="#231E2B"/>
<path d="M14 3H13V4H14V3Z" fill="#CF6B55"/>
<path d="M13 3H11V4H10V5H9V6H7V5H6V4H5V3H2V4H3V5H4V6H5V7H6V8H5V10H4V11H3V13H5V12H6V11H7V10H9V11H10V12H11V13H13V11H12V10H11V8H10V7H11V6H12V5H13V3Z" fill="#B0392E"/>
<path d="M11 3H10V4H11V3Z" fill="#CF6B55"/>
<path d="M10 3H9V4H10V3Z" fill="#231E2B"/>
<path d="M9 3H7V4H9V3Z" fill="#F7FEFF"/>
<path d="M7 3H6V4H7V3Z" fill="#231E2B"/>
<path d="M6 3H5V4H6V3Z" fill="#CF6B55"/>
<path d="M1 3H0V5H1V3Z" fill="#F7FEFF"/>
<path d="M15 2H14V3H15V2Z" fill="#F7FEFF"/>
<path d="M14 2H13V3H14V2Z" fill="#231E2B"/>
<path d="M13 2H11V3H13V2Z" fill="#CF6B55"/>
<path d="M11 2H10V3H11V2Z" fill="#231E2B"/>
<path d="M10 2H9V3H10V2Z" fill="#F7FEFF"/>
<path d="M7 2H6V3H7V2Z" fill="#F7FEFF"/>
<path d="M6 2H5V3H6V2Z" fill="#231E2B"/>
<path d="M5 2H3V3H5V2Z" fill="#CF6B55"/>
<path d="M3 2H2V3H3V2Z" fill="#231E2B"/>
<path d="M2 2H1V3H2V2Z" fill="#F7FEFF"/>
<path d="M14 1H13V2H14V1Z" fill="#F7FEFF"/>
<path d="M13 1H11V2H13V1Z" fill="#231E2B"/>
<path d="M11 1H10V2H11V1Z" fill="#F7FEFF"/>
<path d="M6 1H5V2H6V1Z" fill="#F7FEFF"/>
<path d="M5 1H3V2H5V1Z" fill="#231E2B"/>
<path d="M3 1H2V2H3V1Z" fill="#F7FEFF"/>
<path d="M13 0H11V1H13V0Z" fill="#F7FEFF"/>
<path d="M5 0H3V1H5V0Z" fill="#F7FEFF"/>
</svg>
